<svg xmlns="http://www.w3.org/2000/svg" width="72" height="71" viewBox="0 0 72 71" fill="none">
  <path d="M47.006 57.2513C47.2003 57.3121 48.0182 57.5307 48.1365 57.1905C48.0863 57.402 48.1163 57.6247 48.2207 57.8154C48.3251 58.0061 48.4965 58.1513 48.7018 58.2228C49.1086 58.3587 49.5435 58.3881 49.9648 58.308L52.1906 58.0893C53.2232 57.9833 54.3728 57.8222 55.0247 57.0125C55.6765 56.2027 55.5754 55.0164 55.4295 53.9717L55.0826 51.4132C55.0696 51.058 54.9557 50.7139 54.7544 50.4211C54.305 49.8788 53.4522 50.0074 52.7908 50.2307C51.5462 50.6515 50.5124 51.7014 49.1268 51.2591C48.9022 51.1902 48.7135 51.0363 48.6008 50.8302C48.9689 51.6114 49.3013 52.8949 49.0904 53.7735C48.9046 54.5468 47.8437 54.9206 47.2402 55.2753C47.0272 55.397 46.8474 55.5692 46.7168 55.7769C46.5861 55.9846 46.5087 56.2212 46.4913 56.4659C46.4676 56.5516 46.4625 56.6413 46.4763 56.7291C46.4901 56.8168 46.5224 56.9007 46.5711 56.975C46.6198 57.0493 46.6838 57.1124 46.7588 57.16C46.8338 57.2077 46.918 57.2388 47.006 57.2513Z" fill="#FCEEE3"/>
  <path d="M54.4813 54.1581C54.4152 53.1361 54.4586 52.11 54.6106 51.0972C54.1107 51.5244 53.4778 51.7645 52.8204 51.7763C52.1629 51.7881 51.5219 51.5709 51.007 51.1619C50.5053 51.3689 49.958 51.4402 49.42 51.3686C49.3001 51.3652 49.1821 51.3373 49.0734 51.2864C48.9647 51.2355 48.8677 51.1628 48.7883 51.0728C48.6738 50.892 48.6919 50.9393 48.2379 49.0238C47.9231 47.6975 47.602 46.2416 48.1771 45.0075C48.4262 44.489 48.7845 44.0305 49.2276 43.6636C49.6706 43.2967 50.1879 43.0301 50.7438 42.8821C52.5763 42.3769 54.8815 42.5133 56.3795 43.1817C56.9517 43.4979 57.4664 43.9086 57.9018 44.3963C59.6997 46.373 61.3005 49.4933 60.3593 52.1861C60.1235 52.8782 59.6598 53.4698 59.044 53.8642C57.6234 54.5991 54.5622 54.2366 54.4813 54.1581Z" fill="#64BD87"/>
  <path d="M47.2534 45.0525C47.4377 44.7319 47.7204 44.4792 48.0596 44.3318C47.9773 44.2053 47.9319 44.0585 47.9286 43.9077C47.9253 43.7569 47.9642 43.6081 48.0408 43.4782C47.8857 43.5298 47.7423 43.6115 47.6188 43.7186C47.4953 43.8256 47.3941 43.956 47.3209 44.1022C47.2478 44.2484 47.2042 44.4076 47.1926 44.5706C47.181 44.7337 47.2016 44.8974 47.2534 45.0525Z" fill="#FCEEE3"/>
  <path d="M59.6919 50.733C60.1047 50.4985 60.4563 50.1698 60.718 49.7737C60.9797 49.3776 61.1442 48.9253 61.198 48.4536C61.3037 47.5072 61.2545 46.55 61.0525 45.6195C60.7811 43.8986 60.8052 41.8544 59.6919 40.4261C59.0115 39.5517 58.0354 38.9377 57.368 38.0534C57.215 37.8506 57.1535 37.6852 57.02 37.4747C57 37.4212 56.9679 37.373 56.9261 37.3339C56.8844 37.2949 56.8343 37.266 56.7796 37.2495C56.7248 37.233 56.6671 37.2294 56.6107 37.2389C56.5544 37.2484 56.501 37.2708 56.4547 37.3044C55.568 37.6609 54.5639 37.9442 53.669 37.6082C53.7845 37.8157 53.855 38.0451 53.8759 38.2816C53.8968 38.518 53.8678 38.7563 53.7906 38.9808C52.7218 39.0292 51.7662 39.681 51.0133 40.4342C50.2605 41.1874 49.6122 42.0537 48.7876 42.7377C48.5176 42.9234 48.2797 43.1517 48.0831 43.4139C47.9859 43.5462 47.9314 43.7051 47.927 43.8693C47.9227 44.0335 47.9686 44.1951 48.0588 44.3324C47.6539 44.5511 47.16 44.8832 47.2084 45.3527C47.2568 45.8223 47.7104 46.0169 48.1072 46.1625C48.825 46.526 51.9601 47.3312 52.743 47.5633C53.6333 47.8275 54.7875 47.8145 55.5203 47.1584L56.7593 46.025C57.2952 46.7427 57.768 47.5053 58.1724 48.3045C58.3021 48.5271 59.7474 50.6443 59.699 50.7012L59.9862 50.3734L59.6919 50.733Z" fill="#F1AE67"/>
  <path d="M55.2173 37.7608C57.177 37.3973 57.5897 35.6111 58.0514 33.9227C59.1392 30.7632 54.0009 30.3325 52.8891 33.0239C51.3958 35.8153 53.1159 38.1509 55.2173 37.7608Z" fill="#FCEEE3"/>
  <path d="M55.9577 34.2841C55.9427 34.2401 55.9109 34.2039 55.8693 34.1832C55.8277 34.1625 55.7796 34.159 55.7355 34.1735C55.6913 34.188 55.6547 34.2193 55.6334 34.2606C55.6122 34.302 55.6081 34.35 55.6221 34.3943C55.6502 34.4812 55.6966 34.5611 55.7581 34.6286C55.705 34.6598 55.6601 34.7031 55.6271 34.7551C55.594 34.8071 55.5738 34.8661 55.5681 34.9275C55.5624 34.9888 55.5713 35.0506 55.5941 35.1077C55.617 35.1649 55.6531 35.2159 55.6995 35.2564C55.9001 35.3793 56.1382 35.1857 56.2184 35.0536C56.2621 34.9736 56.2876 34.8849 56.2931 34.794C56.2987 34.703 56.2842 34.6119 56.2506 34.5272C56.1828 34.4385 56.0255 34.4915 55.9577 34.2841Z" fill="#052011"/>
  <path d="M42.1878 55.0786C41.6321 52.5395 40.5505 50.1459 39.0132 48.0532C38.4168 47.2253 37.7519 46.4494 37.0256 45.7335C36.096 44.8287 34.7308 43.9551 34.545 42.5486C34.3234 40.8687 36.053 39.8186 37.107 38.8405C40.5176 35.675 41.392 30.7422 41.541 26.2912C41.1574 25.3894 37.152 22.7923 31.5436 22.7519C25.9189 22.7113 21.6074 25.314 21.1949 26.3002C21.3441 30.7414 22.208 35.6827 25.6312 38.8518C26.6829 39.8252 28.4155 40.8801 28.1926 42.5606C28.0077 43.9545 26.6426 44.8315 25.712 45.7455C23.1282 48.2956 21.3347 51.541 20.5479 55.0906C20.2303 56.5046 20.0715 57.9499 20.0743 59.3994C20.1068 59.6296 20.2236 59.8394 20.4019 59.9878C24.4087 64.0573 36.239 64.6049 41.9511 60.304C42.3985 59.9678 42.6582 59.6518 42.6616 59.3872C42.6657 57.9377 42.5068 56.4923 42.1878 55.0786Z" fill="#FCEEE3"/>
  <path d="M42.1777 54.9955C41.6133 52.4539 40.508 50.0584 38.9342 47.9662C38.3252 47.1374 37.6457 46.3608 36.903 45.6449C36.7036 45.455 36.4902 45.2711 36.2642 45.0763C35.4255 44.3533 34.5583 43.6062 34.4144 42.5392C34.2371 41.2252 35.3606 40.2976 36.3519 39.4789C36.5766 39.2933 36.7889 39.1174 36.9829 38.9418C39.8376 36.3474 41.3226 32.2397 41.5229 26.3829C41.5233 26.3674 41.5203 26.3519 41.5142 26.3376C41.0687 25.3148 36.9229 22.7919 31.2575 22.7519C25.6253 22.713 21.1196 25.2303 20.6424 26.3482C20.6364 26.3623 20.6336 26.3776 20.6342 26.3929C20.8349 32.2569 22.3208 36.3662 25.1766 38.9543C25.3686 39.1283 25.5788 39.3018 25.8015 39.4859C26.7961 40.3061 27.923 41.2358 27.7449 42.5521C27.6022 43.605 26.74 44.3524 25.9063 45.0752C25.6762 45.2747 25.4589 45.4633 25.2569 45.6581C22.6138 48.2075 20.7807 51.4556 19.9798 55.0083C19.6541 56.4226 19.4918 57.8685 19.4962 59.3185C19.528 59.5757 19.6583 59.8114 19.8605 59.9777C21.9723 62.078 26.3982 63.2936 30.9825 63.2931C34.9781 63.2931 39.0938 62.3692 41.8972 60.3026C42.4016 59.9311 42.659 59.596 42.6626 59.3068C42.668 57.8563 42.5053 56.4099 42.1777 54.9955ZM42.4451 59.3032C42.4431 59.4544 42.3238 59.7208 41.7662 60.1325C35.8193 64.5163 23.911 63.705 20.0133 59.8284C19.8533 59.699 19.7462 59.5173 19.7116 59.3166C19.7074 57.8824 19.868 56.4524 20.1904 55.0536C20.9822 51.5414 22.7945 48.3304 25.4076 45.8101C25.6061 45.6188 25.8217 45.4327 26.0494 45.236C26.872 44.5221 27.8061 43.713 27.9596 42.5813C28.1545 41.1493 26.9779 40.1798 25.9407 39.3243C25.7199 39.1423 25.5115 38.9705 25.3233 38.7997C22.5163 36.2535 21.0533 32.2012 20.8513 26.4101C21.2819 25.5123 25.5489 22.9259 31.2562 22.9652C36.8413 23.0045 40.8724 25.5098 41.3057 26.4012C41.1044 32.1853 39.6421 36.2362 36.8361 38.7863C36.646 38.9592 36.4354 39.1329 36.2129 39.318C35.179 40.1715 34.0072 41.1393 34.1996 42.5687C34.3542 43.7151 35.2931 44.524 36.1211 45.2379C36.3451 45.4308 36.5566 45.613 36.7519 45.7993C37.486 46.5069 38.1576 47.2744 38.7595 48.0936C40.3152 50.1618 41.4079 52.5299 41.966 55.0423C42.2896 56.4403 42.4503 57.8698 42.4453 59.3034L42.4451 59.3032Z" fill="#052011"/>
  <path d="M37.3446 48.928C38.6007 50.6585 39.4886 52.6322 39.9526 54.7252C40.2151 55.8915 40.3463 57.084 40.3438 58.2799C40.3366 58.8712 38.7807 59.772 36.8427 60.475C33.9423 61.5274 30.8422 61.9296 27.5344 61.143C24.7191 60.4728 21.8197 59.0877 21.8106 58.2799C21.8079 57.0841 21.9382 55.8917 22.1992 54.7252C22.7888 51.9962 24.1082 49.4823 26.0142 47.4565C26.4302 47.057 26.9278 46.7542 27.4721 46.5691C29.8257 45.6024 32.4276 45.7612 34.7567 46.7212C35.2656 46.9311 35.8311 47.1328 36.2147 47.5326C36.6241 47.9698 37.0017 48.4361 37.3446 48.928Z" fill="#F1AE67"/>
  <path d="M21.6635 58.88C21.3838 58.6402 21.2387 58.4187 21.2324 58.2218C21.27 53.9024 22.8251 50.3018 25.5477 47.466C25.9848 47.0599 26.5072 46.7516 27.0785 46.5625C29.5146 45.594 32.2216 45.776 34.582 46.7149C35.1225 46.9302 35.6946 47.1371 36.104 47.5382C36.525 47.9737 36.9137 48.4379 37.2672 48.9274C39.3398 51.6634 40.3125 54.8272 40.3449 58.2169C40.338 58.4185 40.1923 58.6391 39.9125 58.8804C39.2105 59.481 37.6012 60.2183 35.8264 60.7625C33.6033 61.4439 30.8267 61.8475 27.9137 61.2997C25.435 60.8345 22.6738 59.7461 21.6635 58.88ZM27.1549 46.7603C26.613 46.9389 26.1173 47.2304 25.7023 47.6146C22.922 50.5123 21.4865 54.1032 21.4497 58.2195C21.4525 58.3088 21.5172 58.4728 21.8073 58.7214C22.7802 59.555 25.5377 60.6572 28.0192 61.1106C30.5918 61.5424 33.2333 61.3598 35.7179 60.5782C38.0574 59.8675 40.1091 58.8158 40.1298 58.215C40.1468 54.9228 39.0827 51.712 37.0936 49.0536C36.7433 48.5742 36.3612 48.1176 35.9499 47.6868C35.5994 47.3425 35.0983 47.1462 34.6138 46.9558C32.1658 45.9928 29.6072 45.7853 27.1538 46.7603H27.1549Z" fill="#052011"/>
  <path d="M25.5069 32.3122C26.742 31.7188 28.193 31.5932 29.5413 31.4865C30.6042 31.4024 31.5328 31.3802 33.6385 31.8536C34.8133 32.118 36.4444 32.4746 37.2084 33.5226C37.823 34.3654 37.1219 35.3567 36.6788 36.1182C36.1789 36.9778 35.5796 37.7731 34.8937 38.4871C31.9642 41.5346 29.7308 41.3391 26.6823 38.534C25.9906 37.9032 25.3976 37.1683 24.924 36.3548C23.8851 34.5521 23.6595 33.1999 25.5069 32.3122Z" fill="#F1AE67"/>
  <path d="M26.7853 38.5574C26.0656 37.9349 25.4496 37.2081 24.9591 36.4027C23.8587 34.5732 23.6459 33.2017 25.6047 32.3021C26.92 31.703 28.4537 31.5661 29.7887 31.4849C30.3064 31.4386 30.8268 31.4273 31.3461 31.4511C32.2483 31.5232 33.1443 31.6552 34.0279 31.8462C35.2669 32.1084 36.9509 32.4647 37.7582 33.5176C38.3756 34.324 37.8061 35.234 37.3484 35.9651C36.8022 36.8899 36.1379 37.744 35.3711 38.5073C32.4033 41.4381 30.0159 41.4219 26.7853 38.5574ZM25.146 36.2961C25.6255 37.0828 26.2274 37.7929 26.9306 38.4011C29.9977 41.121 32.2596 41.28 35.2155 38.3603C35.9695 37.6075 36.6235 36.7662 37.1622 35.856C37.6082 35.1435 38.1137 34.3358 37.5832 33.6431C36.8245 32.6533 35.1862 32.3067 33.99 32.0538C33.1141 31.8641 32.2258 31.7329 31.3313 31.6609C30.8224 31.6378 30.3123 31.649 29.805 31.6946C28.4873 31.7747 26.9776 31.9091 25.6971 32.4924C23.8629 33.3346 24.1141 34.5806 25.146 36.2961Z" fill="#052011"/>
  <path d="M30.6085 44.7074C30.6702 44.7565 30.7428 44.7718 30.8121 44.7504C30.8815 44.729 30.9427 44.6723 30.9837 44.5915C31.3019 43.9483 30.7138 43.0973 30.8158 42.4432C30.5879 43.8726 30.3588 44.4615 30.6085 44.7074Z" fill="#F1AE67"/>
  <path d="M31.0134 44.7598C30.9151 44.7598 30.8184 44.7395 30.7326 44.7007C30.3934 44.5082 30.5134 44.1014 30.5542 43.968C30.7814 43.2236 30.8918 42.9248 31.0049 42.5146C31.0125 42.4907 31.0313 42.4702 31.0574 42.4573C31.0834 42.4444 31.1146 42.4401 31.1445 42.4454C31.1743 42.4507 31.2004 42.4651 31.2173 42.4857C31.2342 42.5062 31.2406 42.5312 31.235 42.5554C31.1299 42.9459 31.6012 43.5439 31.6481 43.9868C31.7096 44.3278 31.4939 44.7598 31.0134 44.7598ZM30.7831 44.013C30.6994 44.2915 30.7248 44.4641 30.8583 44.5401C30.931 44.5705 31.015 44.5787 31.0946 44.5631C31.1743 44.5475 31.2442 44.5092 31.2916 44.4553C31.6125 44.0638 31.2537 43.5887 31.0735 43.0985C31.0351 43.2207 30.839 43.8279 30.7831 44.013Z" fill="#052011"/>
  <path d="M26.7182 48.2979C26.4217 48.217 26.1465 48.0832 25.9093 47.9046C25.8977 47.8965 25.888 47.8863 25.8809 47.8748C25.8738 47.8632 25.8693 47.8505 25.8678 47.8374C25.8663 47.8243 25.8677 47.8111 25.872 47.7985C25.8763 47.7859 25.8834 47.7741 25.8928 47.764C25.9023 47.7539 25.9139 47.7456 25.927 47.7396C25.9402 47.7336 25.9545 47.7301 25.9692 47.7291C25.9839 47.7282 25.9986 47.7299 26.0125 47.7342C26.0265 47.7384 26.0393 47.7452 26.0503 47.754C26.2664 47.9164 26.5171 48.038 26.7872 48.1114C28.9357 48.7997 31.3008 48.6636 33.5376 48.4145C34.3156 48.3285 35.0935 48.1818 35.5157 47.6946C35.5244 47.6842 35.5354 47.6755 35.548 47.669C35.5605 47.6624 35.5744 47.6582 35.5888 47.6565C35.6032 47.6548 35.6179 47.6557 35.6319 47.6591C35.6459 47.6625 35.659 47.6683 35.6705 47.6763C35.682 47.6843 35.6916 47.6942 35.6988 47.7055C35.7059 47.7168 35.7105 47.7293 35.7122 47.7422C35.714 47.7551 35.7128 47.7682 35.7089 47.7807C35.7049 47.7932 35.6982 47.8049 35.6892 47.8151C35.2181 48.3592 34.3896 48.5185 33.5646 48.6095C31.2674 48.8653 28.8902 48.9937 26.7182 48.2979Z" fill="#052011"/>
  <path d="M52.9654 34.3905C53.4077 34.2857 53.8428 34.1527 54.268 33.9923C54.3136 33.9746 54.3387 33.9531 54.3411 33.9414C54.3501 33.7892 54.3501 33.6365 54.3411 33.4843C54.3383 33.4374 54.3542 33.3913 54.3853 33.3562C54.4164 33.321 54.4602 33.2997 54.507 33.2968C54.5539 33.294 54.5999 33.3098 54.6351 33.341C54.6702 33.3721 54.6916 33.4159 54.6944 33.4627C54.705 33.6331 54.705 33.8039 54.6944 33.9743C54.6838 34.055 54.6499 34.1308 54.5969 34.1926C54.5439 34.2544 54.474 34.2995 54.3959 34.3223C53.9561 34.4881 53.5061 34.6258 53.0488 34.7346C53.0032 34.7456 52.955 34.7381 52.9149 34.7136C52.8748 34.6892 52.8461 34.6498 52.8351 34.6042C52.824 34.5586 52.8315 34.5104 52.856 34.4703C52.8804 34.4302 52.9198 34.4015 52.9654 34.3905Z" fill="#052011"/>
  <path d="M54.3688 36.7798C54.3437 36.7798 54.319 36.7744 54.2961 36.764C54.2733 36.7537 54.2529 36.7386 54.2363 36.7197C54.0338 36.4909 53.7599 36.3371 53.4591 36.2831C53.4141 36.2737 53.3744 36.2472 53.3487 36.2091C53.3229 36.171 53.313 36.1243 53.3211 36.079C53.3292 36.0337 53.3547 35.9934 53.392 35.9666C53.4294 35.9398 53.4758 35.9286 53.5213 35.9354C53.9007 36.0034 54.246 36.1975 54.5013 36.4862C54.5238 36.5117 54.5385 36.5432 54.5436 36.5768C54.5487 36.6104 54.5439 36.6448 54.5299 36.6758C54.5159 36.7068 54.4933 36.7331 54.4647 36.7516C54.4361 36.77 54.4028 36.7798 54.3688 36.7798Z" fill="#052011"/>
  <path d="M54.1405 44.482C54.1293 44.5009 54.1119 44.5153 54.0911 44.5226C54.0704 44.53 54.0478 44.5299 54.0271 44.5222C53.6491 44.2495 53.842 43.1444 54.7316 42.9837C54.9324 42.9678 55.1342 42.9678 55.335 42.9837C55.3223 42.9331 55.4138 42.9123 54.1405 44.482Z" fill="#FCEEE3"/>
  <path d="M66.055 50.1091C65.4949 49.6904 64.8316 49.4316 64.1359 49.3605C63.148 49.1687 62.1324 49.1687 61.1446 49.3605C61.2632 49.0809 61.3411 48.7857 61.376 48.484C61.4829 47.522 61.4334 46.5491 61.2293 45.6029L60.7602 42.6399C60.7771 42.6163 60.793 42.5927 60.8079 42.5692C60.8986 42.4467 60.9563 42.303 60.9756 42.1518C60.9948 42.0006 60.9749 41.847 60.9177 41.7057C60.7128 41.2878 60.2069 41.256 60.8135 40.7702C61.5289 40.1975 61.6014 39.5517 60.8542 39.0822C60.5009 38.76 60.8962 38.7102 61.1124 38.4233C61.2246 38.2578 61.2867 38.0634 61.291 37.8634C61.2953 37.6635 61.2418 37.4665 61.1368 37.2963C61.0792 36.8282 61.3608 36.7021 61.6385 35.5164C61.8579 34.2977 61.6286 33.0407 60.993 31.9779C59.5745 29.9507 57.8166 29.3416 55.777 29.425C54.8734 29.4908 54.006 29.8072 53.2722 30.3387C52.5385 30.8703 51.9675 31.5958 51.6233 32.434C51.5093 32.8458 51.4554 33.2719 51.4633 33.6991C51.4851 34.185 51.4064 34.6702 51.2323 35.1243C51.0514 35.627 50.9341 36.0146 51.1987 36.4922C51.4001 36.7968 51.7587 36.9727 51.7728 37.2133C51.7711 37.3093 51.7553 37.4045 51.7258 37.4959C51.6755 37.6496 51.6584 37.8121 51.6756 37.9729C51.8007 38.5448 52.3116 38.7773 52.892 38.8236C53.3757 38.8618 52.9902 38.7607 52.1116 39.2514C51.4027 39.7588 50.7616 40.3547 50.2038 41.0246C49.7392 41.5238 49.2595 42.0396 48.7984 42.5791C48.6159 42.6286 48.4451 42.7142 48.2962 42.8309C48.1474 42.9476 48.0234 43.093 47.9318 43.2585C47.2083 43.3772 46.7462 44.5628 47.0443 45.1479C47.0473 45.3772 47.1112 45.6016 47.2296 45.798C47.3479 45.9945 47.5164 46.1559 47.7177 46.2657C47.8338 47.7649 48.0996 49.2487 48.5112 50.6949C48.4718 50.7165 48.4421 50.7523 48.4282 50.7951C48.4143 50.8378 48.4172 50.8842 48.4363 50.9249C48.8168 51.7322 49.1033 52.9623 48.9143 53.7512C48.756 54.4083 47.8089 54.7525 47.1478 55.1404C46.9121 55.2731 46.7125 55.4617 46.5667 55.6896C46.421 55.9176 46.3335 56.1778 46.312 56.4475C46.2747 56.6109 46.2794 56.7811 46.3257 56.9422C46.385 57.0667 46.4718 57.1761 46.5795 57.2621C46.6873 57.3481 46.8133 57.4084 46.9479 57.4385C47.2678 57.5441 47.6077 57.5749 47.9413 57.5286C47.9265 57.6718 47.9569 57.8161 48.0283 57.9412C48.0998 58.0662 48.2086 58.1657 48.3395 58.2257C49.068 58.5991 53.2411 59.288 60.2059 56.3801C61.5568 55.8137 68.6704 52.4511 66.055 50.1091ZM54.1201 32.683C54.2381 33.5429 54.5906 34.028 55.2184 34.2022C55.2505 34.211 55.2845 34.2106 55.3164 34.201C55.3482 34.1914 55.3767 34.173 55.3986 34.1479C55.4205 34.1228 55.4348 34.092 55.4399 34.0591C55.445 34.0262 55.4408 33.9925 55.4276 33.962C55.3723 33.8567 55.3505 33.737 55.3651 33.619C55.3798 33.5009 55.4302 33.3902 55.5096 33.3016C55.7547 33.7161 56.0066 34.2393 56.3716 34.9028C56.5543 35.2359 56.708 35.5841 56.8309 35.9436C57.0015 36.4417 56.4776 37.1024 56.0183 37.3486C55.6844 37.5248 55.3161 37.6262 54.9391 37.6457C54.562 37.6652 54.1853 37.6024 53.8349 37.4617C51.9381 36.4315 52.1356 33.7192 54.1201 32.683ZM56.4896 39.4055C56.494 39.5116 56.5179 39.6161 56.5602 39.7135C56.1347 39.7878 55.703 39.8207 55.2711 39.8118C55.0869 39.8285 54.9013 39.8178 54.7203 39.78C54.3504 39.6969 53.7802 39.0925 54.0798 38.8077C54.1022 38.7918 54.1231 38.774 54.1423 38.7544C54.2068 38.719 54.2583 38.6639 54.2893 38.5971C54.3953 38.3852 54.2268 38.1933 54.1861 38.1082C54.1714 38.0717 54.1664 38.0319 54.1717 37.9929C54.177 37.9539 54.1923 37.9169 54.2162 37.8856C54.8644 38.0196 55.5392 37.9231 56.1239 37.6129C56.1624 37.946 56.4574 38.1499 56.6344 38.3046C56.3565 38.4692 56.0444 38.5677 55.7223 38.5926C55.4003 38.6174 55.0768 38.568 54.7768 38.448C54.7555 38.4388 54.7326 38.4338 54.7094 38.4334C54.6862 38.4329 54.6631 38.4371 54.6415 38.4456C54.6198 38.4541 54.6001 38.4667 54.5834 38.4829C54.5667 38.499 54.5533 38.5183 54.544 38.5395C54.5347 38.5608 54.5297 38.5838 54.5293 38.607C54.5289 38.6302 54.533 38.6533 54.5415 38.6749C54.55 38.6965 54.5627 38.7163 54.5788 38.733C54.595 38.7497 54.6142 38.7631 54.6355 38.7724C54.9936 38.916 55.3803 38.9744 55.7649 38.9429C56.1494 38.9114 56.5214 38.7908 56.8514 38.5908C56.8839 38.7014 56.821 38.76 56.7334 38.8526C56.6548 38.9213 56.5923 39.0065 56.5502 39.102C56.5081 39.1975 56.4874 39.3011 56.4896 39.4055ZM49.115 42.8808C50.7426 42.7703 52.3776 42.8754 53.9777 43.1935C53.8567 43.3705 53.7753 43.5716 53.7391 43.783C53.7029 43.9944 53.7127 44.2111 53.7678 44.4183C48.0032 44.1957 48.4165 44.1989 48.1417 44.2339C48.0998 44.0798 48.0929 43.9183 48.1214 43.7612C48.1498 43.6041 48.213 43.4553 48.3062 43.3257C48.3995 43.196 48.5204 43.0888 48.6603 43.0119C48.8003 42.9349 48.9556 42.8901 49.115 42.8808ZM47.3213 44.5872C47.3331 44.4163 47.3799 44.2497 47.4589 44.0977C47.538 43.9458 47.6475 43.8117 47.7806 43.704C47.7455 43.9018 47.7507 44.1046 47.7958 44.3003C47.6153 44.3529 47.4517 44.4518 47.3213 44.5872ZM47.4146 45.086C47.4556 44.9755 47.5229 44.8765 47.6106 44.7976C47.6982 44.7187 47.8037 44.6623 47.918 44.6331C48.3533 44.5271 48.1279 44.5536 53.7533 44.7706C53.9206 44.7901 54.09 44.7628 54.2427 44.6918C54.438 44.5674 54.2582 44.7755 56.9672 41.0306C56.9808 41.0118 56.9906 40.9905 56.9959 40.9679C57.0013 40.9453 57.0022 40.9219 56.9985 40.899C56.9948 40.8761 56.9866 40.8541 56.9744 40.8344C56.9623 40.8146 56.9463 40.7974 56.9275 40.7838C56.9087 40.7702 56.8874 40.7605 56.8648 40.7551C56.8422 40.7498 56.8188 40.7489 56.7959 40.7526C56.773 40.7563 56.751 40.7645 56.7312 40.7766C56.7115 40.7888 56.6943 40.8048 56.6807 40.8236L55.258 42.7893C55.0832 42.7791 54.9079 42.781 54.7334 42.7949C54.5849 42.7964 54.4388 42.8327 54.3069 42.9009C53.6979 42.7709 53.084 42.6714 52.4652 42.6024C52.5688 42.2389 52.6913 41.8774 52.8302 41.527C52.8475 41.4834 52.8467 41.4348 52.8282 41.3917C52.8096 41.3487 52.7747 41.3148 52.7311 41.2975C52.7095 41.289 52.6865 41.2847 52.6633 41.2851C52.6401 41.2854 52.6171 41.2903 52.5958 41.2995C52.5528 41.3181 52.5189 41.353 52.5016 41.3966C52.3504 41.7793 52.2192 42.1696 52.1088 42.566C51.1832 42.4802 50.2526 42.4628 49.3245 42.5141C49.7011 42.0855 50.0876 41.6701 50.4635 41.2655C50.9998 40.6185 51.6165 40.0425 52.2985 39.5514C52.7175 39.3177 53.1733 39.1572 53.6463 39.0769C53.7053 39.324 53.8286 39.5511 54.0037 39.7351C54.1788 39.9191 54.3994 40.0536 54.6433 40.1248C54.7958 40.1575 54.9515 40.1734 55.1075 40.1721C55.6731 40.1851 56.2385 40.1377 56.7941 40.0308C56.9849 40.1956 57.2124 40.3121 57.4576 40.3707C57.5834 40.4017 57.6145 40.4413 57.6194 40.4268C57.6132 40.461 57.602 40.4941 57.5862 40.525C57.5547 40.6316 57.5542 40.745 57.5848 40.8518C57.6153 40.9586 57.6756 41.0546 57.7586 41.1285C57.9511 41.2585 58.1765 41.331 58.4087 41.3376C58.5517 41.3627 58.6998 41.4436 58.7012 41.5114C58.6839 41.6612 58.6517 41.7146 58.6461 41.781C58.6327 41.9258 58.6703 42.0707 58.7524 42.1907C58.8345 42.3107 58.956 42.3982 59.0958 42.4381C58.1112 44.1678 56.8517 45.7258 55.3668 47.051C55.2007 47.2167 55.0027 47.347 54.7848 47.4341C54.567 47.5212 54.3338 47.5634 54.0992 47.558C53.4359 47.542 52.7769 47.4458 52.1367 47.2715C51.1344 47.0284 50.1286 46.7257 49.1549 46.4342C48.7358 46.332 48.3292 46.1836 47.9428 45.9919C47.6153 45.7944 47.31 45.4245 47.416 45.086H47.4146ZM54.7489 43.1475C54.8346 43.1409 54.9205 43.1373 55.0065 43.1366C54.7313 43.5563 54.434 43.9612 54.1158 44.3494C53.9681 43.8474 54.1844 43.1542 54.7489 43.1475ZM54.3423 47.9007C54.2882 48.8737 54.2469 49.9307 54.2165 51.1245C54.1462 51.2554 54.0343 51.3592 53.8985 51.4195C53.3077 51.6635 52.6547 51.7136 52.0335 51.5626C51.739 51.5193 51.4617 51.3972 51.2308 51.2093C50.9941 49.9109 50.8464 48.5978 50.7889 47.2793C51.2093 47.3973 51.6304 47.5096 52.0491 47.611C52.795 47.8202 53.5678 47.9178 54.3423 47.9007ZM48.0872 46.4487C48.3419 46.5563 48.6039 46.6455 48.8712 46.7158C49.3902 46.8571 49.9085 47.0277 50.4317 47.1782C50.48 48.3978 50.6045 49.6131 50.8044 50.8171C50.7747 50.8356 50.7512 50.8625 50.7368 50.8944C50.7223 50.9263 50.7177 50.9617 50.7235 50.9963L50.7415 51.0984C50.2348 51.2743 49.6842 51.2781 49.175 51.1093C49.1095 51.0893 49.047 51.0601 48.9896 51.0228C48.5175 49.5369 48.2148 48.0025 48.0872 46.4487ZM47.9791 57.1661C47.6662 57.2229 47.344 57.1995 47.0426 57.0983C46.9611 57.0813 46.8844 57.0465 46.8178 56.9965C46.7513 56.9465 46.6965 56.8825 46.6575 56.809C46.6401 56.7054 46.6428 56.5995 46.6653 56.497C46.6804 56.2804 46.7492 56.0709 46.8654 55.8875C46.9816 55.704 47.1415 55.5523 47.3309 55.446C48.0321 55.0337 49.0602 54.6645 49.2598 53.8346C49.3867 53.0257 49.3033 52.1978 49.0178 51.4305C49.5948 51.6311 50.2215 51.6384 50.803 51.4513C50.886 51.9233 50.9585 52.4094 51.0016 52.8938C51.0369 53.3068 51.2559 53.9438 51.0927 54.349C50.8675 54.7889 50.4893 55.1312 50.0293 55.3117C49.4577 55.5979 48.7871 55.8187 48.3505 56.3599C48.1631 56.5947 48.0354 56.8713 47.9781 57.1661H47.9791ZM54.0724 56.3136C53.9445 56.5367 53.7543 56.7176 53.5251 56.834C52.745 57.3194 51.8931 57.6783 51.0008 57.8975C50.1194 58.1179 49.2072 58.2719 48.496 57.9077C48.4408 57.8835 48.3923 57.8463 48.3547 57.7992C48.2962 57.5895 48.2904 57.3685 48.3378 57.1559C48.3852 56.9434 48.4843 56.7458 48.6264 56.5807C49.0044 56.1119 49.653 55.8978 50.1734 55.6339C50.7121 55.4189 51.1533 55.0139 51.4135 54.4956C51.5306 54.0891 51.5314 53.6579 51.416 53.251C51.3047 52.6422 51.3524 52.5624 51.1909 51.6202C51.4283 51.7654 51.6915 51.8634 51.966 51.9088C52.6563 52.0743 53.3812 52.0167 54.0367 51.7445C54.1668 51.6867 54.2835 51.6025 54.3794 51.4972C54.2311 52.8878 54.1559 54.2852 54.154 55.6837C54.1701 55.8972 54.1419 56.1116 54.0713 56.3136H54.0724ZM60.2122 52.1095C59.9943 52.7604 59.5595 53.3169 58.9806 53.6859C58.4847 53.9423 57.9393 54.0887 57.3816 54.1151C56.4316 54.1827 55.4768 54.1009 54.5521 53.8728C54.5956 52.9457 54.6708 52.0226 54.7768 51.1171C54.8023 51.0197 54.7997 50.917 54.7694 50.821C54.7529 50.7809 54.7277 50.745 54.6956 50.7158C54.6636 50.6866 54.6254 50.6648 54.5839 50.6522C54.6136 49.6212 54.6521 48.6939 54.7012 47.8322C55.0452 47.7374 55.3586 47.5548 55.6106 47.3022C55.9874 46.9659 56.3486 46.616 56.6941 46.2526C57.6565 47.6118 58.5379 49.0266 59.3336 50.4896C59.5745 50.9348 59.5735 51.0503 60.0829 51.1874C60.1282 51.1995 60.1764 51.1932 60.217 51.1698C60.2576 51.1463 60.2872 51.1078 60.2993 51.0625C60.3114 51.0172 60.3051 50.969 60.2817 50.9284C60.2583 50.8879 60.2197 50.8582 60.1744 50.8461C60.1037 50.8293 60.0342 50.8078 59.9663 50.7818C60.1738 50.6439 60.3645 50.4822 60.5344 50.2999C60.5119 50.9154 60.4031 51.5246 60.2112 52.1098L60.2122 52.1095ZM61.0248 48.4451C60.9759 48.8626 60.8354 49.2642 60.6134 49.6211C60.3913 49.978 60.0932 50.2815 59.7402 50.5098C58.9028 48.9463 57.9672 47.4374 56.939 45.9922C57.8172 45.0337 58.593 43.9862 59.2537 42.8667C59.2474 42.9423 59.2695 43.0176 59.3157 43.0778C59.3619 43.138 59.4288 43.1789 59.5035 43.1924C59.6689 43.2319 59.8414 43.2312 60.0065 43.1903C60.1715 43.1493 60.3244 43.0694 60.4521 42.9571L60.8817 45.6686C61.0792 46.5804 61.1276 47.5182 61.0251 48.4455L61.0248 48.4451Z" fill="#052011"/>
  <path d="M51.5957 34.4086C51.5957 34.6366 51.6863 34.8553 51.8476 35.0166C52.0088 35.1779 52.2275 35.2685 52.4556 35.2685C52.6837 35.2685 52.9024 35.1779 53.0637 35.0166C53.2249 34.8553 53.3155 34.6366 53.3155 34.4086C53.3155 34.1805 53.2249 33.9618 53.0637 33.8005C52.9024 33.6392 52.6837 33.5486 52.4556 33.5486C52.2275 33.5486 52.0088 33.6392 51.8476 33.8005C51.6863 33.9618 51.5957 34.1805 51.5957 34.4086Z" fill="#FCEEE3"/>
  <path d="M55.1387 36.1075C55.1387 36.3727 55.244 36.627 55.4315 36.8145C55.619 37.002 55.8733 37.1074 56.1385 37.1074C56.4037 37.1074 56.658 37.002 56.8455 36.8145C57.033 36.627 57.1383 36.3727 57.1383 36.1075C57.1383 35.8424 57.033 35.5881 56.8455 35.4006C56.658 35.2131 56.4037 35.1077 56.1385 35.1077C55.8733 35.1077 55.619 35.2131 55.4315 35.4006C55.244 35.5881 55.1387 35.8424 55.1387 36.1075Z" fill="#FCEEE3"/>
  <path d="M53.6253 33.1788C53.6103 33.1348 53.5785 33.0985 53.5369 33.0778C53.4953 33.0571 53.4472 33.0536 53.4031 33.0681C53.3589 33.0826 53.3223 33.114 53.3011 33.1553C53.2798 33.1966 53.2758 33.2447 53.2897 33.289C53.3178 33.376 53.3643 33.4559 53.4261 33.5232C53.373 33.5544 53.3281 33.5978 53.295 33.6498C53.262 33.7017 53.2418 33.7608 53.2361 33.8221C53.2303 33.8834 53.2393 33.9452 53.2621 34.0024C53.2849 34.0596 53.321 34.1105 53.3674 34.151C53.5677 34.274 53.8059 34.0804 53.8861 33.9479C53.9297 33.8679 53.9552 33.7794 53.9608 33.6885C53.9664 33.5976 53.952 33.5065 53.9186 33.4218C53.8504 33.3332 53.6932 33.3858 53.6253 33.1788Z" fill="#052011"/>
</svg>