<svg width="25" height="24" viewBox="0 0 25 24" fill="none" xmlns="http://www.w3.org/2000/svg">
<path d="M0.5 12C0.5 18.6274 5.87258 24 12.5 24C19.1274 24 24.5 18.6274 24.5 12C24.5 5.37258 19.1274 0 12.5 0C5.87258 0 0.5 5.37258 0.5 12Z" fill="#1DA1F2"/>
<path d="M18.5 8.25C18.05 8.475 17.6 8.55 17.075 8.625C17.6 8.325 17.975 7.875 18.125 7.275C17.675 7.575 17.15 7.725 16.55 7.875C16.1 7.425 15.425 7.125 14.75 7.125C13.175 7.125 11.975 8.625 12.35 10.125C10.325 10.05 8.525 9.075 7.25 7.575C6.575 8.7 6.95 10.125 8 10.875C7.625 10.875 7.25 10.725 6.875 10.575C6.875 11.7 7.7 12.75 8.825 13.05C8.45 13.125 8.075 13.2 7.7 13.125C8 14.1 8.9 14.85 10.025 14.85C9.125 15.525 7.775 15.9 6.5 15.75C7.625 16.425 8.9 16.875 10.25 16.875C14.825 16.875 17.375 13.05 17.225 9.525C17.75 9.225 18.2 8.775 18.5 8.25Z" fill="white"/>
</svg>
