<svg width="25" height="24" viewBox="0 0 25 24" fill="none" xmlns="http://www.w3.org/2000/svg">
<path d="M0.5 12C0.5 18.6274 5.87258 24 12.5 24C19.1274 24 24.5 18.6274 24.5 12C24.5 5.37258 19.1274 0 12.5 0C5.87258 0 0.5 5.37258 0.5 12Z" fill="#F00073"/>
<path d="M12.4999 6.90002C14.1499 6.90002 14.3749 6.90002 15.0499 6.90002C15.6499 6.90002 15.9499 7.05002 16.1749 7.12502C16.4749 7.27502 16.6999 7.35002 16.9249 7.57502C17.1499 7.80002 17.2999 8.02502 17.3749 8.32502C17.4499 8.55002 17.5249 8.85002 17.5999 9.45002C17.5999 10.125 17.5999 10.275 17.5999 12C17.5999 13.725 17.5999 13.875 17.5999 14.55C17.5999 15.15 17.4499 15.45 17.3749 15.675C17.2249 15.975 17.1499 16.2 16.9249 16.425C16.6999 16.65 16.4749 16.8 16.1749 16.875C15.9499 16.95 15.6499 17.025 15.0499 17.1C14.3749 17.1 14.2249 17.1 12.4999 17.1C10.7749 17.1 10.6249 17.1 9.9499 17.1C9.3499 17.1 9.0499 16.95 8.8249 16.875C8.5249 16.725 8.2999 16.65 8.0749 16.425C7.8499 16.2 7.6999 15.975 7.6249 15.675C7.5499 15.45 7.4749 15.15 7.3999 14.55C7.3999 13.875 7.3999 13.725 7.3999 12C7.3999 10.275 7.3999 10.125 7.3999 9.45002C7.3999 8.85002 7.5499 8.55002 7.6249 8.32502C7.7749 8.02502 7.8499 7.80002 8.0749 7.57502C8.2999 7.35002 8.5249 7.20002 8.8249 7.12502C9.0499 7.05002 9.3499 6.97502 9.9499 6.90002C10.6249 6.90002 10.8499 6.90002 12.4999 6.90002ZM12.4999 5.77502C10.7749 5.77502 10.6249 5.77502 9.9499 5.77502C9.2749 5.77502 8.8249 5.92502 8.4499 6.07502C8.0749 6.22502 7.6999 6.45002 7.3249 6.82502C6.9499 7.20002 6.7999 7.50002 6.5749 7.95002C6.4249 8.32502 6.3499 8.77502 6.2749 9.45002C6.2749 10.125 6.2749 10.35 6.2749 12C6.2749 13.725 6.2749 13.875 6.2749 14.55C6.2749 15.225 6.4249 15.675 6.5749 16.05C6.7249 16.425 6.9499 16.8 7.3249 17.175C7.6999 17.55 7.9999 17.7 8.4499 17.925C8.8249 18.075 9.2749 18.15 9.9499 18.225C10.6249 18.225 10.8499 18.225 12.4999 18.225C14.1499 18.225 14.3749 18.225 15.0499 18.225C15.7249 18.225 16.1749 18.075 16.5499 17.925C16.9249 17.775 17.2999 17.55 17.6749 17.175C18.0499 16.8 18.1999 16.5 18.4249 16.05C18.5749 15.675 18.6499 15.225 18.7249 14.55C18.7249 13.875 18.7249 13.65 18.7249 12C18.7249 10.35 18.7249 10.125 18.7249 9.45002C18.7249 8.77502 18.5749 8.32502 18.4249 7.95002C18.2749 7.57502 18.0499 7.20002 17.6749 6.82502C17.2999 6.45002 16.9999 6.30002 16.5499 6.07502C16.1749 5.92502 15.7249 5.85002 15.0499 5.77502C14.3749 5.77502 14.2249 5.77502 12.4999 5.77502Z" fill="white"/>
<path d="M12.4999 8.77502C10.6999 8.77502 9.2749 10.2 9.2749 12C9.2749 13.8 10.6999 15.225 12.4999 15.225C14.2999 15.225 15.7249 13.8 15.7249 12C15.7249 10.2 14.2999 8.77502 12.4999 8.77502ZM12.4999 14.1C11.3749 14.1 10.3999 13.2 10.3999 12C10.3999 10.875 11.2999 9.90002 12.4999 9.90002C13.6249 9.90002 14.5999 10.8 14.5999 12C14.5999 13.125 13.6249 14.1 12.4999 14.1Z" fill="white"/>
<path d="M15.7999 9.45002C16.2141 9.45002 16.5499 9.11424 16.5499 8.70002C16.5499 8.28581 16.2141 7.95002 15.7999 7.95002C15.3857 7.95002 15.0499 8.28581 15.0499 8.70002C15.0499 9.11424 15.3857 9.45002 15.7999 9.45002Z" fill="white"/>
</svg>
