<svg width="242" height="47" viewBox="0 0 242 47" fill="none" xmlns="http://www.w3.org/2000/svg">
<path d="M34.5199 4.48523H3.71752C2.73158 4.48523 1.78601 4.8769 1.08884 5.57407C0.391667 6.27124 0 7.21681 0 8.20275V39.0051C0 39.9911 0.391667 40.9366 1.08884 41.6338C1.78601 42.331 2.73158 42.7226 3.71752 42.7226H34.5199C35.5058 42.7226 36.4514 42.331 37.1486 41.6338C37.8457 40.9366 38.2374 39.9911 38.2374 39.0051V8.20275C38.2374 7.21681 37.8457 6.27124 37.1486 5.57407C36.4514 4.8769 35.5058 4.48523 34.5199 4.48523ZM29.9277 27.4436V30.279C29.9009 30.5502 29.7826 30.8042 29.5921 30.9992C29.4016 31.1941 29.1504 31.3183 28.8799 31.3512L12.8706 31.3523C11.6852 31.3523 10.6746 30.9699 9.83976 30.2068C9.00544 29.4431 8.58801 28.5196 8.58801 27.434C8.58801 26.5705 8.87001 25.8031 9.43455 25.1265C9.99961 24.4521 10.715 23.9826 11.5806 23.716L25.5697 19.7186H8.58854V17.0122C8.59258 16.7412 8.68811 16.4795 8.85962 16.2696C9.03113 16.0598 9.26855 15.914 9.53333 15.8561H25.6451C26.8304 15.8561 27.84 16.2353 28.6749 16.992C29.5097 17.7499 29.9277 18.6543 29.9277 19.7069C29.9277 20.5858 29.643 21.3591 29.0742 22.0282C28.5054 22.6984 27.7736 23.1653 26.8788 23.4276L12.8706 27.4436H29.9277Z" fill="#009254"/>
<path d="M54.1435 35.6039V35.0992L62.8919 22.3132H55.0306V19.0861H68.6272V19.6061L59.9095 32.3768H68.2602V35.6039H54.1435ZM78.3301 36.0781C77.1065 36.0781 76.0971 35.8741 75.3018 35.4663C74.5065 35.0584 73.8743 34.5384 73.4053 33.9063C72.9363 33.2741 72.5896 32.6012 72.3653 31.8874C72.141 31.1737 71.9931 30.5007 71.9217 29.8686C71.8606 29.2262 71.83 28.7062 71.83 28.3085V19.0861H75.5618V27.0391C75.5618 27.5489 75.5975 28.125 75.6689 28.7674C75.7402 29.3995 75.9034 30.0113 76.1583 30.6027C76.4234 31.1839 76.8108 31.6631 77.3206 32.0404C77.8407 32.4176 78.5391 32.6063 79.416 32.6063C79.885 32.6063 80.3489 32.5298 80.8078 32.3768C81.2666 32.2239 81.6795 31.9639 82.0466 31.5968C82.4239 31.2196 82.7246 30.7047 82.949 30.0521C83.1733 29.3995 83.2854 28.5736 83.2854 27.5744L85.4725 28.5074C85.4725 29.9144 85.1972 31.189 84.6466 32.331C84.1062 33.4729 83.3058 34.3855 82.2454 35.0686C81.185 35.7416 79.8799 36.0781 78.3301 36.0781ZM83.729 35.6039V30.4803H83.2854V19.0861H86.9867V35.6039H83.729ZM91.4366 35.6039V19.0861H94.6943V23.1085L94.2966 22.5885C94.5006 22.0379 94.7708 21.5383 95.1072 21.0896C95.4539 20.6308 95.8669 20.2535 96.3461 19.9578C96.7539 19.6825 97.2026 19.4684 97.692 19.3155C98.1916 19.1523 98.7014 19.0555 99.2214 19.0249C99.7414 18.9841 100.246 19.0045 100.736 19.0861V22.5273C100.246 22.3845 99.6803 22.3387 99.0379 22.3896C98.4057 22.4406 97.8347 22.619 97.3249 22.9249C96.8151 23.2002 96.3971 23.552 96.0708 23.9802C95.7547 24.4085 95.5202 24.8979 95.3672 25.4485C95.2143 25.9889 95.1378 26.5752 95.1378 27.2074V35.6039H91.4366ZM104.113 16.5778V13.1977H107.799V16.5778H104.113ZM104.113 35.6039V19.0861H107.799V35.6039H104.113ZM120.471 36.0628C118.86 36.0628 117.509 35.6804 116.418 34.9157C115.327 34.151 114.506 33.111 113.956 31.7957C113.405 30.4701 113.13 28.9866 113.13 27.345C113.13 25.683 113.405 24.1944 113.956 22.8791C114.506 21.5637 115.312 20.5288 116.372 19.7743C117.443 19.0096 118.763 18.6272 120.333 18.6272C121.893 18.6272 123.244 19.0096 124.386 19.7743C125.539 20.5288 126.431 21.5637 127.063 22.8791C127.695 24.1842 128.011 25.6728 128.011 27.345C128.011 28.9968 127.7 30.4803 127.078 31.7957C126.456 33.111 125.579 34.151 124.448 34.9157C123.316 35.6804 121.99 36.0628 120.471 36.0628ZM112.503 42.9452V19.0861H115.76V30.6792H116.219V42.9452H112.503ZM119.905 32.7592C120.864 32.7592 121.654 32.5196 122.276 32.0404C122.898 31.5611 123.357 30.9137 123.652 30.098C123.958 29.2721 124.111 28.3544 124.111 27.345C124.111 26.3458 123.958 25.4383 123.652 24.6226C123.346 23.7967 122.872 23.1442 122.23 22.6649C121.587 22.1755 120.772 21.9308 119.783 21.9308C118.845 21.9308 118.08 22.1602 117.489 22.619C116.897 23.0677 116.459 23.6998 116.173 24.5155C115.898 25.321 115.76 26.2642 115.76 27.345C115.76 28.4156 115.898 29.3588 116.173 30.1745C116.459 30.9902 116.902 31.6274 117.504 32.0862C118.116 32.5349 118.916 32.7592 119.905 32.7592ZM138.831 36.0628C137.179 36.0628 135.736 35.6906 134.502 34.9463C133.269 34.202 132.31 33.1772 131.627 31.8721C130.954 30.5568 130.618 29.0478 130.618 27.345C130.618 25.6116 130.964 24.0924 131.658 22.7873C132.351 21.4822 133.314 20.4625 134.548 19.7284C135.782 18.9943 137.209 18.6272 138.831 18.6272C140.493 18.6272 141.94 18.9994 143.174 19.7437C144.408 20.488 145.366 21.5179 146.05 22.8332C146.733 24.1383 147.074 25.6422 147.074 27.345C147.074 29.058 146.728 30.5721 146.034 31.8874C145.351 33.1925 144.393 34.2173 143.159 34.9616C141.925 35.6957 140.482 36.0628 138.831 36.0628ZM138.831 32.6063C140.299 32.6063 141.39 32.1168 142.104 31.138C142.817 30.1592 143.174 28.8948 143.174 27.345C143.174 25.7442 142.812 24.4697 142.088 23.5214C141.364 22.563 140.279 22.0837 138.831 22.0837C137.842 22.0837 137.026 22.3081 136.384 22.7567C135.751 23.1951 135.282 23.812 134.976 24.6073C134.671 25.3924 134.518 26.305 134.518 27.345C134.518 28.9458 134.88 30.2254 135.604 31.1839C136.338 32.1321 137.413 32.6063 138.831 32.6063ZM150.597 35.6039V19.0861H153.855V23.1085L153.457 22.5885C153.661 22.0379 153.931 21.5383 154.268 21.0896C154.614 20.6308 155.027 20.2535 155.506 19.9578C155.914 19.6825 156.363 19.4684 156.852 19.3155C157.352 19.1523 157.862 19.0555 158.382 19.0249C158.902 18.9841 159.407 19.0045 159.896 19.0861V22.5273C159.407 22.3845 158.841 22.3387 158.198 22.3896C157.566 22.4406 156.995 22.619 156.485 22.9249C155.976 23.2002 155.557 23.552 155.231 23.9802C154.915 24.4085 154.681 24.8979 154.528 25.4485C154.375 25.9889 154.298 26.5752 154.298 27.2074V35.6039H150.597ZM172.649 35.6039C171.558 35.8079 170.487 35.8945 169.437 35.8639C168.397 35.8436 167.464 35.6549 166.638 35.2981C165.812 34.931 165.185 34.3549 164.757 33.5698C164.38 32.8561 164.181 32.127 164.16 31.3827C164.14 30.6384 164.13 29.7972 164.13 28.8591V14.4978H167.801V28.645C167.801 29.3078 167.806 29.889 167.816 30.3886C167.836 30.8882 167.943 31.296 168.137 31.6121C168.504 32.2239 169.09 32.5655 169.896 32.6368C170.701 32.7082 171.619 32.6674 172.649 32.5145V35.6039ZM161.132 21.9767V19.0861H172.649V21.9767H161.132ZM177.791 35.6039V18.8261C177.791 18.408 177.807 17.9492 177.837 17.4496C177.868 16.9398 177.954 16.435 178.097 15.9354C178.24 15.4358 178.5 14.9821 178.877 14.5742C179.346 14.0542 179.851 13.6974 180.391 13.5036C180.942 13.2997 181.482 13.1875 182.013 13.1671C182.543 13.1366 183.007 13.1213 183.404 13.1213H185.469V16.119H183.557C182.854 16.119 182.329 16.2974 181.982 16.6543C181.645 17.0009 181.477 17.4598 181.477 18.0307V35.6039H177.791ZM175.13 21.9767V19.0861H185.469V21.9767H175.13ZM194.765 36.0628C193.113 36.0628 191.67 35.6906 190.437 34.9463C189.203 34.202 188.244 33.1772 187.561 31.8721C186.888 30.5568 186.552 29.0478 186.552 27.345C186.552 25.6116 186.899 24.0924 187.592 22.7873C188.285 21.4822 189.249 20.4625 190.482 19.7284C191.716 18.9943 193.144 18.6272 194.765 18.6272C196.427 18.6272 197.875 18.9994 199.108 19.7437C200.342 20.488 201.301 21.5179 201.984 22.8332C202.667 24.1383 203.009 25.6422 203.009 27.345C203.009 29.058 202.662 30.5721 201.969 31.8874C201.285 33.1925 200.327 34.2173 199.093 34.9616C197.859 35.6957 196.417 36.0628 194.765 36.0628ZM194.765 32.6063C196.233 32.6063 197.324 32.1168 198.038 31.138C198.752 30.1592 199.108 28.8948 199.108 27.345C199.108 25.7442 198.747 24.4697 198.023 23.5214C197.299 22.563 196.213 22.0837 194.765 22.0837C193.776 22.0837 192.96 22.3081 192.318 22.7567C191.686 23.1951 191.217 23.812 190.911 24.6073C190.605 25.3924 190.452 26.305 190.452 27.345C190.452 28.9458 190.814 30.2254 191.538 31.1839C192.272 32.1321 193.348 32.6063 194.765 32.6063ZM206.837 35.6039V13.1213H210.523V35.6039H206.837ZM215.563 16.5778V13.1977H219.249V16.5778H215.563ZM215.563 35.6039V19.0861H219.249V35.6039H215.563ZM231.279 36.0628C229.627 36.0628 228.184 35.6906 226.951 34.9463C225.717 34.202 224.758 33.1772 224.075 31.8721C223.402 30.5568 223.066 29.0478 223.066 27.345C223.066 25.6116 223.413 24.0924 224.106 22.7873C224.799 21.4822 225.763 20.4625 226.997 19.7284C228.23 18.9943 229.658 18.6272 231.279 18.6272C232.941 18.6272 234.389 18.9994 235.623 19.7437C236.856 20.488 237.815 21.5179 238.498 22.8332C239.181 24.1383 239.523 25.6422 239.523 27.345C239.523 29.058 239.176 30.5721 238.483 31.8874C237.799 33.1925 236.841 34.2173 235.607 34.9616C234.373 35.6957 232.931 36.0628 231.279 36.0628ZM231.279 32.6063C232.747 32.6063 233.838 32.1168 234.552 31.138C235.266 30.1592 235.623 28.8948 235.623 27.345C235.623 25.7442 235.261 24.4697 234.537 23.5214C233.813 22.563 232.727 22.0837 231.279 22.0837C230.29 22.0837 229.474 22.3081 228.832 22.7567C228.2 23.1951 227.731 23.812 227.425 24.6073C227.119 25.3924 226.966 26.305 226.966 27.345C226.966 28.9458 227.328 30.2254 228.052 31.1839C228.786 32.1321 229.862 32.6063 231.279 32.6063Z" fill="#009254"/>
</svg>
