<svg width="24" height="24" viewBox="0 0 24 24" fill="none" xmlns="http://www.w3.org/2000/svg">
<g id="vuesax/linear/briefcase">
<g id="briefcase">
<path id="Vector" d="M8.00007 22H16.0001C20.0201 22 20.7401 20.39 20.9501 18.43L21.7001 10.43C21.9701 7.99 21.2701 6 17.0001 6H7.00007C2.73007 6 2.03007 7.99 2.30007 10.43L3.05007 18.43C3.26007 20.39 3.98007 22 8.00007 22Z" stroke="#8D9290" stroke-width="1.5" stroke-miterlimit="10" stroke-linecap="round" stroke-linejoin="round"/>
<path id="Vector_2" d="M8 6V5.2C8 3.43 8 2 11.2 2H12.8C16 2 16 3.43 16 5.2V6" stroke="#8D9290" stroke-width="1.5" stroke-miterlimit="10" stroke-linecap="round" stroke-linejoin="round"/>
<path id="Vector_3" d="M14 13V14C14 14.01 14 14.01 14 14.02C14 15.11 13.99 16 12 16C10.02 16 10 15.12 10 14.03V13C10 12 10 12 11 12H13C14 12 14 12 14 13Z" stroke="#8D9290" stroke-width="1.5" stroke-miterlimit="10" stroke-linecap="round" stroke-linejoin="round"/>
<path id="Vector_4" d="M21.65 11C19.34 12.68 16.7 13.68 14 14.02" stroke="#8D9290" stroke-width="1.5" stroke-miterlimit="10" stroke-linecap="round" stroke-linejoin="round"/>
<path id="Vector_5" d="M2.62012 11.2695C4.87012 12.8095 7.41012 13.7395 10.0001 14.0295" stroke="#8D9290" stroke-width="1.5" stroke-miterlimit="10" stroke-linecap="round" stroke-linejoin="round"/>
</g>
</g>
</svg>
