<svg width="24" height="24" viewBox="0 0 24 24" fill="none" xmlns="http://www.w3.org/2000/svg">
<g id="bx-error-alt">
<path id="Vector" d="M11 7H13V14H11V7ZM11 15H13V17H11V15Z" fill="#FF2E2E"/>
<path id="Vector_2" d="M21.707 7.293L16.707 2.293C16.6143 2.19996 16.5041 2.12617 16.3828 2.07589C16.2614 2.0256 16.1313 1.99981 16 2H8C7.86866 1.99981 7.73857 2.0256 7.61724 2.07589C7.4959 2.12617 7.38571 2.19996 7.293 2.293L2.293 7.293C2.19996 7.38571 2.12617 7.4959 2.07589 7.61724C2.0256 7.73857 1.99981 7.86866 2 8V16C2 16.266 2.105 16.52 2.293 16.707L7.293 21.707C7.38571 21.8 7.4959 21.8738 7.61724 21.9241C7.73857 21.9744 7.86866 22.0002 8 22H16C16.266 22 16.52 21.895 16.707 21.707L21.707 16.707C21.8 16.6143 21.8738 16.5041 21.9241 16.3828C21.9744 16.2614 22.0002 16.1313 22 16V8C22.0002 7.86866 21.9744 7.73857 21.9241 7.61724C21.8738 7.4959 21.8 7.38571 21.707 7.293ZM20 15.586L15.586 20H8.414L4 15.586V8.414L8.414 4H15.586L20 8.414V15.586Z" fill="#FF2E2E"/>
</g>
</svg>
