<svg width="57" height="56" viewBox="0 0 57 56" fill="none" xmlns="http://www.w3.org/2000/svg">
<path d="M28.4189 25.3637C28.1855 25.3403 27.9055 25.3403 27.6489 25.3637C22.0955 25.177 17.6855 20.627 17.6855 15.027C17.6855 9.31033 22.3055 4.66699 28.0455 4.66699C33.7622 4.66699 38.4055 9.31033 38.4055 15.027C38.3822 20.627 33.9722 25.177 28.4189 25.3637Z" stroke="#009254" stroke-width="2.66667" stroke-linecap="round" stroke-linejoin="round"/>
<path d="M16.7545 33.973C11.1079 37.753 11.1079 43.913 16.7545 47.6697C23.1712 51.963 33.6945 51.963 40.1112 47.6697C45.7579 43.8897 45.7579 37.7297 40.1112 33.973C33.7179 29.703 23.1945 29.703 16.7545 33.973Z" stroke="#009254" stroke-width="2.66667" stroke-linecap="round" stroke-linejoin="round"/>
</svg>
