<svg width="23" height="21" viewBox="0 0 23 21" fill="none" xmlns="http://www.w3.org/2000/svg">
<path fill-rule="evenodd" clip-rule="evenodd" d="M11.4668 0C5.52583 0 0.707031 4.81879 0.707031 10.7598C0.707031 15.5126 3.80954 19.5392 8.03424 20.9915C8.56233 21.0575 8.76036 20.7274 8.76036 20.4634C8.76036 20.1993 8.76036 19.5392 8.76036 18.6151C5.78987 19.2752 5.12976 17.1628 5.12976 17.1628C4.66768 15.9086 3.94157 15.5786 3.94157 15.5786C2.9514 14.9185 4.00758 14.9185 4.00758 14.9185C5.06375 14.9845 5.65785 16.0406 5.65785 16.0406C6.64801 17.6909 8.16626 17.2288 8.76036 16.9648C8.82637 16.2387 9.15643 15.7766 9.42047 15.5126C7.04408 15.2485 4.53566 14.3244 4.53566 10.1657C4.53566 8.97748 4.93173 8.05333 5.65785 7.2612C5.59184 7.06316 5.19577 5.94098 5.78987 4.48874C5.78987 4.48874 6.71402 4.2247 8.76036 5.61092C9.6185 5.34688 10.5427 5.28087 11.4668 5.28087C12.391 5.28087 13.3151 5.41289 14.1733 5.61092C16.2196 4.2247 17.1437 4.48874 17.1437 4.48874C17.7378 5.94098 17.3418 7.06316 17.2758 7.32721C17.9359 8.05333 18.3979 9.04349 18.3979 10.2317C18.3979 14.3904 15.8895 15.2485 13.5131 15.5126C13.9092 15.8426 14.2393 16.5027 14.2393 17.4929C14.2393 18.9451 14.2393 20.0673 14.2393 20.4634C14.2393 20.7274 14.4373 21.0575 14.9654 20.9915C19.2561 19.5392 22.2926 15.5126 22.2926 10.7598C22.2266 4.81879 17.4078 0 11.4668 0Z" fill="black"/>
</svg>
