<svg width="34" height="33" viewBox="0 0 34 33" fill="none" xmlns="http://www.w3.org/2000/svg">
<rect x="0.5" width="33" height="33" rx="3.6" fill="white"/>
<path fill-rule="evenodd" clip-rule="evenodd" d="M25.0743 16.6875C25.0743 16.1025 25.0218 15.54 24.9243 15H17.1543V18.1913H21.5943C21.4031 19.2225 20.8218 20.0963 19.9481 20.6813V22.7513H22.6143C24.1743 21.315 25.0743 19.2 25.0743 16.6875Z" fill="#4285F4"/>
<path fill-rule="evenodd" clip-rule="evenodd" d="M17.1543 24.75C19.3818 24.75 21.2493 24.0113 22.6143 22.7513L19.948 20.6813C19.2093 21.1763 18.2643 21.4688 17.1543 21.4688C15.0055 21.4688 13.1867 20.0175 12.538 18.0675H9.78174V20.205C11.1392 22.9013 13.9292 24.75 17.1543 24.75Z" fill="#34A853"/>
<path fill-rule="evenodd" clip-rule="evenodd" d="M12.5381 18.0674C12.3731 17.5724 12.2793 17.0437 12.2793 16.4999C12.2793 15.9562 12.3731 15.4274 12.5381 14.9324V12.7949H9.7818C9.22305 13.9087 8.9043 15.1687 8.9043 16.4999C8.9043 17.8312 9.22305 19.0912 9.7818 20.2049L12.5381 18.0674Z" fill="#FBBC05"/>
<path fill-rule="evenodd" clip-rule="evenodd" d="M17.1543 11.5313C18.3655 11.5313 19.453 11.9475 20.308 12.765L22.6743 10.3988C21.2455 9.0675 19.378 8.25 17.1543 8.25C13.9292 8.25 11.1392 10.0988 9.78174 12.795L12.538 14.9325C13.1867 12.9825 15.0055 11.5313 17.1543 11.5313Z" fill="#EA4335"/>
</svg>
