<svg width="234" height="292" viewBox="0 0 234 292" fill="none" xmlns="http://www.w3.org/2000/svg">
<g opacity="0.5">
<rect width="350" height="350" transform="translate(-116)" fill="white"/>
<path d="M131.914 320.833H-13.9198C-72.2531 320.833 -86.8364 306.25 -86.8364 247.917V218.75C-86.8364 160.417 -72.2531 145.833 -13.9198 145.833H131.914C190.247 145.833 204.83 160.417 204.83 218.75V247.917C204.83 306.25 190.247 320.833 131.914 320.833Z" stroke="#E6F5EA" stroke-width="22.0938" stroke-linecap="round" stroke-linejoin="round"/>
<path d="M-28.5024 145.833V116.667C-28.5024 68.3958 -13.9191 29.1666 58.9976 29.1666C124.623 29.1666 146.498 58.3333 146.498 102.083" stroke="#E6F5EA" stroke-width="22.0938" stroke-linecap="round" stroke-linejoin="round"/>
<path d="M58.9974 269.792C79.1328 269.792 95.4557 253.469 95.4557 233.333C95.4557 213.198 79.1328 196.875 58.9974 196.875C38.862 196.875 22.5391 213.198 22.5391 233.333C22.5391 253.469 38.862 269.792 58.9974 269.792Z" stroke="#E6F5EA" stroke-width="22.0938" stroke-linecap="round" stroke-linejoin="round"/>
</g>
</svg>
