<svg width="175" height="24" viewBox="0 0 175 24" fill="none" xmlns="http://www.w3.org/2000/svg">
<path d="M19.8611 1H2.13889C1.57162 1 1.02759 1.22535 0.626466 1.62647C0.225347 2.02759 0 2.57162 0 3.13889V20.8611C0 21.4284 0.225347 21.9724 0.626466 22.3735C1.02759 22.7747 1.57162 23 2.13889 23H19.8611C20.4284 23 20.9724 22.7747 21.3735 22.3735C21.7747 21.9724 22 21.4284 22 20.8611V3.13889C22 2.57162 21.7747 2.02759 21.3735 1.62647C20.9724 1.22535 20.4284 1 19.8611 1ZM17.219 14.2092V15.8405C17.2036 15.9966 17.1355 16.1427 17.0259 16.2549C16.9163 16.367 16.7718 16.4385 16.6161 16.4574L7.40514 16.4581C6.72314 16.4581 6.14167 16.2381 5.66133 15.799C5.18131 15.3596 4.94114 14.8282 4.94114 14.2037C4.94114 13.7068 5.10339 13.2653 5.42819 12.876C5.75331 12.488 6.16489 12.2179 6.66294 12.0645L14.7116 9.76455H4.94144V8.20744C4.94377 8.05152 4.99873 7.90095 5.09741 7.78019C5.19609 7.65944 5.33269 7.57559 5.48503 7.54225H14.755C15.437 7.54225 16.0178 7.76042 16.4982 8.19583C16.9785 8.63186 17.219 9.15222 17.219 9.75783C17.219 10.2635 17.0552 10.7084 16.7279 11.0934C16.4007 11.479 15.9796 11.7476 15.4648 11.8986L7.40514 14.2092H17.219Z" fill="#009254"/>
<path d="M30 17.9401V17.5441L36.8489 7.51205H30.6945V4.98005H41.339V5.38805L34.514 15.4081H41.0516V17.9401H30Z" fill="#009254"/>
<path d="M48.8512 18.3121C47.8934 18.3121 47.1031 18.1521 46.4805 17.8321C45.8579 17.5121 45.363 17.1041 44.9958 16.6081C44.6286 16.1121 44.3572 15.5841 44.1816 15.0241C44.0059 14.4641 43.8902 13.9361 43.8343 13.4401C43.7864 12.9361 43.7625 12.5281 43.7625 12.2161V4.98005H46.684V11.2201C46.684 11.6201 46.712 12.0721 46.7679 12.5761C46.8237 13.0721 46.9514 13.5521 47.151 14.0161C47.3585 14.4721 47.6619 14.8481 48.061 15.1441C48.4681 15.4401 49.0149 15.5881 49.7014 15.5881C50.0686 15.5881 50.4318 15.5281 50.791 15.4081C51.1502 15.2881 51.4735 15.0841 51.7608 14.7961C52.0562 14.5001 52.2917 14.0961 52.4673 13.5841C52.6429 13.0721 52.7307 12.4241 52.7307 11.6401L54.4429 12.3721C54.4429 13.4761 54.2274 14.4761 53.7963 15.3721C53.3733 16.2681 52.7466 16.9841 51.9165 17.5201C51.0863 18.0481 50.0646 18.3121 48.8512 18.3121ZM53.0779 17.9401V13.9201H52.7307V4.98005H55.6283V17.9401H53.0779Z" fill="#009254"/>
<path d="M59.0282 17.9401V4.98005H61.5786V8.13605L61.2673 7.72805C61.4269 7.29605 61.6385 6.90405 61.9019 6.55205C62.1733 6.19205 62.4966 5.89605 62.8717 5.66405C63.191 5.44805 63.5422 5.28005 63.9254 5.16005C64.3165 5.03205 64.7157 4.95605 65.1228 4.93205C65.5299 4.90005 65.925 4.91605 66.3081 4.98005V7.68005C65.925 7.56805 65.482 7.53205 64.9791 7.57205C64.4842 7.61205 64.0372 7.75205 63.638 7.99205C63.2389 8.20805 62.9116 8.48405 62.6562 8.82005C62.4088 9.15605 62.2252 9.54005 62.1054 9.97205C61.9857 10.3961 61.9258 10.8561 61.9258 11.3521V17.9401H59.0282Z" fill="#009254"/>
<path d="M68.8684 3.01205V0.360049H71.7541V3.01205H68.8684ZM68.8684 17.9401V4.98005H71.7541V17.9401H68.8684Z" fill="#009254"/>
<path d="M81.5909 18.3001C80.3297 18.3001 79.272 18.0001 78.4179 17.4001C77.5638 16.8001 76.9212 15.9841 76.4902 14.9521C76.0591 13.9121 75.8436 12.7481 75.8436 11.4601C75.8436 10.1561 76.0591 8.98805 76.4902 7.95605C76.9212 6.92405 77.5518 6.11205 78.382 5.52005C79.2201 4.92005 80.2538 4.62005 81.4831 4.62005C82.7044 4.62005 83.7621 4.92005 84.6561 5.52005C85.5581 6.11205 86.2566 6.92405 86.7515 7.95605C87.2464 8.98005 87.4939 10.1481 87.4939 11.4601C87.4939 12.7561 87.2504 13.9201 86.7635 14.9521C86.2765 15.9841 85.5901 16.8001 84.704 17.4001C83.818 18.0001 82.7803 18.3001 81.5909 18.3001ZM75.3527 23.7001V4.98005H77.903V14.0761H78.2622V23.7001H75.3527ZM81.1479 15.7081C81.8982 15.7081 82.5168 15.5201 83.0038 15.1441C83.4907 14.7681 83.8499 14.2601 84.0814 13.6201C84.3209 12.9721 84.4406 12.2521 84.4406 11.4601C84.4406 10.6761 84.3209 9.96405 84.0814 9.32405C83.8419 8.67605 83.4707 8.16405 82.9679 7.78805C82.465 7.40405 81.8264 7.21205 81.0521 7.21205C80.3177 7.21205 79.719 7.39205 79.2561 7.75205C78.7931 8.10405 78.4498 8.60005 78.2263 9.24005C78.0108 9.87205 77.903 10.6121 77.903 11.4601C77.903 12.3001 78.0108 13.0401 78.2263 13.6801C78.4498 14.3201 78.7971 14.8201 79.268 15.1801C79.747 15.5321 80.3736 15.7081 81.1479 15.7081Z" fill="#009254"/>
<path d="M95.8804 18.3001C94.5873 18.3001 93.4578 18.0081 92.4919 17.4241C91.526 16.8401 90.7757 16.0361 90.2409 15.0121C89.714 13.9801 89.4506 12.7961 89.4506 11.4601C89.4506 10.1001 89.722 8.90805 90.2648 7.88405C90.8076 6.86005 91.5619 6.06005 92.5278 5.48405C93.4937 4.90805 94.6112 4.62005 95.8804 4.62005C97.1815 4.62005 98.315 4.91205 99.2809 5.49605C100.247 6.08005 100.997 6.88805 101.532 7.92005C102.067 8.94405 102.334 10.1241 102.334 11.4601C102.334 12.8041 102.063 13.9921 101.52 15.0241C100.985 16.0481 100.235 16.8521 99.2689 17.4361C98.3031 18.0121 97.1736 18.3001 95.8804 18.3001ZM95.8804 15.5881C97.0299 15.5881 97.884 15.2041 98.4427 14.4361C99.0015 13.6681 99.2809 12.6761 99.2809 11.4601C99.2809 10.2041 98.9975 9.20405 98.4308 8.46005C97.864 7.70805 97.0139 7.33205 95.8804 7.33205C95.1061 7.33205 94.4675 7.50805 93.9646 7.86005C93.4697 8.20405 93.1025 8.68805 92.8631 9.31205C92.6236 9.92805 92.5039 10.6441 92.5039 11.4601C92.5039 12.7161 92.7872 13.7201 93.354 14.4721C93.9287 15.2161 94.7709 15.5881 95.8804 15.5881Z" fill="#009254"/>
<path d="M105.008 17.9401V4.98005H107.559V8.13605L107.247 7.72805C107.407 7.29605 107.618 6.90405 107.882 6.55205C108.153 6.19205 108.477 5.89605 108.852 5.66405C109.171 5.44805 109.522 5.28005 109.905 5.16005C110.297 5.03205 110.696 4.95605 111.103 4.93205C111.51 4.90005 111.905 4.91605 112.288 4.98005V7.68005C111.905 7.56805 111.462 7.53205 110.959 7.57205C110.464 7.61205 110.017 7.75205 109.618 7.99205C109.219 8.20805 108.892 8.48405 108.636 8.82005C108.389 9.15605 108.205 9.54005 108.085 9.97205C107.966 10.3961 107.906 10.8561 107.906 11.3521V17.9401H105.008Z" fill="#009254"/>
<path d="M122.188 17.9401C121.334 18.1001 120.496 18.1681 119.674 18.1441C118.86 18.1281 118.129 17.9801 117.483 17.7001C116.836 17.4121 116.345 16.9601 116.01 16.3441C115.714 15.7841 115.559 15.2121 115.543 14.6281C115.527 14.0441 115.519 13.3841 115.519 12.6481V1.38005H118.393V12.4801C118.393 13.0001 118.397 13.4561 118.405 13.8481C118.421 14.2401 118.504 14.5601 118.656 14.8081C118.943 15.2881 119.402 15.5561 120.033 15.6121C120.664 15.6681 121.382 15.6361 122.188 15.5161V17.9401ZM113.172 7.24805V4.98005H122.188V7.24805H113.172Z" fill="#009254"/>
<path d="M126.13 17.9401V4.77605C126.13 4.44805 126.142 4.08805 126.166 3.69605C126.19 3.29605 126.258 2.90005 126.37 2.50805C126.482 2.11605 126.685 1.76005 126.98 1.44005C127.348 1.03205 127.743 0.752048 128.166 0.600049C128.597 0.440049 129.02 0.352048 129.435 0.336048C129.85 0.312048 130.213 0.300049 130.525 0.300049H132.141V2.65205H130.644C130.094 2.65205 129.682 2.79205 129.411 3.07205C129.148 3.34405 129.016 3.70405 129.016 4.15205V17.9401H126.13ZM124.047 7.24805V4.98005H132.141V7.24805H124.047Z" fill="#009254"/>
<path d="M139.335 18.3001C138.042 18.3001 136.912 18.0081 135.946 17.4241C134.98 16.8401 134.23 16.0361 133.695 15.0121C133.168 13.9801 132.905 12.7961 132.905 11.4601C132.905 10.1001 133.176 8.90805 133.719 7.88405C134.262 6.86005 135.016 6.06005 135.982 5.48405C136.948 4.90805 138.066 4.62005 139.335 4.62005C140.636 4.62005 141.769 4.91205 142.735 5.49605C143.701 6.08005 144.451 6.88805 144.986 7.92005C145.521 8.94405 145.788 10.1241 145.788 11.4601C145.788 12.8041 145.517 13.9921 144.974 15.0241C144.439 16.0481 143.689 16.8521 142.723 17.4361C141.757 18.0121 140.628 18.3001 139.335 18.3001ZM139.335 15.5881C140.484 15.5881 141.338 15.2041 141.897 14.4361C142.456 13.6681 142.735 12.6761 142.735 11.4601C142.735 10.2041 142.452 9.20405 141.885 8.46005C141.318 7.70805 140.468 7.33205 139.335 7.33205C138.56 7.33205 137.922 7.50805 137.419 7.86005C136.924 8.20405 136.557 8.68805 136.317 9.31205C136.078 9.92805 135.958 10.6441 135.958 11.4601C135.958 12.7161 136.242 13.7201 136.808 14.4721C137.383 15.2161 138.225 15.5881 139.335 15.5881Z" fill="#009254"/>
<path d="M148.702 17.9401V0.300049H151.588V17.9401H148.702Z" fill="#009254"/>
<path d="M155.45 3.01205V0.360049H158.335V3.01205H155.45ZM155.45 17.9401V4.98005H158.335V17.9401H155.45Z" fill="#009254"/>
<path d="M167.669 18.3001C166.376 18.3001 165.247 18.0081 164.281 17.4241C163.315 16.8401 162.564 16.0361 162.03 15.0121C161.503 13.9801 161.239 12.7961 161.239 11.4601C161.239 10.1001 161.511 8.90805 162.054 7.88405C162.596 6.86005 163.351 6.06005 164.317 5.48405C165.282 4.90805 166.4 4.62005 167.669 4.62005C168.97 4.62005 170.104 4.91205 171.07 5.49605C172.036 6.08005 172.786 6.88805 173.321 7.92005C173.856 8.94405 174.123 10.1241 174.123 11.4601C174.123 12.8041 173.852 13.9921 173.309 15.0241C172.774 16.0481 172.024 16.8521 171.058 17.4361C170.092 18.0121 168.962 18.3001 167.669 18.3001ZM167.669 15.5881C168.819 15.5881 169.673 15.2041 170.232 14.4361C170.79 13.6681 171.07 12.6761 171.07 11.4601C171.07 10.2041 170.786 9.20405 170.22 8.46005C169.653 7.70805 168.803 7.33205 167.669 7.33205C166.895 7.33205 166.256 7.50805 165.753 7.86005C165.259 8.20405 164.891 8.68805 164.652 9.31205C164.412 9.92805 164.293 10.6441 164.293 11.4601C164.293 12.7161 164.576 13.7201 165.143 14.4721C165.718 15.2161 166.56 15.5881 167.669 15.5881Z" fill="#009254"/>
</svg>
