<svg width="22" height="23" viewBox="0 0 22 23" fill="none" xmlns="http://www.w3.org/2000/svg">
<path d="M11.183 15.4031C9.02857 15.4031 7.27979 13.6543 7.27979 11.4999C7.27979 9.34546 9.02857 7.59668 11.183 7.59668C13.3374 7.59668 15.0862 9.34546 15.0862 11.4999C15.0862 13.6543 13.3374 15.4031 11.183 15.4031ZM11.183 8.94883C9.77676 8.94883 8.63194 10.0937 8.63194 11.4999C8.63194 12.9061 9.77676 14.0509 11.183 14.0509C12.5892 14.0509 13.7341 12.9061 13.7341 11.4999C13.7341 10.0937 12.5892 8.94883 11.183 8.94883Z" fill="#464646"/>
<path d="M11.1834 19.6309C7.79396 19.6309 4.59387 17.6477 2.39437 14.2043C1.43885 12.7169 1.43885 10.292 2.39437 8.79565C4.60289 5.35217 7.80298 3.36902 11.1834 3.36902C14.5637 3.36902 17.7638 5.35217 19.9633 8.79565C20.9188 10.283 20.9188 12.7079 19.9633 14.2043C17.7638 17.6477 14.5637 19.6309 11.1834 19.6309ZM11.1834 4.72117C8.27172 4.72117 5.48629 6.46995 3.5392 9.52581C2.86312 10.5805 2.86312 12.4194 3.5392 13.4741C5.48629 16.53 8.27172 18.2787 11.1834 18.2787C14.095 18.2787 16.8804 16.53 18.8275 13.4741C19.5036 12.4194 19.5036 10.5805 18.8275 9.52581C16.8804 6.46995 14.095 4.72117 11.1834 4.72117Z" fill="#464646"/>
</svg>
