<svg width="34" height="34" viewBox="0 0 34 34" fill="none" xmlns="http://www.w3.org/2000/svg">
<g id="Social Icon">
<rect x="0.5" y="0.5" width="33" height="33" rx="3.6" fill="white"/>
<path id="google" fill-rule="evenodd" clip-rule="evenodd" d="M25.0743 17.1875C25.0743 16.6025 25.0218 16.04 24.9243 15.5H17.1543V18.6913H21.5943C21.4031 19.7225 20.8218 20.5963 19.9481 21.1813V23.2513H22.6143C24.1743 21.815 25.0743 19.7 25.0743 17.1875Z" fill="#4285F4"/>
<path id="google_2" fill-rule="evenodd" clip-rule="evenodd" d="M17.1545 25.25C19.382 25.25 21.2495 24.5112 22.6145 23.2512L19.9483 21.1812C19.2095 21.6762 18.2645 21.9687 17.1545 21.9687C15.0057 21.9687 13.187 20.5174 12.5382 18.5674H9.78198V20.7049C11.1395 23.4012 13.9295 25.25 17.1545 25.25Z" fill="#34A853"/>
<path id="google_3" fill-rule="evenodd" clip-rule="evenodd" d="M12.5381 18.5675C12.3731 18.0725 12.2793 17.5437 12.2793 17C12.2793 16.4562 12.3731 15.9275 12.5381 15.4325V13.295H9.7818C9.22305 14.4087 8.9043 15.6687 8.9043 17C8.9043 18.3312 9.22305 19.5912 9.7818 20.705L12.5381 18.5675Z" fill="#FBBC05"/>
<path id="google_4" fill-rule="evenodd" clip-rule="evenodd" d="M17.1545 12.0313C18.3658 12.0313 19.4533 12.4475 20.3083 13.265L22.6745 10.8988C21.2458 9.5675 19.3783 8.75 17.1545 8.75C13.9295 8.75 11.1395 10.5988 9.78198 13.295L12.5382 15.4325C13.187 13.4825 15.0057 12.0313 17.1545 12.0313Z" fill="#EA4335"/>
</g>
</svg>
