<svg width="109" height="21" viewBox="0 0 109 21" fill="none" xmlns="http://www.w3.org/2000/svg">
<path d="M15.9608 1.9679H2.21468C1.77468 1.9679 1.3527 2.14268 1.04158 2.45381C0.730453 2.76493 0.555664 3.18691 0.555664 3.62691V17.373C0.555664 17.813 0.730453 18.235 1.04158 18.5461C1.3527 18.8572 1.77468 19.032 2.21468 19.032H15.9608C16.4008 19.032 16.8228 18.8572 17.1339 18.5461C17.445 18.235 17.6198 17.813 17.6198 17.373V3.62691C17.6198 3.18691 17.445 2.76493 17.1339 2.45381C16.8228 2.14268 16.4008 1.9679 15.9608 1.9679ZM13.9114 12.2135V13.4788C13.8995 13.5999 13.8467 13.7132 13.7617 13.8002C13.6767 13.8872 13.5646 13.9426 13.4438 13.9573L6.29941 13.9578C5.77042 13.9578 5.3194 13.7872 4.94684 13.4466C4.57451 13.1058 4.38822 12.6937 4.38822 12.2092C4.38822 11.8239 4.51407 11.4814 4.766 11.1794C5.01817 10.8785 5.33741 10.6689 5.72373 10.55L11.9666 8.76606H4.38846V7.5583C4.39026 7.43735 4.43289 7.32057 4.50943 7.2269C4.58597 7.13324 4.69192 7.0682 4.81009 7.04234H12.0003C12.5292 7.04234 12.9798 7.21156 13.3523 7.54929C13.7249 7.88749 13.9114 8.29111 13.9114 8.76084C13.9114 9.15308 13.7844 9.49816 13.5306 9.79678C13.2767 10.0959 12.9502 10.3042 12.5508 10.4213L6.29941 12.2135H13.9114Z" fill="white"/>
<path d="M24.7183 15.0002V14.775L28.6224 9.06899H25.1142V7.62884H31.182V7.8609L27.2915 13.5601H31.0182V15.0002H24.7183ZM35.512 15.2118C34.966 15.2118 34.5155 15.1208 34.1606 14.9388C33.8057 14.7568 33.5236 14.5247 33.3143 14.2426C33.1049 13.9605 32.9502 13.6602 32.8501 13.3417C32.75 13.0232 32.684 12.7228 32.6522 12.4407C32.6249 12.1541 32.6112 11.922 32.6112 11.7445V7.62884H34.2766V11.178C34.2766 11.4055 34.2926 11.6626 34.3244 11.9493C34.3563 12.2314 34.4291 12.5044 34.5428 12.7683C34.6611 13.0277 34.834 13.2416 35.0615 13.4099C35.2936 13.5783 35.6053 13.6625 35.9966 13.6625C36.2059 13.6625 36.413 13.6283 36.6177 13.5601C36.8225 13.4918 37.0068 13.3758 37.1706 13.212C37.339 13.0436 37.4732 12.8138 37.5733 12.5226C37.6734 12.2314 37.7234 11.8628 37.7234 11.4169L38.6995 11.8333C38.6995 12.4612 38.5766 13.03 38.3309 13.5396C38.0897 14.0492 37.7325 14.4565 37.2593 14.7614C36.7861 15.0617 36.2037 15.2118 35.512 15.2118ZM37.9214 15.0002V12.7137H37.7234V7.62884H39.3752V15.0002H37.9214ZM41.3611 15.0002V7.62884H42.8149V9.42391L42.6374 9.19185C42.7284 8.94613 42.849 8.72317 42.9991 8.52296C43.1539 8.3182 43.3381 8.14984 43.552 8.01788C43.734 7.89502 43.9342 7.79947 44.1526 7.73122C44.3756 7.65841 44.6031 7.61518 44.8352 7.60153C45.0672 7.58333 45.2925 7.59243 45.5109 7.62884V9.16455C45.2925 9.10084 45.0399 9.08037 44.7533 9.10312C44.4712 9.12587 44.2163 9.2055 43.9888 9.34201C43.7613 9.46486 43.5748 9.62185 43.4291 9.81296C43.2881 10.0041 43.1834 10.2225 43.1152 10.4682C43.0469 10.7094 43.0128 10.971 43.0128 11.2531V15.0002H41.3611ZM47.0181 6.50947V5.00106H48.663V6.50947H47.0181ZM47.0181 15.0002V7.62884H48.663V15.0002H47.0181ZM54.3182 15.205C53.5992 15.205 52.9963 15.0344 52.5095 14.6931C52.0226 14.3518 51.6563 13.8877 51.4106 13.3007C51.1649 12.7092 51.042 12.0471 51.042 11.3145C51.042 10.5728 51.1649 9.90851 51.4106 9.32153C51.6563 8.73455 52.0158 8.2727 52.489 7.93598C52.9668 7.59471 53.556 7.42407 54.2568 7.42407C54.9529 7.42407 55.5559 7.59471 56.0655 7.93598C56.5797 8.2727 56.9778 8.73455 57.2599 9.32153C57.542 9.90396 57.6831 10.5683 57.6831 11.3145C57.6831 12.0517 57.5443 12.7137 57.2667 13.3007C56.9892 13.8877 56.5979 14.3518 56.0928 14.6931C55.5877 15.0344 54.9962 15.205 54.3182 15.205ZM50.7622 18.2764V7.62884H52.216V12.8025H52.4207V18.2764H50.7622ZM54.0656 13.7307C54.4934 13.7307 54.846 13.6238 55.1236 13.4099C55.4011 13.1961 55.6059 12.9071 55.7379 12.5431C55.8744 12.1745 55.9426 11.765 55.9426 11.3145C55.9426 10.8686 55.8744 10.4636 55.7379 10.0996C55.6014 9.73105 55.3898 9.43984 55.1031 9.22597C54.8164 9.00756 54.4524 8.89836 54.011 8.89836C53.5924 8.89836 53.2511 9.00074 52.9872 9.2055C52.7233 9.40571 52.5277 9.68782 52.4003 10.0518C52.2774 10.4113 52.216 10.8322 52.216 11.3145C52.216 11.7923 52.2774 12.2132 52.4003 12.5772C52.5277 12.9413 52.7256 13.2256 52.9941 13.4304C53.2671 13.6306 53.6243 13.7307 54.0656 13.7307ZM62.5115 15.205C61.7744 15.205 61.1305 15.0389 60.5799 14.7068C60.0294 14.3746 59.6016 13.9173 59.2968 13.3349C58.9964 12.7479 58.8463 12.0744 58.8463 11.3145C58.8463 10.541 59.001 9.86301 59.3104 9.28058C59.6198 8.69814 60.0498 8.24312 60.6004 7.9155C61.151 7.58788 61.788 7.42407 62.5115 7.42407C63.2532 7.42407 63.8993 7.59016 64.4499 7.92233C65.0005 8.25449 65.4282 8.71407 65.7331 9.30105C66.038 9.88349 66.1904 10.5546 66.1904 11.3145C66.1904 12.079 66.0357 12.7547 65.7263 13.3417C65.4214 13.9241 64.9937 14.3814 64.4431 14.7136C63.8925 15.0412 63.2487 15.205 62.5115 15.205ZM62.5115 13.6625C63.1667 13.6625 63.6536 13.4441 63.9721 13.0072C64.2907 12.5704 64.4499 12.0062 64.4499 11.3145C64.4499 10.6002 64.2884 10.0314 63.9653 9.6082C63.6423 9.18047 63.1576 8.96661 62.5115 8.96661C62.0701 8.96661 61.7061 9.06671 61.4195 9.26693C61.1373 9.46259 60.928 9.73788 60.7915 10.0928C60.655 10.4432 60.5868 10.8504 60.5868 11.3145C60.5868 12.0289 60.7483 12.6 61.0714 13.0277C61.399 13.4509 61.879 13.6625 62.5115 13.6625ZM67.7625 15.0002V7.62884H69.2163V9.42391L69.0388 9.19185C69.1298 8.94613 69.2504 8.72317 69.4006 8.52296C69.5553 8.3182 69.7396 8.14984 69.9534 8.01788C70.1354 7.89502 70.3356 7.79947 70.554 7.73122C70.777 7.65841 71.0045 7.61518 71.2366 7.60153C71.4686 7.58333 71.6939 7.59243 71.9123 7.62884V9.16455C71.6939 9.10084 71.4413 9.08037 71.1547 9.10312C70.8726 9.12587 70.6178 9.2055 70.3902 9.34201C70.1627 9.46486 69.9762 9.62185 69.8306 9.81296C69.6895 10.0041 69.5848 10.2225 69.5166 10.4682C69.4483 10.7094 69.4142 10.971 69.4142 11.2531V15.0002H67.7625ZM77.6035 15.0002C77.1166 15.0912 76.6388 15.1299 76.1702 15.1163C75.706 15.1072 75.2897 15.023 74.9211 14.8637C74.5526 14.6999 74.2727 14.4428 74.0816 14.0925C73.9132 13.774 73.8245 13.4486 73.8154 13.1164C73.8063 12.7843 73.8018 12.4089 73.8018 11.9903V5.58122H75.4398V11.8947C75.4398 12.1905 75.4421 12.4498 75.4467 12.6728C75.4558 12.8958 75.5036 13.0778 75.59 13.2188C75.7538 13.4918 76.0155 13.6443 76.3749 13.6761C76.7344 13.708 77.1439 13.6898 77.6035 13.6215V15.0002ZM72.464 8.91883V7.62884H77.6035V8.91883H72.464ZM79.8984 15.0002V7.5128C79.8984 7.32624 79.9052 7.12148 79.9189 6.89852C79.9325 6.67101 79.9712 6.44577 80.0349 6.22281C80.0986 5.99984 80.2147 5.79736 80.383 5.61535C80.5923 5.38329 80.8176 5.22403 81.0587 5.13757C81.3044 5.04657 81.5456 4.99651 81.7822 4.98741C82.0188 4.97376 82.2259 4.96694 82.4033 4.96694H83.3248V6.30471H82.4716C82.1576 6.30471 81.9233 6.38434 81.7686 6.5436C81.6184 6.69831 81.5433 6.90307 81.5433 7.15788V15.0002H79.8984ZM78.7108 8.91883V7.62884H83.3248V8.91883H78.7108ZM87.4732 15.205C86.7361 15.205 86.0922 15.0389 85.5416 14.7068C84.991 14.3746 84.5633 13.9173 84.2584 13.3349C83.9581 12.7479 83.808 12.0744 83.808 11.3145C83.808 10.541 83.9627 9.86301 84.2721 9.28058C84.5815 8.69814 85.0115 8.24312 85.5621 7.9155C86.1127 7.58788 86.7497 7.42407 87.4732 7.42407C88.2149 7.42407 88.861 7.59016 89.4116 7.92233C89.9622 8.25449 90.3899 8.71407 90.6948 9.30105C90.9996 9.88349 91.1521 10.5546 91.1521 11.3145C91.1521 12.079 90.9974 12.7547 90.688 13.3417C90.3831 13.9241 89.9554 14.3814 89.4048 14.7136C88.8542 15.0412 88.2103 15.205 87.4732 15.205ZM87.4732 13.6625C88.1284 13.6625 88.6153 13.4441 88.9338 13.0072C89.2524 12.5704 89.4116 12.0062 89.4116 11.3145C89.4116 10.6002 89.2501 10.0314 88.927 9.6082C88.6039 9.18047 88.1193 8.96661 87.4732 8.96661C87.0318 8.96661 86.6678 9.06671 86.3811 9.26693C86.099 9.46259 85.8897 9.73788 85.7532 10.0928C85.6167 10.4432 85.5484 10.8504 85.5484 11.3145C85.5484 12.0289 85.71 12.6 86.033 13.0277C86.3607 13.4509 86.8407 13.6625 87.4732 13.6625ZM92.8607 15.0002V4.96694H94.5056V15.0002H92.8607ZM96.7549 6.50947V5.00106H98.3998V6.50947H96.7549ZM96.7549 15.0002V7.62884H98.3998V15.0002H96.7549ZM103.768 15.205C103.031 15.205 102.387 15.0389 101.837 14.7068C101.286 14.3746 100.858 13.9173 100.554 13.3349C100.253 12.7479 100.103 12.0744 100.103 11.3145C100.103 10.541 100.258 9.86301 100.567 9.28058C100.877 8.69814 101.307 8.24312 101.857 7.9155C102.408 7.58788 103.045 7.42407 103.768 7.42407C104.51 7.42407 105.156 7.59016 105.707 7.92233C106.257 8.25449 106.685 8.71407 106.99 9.30105C107.295 9.88349 107.447 10.5546 107.447 11.3145C107.447 12.079 107.292 12.7547 106.983 13.3417C106.678 13.9241 106.25 14.3814 105.7 14.7136C105.149 15.0412 104.505 15.205 103.768 15.205ZM103.768 13.6625C104.423 13.6625 104.91 13.4441 105.229 13.0072C105.547 12.5704 105.707 12.0062 105.707 11.3145C105.707 10.6002 105.545 10.0314 105.222 9.6082C104.899 9.18047 104.414 8.96661 103.768 8.96661C103.327 8.96661 102.963 9.06671 102.676 9.26693C102.394 9.46259 102.185 9.73788 102.048 10.0928C101.912 10.4432 101.844 10.8504 101.844 11.3145C101.844 12.0289 102.005 12.6 102.328 13.0277C102.656 13.4509 103.136 13.6625 103.768 13.6625Z" fill="white"/>
</svg>
