<svg width="25" height="24" viewBox="0 0 25 24" fill="none" xmlns="http://www.w3.org/2000/svg">
<path d="M0.5 12C0.5 18.6274 5.87258 24 12.5 24C19.1274 24 24.5 18.6274 24.5 12C24.5 5.37258 19.1274 0 12.5 0C5.87258 0 0.5 5.37258 0.5 12Z" fill="#1877F2"/>
<path d="M18.5 12C18.5 8.7 15.8 6 12.5 6C9.2 6 6.5 8.7 6.5 12C6.5 15 8.675 17.475 11.525 17.925V13.725H10.025V12H11.525V10.65C11.525 9.15 12.425 8.325 13.775 8.325C14.45 8.325 15.125 8.475 15.125 8.475V9.975H14.375C13.625 9.975 13.4 10.425 13.4 10.875V12H15.05L14.75 13.725H13.325V18C16.325 17.55 18.5 15 18.5 12Z" fill="white"/>
</svg>
