<svg width="19" height="16" viewBox="0 0 19 16" fill="none" xmlns="http://www.w3.org/2000/svg">
<path d="M10.5586 1.05737C10.8087 0.807413 11.1477 0.666992 11.5013 0.666992C11.8549 0.666992 12.1939 0.807413 12.444 1.05737L18.444 7.05737C18.6939 7.30741 18.8344 7.64649 18.8344 8.00004C18.8344 8.35359 18.6939 8.69267 18.444 8.94271L12.444 14.9427C12.1925 15.1856 11.8557 15.32 11.5061 15.3169C11.1565 15.3139 10.8221 15.1737 10.5749 14.9265C10.3277 14.6793 10.1874 14.3448 10.1844 13.9952C10.1814 13.6456 10.3158 13.3088 10.5586 13.0574L14.168 9.33337H1.5013C1.14768 9.33337 0.808542 9.1929 0.558493 8.94285C0.308445 8.6928 0.167969 8.35366 0.167969 8.00004C0.167969 7.64642 0.308445 7.30728 0.558493 7.05723C0.808542 6.80718 1.14768 6.66671 1.5013 6.66671H14.168L10.5586 2.94271C10.3087 2.69267 10.1683 2.35359 10.1683 2.00004C10.1683 1.64649 10.3087 1.30741 10.5586 1.05737Z" fill="white"/>
</svg>
