<svg width="24" height="25" viewBox="0 0 24 25" fill="none" xmlns="http://www.w3.org/2000/svg">
<path d="M10 19.5C10 20.6 10.9 21.5 12 21.5C13.1 21.5 14 20.6 14 19.5C14 18.4 13.1 17.5 12 17.5C10.9 17.5 10 18.4 10 19.5Z" stroke="#5B5F5E" stroke-width="1.5"/>
<path d="M10 5.5C10 6.6 10.9 7.5 12 7.5C13.1 7.5 14 6.6 14 5.5C14 4.4 13.1 3.5 12 3.5C10.9 3.5 10 4.4 10 5.5Z" stroke="#5B5F5E" stroke-width="1.5"/>
<path d="M10 12.5C10 13.6 10.9 14.5 12 14.5C13.1 14.5 14 13.6 14 12.5C14 11.4 13.1 10.5 12 10.5C10.9 10.5 10 11.4 10 12.5Z" stroke="#5B5F5E" stroke-width="1.5"/>
</svg>
