<svg width="120" height="121" viewBox="0 0 120 121" fill="none" xmlns="http://www.w3.org/2000/svg">
<path d="M59.9999 23.75C36.0999 23.75 16.6499 43.2 16.6499 67.1C16.6499 91 36.0999 110.5 59.9999 110.5C83.8999 110.5 103.35 91.05 103.35 67.15C103.35 43.25 83.8999 23.75 59.9999 23.75ZM63.7499 65.5C63.7499 67.55 62.0499 69.25 59.9999 69.25C57.9499 69.25 56.2499 67.55 56.2499 65.5V40.5C56.2499 38.45 57.9499 36.75 59.9999 36.75C62.0499 36.75 63.7499 38.45 63.7499 40.5V65.5Z" fill="#E63535"/>
<path d="M74.4502 17.75H45.5502C43.5502 17.75 41.9502 16.15 41.9502 14.15C41.9502 12.15 43.5502 10.5 45.5502 10.5H74.4502C76.4502 10.5 78.0502 12.1 78.0502 14.1C78.0502 16.1 76.4502 17.75 74.4502 17.75Z" fill="#E63535"/>
</svg>
