<svg width="20" height="20" viewBox="0 0 20 20" fill="none" xmlns="http://www.w3.org/2000/svg">
<path d="M18.0563 -0.000366211H1.94452C1.4288 -0.000366211 0.934207 0.204503 0.569538 0.569172C0.204869 0.93384 0 1.42844 0 1.94416V18.0559C0 18.5716 0.204869 19.0662 0.569538 19.4309C0.934207 19.7956 1.4288 20.0004 1.94452 20.0004H18.0563C18.572 20.0004 19.0666 19.7956 19.4313 19.4309C19.7959 19.0662 20.0008 18.5716 20.0008 18.0559V1.94416C20.0008 1.42844 19.7959 0.93384 19.4313 0.569172C19.0666 0.204503 18.572 -0.000366211 18.0563 -0.000366211ZM15.6542 12.0085V13.4916C15.6403 13.6334 15.5783 13.7663 15.4787 13.8683C15.3791 13.9702 15.2477 14.0352 15.1062 14.0524L6.73222 14.053C6.11219 14.053 5.58356 13.853 5.14688 13.4538C4.71047 13.0543 4.49213 12.5713 4.49213 12.0035C4.49213 11.5518 4.63963 11.1504 4.93492 10.7965C5.23049 10.4437 5.60467 10.1981 6.05747 10.0587L13.3747 7.96773H4.4924V6.55212C4.49452 6.41036 4.54448 6.27348 4.63419 6.1637C4.72391 6.05392 4.84809 5.97768 4.98659 5.94738H13.4142C14.0342 5.94738 14.5623 6.14572 14.9989 6.54157C15.4356 6.93797 15.6542 7.41105 15.6542 7.96162C15.6542 8.42136 15.5054 8.82583 15.2078 9.17584C14.9103 9.52641 14.5275 9.77059 14.0595 9.90781L6.73222 12.0085H15.6542Z" fill="#009254"/>
</svg>
