<svg width="24" height="24" viewBox="0 0 24 24" fill="none" xmlns="http://www.w3.org/2000/svg">
<g clip-path="url(#clip0_1303_42946)">
<rect width="24" height="24" rx="12" fill="#F9F9F9"/>
<rect width="0.177089" height="0.516424" transform="matrix(0.805411 -0.592717 0.691308 0.72256 18.7046 18.1738)" fill="#E82A2A" fill-opacity="0.35"/>
<rect width="0.798756" height="0.355519" transform="matrix(-0.965881 -0.258987 0.32917 -0.944271 13.7402 5.11328)" fill="#64BD87" fill-opacity="0.6"/>
<rect width="0.853177" height="0.396739" transform="matrix(0.310761 0.950488 -0.969803 0.243891 20.7227 1.98047)" fill="#E82A2A" fill-opacity="0.6"/>
<rect width="0.60038" height="0.383974" transform="matrix(-0.637944 -0.770083 0.843341 -0.537378 8.62012 1.84766)" fill="#E82A2A" fill-opacity="0.75"/>
<rect width="1.09014" height="0.501947" transform="matrix(0.912988 -0.407987 0.502342 0.864669 7.06982 19.8066)" fill="#E82A2A" fill-opacity="0.65"/>
<rect width="0.340745" height="0.351827" transform="matrix(0.994252 -0.107067 0.138648 0.990342 17.1538 14.2285)" fill="#F2CB6D" fill-opacity="0.6"/>
<rect width="0.487646" height="0.21985" transform="matrix(-0.937165 0.348886 -0.435647 -0.900117 0.552734 7.69531)" fill="#64BD87"/>
<rect width="0.763932" height="0.518801" transform="matrix(-0.784802 -0.619746 0.716342 -0.697749 2.41504 24.1621)" fill="#F2CB6D" fill-opacity="0.6"/>
<rect width="0.299372" height="0.40025" transform="matrix(0.0198985 -0.999802 0.999883 0.0153069 14.2065 8.65039)" fill="#64BD87" fill-opacity="0.85"/>
<rect width="0.846063" height="0.399369" transform="matrix(0.158227 -0.987403 0.992489 0.122333 0.552734 21.9824)" fill="#64BD87" fill-opacity="0.6"/>
<rect width="0.78866" height="0.221093" transform="matrix(0.919416 -0.393287 0.486017 0.873949 14.2065 21.168)" fill="#64BD87" fill-opacity="0.75"/>
<rect width="0.647797" height="0.3537" transform="matrix(0.980111 -0.198452 0.254566 0.967055 15.7563 15.8594)" fill="#18A0FC" fill-opacity="0.85"/>
<rect width="0.803942" height="0.35263" transform="matrix(0.988253 -0.152828 0.197105 0.980382 0.552734 10.1465)" fill="#E82A2A" fill-opacity="0.75"/>
<rect width="0.1826" height="0.359653" transform="matrix(0.931503 -0.363734 0.452665 0.891681 1.01904 13.2773)" fill="#18A0FC" fill-opacity="0.9"/>
<rect width="0.174717" height="0.377316" transform="matrix(0.74027 0.672309 -0.76309 0.646292 14.5161 8.78516)" fill="#64BD87" fill-opacity="0.6"/>
<rect width="0.649342" height="0.35263" transform="matrix(0.988253 0.152828 -0.197105 0.980382 5.36133 3.20703)" fill="#18A0FC" fill-opacity="0.75"/>
<rect width="1.04342" height="0.232112" transform="matrix(0.716342 -0.697749 0.784802 0.619746 3.81152 16.1328)" fill="#64BD87" fill-opacity="0.75"/>
<rect width="1.09377" height="0.36033" transform="matrix(0.925587 0.378535 -0.469457 0.882956 4.74121 19.8066)" fill="#18A0FC"/>
<rect width="0.469066" height="0.519993" transform="matrix(0.774085 0.633082 -0.728445 0.685104 18.7046 18.4473)" fill="#F2CB6D"/>
<rect width="0.339331" height="0.490794" transform="matrix(0.980111 0.198452 -0.254566 0.967055 16.2212 15.7246)" fill="#E82A2A" fill-opacity="0.35"/>
<rect width="0.462687" height="0.527096" transform="matrix(-0.703963 -0.710236 0.795244 -0.606289 19.3247 12.0508)" fill="#E82A2A" fill-opacity="0.45"/>
<rect width="0.180738" height="0.222899" transform="matrix(0.892148 -0.451744 0.549852 0.835262 0.709473 15.4531)" fill="#64BD87" fill-opacity="0.65"/>
<rect width="0.845492" height="0.244703" transform="matrix(-0.138648 0.990342 -0.994252 -0.107067 20.4131 23.209)" fill="#18A0FC" fill-opacity="0.35"/>
<rect width="0.325356" height="0.371319" transform="matrix(-0.815303 0.579034 -0.678377 -0.734714 16.5317 14.5)" fill="#18A0FC" fill-opacity="0.85"/>
<ellipse cx="4.41038" cy="5.18766" rx="0.882061" ry="0.773594" fill="#18A0FC"/>
<path d="M21.0201 19.1455L21.141 19.0192L21.2851 19.1252L21.1642 19.2516L21.0201 19.1455Z" fill="#F2CB6D" fill-opacity="0.9"/>
<path d="M2.3491 1.55046L2.25055 1.31299L2.43576 1.11941L2.71952 1.16329L2.81807 1.40076L2.63286 1.59434L2.3491 1.55046Z" fill="#64BD87" fill-opacity="0.75"/>
<path d="M14.1589 10.2554L14.0278 10.3301L13.9063 10.2438L13.9623 10.1158L14.1184 10.1229L14.1589 10.2554Z" fill="#64BD87" fill-opacity="0.45"/>
<path d="M1.60888 24.114L1.78809 23.9054L2.02591 24.0626L1.8467 24.2712L1.60888 24.114Z" fill="#F2CB6D" fill-opacity="0.65"/>
<path d="M20.2823 9.82868L19.8947 9.93911L19.7688 9.59923L20.1564 9.48879L20.2823 9.82868Z" fill="#18A0FC" fill-opacity="0.45"/>
<path d="M8.25153 22.5701L7.89766 22.6475L7.99819 22.34L8.25153 22.5701Z" fill="#E82A2A" fill-opacity="0.35"/>
<path d="M16.0599 19.6558L15.7172 19.5464L15.9966 19.3408L16.0599 19.6558Z" fill="#18A0FC" fill-opacity="0.6"/>
<path d="M16.9585 11.9566L17.3389 11.8286L17.4849 12.1622L17.1045 12.2903L16.9585 11.9566Z" fill="#18A0FC" fill-opacity="0.85"/>
<path d="M10.8186 7.87861L10.6353 8.08441L10.4006 7.92362L10.584 7.71782L10.8186 7.87861Z" fill="#64BD87" fill-opacity="0.6"/>
<path d="M12.4421 20.0518L12.8066 20.0406L12.6354 20.323L12.4421 20.0518Z" fill="#E82A2A" fill-opacity="0.35"/>
<path d="M18.2503 9.24301L18.051 9.43709L17.8297 9.26234L18.029 9.06826L18.2503 9.24301Z" fill="#18A0FC" fill-opacity="0.65"/>
<path d="M10.5648 12.0908L10.6007 11.9289L10.7853 11.9604L10.7494 12.1223L10.5648 12.0908Z" fill="#64BD87" fill-opacity="0.75"/>
<path d="M21.8083 16.6646L21.8598 16.8769L21.6454 16.9855L21.4615 16.8402L21.5622 16.6419L21.8083 16.6646Z" fill="#18A0FC" fill-opacity="0.9"/>
<path d="M24.1859 6.22516L24.0247 6.01566L24.151 5.78853L24.4385 5.7709L24.5996 5.9804L24.4733 6.20753L24.1859 6.22516Z" fill="#E82A2A" fill-opacity="0.45"/>
<path d="M0.834572 2.20332L1.16851 2.52859L0.680353 2.61959L0.834572 2.20332Z" fill="#E82A2A" fill-opacity="0.45"/>
<path d="M18.0789 19.517L17.9826 19.625L17.8357 19.5781L17.8411 19.4411L17.9914 19.4033L18.0789 19.517Z" fill="#F2CB6D" fill-opacity="0.65"/>
<path d="M9.65205 12.6888L9.90993 12.4626L10.0043 12.7716L9.65205 12.6888Z" fill="#F2CB6D" fill-opacity="0.35"/>
<path d="M2.09059 18.1945L2.27695 18.0758L2.30103 18.2767L2.09059 18.1945Z" fill="#E82A2A" fill-opacity="0.45"/>
<path d="M13.7317 8.03128L13.8025 7.67933L14.2038 7.74139L14.133 8.09334L13.7317 8.03128Z" fill="#18A0FC" fill-opacity="0.75"/>
<path d="M23.6925 2.58976L23.7044 2.88665L23.3861 2.98825L23.1775 2.75416L23.3669 2.50787L23.6925 2.58976Z" fill="#64BD87" fill-opacity="0.85"/>
<path d="M12.5064 8.19239L12.6588 8.02132L12.8914 8.09557L12.8827 8.31253L12.6448 8.37237L12.5064 8.19239Z" fill="#E82A2A" fill-opacity="0.35"/>
<path d="M14.9563 9.61232L14.8197 9.90889L14.5951 9.65684L14.9563 9.61232Z" fill="#18A0FC" fill-opacity="0.65"/>
<path d="M4.24034 23.1309L4.60341 23.2931L4.41842 23.6116L4.05535 23.4493L4.24034 23.1309Z" fill="#F2CB6D" fill-opacity="0.65"/>
<path d="M13.0201 12.8704L13.227 13.0583L13.0128 13.2397L12.8059 13.0518L13.0201 12.8704Z" fill="#F2CB6D"/>
<path d="M8.26373 11.4409L8.39621 11.4307L8.47249 11.5263L8.41629 11.632L8.2838 11.6422L8.20752 11.5466L8.26373 11.4409Z" fill="#64BD87" fill-opacity="0.75"/>
<path d="M10.9027 9.85311L10.6828 9.89167L10.573 10.0632L10.5291 9.87031L10.3335 9.77404L10.5534 9.73549L10.6632 9.56398L10.7071 9.75684L10.9027 9.85311Z" fill="#18A0FC"/>
<path d="M8.68591 11.864L8.60278 11.8283L8.55943 11.9001L8.55309 11.8191L8.4606 11.822L8.53739 11.7767L8.48825 11.7079L8.57138 11.7436L8.61473 11.6719L8.62107 11.7529L8.71356 11.7499L8.63677 11.7952L8.68591 11.864Z" fill="#F2CB6D" fill-opacity="0.6"/>
<path d="M18.076 10.6875L18.0025 10.7987L18.1269 10.8667L17.9804 10.8666L17.9754 10.995L17.9023 10.8836L17.773 10.9441L17.8465 10.8329L17.7221 10.7649L17.8686 10.7651L17.8736 10.6366L17.9467 10.748L18.076 10.6875Z" fill="#18A0FC" fill-opacity="0.65"/>
<path d="M15.3495 18.8003L15.257 18.7595L15.1615 18.7945L15.208 18.7134L15.1681 18.6296L15.2606 18.6704L15.3561 18.6354L15.3096 18.7165L15.3495 18.8003Z" fill="#64BD87" fill-opacity="0.6"/>
<path d="M16.4205 8.2887L16.2805 8.36338L16.254 8.50521L16.1689 8.38242L16.0072 8.35917L16.1472 8.28449L16.1737 8.14266L16.2588 8.26546L16.4205 8.2887Z" fill="#E82A2A" fill-opacity="0.6"/>
<path d="M22.4173 16.4707L22.5436 16.3342L22.3921 16.219L22.5902 16.2467L22.6282 16.074L22.6998 16.2383L22.8893 16.1808L22.7629 16.3174L22.9144 16.4326L22.7164 16.4049L22.6784 16.5775L22.6068 16.4133L22.4173 16.4707Z" fill="#E82A2A" fill-opacity="0.35"/>
<path d="M14.7187 24.0626L14.8846 23.9302L14.8779 23.7336L15.0289 23.8791L15.253 23.8732L15.0872 24.0056L15.0938 24.2022L14.9429 24.0568L14.7187 24.0626Z" fill="#18A0FC" fill-opacity="0.85"/>
<path d="M16.7171 7.32891L16.6563 7.26305L16.5661 7.29342L16.6188 7.22235L16.558 7.15649L16.6513 7.17842L16.7039 7.10735L16.709 7.19198L16.8023 7.21391L16.7121 7.24428L16.7171 7.32891Z" fill="#18A0FC" fill-opacity="0.65"/>
<path d="M18.27 5.48159L18.2766 5.40062L18.1846 5.39224L18.2678 5.35675L18.23 5.28264L18.3067 5.32811L18.361 5.26238L18.3544 5.34335L18.4465 5.35173L18.3633 5.38722L18.401 5.46134L18.3244 5.41586L18.27 5.48159Z" fill="#F2CB6D" fill-opacity="0.45"/>
<path d="M7.44612 15.0761L7.62209 14.9542L7.63111 14.7576L7.77011 14.912L7.99418 14.9199L7.81821 15.0418L7.80919 15.2383L7.67018 15.084L7.44612 15.0761Z" fill="#F2CB6D" fill-opacity="0.65"/>
<path d="M11.2145 17.0401L11.353 16.9633L11.3767 16.821L11.4643 16.9425L11.6264 16.9633L11.4879 17.0401L11.4643 17.1823L11.3767 17.0608L11.2145 17.0401Z" fill="#18A0FC" fill-opacity="0.75"/>
<path d="M21.7756 15.167L21.9211 15.2085L22.011 15.0999L22.011 15.2341L22.1565 15.2756L22.011 15.317L22.011 15.4512L21.9211 15.3426L21.7756 15.3841L21.8655 15.2756L21.7756 15.167Z" fill="#E82A2A" fill-opacity="0.35"/>
<path d="M9.81596 3.97838L9.91424 3.81627L9.76882 3.6842L9.97498 3.71608L10.0733 3.55397L10.1024 3.73578L10.3086 3.76767L10.1204 3.84815L10.1495 4.02996L10.0041 3.89789L9.81596 3.97838Z" fill="#E82A2A" fill-opacity="0.9"/>
<path d="M14.9272 17.3349L14.898 17.2032L14.7462 17.1869L14.88 17.1218L14.8508 16.9901L14.9627 17.0816L15.0965 17.0166L15.0318 17.1382L15.1437 17.2297L14.9919 17.2133L14.9272 17.3349Z" fill="#E82A2A" fill-opacity="0.6"/>
<path d="M6.61279 6.45229L6.5232 6.48404L6.52994 6.56857L6.46783 6.50366L6.37825 6.5354L6.42945 6.46354L6.36734 6.39862L6.46109 6.41912L6.5123 6.34725L6.51904 6.43179L6.61279 6.45229Z" fill="#18A0FC" fill-opacity="0.6"/>
<path d="M15.5027 22.0605L15.4243 22.0174L15.3726 22.0847L15.376 22.0036L15.2837 21.998L15.3654 21.96L15.3248 21.8871L15.4032 21.9302L15.4548 21.8629L15.4515 21.944L15.5438 21.9495L15.4621 21.9876L15.5027 22.0605Z" fill="#F2CB6D" fill-opacity="0.85"/>
<path d="M1.80131 11.5607L1.93825 11.4323L1.79628 11.3081L1.9916 11.3478L2.04326 11.1779L2.10164 11.3462L2.29526 11.3004L2.15833 11.4289L2.30029 11.5531L2.10497 11.5133L2.05331 11.6832L1.99493 11.515L1.80131 11.5607Z" fill="#F2CB6D" fill-opacity="0.45"/>
<path d="M15.4174 3.70476L15.2931 3.61105L15.1312 3.63278L15.238 3.5238L15.2132 3.38173L15.3375 3.47544L15.4995 3.45372L15.3926 3.56269L15.4174 3.70476Z" fill="#64BD87" fill-opacity="0.45"/>
<path d="M13.3562 5.07806L13.5016 5.09388L13.5244 4.96692L13.5814 5.08528L13.7182 5.03908L13.6299 5.14162L13.7438 5.22237L13.5984 5.20655L13.5757 5.33351L13.5186 5.21514L13.3819 5.26135L13.4702 5.15881L13.3562 5.07806Z" fill="#18A0FC" fill-opacity="0.45"/>
<path d="M7.89518 2.15965L7.76544 2.23075L7.80245 2.36094L7.68526 2.2747L7.55552 2.3458L7.61283 2.22139L7.49564 2.13515L7.64825 2.14451L7.70556 2.02011L7.74257 2.15029L7.89518 2.15965Z" fill="#18A0FC" fill-opacity="0.75"/>
<path d="M1.64977 19.0127L1.74392 18.9936L1.75234 18.9092L1.80211 18.9819L1.89626 18.9628L1.83287 19.0268L1.88263 19.0994L1.79369 19.0663L1.7303 19.1302L1.73872 19.0458L1.64977 19.0127Z" fill="#E82A2A" fill-opacity="0.75"/>
<path d="M9.21712 9.21294L9.26776 9.39109L9.4766 9.40389L9.29906 9.50119L9.34971 9.67933L9.18934 9.56132L9.01181 9.65861L9.09023 9.48838L8.92987 9.37036L9.1387 9.38317L9.21712 9.21294Z" fill="#18A0FC" fill-opacity="0.9"/>
<path d="M9.18561 8.94118L9.11299 8.81234L8.95419 8.77682L9.1011 8.71313L9.14159 8.57386L9.21422 8.7027L9.37301 8.73822L9.2261 8.80191L9.18561 8.94118Z" fill="#E82A2A" fill-opacity="0.75"/>
<path d="M18.5204 18.2634L18.3962 18.1696L18.2342 18.1914L18.341 18.0824L18.3163 17.9403L18.4405 18.034L18.6025 18.0123L18.4957 18.1213L18.5204 18.2634Z" fill="#F2CB6D" fill-opacity="0.75"/>
<path d="M8.72452 20.8013L8.64573 20.6863L8.49667 20.7165L8.59703 20.6152L8.51824 20.5002L8.65906 20.5526L8.75943 20.4514L8.74609 20.585L8.88692 20.6375L8.73785 20.6676L8.72452 20.8013Z" fill="#64BD87" fill-opacity="0.75"/>
<g filter="url(#filter0_d_1303_42946)">
<path d="M12 2L15.18 6.49208L20.6603 7L18.36 12L20.6603 17L15.18 17.5079L12 22L8.82 17.5079L3.33975 17L5.64 12L3.33975 7L8.82 6.49208L12 2Z" fill="url(#paint0_linear_1303_42946)"/>
<circle cx="12.0496" cy="11.95" r="7.45" fill="url(#paint1_linear_1303_42946)"/>
<circle cx="12.0492" cy="11.9496" r="6.35" fill="url(#paint2_radial_1303_42946)"/>
<circle cx="11.9994" cy="11.9984" r="6.1" fill="#E1E3E2"/>
<g filter="url(#filter1_d_1303_42946)">
<path d="M11.9987 9.69922V12.1355L11.1855 11.0957L11.8219 9.80842C11.8603 9.73766 11.9311 9.69922 11.9987 9.69922Z" fill="white"/>
<path d="M14.3932 11.4422L12.001 12.1375L12.8139 11.0977L14.234 11.3038C14.3137 11.3184 14.3696 11.3743 14.3932 11.4422Z" fill="#F2F4F5"/>
<path d="M13.4768 14.249L11.998 12.1367L13.312 12.6405L13.5535 14.0546C13.5709 14.1372 13.5355 14.2077 13.4768 14.249Z" fill="#EFF5F3"/>
<path d="M11.9985 12.1367V13.595L10.7287 14.2636C10.6551 14.3018 10.5785 14.29 10.5195 14.249L11.9985 12.1367Z" fill="#D5DBDD"/>
<path d="M12.8112 11.0957L11.998 12.1355V9.69922C12.0511 9.69922 12.1042 9.71974 12.1424 9.76101C12.1483 9.76691 12.1542 9.77563 12.1601 9.7846C12.166 9.79356 12.1719 9.80228 12.1747 9.81101L12.8112 11.0957Z" fill="#DFE3E6"/>
<path d="M14.388 11.5731C14.3821 11.5849 14.3762 11.5967 14.3703 11.6085C14.3614 11.6202 14.3526 11.629 14.3439 11.6408L13.3159 12.6424L12.002 12.1386L14.3942 11.4434C14.3942 11.4462 14.397 11.4493 14.397 11.4523C14.397 11.4554 14.4 11.4582 14.4 11.4641C14.4 11.4672 14.4 11.4672 14.4 11.4672C14.4 11.47 14.4 11.4731 14.4 11.4759C14.4 11.4818 14.4 11.4849 14.4 11.4905C14.4029 11.5169 14.3998 11.5464 14.388 11.5731Z" fill="#C4C7C6"/>
<path d="M13.477 14.249C13.4624 14.2608 13.4447 14.2695 13.424 14.2754C13.4211 14.2754 13.4211 14.2754 13.4181 14.2782C13.3709 14.2928 13.3178 14.29 13.2678 14.2636L11.998 13.595V12.1367L13.477 14.249Z" fill="#C0C7CE"/>
<path d="M11.9985 12.1367L10.5198 14.249C10.5169 14.2459 10.5139 14.2431 10.511 14.24C10.5082 14.2372 10.5052 14.2341 10.5021 14.231C10.4993 14.2282 10.4962 14.2251 10.4903 14.2192C10.4872 14.2164 10.4844 14.2134 10.4813 14.2103C10.4783 14.2072 10.4785 14.2075 10.4785 14.2044C10.4757 14.2016 10.4726 14.1985 10.4726 14.1954C10.4667 14.1867 10.4608 14.1777 10.458 14.169C10.4552 14.1662 10.4552 14.1601 10.4521 14.1544C10.4493 14.1485 10.4493 14.1454 10.4462 14.1398C10.4434 14.1339 10.4434 14.1251 10.4434 14.1192C10.4434 14.1164 10.4434 14.1103 10.4434 14.1075C10.4434 14.1016 10.4434 14.0957 10.4434 14.0898C10.4434 14.078 10.4434 14.0662 10.4462 14.0544L10.6877 12.6403L11.9985 12.1367Z" fill="white"/>
<path d="M11.9986 12.1347L9.60645 11.4394C9.60645 11.4366 9.60928 11.4335 9.60928 11.4304C9.61211 11.4245 9.61211 11.4186 9.61517 11.4158C9.62107 11.404 9.62696 11.3953 9.63286 11.3863C9.63569 11.3804 9.63876 11.3774 9.64465 11.3717C9.64772 11.3689 9.65055 11.3627 9.65645 11.3599C9.65928 11.3571 9.66541 11.3512 9.66824 11.3481C9.67107 11.3451 9.67696 11.3422 9.68003 11.3392C9.68593 11.3363 9.69182 11.3302 9.69772 11.3274C9.70055 11.3245 9.70644 11.3215 9.71234 11.3215C9.7213 11.3186 9.72696 11.3156 9.73593 11.3125C9.73876 11.3125 9.74182 11.3097 9.74772 11.3097C9.75361 11.3069 9.76234 11.3069 9.7713 11.3038L11.1913 11.0977L11.9986 12.1347Z" fill="white"/>
<path d="M11.9984 12.1356L10.6876 12.6422L9.65955 11.6406C9.64776 11.6316 9.64186 11.62 9.63313 11.6083C9.62724 11.5965 9.61851 11.5847 9.61544 11.5729C9.61261 11.567 9.60955 11.5611 9.60955 11.5552C9.60365 11.5375 9.60059 11.517 9.60059 11.4993C9.60059 11.4934 9.60059 11.4875 9.60059 11.4816C9.60059 11.4729 9.60059 11.467 9.60365 11.458C9.60365 11.4552 9.60648 11.4521 9.60648 11.4462C9.60648 11.4434 9.60931 11.4403 9.60931 11.4375L11.9984 12.1356Z" fill="#EFF5F3"/>
</g>
</g>
</g>
<defs>
<filter id="filter0_d_1303_42946" x="1.33984" y="0" width="21.3203" height="24" filterUnits="userSpaceOnUse" color-interpolation-filters="sRGB">
<feFlood flood-opacity="0" result="BackgroundImageFix"/>
<feColorMatrix in="SourceAlpha" type="matrix" values="0 0 0 0 0 0 0 0 0 0 0 0 0 0 0 0 0 0 127 0" result="hardAlpha"/>
<feOffset/>
<feGaussianBlur stdDeviation="1"/>
<feComposite in2="hardAlpha" operator="out"/>
<feColorMatrix type="matrix" values="0 0 0 0 0 0 0 0 0 0 0 0 0 0 0 0 0 0 0.14 0"/>
<feBlend mode="normal" in2="BackgroundImageFix" result="effect1_dropShadow_1303_42946"/>
<feBlend mode="normal" in="SourceGraphic" in2="effect1_dropShadow_1303_42946" result="shape"/>
</filter>
<filter id="filter1_d_1303_42946" x="8.60059" y="8.69922" width="6.80029" height="6.58789" filterUnits="userSpaceOnUse" color-interpolation-filters="sRGB">
<feFlood flood-opacity="0" result="BackgroundImageFix"/>
<feColorMatrix in="SourceAlpha" type="matrix" values="0 0 0 0 0 0 0 0 0 0 0 0 0 0 0 0 0 0 127 0" result="hardAlpha"/>
<feOffset/>
<feGaussianBlur stdDeviation="0.5"/>
<feComposite in2="hardAlpha" operator="out"/>
<feColorMatrix type="matrix" values="0 0 0 0 0 0 0 0 0 0 0 0 0 0 0 0 0 0 0.1 0"/>
<feBlend mode="normal" in2="BackgroundImageFix" result="effect1_dropShadow_1303_42946"/>
<feBlend mode="normal" in="SourceGraphic" in2="effect1_dropShadow_1303_42946" result="shape"/>
</filter>
<linearGradient id="paint0_linear_1303_42946" x1="3.1" y1="12" x2="20" y2="12" gradientUnits="userSpaceOnUse">
<stop offset="0.00520833" stop-color="#E4E4E4"/>
<stop offset="0.338542" stop-color="#BFBFBF"/>
<stop offset="0.671875" stop-color="#776E6E"/>
<stop offset="1" stop-color="#E6E6E6"/>
</linearGradient>
<linearGradient id="paint1_linear_1303_42946" x1="4.59961" y1="12" x2="19.4996" y2="12" gradientUnits="userSpaceOnUse">
<stop stop-color="white"/>
<stop offset="0.380208" stop-color="#909090"/>
<stop offset="0.720113" stop-color="#DDDDDD"/>
<stop offset="1" stop-color="white"/>
</linearGradient>
<radialGradient id="paint2_radial_1303_42946" cx="0" cy="0" r="1" gradientUnits="userSpaceOnUse" gradientTransform="translate(11.9992 11.9996) rotate(-0.0660931) scale(6.4)">
<stop offset="0.942708"/>
<stop offset="1" stop-color="white" stop-opacity="0.13"/>
</radialGradient>
<clipPath id="clip0_1303_42946">
<rect width="24" height="24" rx="12" fill="white"/>
</clipPath>
</defs>
</svg>
