<svg width="118" height="57" viewBox="0 0 118 57" fill="none" xmlns="http://www.w3.org/2000/svg">
<g clip-path="url(#clip0_1999_26530)">
<path d="M73.0488 44.6953L79.5923 37.4743L104.283 59.8489L103.796 72.558L73.0488 44.6953Z" fill="#EF2B2B"/>
<path d="M86.1357 30.2539L79.5923 37.4749L104.283 59.8495L116.883 58.1166L86.1357 30.2539Z" fill="#B70808"/>
<path d="M52.6709 49.5732L62.3383 48.348L66.5278 81.4043L57.8881 90.7377L52.6709 49.5732Z" fill="#EF2B2B"/>
<path d="M72.0049 47.123L62.3375 48.3483L66.5271 81.4046L77.2221 88.2875L72.0049 47.123Z" fill="#B70808"/>
<path d="M41.2351 0.240574L37.9754 9.73312L47.3763 4.30549L43.4693 -2.46179C42.4528 -1.87932 41.6411 -0.939822 41.2351 0.240574Z" fill="#6F82EB"/>
<path d="M46.8852 -3.03064C45.675 -3.26341 44.4721 -3.03681 43.4688 -2.46191L47.3758 4.30536L56.7767 -1.12227L46.8852 -3.03064Z" fill="url(#paint0_linear_1999_26530)"/>
<path d="M26.6159 21.1583L30.221 30.5255L33.9336 20.3254L26.5905 17.6527C26.1859 18.7521 26.1683 19.994 26.6159 21.1583Z" fill="#2847EC"/>
<path d="M28.8432 15.0191C27.7661 15.6176 26.9899 16.5657 26.5919 17.6512L33.9351 20.3239L37.6477 10.1238L28.8432 15.0191Z" fill="url(#paint1_linear_1999_26530)"/>
<path d="M28.8635 46.5785L37.6455 51.4379L33.9328 41.2378L26.5903 43.9085C26.9868 45.0119 27.7713 45.9744 28.8635 46.5785Z" fill="#2747F1"/>
<path d="M26.6237 40.4454C26.1849 41.5966 26.1996 42.8214 26.5912 43.9086L33.9342 41.2361L30.2215 31.036L26.6237 40.4454Z" fill="url(#paint2_linear_1999_26530)"/>
<path d="M46.925 64.6076L56.776 62.6838L47.3756 57.2558L43.4682 64.0233C44.4809 64.6135 45.7001 64.8468 46.925 64.6076Z" fill="url(#paint3_linear_1999_26530)"/>
<path d="M41.2671 61.3504C41.6695 62.5145 42.4685 63.4439 43.4677 64.0258L47.3751 57.2584L37.9747 51.8304L41.2671 61.3504Z" fill="url(#paint4_linear_1999_26530)"/>
<path d="M72.3506 66.8093L78.6605 59.0046L67.9707 60.8893L69.3279 68.5851C70.4821 68.3851 71.5667 67.7794 72.3506 66.8093Z" fill="url(#paint5_linear_1999_26530)"/>
<path d="M93.2423 52.152L93.0591 42.1168L86.0819 50.4321L92.068 55.4553C92.8225 54.5606 93.2646 53.4 93.2423 52.152Z" fill="url(#paint6_linear_1999_26530)"/>
<path d="M89.0503 57.158C90.2677 56.9639 91.3205 56.3385 92.0666 55.4545L86.0806 50.4312L79.1034 58.7465L89.0503 57.158Z" fill="url(#paint7_linear_1999_26530)"/>
<path d="M99.8253 27.4955L93.2351 19.9261L93.2356 30.7812L101.05 30.781C101.053 29.6089 100.645 28.4361 99.8253 27.4955Z" fill="url(#paint8_linear_1999_26530)"/>
<path d="M99.8318 34.0246C100.638 33.0939 101.043 31.9373 101.048 30.7804L93.2331 30.7806L93.2337 41.6356L99.8318 34.0246Z" fill="url(#paint9_linear_1999_26530)"/>
<path d="M89.0168 4.3759L79.1025 2.81445L86.0797 11.1298L92.0656 6.10679C91.3171 5.20665 90.2501 4.57052 89.0168 4.3759Z" fill="url(#paint10_linear_1999_26530)"/>
<path d="M93.2219 9.37379C93.2424 8.14188 92.8094 6.99544 92.0678 6.10732L86.0818 11.1303L93.059 19.4457L93.2219 9.37379Z" fill="url(#paint11_linear_1999_26530)"/>
<path d="M65.8792 -6.38773L57.2804 -1.21185L67.9703 0.672926L69.3272 -7.02283C68.1747 -7.22908 66.949 -7.03166 65.8792 -6.38773Z" fill="url(#paint12_linear_1999_26530)"/>
<path d="M72.3103 -5.26097C71.5335 -6.21767 70.4659 -6.81701 69.3276 -7.02129L67.9706 0.67447L78.6605 2.55924L72.3103 -5.26097Z" fill="url(#paint13_linear_1999_26530)"/>
<path d="M75.9019 53.8249C88.5815 46.5043 92.9258 30.291 85.6053 17.6114C78.2847 4.9318 62.0715 0.58745 49.3919 7.90802C36.7124 15.2286 32.3681 31.4419 39.6886 44.1215C47.0091 56.8011 63.2224 61.1455 75.9019 53.8249Z" fill="url(#paint14_radial_1999_26530)"/>
<path d="M48.2231 5.77078C34.411 13.7453 29.6779 31.406 37.6524 45.2183C45.6268 59.0305 63.2886 63.763 77.1008 55.7885C90.9129 47.814 95.6454 30.1521 87.6709 16.3399C79.6965 2.52766 62.0353 -2.20372 48.2231 5.77078ZM75.9154 53.7354C63.2369 61.0553 47.0254 56.7114 39.7055 44.0329C32.3856 31.3544 36.7294 15.1428 49.4079 7.82282C62.0864 0.50287 78.2979 4.84675 85.6178 17.5253C92.9377 30.2038 88.5938 46.4154 75.9154 53.7354Z" fill="url(#paint15_linear_1999_26530)"/>
<path d="M46.3791 2.57934C30.8046 11.5713 25.4687 31.4853 34.4606 47.0599C43.4526 62.6345 63.3664 67.9704 78.9409 58.9784C94.5154 49.9864 99.8514 30.0724 90.8594 14.4979C81.8675 -1.07671 61.9536 -6.41264 46.3791 2.57934ZM77.0922 55.7762C63.2866 63.747 45.6334 59.0168 37.6628 45.2111C29.6921 31.4054 34.4229 13.7533 48.2285 5.78259C62.0341 -2.18812 79.6872 2.54205 87.6579 16.3477C95.6286 30.1534 90.8978 47.8055 77.0922 55.7762Z" fill="url(#paint16_linear_1999_26530)"/>
<path d="M62.9742 45.9418C62.5916 46.1627 62.1656 46.2454 61.7256 46.2079C61.6693 46.2039 61.6262 46.1924 61.5831 46.1808C61.5482 46.1835 61.5182 46.1643 61.4969 46.1577C61.4182 46.1477 61.3676 46.123 61.3038 46.1059C61.2606 46.0944 61.2307 46.0753 61.1886 46.0631L61.1679 46.0575C61.1248 46.046 61.0948 46.0269 61.0659 46.0071L61.0146 45.9813C60.9126 45.9309 60.8248 45.8723 60.736 45.8143C60.6995 45.7814 60.6613 45.748 60.6237 45.7158C60.5866 45.6818 60.5415 45.6365 60.5044 45.6025C60.4586 45.556 60.4063 45.4958 60.3524 45.4352C60.3366 45.4078 60.3001 45.375 60.2843 45.3476C60.2528 45.293 60.2081 45.2459 60.1765 45.1912C60.1216 45.0961 60.0792 44.9923 60.0303 44.8748L57.5499 38.1497L50.6117 36.383C50.4824 36.3484 50.3455 36.3006 50.2222 36.2435C50.0695 36.1684 49.9593 36.1038 49.8557 36.0178C49.8192 35.9849 49.7603 35.946 49.7064 35.8854C49.5701 35.7454 49.4492 35.5965 49.347 35.4194C49.3154 35.3648 49.292 35.3243 49.2605 35.2696C49.2131 35.1876 49.1789 35.0981 49.1589 35.0003C49.1513 34.9872 49.1487 34.9523 49.1405 34.9381C49.1307 34.8883 49.1074 34.8479 49.0971 34.7998C49.0895 34.7867 49.0863 34.7507 49.0771 34.7021C49.0662 34.653 49.0571 34.6043 49.0611 34.5481C49.0542 34.4427 49.0484 34.3367 49.0613 34.2025C49.057 34.132 49.0741 34.0682 49.0917 34.0027C49.0917 34.0027 49.0841 33.9896 49.0972 33.982L49.1107 33.5005L49.3021 33.39C49.3212 33.36 49.3267 33.3393 49.3459 33.3093C49.3656 33.2804 49.4045 33.2215 49.4292 33.1709C49.4681 33.112 49.5201 33.0455 49.5863 32.9708C49.606 32.9419 49.6383 32.9044 49.6798 32.8804C49.7269 32.8357 49.7734 32.7899 49.8329 32.7366L55.4656 28.3009L54.976 21.2092C54.9219 20.4212 55.3154 19.6838 55.9976 19.2899C56.4896 19.0059 57.0854 18.9345 57.6316 19.0929C57.7254 19.1291 57.8116 19.1522 57.8918 19.1977C57.9938 19.2482 58.0958 19.2986 58.1836 19.3573L64.1296 23.3162L70.7731 20.6642C71.5112 20.3649 72.3475 20.5205 72.93 21.0574C72.9682 21.0907 72.9964 21.1094 73.0204 21.1509C73.028 21.164 73.028 21.164 73.0493 21.1707C73.0864 21.2046 73.124 21.2369 73.1556 21.2915C73.1631 21.3047 73.1631 21.3047 73.1713 21.3189C73.216 21.366 73.2394 21.4064 73.2709 21.4611C73.4347 21.712 73.551 22.0093 73.5837 22.3184C73.6053 22.4517 73.6066 22.5777 73.5933 22.7137L73.5866 22.735C73.5738 22.8693 73.5473 23.0128 73.5127 23.1422L71.5736 30.0341L76.1492 35.5306C76.6448 36.1365 76.772 36.9552 76.4479 37.689C76.3661 37.863 76.2577 38.0539 76.1253 38.2032C76.111 38.2114 76.1061 38.2332 76.0788 38.249C75.9332 38.4059 75.7708 38.5361 75.5937 38.6384C75.3073 38.8037 74.9806 38.902 74.6426 38.9149L67.4896 39.2023L63.6642 45.2533C63.5079 45.5432 63.2606 45.7764 62.9742 45.9418Z" fill="#E7E7E7"/>
<path d="M56.5029 20.1625L63.0231 31.4559L56.4707 28.8121L55.9752 21.1421C55.9641 20.7112 56.1892 20.3437 56.5029 20.1625Z" fill="#B820A9"/>
<path d="M72.264 21.8249L63.0359 31.4501L64.0214 24.4542L71.1555 21.6093C71.5642 21.4637 71.9729 21.5732 72.264 21.8249Z" fill="#A80CCF"/>
<path d="M75.5321 37.2897L63.0244 31.4561L70.4632 30.2749L75.3673 36.1837C75.6691 36.5197 75.6938 36.9412 75.5321 37.2897Z" fill="#CF0CBC"/>
<path d="M63.0208 31.4568L66.9235 38.2164L62.8268 44.7142C62.588 45.0882 62.2011 45.2387 61.818 45.2063L63.0208 31.4568Z" fill="#AC289F"/>
<path d="M64.0088 24.4609L63.0222 31.4574L56.502 20.1641C56.7479 20.022 57.0488 19.9751 57.3364 20.0642C57.3795 20.0758 57.4302 20.1004 57.4815 20.1262C57.5328 20.152 57.5835 20.1766 57.62 20.2095L64.0088 24.4609Z" fill="#CF0CBC"/>
<path d="M72.5912 22.4557C72.5954 22.5262 72.5997 22.5966 72.6039 22.6671C72.5939 22.7457 72.5768 22.8095 72.5679 22.8875L70.4831 30.282L63.0443 31.4632L72.2725 21.838C72.28 21.8512 72.3014 21.8578 72.3096 21.872C72.3178 21.8862 72.3396 21.8911 72.3553 21.9185C72.3636 21.9327 72.3636 21.9327 72.3636 21.9327C72.3711 21.9458 72.3793 21.96 72.3869 21.9731C72.4027 22.0005 72.4109 22.0147 72.426 22.0409C72.5099 22.1558 72.5745 22.3006 72.5912 22.4557Z" fill="#E63ED5"/>
<path d="M75.5302 37.29C75.494 37.3838 75.4354 37.4716 75.3549 37.5545C75.3418 37.5621 75.3418 37.5621 75.3352 37.5834C75.1557 37.7774 74.9021 37.9063 74.5996 37.9177L66.9241 38.2167L63.0215 31.457L75.5302 37.29Z" fill="#ED28D9"/>
<path d="M63.0224 31.4571L61.8206 45.2059C61.7993 45.1992 61.7775 45.1943 61.7562 45.1877C61.7355 45.1821 61.7131 45.1761 61.6907 45.1701C61.67 45.1646 61.6476 45.1586 61.6044 45.147C61.5827 45.1421 61.5613 45.1355 61.5389 45.1295C61.5165 45.1234 61.5182 45.1239 61.51 45.1097C61.4893 45.1042 61.4669 45.0981 61.4587 45.0839C61.408 45.0593 61.3567 45.0335 61.3202 45.0006C61.2995 44.9951 61.2831 44.9667 61.2538 44.9486C61.2249 44.9289 61.2167 44.9147 61.1873 44.8966C61.1584 44.8769 61.135 44.8364 61.1193 44.8091C61.1117 44.796 61.0953 44.7675 61.0877 44.7544C61.0719 44.7271 61.0561 44.6998 61.0404 44.6724C61.0088 44.6178 60.9772 44.5631 60.9588 44.5009L58.2937 37.2993L63.0224 31.4571Z" fill="#D133C1"/>
<path d="M63.0224 31.4566L50.0728 34.6359C50.0652 34.6228 50.0701 34.601 50.0619 34.5868C50.0593 34.5519 50.0435 34.5245 50.0501 34.5032C50.0459 34.4328 50.0499 34.3765 50.0532 34.3192C50.0506 34.2843 50.0566 34.2619 50.0688 34.2199C50.0754 34.1985 50.0721 34.1625 50.0919 34.1336C50.0974 34.113 50.11 34.0692 50.115 34.0474C50.1199 34.0256 50.1396 33.9967 50.1456 33.9743C50.1654 33.9454 50.1763 33.9012 50.1961 33.8723C50.2016 33.8516 50.2207 33.8216 50.2481 33.8059C50.282 33.7687 50.3001 33.7394 50.3334 33.7012C50.3465 33.6936 50.3532 33.6723 50.3805 33.6565C50.4003 33.6276 50.4407 33.6043 50.474 33.5661L56.5049 28.8101L63.0224 31.4566Z" fill="#EC24D8"/>
<path d="M63.0225 31.4564L58.302 37.3129L50.8558 35.4212C50.7772 35.4112 50.7189 35.3734 50.6469 35.3421C50.588 35.3032 50.516 35.2719 50.4702 35.2255C50.4413 35.2057 50.4113 35.1866 50.3956 35.1592C50.3209 35.093 50.2518 35.0061 50.2044 34.9241C50.1887 34.8968 50.1729 34.8695 50.1571 34.8421C50.1337 34.8017 50.118 34.7744 50.1082 34.7246C50.1006 34.7115 50.1055 34.6897 50.0897 34.6624C50.0822 34.6492 50.0871 34.6275 50.0795 34.6143L63.0225 31.4564Z" fill="#B736AA"/>
</g>
<defs>
<linearGradient id="paint0_linear_1999_26530" x1="45.8819" y1="0.656351" x2="54.5147" y2="-4.32774" gradientUnits="userSpaceOnUse">
<stop stop-color="#6178F2"/>
<stop offset="1" stop-color="#001BAA"/>
</linearGradient>
<linearGradient id="paint1_linear_1999_26530" x1="30.4959" y1="18.3428" x2="34.9374" y2="6.13868" gradientUnits="userSpaceOnUse">
<stop stop-color="#082ADB"/>
<stop offset="1" stop-color="#001587"/>
</linearGradient>
<linearGradient id="paint2_linear_1999_26530" x1="30.3645" y1="30.9277" x2="30.1142" y2="41.7218" gradientUnits="userSpaceOnUse">
<stop stop-color="#001BAA"/>
<stop offset="1" stop-color="#2F50FF"/>
</linearGradient>
<linearGradient id="paint3_linear_1999_26530" x1="44.5986" y1="60.8623" x2="56.2567" y2="61.5399" gradientUnits="userSpaceOnUse">
<stop stop-color="#1B35C1"/>
<stop offset="1" stop-color="#6E83F4"/>
</linearGradient>
<linearGradient id="paint4_linear_1999_26530" x1="38.1734" y1="51.9519" x2="45.1585" y2="60.5751" gradientUnits="userSpaceOnUse">
<stop stop-color="#3047C1"/>
<stop offset="1" stop-color="#0623BD"/>
</linearGradient>
<linearGradient id="paint5_linear_1999_26530" x1="69.1377" y1="64.6062" x2="78.5415" y2="61.6464" gradientUnits="userSpaceOnUse">
<stop stop-color="#4E62CE"/>
<stop offset="1" stop-color="#0C2296"/>
</linearGradient>
<linearGradient id="paint6_linear_1999_26530" x1="93.0608" y1="42.0432" x2="89.2273" y2="53.0026" gradientUnits="userSpaceOnUse">
<stop stop-color="#1B2E93"/>
<stop offset="1" stop-color="#0D2FE3"/>
</linearGradient>
<linearGradient id="paint7_linear_1999_26530" x1="79.4884" y1="59.336" x2="88.9" y2="53.182" gradientUnits="userSpaceOnUse">
<stop stop-color="#0D2084"/>
<stop offset="1" stop-color="#2242EE"/>
</linearGradient>
<linearGradient id="paint8_linear_1999_26530" x1="93.6121" y1="19.7541" x2="97.1522" y2="30.4005" gradientUnits="userSpaceOnUse">
<stop stop-color="#0C1E7E"/>
<stop offset="1" stop-color="#0729E0"/>
</linearGradient>
<linearGradient id="paint9_linear_1999_26530" x1="97.1404" y1="19.9506" x2="97.1401" y2="41.6605" gradientUnits="userSpaceOnUse">
<stop stop-color="#001CAD"/>
<stop offset="1" stop-color="#1E3EE7"/>
</linearGradient>
<linearGradient id="paint10_linear_1999_26530" x1="78.7887" y1="3.36066" x2="89.2895" y2="8.47921" gradientUnits="userSpaceOnUse">
<stop stop-color="#3647A3"/>
<stop offset="1" stop-color="#5B70E2"/>
</linearGradient>
<linearGradient id="paint11_linear_1999_26530" x1="92.693" y1="19.6254" x2="89.2616" y2="8.57316" gradientUnits="userSpaceOnUse">
<stop stop-color="#889BFF"/>
<stop offset="1" stop-color="#0C2EE1"/>
</linearGradient>
<linearGradient id="paint12_linear_1999_26530" x1="68.4661" y1="-3.23944" x2="57.2844" y2="-2.40859" gradientUnits="userSpaceOnUse">
<stop stop-color="#001BAA"/>
<stop offset="1" stop-color="#B0B3F8"/>
</linearGradient>
<linearGradient id="paint13_linear_1999_26530" x1="68.1981" y1="-3.80008" x2="77.7119" y2="3.05445" gradientUnits="userSpaceOnUse">
<stop stop-color="#110DB4"/>
<stop offset="1" stop-color="#4154FF"/>
</linearGradient>
<radialGradient id="paint14_radial_1999_26530" cx="0" cy="0" r="1" gradientUnits="userSpaceOnUse" gradientTransform="translate(62.6468 30.8659) rotate(-30.0001) scale(26.51 26.5101)">
<stop offset="0.8428" stop-color="#5570FF"/>
<stop offset="1" stop-color="#0125E4"/>
</radialGradient>
<linearGradient id="paint15_linear_1999_26530" x1="48.2231" y1="5.77025" x2="77.1015" y2="55.7889" gradientUnits="userSpaceOnUse">
<stop offset="0.0226" stop-color="#FD9A18"/>
<stop offset="0.3764" stop-color="#FEC752"/>
<stop offset="1" stop-color="#FFA422"/>
</linearGradient>
<linearGradient id="paint16_linear_1999_26530" x1="46.3315" y1="2.4966" x2="78.8938" y2="58.8958" gradientUnits="userSpaceOnUse">
<stop stop-color="#FF9114"/>
<stop offset="0.109375" stop-color="#FFDB69"/>
<stop offset="0.177083" stop-color="#FEE7B0"/>
<stop offset="0.421875" stop-color="#FEE9BA"/>
<stop offset="0.661458" stop-color="#FEE1A2"/>
<stop offset="0.911458" stop-color="#FFC853"/>
<stop offset="1" stop-color="#F57E16"/>
</linearGradient>
<clipPath id="clip0_1999_26530">
<rect width="94.9323" height="101.848" fill="white" transform="matrix(0.866024 -0.500002 0.499998 0.866026 0.920898 18.4688)"/>
</clipPath>
</defs>
</svg>
