<svg width="41" height="41" viewBox="0 0 41 41" fill="none" xmlns="http://www.w3.org/2000/svg">
<g id="vuesax/linear/lock">
<g id="lock">
<path id="Vector" d="M10.4414 17.1136V13.7327C10.4414 8.13721 12.1319 3.58984 20.5842 3.58984C29.0366 3.58984 30.7271 8.13721 30.7271 13.7327V17.1136" stroke="white" stroke-width="3.04285" stroke-linecap="round" stroke-linejoin="round"/>
<path id="Vector_2" d="M20.5816 31.4826C22.9157 31.4826 24.8078 29.5905 24.8078 27.2565C24.8078 24.9224 22.9157 23.0303 20.5816 23.0303C18.2476 23.0303 16.3555 24.9224 16.3555 27.2565C16.3555 29.5905 18.2476 31.4826 20.5816 31.4826Z" stroke="white" stroke-width="3.04285" stroke-linecap="round" stroke-linejoin="round"/>
<path id="Vector_3" d="M29.0328 37.3999H12.1281C5.36625 37.3999 3.67578 35.7094 3.67578 28.9476V25.5666C3.67578 18.8047 5.36625 17.1143 12.1281 17.1143H29.0328C35.7947 17.1143 37.4852 18.8047 37.4852 25.5666V28.9476C37.4852 35.7094 35.7947 37.3999 29.0328 37.3999Z" stroke="white" stroke-width="3.04285" stroke-linecap="round" stroke-linejoin="round"/>
</g>
</g>
</svg>
