<svg width="14" height="14" viewBox="0 0 14 14" fill="none" xmlns="http://www.w3.org/2000/svg">
<path d="M11.2553 5.43431C11.2553 6.22601 11.0205 6.95219 10.6165 7.55825C10.0268 8.43185 9.09317 9.04883 8.00663 9.20717C7.82099 9.23993 7.62989 9.25631 7.43333 9.25631C7.23677 9.25631 7.04567 9.23993 6.86003 9.20717C5.77349 9.04883 4.83983 8.43185 4.25015 7.55825C3.84611 6.95219 3.61133 6.22601 3.61133 5.43431C3.61133 3.32128 5.32031 1.6123 7.43333 1.6123C9.54635 1.6123 11.2553 3.32128 11.2553 5.43431Z" stroke="#865311" stroke-width="0.819" stroke-linecap="round" stroke-linejoin="round"/>
<path d="M12.4837 10.6057L11.5828 10.8186C11.3807 10.8677 11.2224 11.0206 11.1787 11.2227L10.9876 12.0253C10.8839 12.4621 10.327 12.5931 10.0376 12.2491L7.43316 9.25706L4.82873 12.2546C4.53935 12.5986 3.98243 12.4675 3.87869 12.0307L3.68759 11.2281C3.63845 11.0261 3.48011 10.8678 3.28355 10.8241L2.38265 10.6111C1.96769 10.5129 1.82027 9.99415 2.12057 9.69385L4.24997 7.56445C4.83965 8.43805 5.77331 9.05504 6.85986 9.21338C7.0455 9.24614 7.2366 9.26252 7.43316 9.26252C7.62972 9.26252 7.82082 9.24614 8.00646 9.21338C9.093 9.05504 10.0267 8.43805 10.6163 7.56445L12.7457 9.69385C13.046 9.98869 12.8986 10.5074 12.4837 10.6057Z" stroke="#865311" stroke-width="0.819" stroke-linecap="round" stroke-linejoin="round"/>
<path d="M7.7494 3.78552L8.07154 4.42979C8.11522 4.51715 8.22988 4.60452 8.33362 4.6209L8.91784 4.71917C9.28912 4.77923 9.37648 5.05224 9.10894 5.31978L8.65576 5.77295C8.57932 5.84939 8.53564 5.99682 8.56294 6.10602L8.69398 6.6684C8.79772 7.11066 8.56294 7.28537 8.16982 7.05059L7.62382 6.72845C7.52554 6.66839 7.36174 6.66839 7.26346 6.72845L6.71746 7.05059C6.32434 7.27991 6.08956 7.11066 6.1933 6.6684L6.32434 6.10602C6.34618 6.00228 6.30796 5.84939 6.23152 5.77295L5.77834 5.31978C5.5108 5.05224 5.59816 4.78469 5.96944 4.71917L6.55366 4.6209C6.65194 4.60452 6.7666 4.51715 6.81028 4.42979L7.13242 3.78552C7.29076 3.43608 7.57468 3.43608 7.7494 3.78552Z" stroke="#865311" stroke-width="0.819" stroke-linecap="round" stroke-linejoin="round"/>
</svg>
