<svg width="70" height="70" viewBox="0 0 70 70" fill="none" xmlns="http://www.w3.org/2000/svg">
<path d="M34.7148 0.96582L45.6858 16.4635L64.5927 18.2159L56.6568 35.4659L64.5927 52.716L45.6858 54.4683L34.7148 69.966L23.7438 54.4683L4.83697 52.716L12.7728 35.4659L4.83697 18.2159L23.7438 16.4635L34.7148 0.96582Z" fill="url(#paint0_linear_1999_23770)"/>
<ellipse cx="34.8861" cy="35.2934" rx="25.7025" ry="25.7026" fill="url(#paint1_linear_1999_23770)"/>
<ellipse cx="34.888" cy="35.2943" rx="21.9075" ry="21.9076" fill="url(#paint2_radial_1999_23770)"/>
<ellipse cx="34.7169" cy="35.4669" rx="21.045" ry="21.0451" fill="#E1E3E2"/>
<g filter="url(#filter0_d_1999_23770)">
<path d="M34.704 27.5312V35.9365L31.8984 32.349L34.0937 27.908C34.2264 27.6639 34.4705 27.5312 34.704 27.5312Z" fill="white"/>
<path d="M42.9679 33.5384L34.7148 35.9371L37.5196 32.3496L42.4187 33.0608C42.6937 33.1112 42.8866 33.3041 42.9679 33.5384Z" fill="#F2F4F5"/>
<path d="M39.8088 43.2238L34.707 35.9365L39.24 37.6745L40.0732 42.5533C40.1334 42.8381 40.0114 43.0814 39.8088 43.2238Z" fill="#EFF5F3"/>
<path d="M34.7041 35.9365V40.9675L30.3233 43.2742C30.0694 43.4061 29.805 43.3654 29.6016 43.2238L34.7041 35.9365Z" fill="#D5DBDD"/>
<path d="M37.5126 32.349L34.707 35.9365V27.5312C34.8901 27.5312 35.0732 27.602 35.205 27.7444C35.2253 27.7648 35.2457 27.7949 35.266 27.8258C35.2864 27.8567 35.3067 27.8868 35.3165 27.9169L37.5126 32.349Z" fill="#DFE3E6"/>
<path d="M42.9507 33.9954C42.9303 34.0361 42.91 34.0767 42.8896 34.1174C42.8587 34.1581 42.8286 34.1882 42.7985 34.2289L39.2517 37.6846L34.7188 35.9466L42.9718 33.5479C42.9718 33.5576 42.9816 33.5682 42.9816 33.5788C42.9816 33.5893 42.9922 33.5991 42.9922 33.6195C42.9922 33.63 42.9922 33.63 42.9922 33.63C42.9922 33.6398 42.9922 33.6504 42.9922 33.6601C42.9922 33.6805 42.9922 33.6911 42.9922 33.7106C43.0019 33.8017 42.9914 33.9034 42.9507 33.9954Z" fill="#C4C7C6"/>
<path d="M39.8096 43.2238C39.7591 43.2645 39.6981 43.2946 39.6265 43.3149C39.6167 43.3149 39.6167 43.3149 39.6062 43.3247C39.4434 43.3751 39.2603 43.3654 39.0878 43.2742L34.707 40.9675V35.9365L39.8096 43.2238Z" fill="#C0C7CE"/>
<path d="M34.7091 35.9365L29.6074 43.2238C29.5976 43.2132 29.587 43.2035 29.5773 43.1929C29.5675 43.1831 29.5569 43.1725 29.5464 43.162C29.5366 43.1522 29.526 43.1416 29.5057 43.1213C29.4951 43.1115 29.4853 43.1009 29.4748 43.0904C29.4642 43.0798 29.465 43.0806 29.465 43.07C29.4552 43.0602 29.4446 43.0497 29.4446 43.0391C29.4243 43.009 29.404 42.9781 29.3942 42.948C29.3844 42.9382 29.3844 42.917 29.3739 42.8975C29.3641 42.8772 29.3641 42.8666 29.3535 42.8471C29.3437 42.8267 29.3438 42.7966 29.3438 42.7763C29.3438 42.7665 29.3438 42.7454 29.3438 42.7356C29.3438 42.7152 29.3438 42.6949 29.3438 42.6746C29.3438 42.6339 29.3437 42.5932 29.3535 42.5525L30.1867 37.6737L34.7091 35.9365Z" fill="white"/>
<path d="M34.7062 35.9361L26.4531 33.5374C26.4531 33.5276 26.4629 33.5171 26.4629 33.5065C26.4727 33.4862 26.4727 33.4658 26.4832 33.456C26.5036 33.4154 26.5239 33.3853 26.5443 33.3543C26.554 33.334 26.5646 33.3234 26.5849 33.3039C26.5955 33.2941 26.6053 33.273 26.6256 33.2632C26.6354 33.2534 26.6565 33.2331 26.6663 33.2225C26.6761 33.2119 26.6964 33.2022 26.707 33.1916C26.7273 33.1818 26.7477 33.1607 26.768 33.1509C26.7778 33.1412 26.7981 33.1306 26.8185 33.1306C26.8494 33.1208 26.8689 33.1102 26.8998 33.0997C26.9096 33.0997 26.9202 33.0899 26.9405 33.0899C26.9609 33.0801 26.991 33.0801 27.0219 33.0695L31.921 32.3584L34.7062 35.9361Z" fill="white"/>
<path d="M34.7062 35.9358L30.1838 37.6836L26.637 34.2279C26.5963 34.197 26.576 34.1571 26.5459 34.1164C26.5255 34.0758 26.4954 34.0351 26.4849 33.9944C26.4751 33.9741 26.4645 33.9537 26.4645 33.9334C26.4442 33.8723 26.4336 33.8016 26.4336 33.7405C26.4336 33.7202 26.4336 33.6998 26.4336 33.6795C26.4336 33.6494 26.4336 33.6291 26.4442 33.5981C26.4442 33.5884 26.4539 33.5778 26.4539 33.5574C26.4539 33.5477 26.4637 33.5371 26.4637 33.5273L34.7062 35.9358Z" fill="#EFF5F3"/>
</g>
<defs>
<filter id="filter0_d_1999_23770" x="25.8336" y="26.9312" width="17.7625" height="17.0242" filterUnits="userSpaceOnUse" color-interpolation-filters="sRGB">
<feFlood flood-opacity="0" result="BackgroundImageFix"/>
<feColorMatrix in="SourceAlpha" type="matrix" values="0 0 0 0 0 0 0 0 0 0 0 0 0 0 0 0 0 0 127 0" result="hardAlpha"/>
<feOffset/>
<feGaussianBlur stdDeviation="0.3"/>
<feComposite in2="hardAlpha" operator="out"/>
<feColorMatrix type="matrix" values="0 0 0 0 0 0 0 0 0 0 0 0 0 0 0 0 0 0 0.1 0"/>
<feBlend mode="normal" in2="BackgroundImageFix" result="effect1_dropShadow_1999_23770"/>
<feBlend mode="normal" in="SourceGraphic" in2="effect1_dropShadow_1999_23770" result="shape"/>
</filter>
<linearGradient id="paint0_linear_1999_23770" x1="4.00984" y1="35.4659" x2="62.3148" y2="35.4659" gradientUnits="userSpaceOnUse">
<stop offset="0.00520833" stop-color="#E4E4E4"/>
<stop offset="0.338542" stop-color="#BFBFBF"/>
<stop offset="0.671875" stop-color="#776E6E"/>
<stop offset="1" stop-color="#E6E6E6"/>
</linearGradient>
<linearGradient id="paint1_linear_1999_23770" x1="9.18359" y1="35.4659" x2="60.5886" y2="35.4659" gradientUnits="userSpaceOnUse">
<stop stop-color="white"/>
<stop offset="0.380208" stop-color="#909090"/>
<stop offset="0.720113" stop-color="#DDDDDD"/>
<stop offset="1" stop-color="white"/>
</linearGradient>
<radialGradient id="paint2_radial_1999_23770" cx="0" cy="0" r="1" gradientUnits="userSpaceOnUse" gradientTransform="translate(34.7155 35.4668) rotate(-0.0660933) scale(22.08 22.0801)">
<stop offset="0.942708"/>
<stop offset="1" stop-color="white" stop-opacity="0.13"/>
</radialGradient>
</defs>
</svg>
