<svg width="12" height="12" viewBox="0 0 12 12" fill="none" xmlns="http://www.w3.org/2000/svg">
<g id="vuesax/linear/trash">
<g id="trash">
<path id="Vector" d="M9.76964 3.52314C8.24319 3.37187 6.70757 3.29395 5.17653 3.29395C4.26892 3.29395 3.3613 3.33978 2.45368 3.43146L1.51855 3.52314" stroke="#E63535" stroke-linecap="round" stroke-linejoin="round"/>
<path id="Vector_2" d="M4.04004 3.06016L4.14089 2.45966C4.21423 2.02419 4.26924 1.69873 5.04392 1.69873H6.24491C7.0196 1.69873 7.07919 2.04253 7.14795 2.46425L7.24879 3.06016" stroke="#E63535" stroke-linecap="round" stroke-linejoin="round"/>
<path id="Vector_3" d="M8.7839 4.97168L8.48594 9.5877C8.43552 10.3074 8.39426 10.8666 7.11534 10.8666H4.17246C2.89354 10.8666 2.85229 10.3074 2.80186 9.5877L2.50391 4.97168" stroke="#E63535" stroke-linecap="round" stroke-linejoin="round"/>
<path id="Vector_4" d="M4.87891 8.34546H6.40536" stroke="#E63535" stroke-linecap="round" stroke-linejoin="round"/>
<path id="Vector_5" d="M4.49805 6.51196H6.79001" stroke="#E63535" stroke-linecap="round" stroke-linejoin="round"/>
</g>
</g>
</svg>
