<svg width="126" height="24" viewBox="0 0 126 24" fill="none" xmlns="http://www.w3.org/2000/svg">
<path d="M18.0563 1.99957H1.94452C1.4288 1.99957 0.934207 2.20444 0.569538 2.56911C0.204869 2.93378 0 3.42838 0 3.9441V20.0559C0 20.5716 0.204869 21.0662 0.569538 21.4308C0.934207 21.7955 1.4288 22.0004 1.94452 22.0004H18.0563C18.572 22.0004 19.0666 21.7955 19.4313 21.4308C19.7959 21.0662 20.0008 20.5716 20.0008 20.0559V3.9441C20.0008 3.42838 19.7959 2.93378 19.4313 2.56911C19.0666 2.20444 18.572 1.99957 18.0563 1.99957ZM15.6542 14.0084V15.4915C15.6403 15.6334 15.5783 15.7662 15.4787 15.8682C15.3791 15.9702 15.2477 16.0351 15.1062 16.0524L6.73222 16.0529C6.11219 16.0529 5.58356 15.8529 5.14688 15.4537C4.71047 15.0543 4.49213 14.5712 4.49213 14.0034C4.49213 13.5517 4.63963 13.1503 4.93492 12.7964C5.23049 12.4436 5.60467 12.198 6.05747 12.0586L13.3747 9.96767H4.4924V8.55206C4.49452 8.4103 4.54448 8.27342 4.63419 8.16364C4.72391 8.05385 4.84809 7.97762 4.98659 7.94731H13.4142C14.0342 7.94731 14.5623 8.14566 14.9989 8.5415C15.4356 8.93791 15.6542 9.41098 15.6542 9.96156C15.6542 10.4213 15.5054 10.8258 15.2078 11.1758C14.9103 11.5263 14.5275 11.7705 14.0595 11.9078L6.73222 14.0084H15.6542Z" fill="#009254"/>
<path d="M28.32 18V17.736L32.896 11.048H28.784V9.36H35.896V9.632L31.336 16.312H35.704V18H28.32ZM40.9713 18.248C40.3313 18.248 39.8032 18.1413 39.3872 17.928C38.9713 17.7147 38.6406 17.4427 38.3952 17.112C38.1499 16.7813 37.9686 16.4293 37.8512 16.056C37.7339 15.6827 37.6566 15.3307 37.6192 15C37.5872 14.664 37.5712 14.392 37.5712 14.184V9.36H39.5233V13.52C39.5233 13.7867 39.5419 14.088 39.5793 14.424C39.6166 14.7547 39.7019 15.0747 39.8353 15.384C39.9739 15.688 40.1766 15.9387 40.4433 16.136C40.7153 16.3333 41.0806 16.432 41.5393 16.432C41.7846 16.432 42.0273 16.392 42.2673 16.312C42.5073 16.232 42.7233 16.096 42.9153 15.904C43.1126 15.7067 43.2699 15.4373 43.3873 15.096C43.5046 14.7547 43.5633 14.3227 43.5633 13.8L44.7073 14.288C44.7073 15.024 44.5633 15.6907 44.2753 16.288C43.9926 16.8853 43.5739 17.3627 43.0193 17.72C42.4646 18.072 41.7819 18.248 40.9713 18.248ZM43.7953 18V15.32H43.5633V9.36H45.4993V18H43.7953ZM47.8269 18V9.36H49.5309V11.464L49.3229 11.192C49.4295 10.904 49.5709 10.6427 49.7469 10.408C49.9282 10.168 50.1442 9.97067 50.3949 9.816C50.6082 9.672 50.8429 9.56 51.0989 9.48C51.3602 9.39467 51.6269 9.344 51.8989 9.328C52.1709 9.30667 52.4349 9.31733 52.6909 9.36V11.16C52.4349 11.0853 52.1389 11.0613 51.8029 11.088C51.4722 11.1147 51.1735 11.208 50.9069 11.368C50.6402 11.512 50.4215 11.696 50.2509 11.92C50.0855 12.144 49.9629 12.4 49.8829 12.688C49.8029 12.9707 49.7629 13.2773 49.7629 13.608V18H47.8269ZM54.4575 8.048V6.28H56.3855V8.048H54.4575ZM54.4575 18V9.36H56.3855V18H54.4575ZM63.0139 18.24C62.1712 18.24 61.4645 18.04 60.8939 17.64C60.3232 17.24 59.8939 16.696 59.6059 16.008C59.3179 15.3147 59.1739 14.5387 59.1739 13.68C59.1739 12.8107 59.3179 12.032 59.6059 11.344C59.8939 10.656 60.3152 10.1147 60.8699 9.72C61.4299 9.32 62.1205 9.12 62.9419 9.12C63.7579 9.12 64.4645 9.32 65.0619 9.72C65.6645 10.1147 66.1312 10.656 66.4619 11.344C66.7925 12.0267 66.9579 12.8053 66.9579 13.68C66.9579 14.544 66.7952 15.32 66.4699 16.008C66.1445 16.696 65.6859 17.24 65.0939 17.64C64.5019 18.04 63.8085 18.24 63.0139 18.24ZM58.8459 21.84V9.36H60.5499V15.424H60.7899V21.84H58.8459ZM62.7179 16.512C63.2192 16.512 63.6325 16.3867 63.9579 16.136C64.2832 15.8853 64.5232 15.5467 64.6779 15.12C64.8379 14.688 64.9179 14.208 64.9179 13.68C64.9179 13.1573 64.8379 12.6827 64.6779 12.256C64.5179 11.824 64.2699 11.4827 63.9339 11.232C63.5979 10.976 63.1712 10.848 62.6539 10.848C62.1632 10.848 61.7632 10.968 61.4539 11.208C61.1445 11.4427 60.9152 11.7733 60.7659 12.2C60.6219 12.6213 60.5499 13.1147 60.5499 13.68C60.5499 14.24 60.6219 14.7333 60.7659 15.16C60.9152 15.5867 61.1472 15.92 61.4619 16.16C61.7819 16.3947 62.2005 16.512 62.7179 16.512ZM72.6173 18.24C71.7533 18.24 70.9986 18.0453 70.3533 17.656C69.7079 17.2667 69.2066 16.7307 68.8493 16.048C68.4973 15.36 68.3213 14.5707 68.3213 13.68C68.3213 12.7733 68.5026 11.9787 68.8653 11.296C69.2279 10.6133 69.7319 10.08 70.3773 9.696C71.0226 9.312 71.7693 9.12 72.6173 9.12C73.4866 9.12 74.2439 9.31467 74.8893 9.704C75.5346 10.0933 76.0359 10.632 76.3933 11.32C76.7506 12.0027 76.9293 12.7893 76.9293 13.68C76.9293 14.576 76.7479 15.368 76.3853 16.056C76.0279 16.7387 75.5266 17.2747 74.8813 17.664C74.2359 18.048 73.4813 18.24 72.6173 18.24ZM72.6173 16.432C73.3853 16.432 73.9559 16.176 74.3293 15.664C74.7026 15.152 74.8893 14.4907 74.8893 13.68C74.8893 12.8427 74.6999 12.176 74.3213 11.68C73.9426 11.1787 73.3746 10.928 72.6173 10.928C72.0999 10.928 71.6733 11.0453 71.3373 11.28C71.0066 11.5093 70.7613 11.832 70.6013 12.248C70.4413 12.6587 70.3613 13.136 70.3613 13.68C70.3613 14.5173 70.5506 15.1867 70.9293 15.688C71.3133 16.184 71.8759 16.432 72.6173 16.432ZM78.7719 18V9.36H80.4759V11.464L80.2679 11.192C80.3745 10.904 80.5159 10.6427 80.6919 10.408C80.8732 10.168 81.0892 9.97067 81.3399 9.816C81.5532 9.672 81.7879 9.56 82.0439 9.48C82.3052 9.39467 82.5719 9.344 82.8439 9.328C83.1159 9.30667 83.3799 9.31733 83.6359 9.36V11.16C83.3799 11.0853 83.0839 11.0613 82.7479 11.088C82.4172 11.1147 82.1185 11.208 81.8519 11.368C81.5852 11.512 81.3665 11.696 81.1959 11.92C81.0305 12.144 80.9079 12.4 80.8279 12.688C80.7479 12.9707 80.7079 13.2773 80.7079 13.608V18H78.7719ZM90.3065 18C89.7358 18.1067 89.1758 18.152 88.6265 18.136C88.0825 18.1253 87.5945 18.0267 87.1625 17.84C86.7305 17.648 86.4025 17.3467 86.1785 16.936C85.9812 16.5627 85.8772 16.1813 85.8665 15.792C85.8558 15.4027 85.8505 14.9627 85.8505 14.472V6.96H87.7705V14.36C87.7705 14.7067 87.7732 15.0107 87.7785 15.272C87.7892 15.5333 87.8452 15.7467 87.9465 15.912C88.1385 16.232 88.4452 16.4107 88.8665 16.448C89.2878 16.4853 89.7678 16.464 90.3065 16.384V18ZM84.2825 10.872V9.36H90.3065V10.872H84.2825ZM92.9964 18V9.224C92.9964 9.00533 93.0044 8.76533 93.0204 8.504C93.0364 8.23733 93.0817 7.97333 93.1564 7.712C93.231 7.45067 93.367 7.21333 93.5644 7C93.8097 6.728 94.0737 6.54133 94.3564 6.44C94.6444 6.33333 94.927 6.27467 95.2044 6.264C95.4817 6.248 95.7244 6.24 95.9324 6.24H97.0124V7.808H96.0124C95.6444 7.808 95.3697 7.90133 95.1884 8.088C95.0124 8.26933 94.9244 8.50933 94.9244 8.808V18H92.9964ZM91.6044 10.872V9.36H97.0124V10.872H91.6044ZM101.875 18.24C101.011 18.24 100.256 18.0453 99.6108 17.656C98.9654 17.2667 98.4641 16.7307 98.1068 16.048C97.7548 15.36 97.5788 14.5707 97.5788 13.68C97.5788 12.7733 97.7601 11.9787 98.1228 11.296C98.4854 10.6133 98.9894 10.08 99.6348 9.696C100.28 9.312 101.027 9.12 101.875 9.12C102.744 9.12 103.501 9.31467 104.147 9.704C104.792 10.0933 105.293 10.632 105.651 11.32C106.008 12.0027 106.187 12.7893 106.187 13.68C106.187 14.576 106.005 15.368 105.643 16.056C105.285 16.7387 104.784 17.2747 104.139 17.664C103.493 18.048 102.739 18.24 101.875 18.24ZM101.875 16.432C102.643 16.432 103.213 16.176 103.587 15.664C103.96 15.152 104.147 14.4907 104.147 13.68C104.147 12.8427 103.957 12.176 103.579 11.68C103.2 11.1787 102.632 10.928 101.875 10.928C101.357 10.928 100.931 11.0453 100.595 11.28C100.264 11.5093 100.019 11.832 99.8588 12.248C99.6988 12.6587 99.6188 13.136 99.6188 13.68C99.6188 14.5173 99.8081 15.1867 100.187 15.688C100.571 16.184 101.133 16.432 101.875 16.432ZM108.189 18V6.24H110.117V18H108.189ZM112.754 8.048V6.28H114.682V8.048H112.754ZM112.754 18V9.36H114.682V18H112.754ZM120.974 18.24C120.11 18.24 119.355 18.0453 118.71 17.656C118.065 17.2667 117.563 16.7307 117.206 16.048C116.854 15.36 116.678 14.5707 116.678 13.68C116.678 12.7733 116.859 11.9787 117.222 11.296C117.585 10.6133 118.089 10.08 118.734 9.696C119.379 9.312 120.126 9.12 120.974 9.12C121.843 9.12 122.601 9.31467 123.246 9.704C123.891 10.0933 124.393 10.632 124.75 11.32C125.107 12.0027 125.286 12.7893 125.286 13.68C125.286 14.576 125.105 15.368 124.742 16.056C124.385 16.7387 123.883 17.2747 123.238 17.664C122.593 18.048 121.838 18.24 120.974 18.24ZM120.974 16.432C121.742 16.432 122.313 16.176 122.686 15.664C123.059 15.152 123.246 14.4907 123.246 13.68C123.246 12.8427 123.057 12.176 122.678 11.68C122.299 11.1787 121.731 10.928 120.974 10.928C120.457 10.928 120.03 11.0453 119.694 11.28C119.363 11.5093 119.118 11.832 118.958 12.248C118.798 12.6587 118.718 13.136 118.718 13.68C118.718 14.5173 118.907 15.1867 119.286 15.688C119.67 16.184 120.233 16.432 120.974 16.432Z" fill="#009254"/>
</svg>
