<svg width="280" height="281" viewBox="0 0 280 281" fill="none" xmlns="http://www.w3.org/2000/svg">
<path d="M249.101 169.495C249.101 169.495 209.492 150.5 184.925 150.5C155.43 150.5 126.769 158.967 115.894 161.762C87.3336 169.103 32 169.495 32 169.495H249.101Z" fill="#DBDBDB"/>
<path d="M32 169.549C32 169.549 54.4896 158.5 79.8968 158.5C97.632 158.5 123.09 160.79 147.063 164.537C156.191 165.965 203.707 169.549 203.707 169.549H32Z" fill="#C7C7C7"/>
<path d="M239.739 131.283C237.067 131.283 170.338 130.818 151.494 130.818C150.172 130.818 151.841 128.533 152.569 128.377C154.882 127.867 157.301 127.817 159.653 127.598C161.976 127.38 164.253 126.814 166.407 125.918C168.26 125.134 170.114 124.238 172.119 123.913C176.005 123.309 179.399 125.409 183.05 126.338C184.155 126.655 185.314 126.738 186.453 126.581C187.592 126.424 188.686 126.03 189.663 125.425C191.343 124.412 192.878 123.185 194.642 122.312C198.011 120.651 201.687 119.704 205.439 119.529C209.192 119.355 212.939 119.957 216.448 121.298C218.119 121.944 219.718 122.762 221.219 123.74C223 124.91 224.535 126.4 226.315 127.553C230.269 130.113 235.158 129.278 239.464 130.745C239.705 130.818 239.968 131.283 239.739 131.283Z" fill="#EBEBEB"/>
<path d="M224.052 46.7897C220.518 46.7897 161.029 47.1817 157.289 47.0641C157.02 47.0641 156.874 46.6609 157.143 46.5041C159.501 45.3393 162.183 45.5745 164.625 44.7513C166.064 44.2641 166.949 43.3233 167.951 42.2425C168.786 41.3054 169.86 40.6142 171.059 40.2433C172.15 39.9139 173.309 39.8772 174.419 40.1369C175.629 40.4225 176.659 41.1169 177.824 41.5481C180.685 42.6289 183.463 41.6041 185.501 39.4873C187.181 37.7457 188.861 36.0993 191.129 35.1641C192.063 34.741 193.075 34.5152 194.1 34.5007C195.125 34.4863 196.142 34.6835 197.088 35.0801C199.261 36.0713 200.739 38.0593 202.811 39.2353C205.219 40.6745 208.148 40.3553 210.819 40.7641C213.49 41.1729 215.562 43.4521 217.914 44.7569C218.682 45.2475 219.568 45.5222 220.479 45.5521C221.005 45.5521 221.521 45.3953 222.041 45.3281C222.853 45.2273 223.621 45.2553 224.169 45.9273C224.309 46.0953 224.259 46.7897 224.052 46.7897Z" fill="#EBEBEB"/>
<path d="M258.931 68.4747C256.349 68.4747 212.915 68.7603 210.211 68.6763C210.015 68.6763 209.908 68.3795 210.104 68.2843C211.823 67.4331 213.778 67.6011 215.564 67.0019C216.52 66.6159 217.356 65.9841 217.989 65.1707C218.588 64.4845 219.362 63.9736 220.229 63.6923C221.028 63.4538 221.875 63.4268 222.687 63.6139C223.539 63.9066 224.371 64.2526 225.179 64.6499C227.263 65.4339 229.29 64.6891 230.779 63.1435C232.011 61.8723 233.215 60.6683 234.89 59.9851C235.572 59.6761 236.31 59.5111 237.059 59.5005C237.808 59.4899 238.55 59.6339 239.241 59.9235C240.831 60.6459 241.923 62.0963 243.419 62.9699C245.194 64.0059 247.339 63.7651 249.276 64.0899C251.214 64.4147 252.737 66.0555 254.456 67.0075C255.019 67.3604 255.668 67.554 256.332 67.5675C256.708 67.5351 257.082 67.4809 257.452 67.4051C257.726 67.3295 258.016 67.3308 258.29 67.4088C258.563 67.4868 258.81 67.6386 259.003 67.8475C259.121 67.9651 259.099 68.4747 258.931 68.4747Z" fill="#EBEBEB"/>
<path d="M120.931 86.4747C118.349 86.4747 74.921 86.7603 72.2106 86.6707C72.0146 86.6707 71.9081 86.3795 72.1041 86.2843C73.8233 85.4275 75.7777 85.6011 77.5641 84.9963C78.5235 84.6142 79.3627 83.9818 79.9945 83.1651C80.5946 82.4809 81.3686 81.972 82.2345 81.6923C83.033 81.451 83.8808 81.4239 84.6929 81.6139C85.5417 81.9071 86.372 82.2512 87.1793 82.6443C89.2681 83.4339 91.2953 82.6835 92.7793 81.1435C94.0057 79.8667 95.2153 78.6683 96.8841 77.9851C97.5662 77.6761 98.3046 77.5111 99.0533 77.5005C99.802 77.4899 100.545 77.6339 101.235 77.9235C102.831 78.6459 103.923 80.0963 105.419 80.9699C107.194 82.0059 109.339 81.7595 111.271 82.0899C113.203 82.4203 114.737 84.0555 116.456 85.0019C117.018 85.3538 117.664 85.5473 118.327 85.5619C118.702 85.5267 119.076 85.4725 119.447 85.3995C119.72 85.3245 120.01 85.3255 120.283 85.4025C120.556 85.4794 120.803 85.6294 120.998 85.8363C121.121 85.9651 121.104 86.4747 120.931 86.4747Z" fill="#EBEBEB"/>
<path d="M69.9305 59.4915C67.3489 59.4915 23.9153 59.7771 21.2105 59.6875C21.0145 59.6875 20.9081 59.3963 21.1041 59.3011C22.8233 58.4499 24.7777 58.6179 26.5641 58.0131C27.5218 57.6309 28.3593 56.9984 28.9889 56.1819C29.5904 55.4994 30.364 54.9908 31.2289 54.7091C32.0241 54.4632 32.8699 54.4304 33.6817 54.6139C34.5333 54.9066 35.3657 55.2526 36.1737 55.6499C38.2569 56.4339 40.2841 55.6891 41.7737 54.1435C43.0057 52.8723 44.2097 51.6683 45.8841 50.9851C46.5662 50.6761 47.3046 50.5111 48.0533 50.5005C48.802 50.4899 49.5448 50.6339 50.2353 50.9235C51.8257 51.6459 52.9177 53.0963 54.4129 53.9699C56.1881 55.0059 58.333 54.7595 60.2705 55.0899C62.2082 55.4203 63.7313 57.0555 65.4506 58.0019C66.0138 58.3546 66.6621 58.5481 67.3265 58.5619C67.7024 58.5268 68.0762 58.4726 68.4466 58.3995C68.7204 58.3245 69.0095 58.3255 69.2828 58.4025C69.5561 58.4794 69.8033 58.6294 69.9977 58.8363C70.1209 58.9819 70.0818 59.4915 69.9305 59.4915Z" fill="#EBEBEB"/>
<path d="M237 178.788C241.453 178.404 245.931 178.404 250.384 178.788C245.931 179.174 241.453 179.174 237 178.788Z" fill="#DBDBDB"/>
<path d="M250.802 216.777C228.698 217.147 204.12 217.136 182 216.777C204.126 216.413 228.693 216.402 250.802 216.777Z" fill="#DBDBDB"/>
<path d="M105.626 195.775C83.8976 196.145 59.7448 196.139 38 195.775C59.7504 195.411 83.92 195.406 105.626 195.775Z" fill="#DBDBDB"/>
<path d="M82.6328 216.786C70.7776 217.161 58.8496 217.161 47 216.786C58.8496 216.405 70.7776 216.405 82.6328 216.786Z" fill="#DBDBDB"/>
<path d="M158.25 228.775C134.394 229.15 107.85 229.139 84 228.775C107.878 228.411 134.4 228.406 158.25 228.775Z" fill="#DBDBDB"/>
<path d="M201.633 220.786C189.783 221.161 177.855 221.161 166 220.786C177.855 220.405 189.783 220.405 201.633 220.786Z" fill="#DBDBDB"/>
<path d="M153.633 209.781C141.783 210.157 129.855 210.157 118 209.781C129.855 209.406 141.783 209.406 153.633 209.781Z" fill="#DBDBDB"/>
<path d="M234.633 248.781C222.783 249.157 210.855 249.157 199 248.781C210.855 248.406 222.783 248.406 234.633 248.781Z" fill="#DBDBDB"/>
<path d="M216.805 241.773C195.021 242.148 170.801 242.137 149 241.773C170.806 241.415 195.015 241.403 216.805 241.773Z" fill="#DBDBDB"/>
<path d="M104.633 180.781C92.7832 181.157 80.8496 181.157 69 180.781C80.8496 180.406 92.7776 180.406 104.633 180.781Z" fill="#DBDBDB"/>
<path d="M242.633 181.781C230.783 182.157 218.85 182.157 207 181.781C218.85 181.406 230.778 181.406 242.633 181.781Z" fill="#DBDBDB"/>
<path d="M95.096 173.773C75.496 174.148 53.656 174.137 34 173.773C53.6448 173.415 75.44 173.403 95.096 173.773Z" fill="#DBDBDB"/>
<path d="M233.926 207.786C228.624 208.166 223.302 208.166 218 207.786C223.302 207.405 228.624 207.405 233.926 207.786Z" fill="#DBDBDB"/>
<path d="M109.72 232.777C89.56 233.147 67.16 233.141 47 232.777C67.16 232.413 89.56 232.402 109.72 232.777Z" fill="#DBDBDB"/>
<path d="M229.785 204.775C203.185 205.145 173.617 205.139 147 204.775C173.622 204.411 203.179 204.406 229.785 204.775Z" fill="#DBDBDB"/>
<path d="M134.932 244.786C129.628 245.166 124.304 245.166 119 244.786C124.304 244.405 129.628 244.405 134.932 244.786Z" fill="#DBDBDB"/>
<path d="M26 169.758C99.2816 169.417 181.478 169.411 254.76 169.758C181.478 170.106 99.2816 170.1 26 169.758Z" fill="#DBDBDB"/>
<path d="M128.381 22.8556C129.201 23.7209 129.657 24.8672 129.657 26.0588C129.657 27.2504 129.201 28.3967 128.381 29.262C127.996 29.6836 127.529 30.0216 127.008 30.2547C126.486 30.4879 125.923 30.6112 125.352 30.6172C124.77 30.6151 124.196 30.4938 123.663 30.2607C123.13 30.0276 122.651 29.6877 122.255 29.262C121.448 28.3904 121 27.2465 121 26.0588C121 24.8711 121.448 23.7271 122.255 22.8556C122.65 22.428 123.129 22.0869 123.662 21.8536C124.195 21.6204 124.77 21.5001 125.352 21.5004C125.923 21.5036 126.488 21.6258 127.009 21.8591C127.531 22.0924 127.998 22.4318 128.381 22.8556ZM128.213 26.0588C128.214 25.2403 127.909 24.4512 127.357 23.8468C127.101 23.5626 126.788 23.3353 126.439 23.1798C126.09 23.0243 125.712 22.9439 125.329 22.9439C124.947 22.9439 124.569 23.0243 124.22 23.1798C123.871 23.3353 123.558 23.5626 123.302 23.8468C122.747 24.4486 122.439 25.2373 122.439 26.056C122.439 26.8746 122.747 27.6633 123.302 28.2652C123.557 28.5509 123.869 28.7796 124.219 28.9361C124.568 29.0927 124.947 29.1737 125.329 29.1737C125.712 29.1737 126.091 29.0927 126.44 28.9361C126.79 28.7796 127.102 28.5509 127.357 28.2652C127.909 27.6634 128.215 26.8757 128.213 26.0588Z" fill="#C7C7C7"/>
<path d="M139.381 22.8552C140.201 23.7205 140.657 24.8668 140.657 26.0584C140.657 27.25 140.201 28.3963 139.381 29.2616C138.998 29.6831 138.531 30.021 138.011 30.2542C137.49 30.4873 136.928 30.6108 136.357 30.6168C135.775 30.6145 135.2 30.4931 134.666 30.26C134.133 30.027 133.652 29.6872 133.255 29.2616C132.448 28.39 132 27.2461 132 26.0584C132 24.8707 132.448 23.7268 133.255 22.8552C133.651 22.4275 134.131 22.0863 134.664 21.8531C135.198 21.6198 135.775 21.4996 136.357 21.5C136.928 21.5033 137.492 21.6255 138.012 21.8589C138.533 22.0922 138.999 22.4315 139.381 22.8552ZM139.213 26.0584C139.214 25.2399 138.909 24.4508 138.357 23.8464C138.104 23.5662 137.796 23.3414 137.451 23.1863C137.107 23.0311 136.735 22.9489 136.357 22.9448C135.971 22.9428 135.588 23.022 135.234 23.1773C134.88 23.3327 134.563 23.5606 134.302 23.8464C133.751 24.4501 133.445 25.2381 133.445 26.0556C133.445 26.8731 133.751 27.6611 134.302 28.2648C134.564 28.5497 134.881 28.7774 135.235 28.9336C135.589 29.0897 135.971 29.1709 136.357 29.172C136.735 29.1659 137.107 29.0822 137.451 28.9261C137.795 28.7701 138.103 28.545 138.357 28.2648C138.909 27.663 139.215 26.8754 139.213 26.0584Z" fill="#C7C7C7"/>
<path d="M145.962 26.918H144.406V29.6676C144.403 29.8538 144.326 30.0312 144.193 30.1613C144.06 30.2914 143.881 30.3635 143.694 30.362C143.511 30.3605 143.335 30.2869 143.205 30.157C143.075 30.0271 143.001 29.8513 143 29.6676V22.1972C142.999 22.1058 143.017 22.0152 143.051 21.9306C143.086 21.846 143.137 21.7692 143.202 21.7045C143.266 21.6399 143.343 21.5888 143.428 21.5541C143.512 21.5195 143.603 21.5021 143.694 21.5028H145.934C146.3 21.4862 146.666 21.5439 147.009 21.6724C147.352 21.801 147.665 21.9977 147.93 22.2508C148.195 22.5039 148.406 22.808 148.55 23.1448C148.694 23.4816 148.768 23.8441 148.768 24.2104C148.768 24.5767 148.694 24.9392 148.55 25.276C148.406 25.6128 148.195 25.9169 147.93 26.17C147.665 26.4231 147.352 26.6198 147.009 26.7484C146.666 26.8769 146.3 26.9346 145.934 26.918H145.962ZM144.406 25.5124H145.962C146.141 25.5241 146.319 25.4991 146.487 25.439C146.655 25.3788 146.809 25.2848 146.94 25.1628C147.07 25.0407 147.174 24.8932 147.245 24.7294C147.316 24.5656 147.353 24.3889 147.353 24.2104C147.353 24.0319 147.316 23.8552 147.245 23.6914C147.174 23.5276 147.07 23.3801 146.94 23.258C146.809 23.136 146.655 23.042 146.487 22.9818C146.319 22.9217 146.141 22.8967 145.962 22.9084H144.406V25.5124Z" fill="#C7C7C7"/>
<path d="M150.135 28.4164C150.19 28.3497 150.257 28.2944 150.333 28.2538C150.409 28.2132 150.492 28.188 150.578 28.1797C150.664 28.1714 150.751 28.1801 150.833 28.2053C150.916 28.2305 150.992 28.2718 151.059 28.3268C151.74 28.9028 152.588 29.2444 153.478 29.3012C154.041 29.3128 154.593 29.1483 155.057 28.8308C155.219 28.738 155.354 28.6065 155.452 28.4481C155.55 28.2897 155.607 28.1094 155.617 27.9236C155.62 27.7785 155.579 27.636 155.5 27.5148C155.403 27.3609 155.273 27.2308 155.119 27.134C154.583 26.8322 153.997 26.631 153.388 26.5404H153.36C152.798 26.447 152.25 26.2814 151.731 26.0476C151.251 25.8382 150.841 25.4962 150.549 25.062C150.356 24.7489 150.255 24.388 150.258 24.0204C150.271 23.6546 150.37 23.297 150.546 22.9761C150.722 22.6553 150.97 22.38 151.272 22.1724C151.913 21.7246 152.679 21.4895 153.461 21.5004C154.456 21.5485 155.414 21.8938 156.211 22.4916C156.353 22.5883 156.452 22.737 156.485 22.9057C156.519 23.0743 156.484 23.2494 156.39 23.3932C156.344 23.4657 156.284 23.5282 156.213 23.5772C156.143 23.6261 156.063 23.6605 155.979 23.6782C155.895 23.696 155.809 23.6967 155.724 23.6805C155.64 23.6642 155.56 23.6313 155.488 23.5836C154.908 23.1109 154.197 22.8275 153.45 22.7716C152.944 22.7644 152.449 22.9151 152.033 23.2028C151.895 23.2869 151.779 23.4031 151.695 23.5415C151.611 23.6799 151.562 23.8365 151.552 23.998C151.546 24.1235 151.578 24.248 151.641 24.3564C151.732 24.4862 151.849 24.5966 151.983 24.6812C152.461 24.9838 152.994 25.1911 153.551 25.2916C154.153 25.3948 154.74 25.5736 155.298 25.8236C155.81 26.0461 156.249 26.4092 156.564 26.8708C156.773 27.1834 156.893 27.5475 156.911 27.9236C156.899 28.3132 156.794 28.6943 156.605 29.0352C156.416 29.3761 156.149 29.667 155.824 29.8836C155.139 30.3644 154.32 30.6171 153.484 30.606C152.294 30.5475 151.156 30.1032 150.241 29.3404C150.109 29.229 150.024 29.0713 150.004 28.8995C149.985 28.7277 150.031 28.5549 150.135 28.4164Z" fill="#C7C7C7"/>
<path d="M158 27.3072V22.1944C158.001 22.0107 158.075 21.8349 158.205 21.705C158.335 21.5751 158.511 21.5015 158.694 21.5C158.785 21.5007 158.874 21.5193 158.958 21.5546C159.041 21.5899 159.116 21.6412 159.18 21.7057C159.243 21.7702 159.293 21.8465 159.327 21.9304C159.361 22.0142 159.378 22.1039 159.378 22.1944V27.3072C159.379 27.3981 159.363 27.4884 159.329 27.5729C159.295 27.6574 159.245 27.7344 159.182 27.7995C159.118 27.8646 159.043 27.9165 158.959 27.9521C158.875 27.9877 158.785 28.0065 158.694 28.0072C158.603 28.0072 158.512 27.9891 158.427 27.9538C158.343 27.9186 158.266 27.8669 158.201 27.8018C158.137 27.7368 158.086 27.6596 158.051 27.5747C158.017 27.4898 157.999 27.3989 158 27.3072ZM158.694 30.3592C158.603 30.3599 158.512 30.3425 158.428 30.3079C158.343 30.2732 158.266 30.2221 158.202 30.1575C158.137 30.0928 158.086 30.016 158.051 29.9314C158.017 29.8468 157.999 29.7562 158 29.6648V29.4072C158.001 29.2235 158.075 29.0477 158.205 28.9178C158.335 28.7879 158.511 28.7143 158.694 28.7128C158.877 28.7157 159.05 28.7902 159.178 28.9201C159.306 29.05 159.378 29.225 159.378 29.4072V29.6648C159.379 29.7555 159.363 29.8455 159.329 29.9297C159.295 30.0139 159.245 30.0905 159.182 30.1552C159.118 30.2198 159.042 30.2711 158.958 30.3061C158.875 30.3412 158.785 30.3592 158.694 30.3592Z" fill="#C7C7C7"/>
<path d="M249.043 104.638C249.042 105.521 248.866 106.396 248.524 107.21C248.182 108.025 247.681 108.763 247.051 109.382C246.421 110.001 245.674 110.489 244.853 110.817C244.033 111.144 243.156 111.305 242.272 111.29H241.063V120.486C241.012 122.216 240.29 123.858 239.048 125.065C237.806 126.271 236.144 126.945 234.413 126.945C232.682 126.945 231.019 126.271 229.777 125.065C228.535 123.858 227.813 122.216 227.763 120.486V111.296H189.683C188.178 111.351 186.709 110.833 185.572 109.846C184.873 109.317 184.288 108.653 183.853 107.892C183.418 107.131 183.142 106.289 183.042 105.418C182.942 104.548 183.02 103.666 183.271 102.826C183.522 101.986 183.941 101.206 184.503 100.533L229.235 44.9192C229.359 44.9192 229.359 44.796 229.476 44.6784C229.628 44.5413 229.752 44.3758 229.84 44.1912C230.071 44.131 230.281 44.0067 230.445 43.8328C230.568 43.7096 230.809 43.5864 230.932 43.4688C231.142 43.3159 231.395 43.2318 231.655 43.228C231.772 42.9816 231.895 42.864 232.136 42.864C232.259 42.7408 232.5 42.7408 232.864 42.6232C233.034 42.6414 233.205 42.5977 233.346 42.5H235.401C235.586 42.5993 235.796 42.6421 236.006 42.6232C236.129 42.7408 236.493 42.7408 236.734 42.864C236.851 42.864 237.098 42.9816 237.215 42.9816C237.462 43.228 237.697 43.3456 237.82 43.4688C238.061 43.5864 238.184 43.7096 238.425 43.8328C238.441 43.832 238.457 43.8345 238.472 43.8401C238.487 43.8457 238.5 43.8542 238.512 43.8652C238.523 43.8762 238.532 43.8894 238.539 43.9041C238.545 43.9187 238.548 43.9345 238.548 43.9504C238.666 43.9504 238.907 44.0736 238.907 44.1912L239.394 44.6784C239.511 44.796 239.635 45.0368 239.758 45.16C239.94 45.3431 240.102 45.546 240.239 45.7648C240.269 45.9459 240.353 46.1137 240.48 46.2464C240.581 46.4823 240.664 46.7257 240.727 46.9744C240.727 47.092 240.844 47.3384 240.844 47.456C240.951 47.683 240.991 47.9351 240.962 48.184C240.962 48.4248 241.085 48.548 241.085 48.7888V97.996H242.295C244.068 97.9885 245.773 98.6824 247.037 99.9266C248.301 101.171 249.022 102.864 249.043 104.638ZM227.763 68.1256L203.683 97.9904H227.763V68.1256Z" fill="#F1AE67"/>
<path d="M97.0529 104.638C97.0523 105.521 96.8759 106.396 96.534 107.21C96.192 108.025 95.6914 108.763 95.0613 109.382C94.4312 110.001 93.6841 110.489 92.8637 110.817C92.0433 111.144 91.1658 111.305 90.2825 111.29H89.0729V120.486C89.0227 122.216 88.3001 123.858 87.0584 125.065C85.8168 126.271 84.1539 126.945 82.4229 126.945C80.6919 126.945 79.0291 126.271 77.7874 125.065C76.5458 123.858 75.8231 122.216 75.7729 120.486V111.296H37.6929C36.1884 111.351 34.7192 110.833 33.5825 109.846C32.8818 109.319 32.2955 108.655 31.8591 107.894C31.4226 107.134 31.1452 106.293 31.0436 105.422C30.942 104.551 31.0184 103.669 31.2681 102.828C31.5177 101.988 31.9355 101.207 32.4961 100.533L77.2289 44.9192C77.3521 44.9192 77.3521 44.796 77.4697 44.6784C77.6197 44.5395 77.743 44.3744 77.8337 44.1912C78.0644 44.1296 78.2737 44.0056 78.4385 43.8328C78.5561 43.7096 78.8025 43.5864 78.9201 43.4688C79.1329 43.3168 79.3867 43.2328 79.6481 43.228C79.7657 42.9816 79.8889 42.864 80.1297 42.864C80.2529 42.7408 80.4937 42.7408 80.8577 42.6232C81.0278 42.6409 81.1986 42.5972 81.3393 42.5H83.3945C83.5798 42.5993 83.79 42.6421 83.9993 42.6232C84.1225 42.7408 84.4809 42.7408 84.7273 42.864C84.8449 42.864 85.0857 42.9816 85.2089 42.9816C85.4497 43.228 85.6905 43.3456 85.8137 43.4688C86.0545 43.5864 86.1777 43.7096 86.4185 43.8328C86.4497 43.8328 86.4796 43.8452 86.5017 43.8672C86.5237 43.8893 86.5361 43.9192 86.5361 43.9504C86.6593 43.9504 86.9001 44.0736 86.9001 44.1912L87.3873 44.6784C87.5049 44.796 87.6281 45.0368 87.7457 45.16C87.9323 45.3409 88.0959 45.544 88.2329 45.7648C88.2605 45.9467 88.3448 46.1152 88.4737 46.2464C88.575 46.4816 88.6556 46.7252 88.7145 46.9744C88.7145 47.092 88.8377 47.3384 88.8377 47.456C88.944 47.683 88.9848 47.9351 88.9553 48.184C88.9553 48.4248 89.0785 48.548 89.0785 48.7888V97.996H90.2881C92.0646 97.984 93.7736 98.676 95.0413 99.9206C96.309 101.165 97.0322 102.861 97.0529 104.638ZM75.7729 68.1256L51.6929 97.9904H75.7729V68.1256Z" fill="#F1AE67"/>
<g opacity="0.2">
<path d="M176.736 85.1272C176.736 98.0072 173.337 109.935 167.244 119.007C161.28 127.967 151.928 134.754 141.008 134.754C129.808 134.754 120.596 127.95 114.632 119.007C108.399 109.935 105.112 98.0296 105 85.1272C105.14 72.0792 108.399 60.3136 114.632 51.236C120.596 42.164 129.808 35.5 141.008 35.5C151.928 35.5 161.28 42.164 167.244 51.236C173.348 60.3136 176.736 72.0792 176.736 85.1272Z" fill="#F1AE67"/>
</g>
<g opacity="0.2">
<path d="M171.499 85.0432C171.499 96.1032 168.582 106.323 163.357 114.085C158.25 121.751 150.23 127.581 140.873 127.581C131.269 127.581 123.373 121.751 118.26 114.085C112.918 106.306 110.123 96.1032 110 85.0432C110.123 73.8432 112.918 63.7632 118.26 55.9904C123.373 48.212 131.269 42.5 140.873 42.5C150.23 42.5 158.233 48.212 163.357 55.9904C168.582 63.7744 171.499 73.86 171.499 85.0432Z" fill="#F1AE67"/>
</g>
<g opacity="0.2">
<path d="M162.867 85.5408C162.867 93.6104 160.739 101.053 156.926 106.731C153.202 112.331 147.35 116.576 140.523 116.576C133.518 116.576 127.755 112.32 124.026 106.731C120.106 101.053 118.09 93.6104 118 85.5408C118.09 77.3816 120.128 70.0232 124.026 64.3448C127.755 58.672 133.546 54.5 140.523 54.5C147.35 54.5 153.202 58.672 156.926 64.3448C160.739 70.0232 162.867 77.3592 162.867 85.5408Z" fill="#F1AE67"/>
</g>
<path d="M163.827 195.367H117L118.31 176.596L119.626 157.825L120.937 139.048L122.253 120.277L123.563 101.5H157.264L158.574 120.277L159.89 139.048L161.201 157.825L162.517 176.596L163.827 195.367Z" fill="#F1AE67"/>
<path opacity="0.1" d="M158.322 120.277H122L123.31 101.5H157.011L158.322 120.277Z" fill="black"/>
<path opacity="0.1" d="M163.827 195.271H117L118.31 176.5H162.517L163.827 195.271Z" fill="black"/>
<path opacity="0.1" d="M161.574 158.277H120L121.31 139.5H160.264L161.574 158.277Z" fill="black"/>
<path opacity="0.1" d="M123.563 101.5H132.03L143.527 195.367H117L123.563 101.5Z" fill="black"/>
<path d="M140.744 109.5C140.142 109.5 139.566 109.739 139.14 110.164C138.715 110.59 138.476 111.166 138.476 111.768L138 116.69H143.488L143.012 111.768C143.012 111.166 142.773 110.59 142.348 110.164C141.922 109.739 141.346 109.5 140.744 109.5Z" fill="#009254"/>
<path d="M149.75 126.5C149.453 126.496 149.159 126.552 148.884 126.663C148.609 126.773 148.359 126.938 148.148 127.146C147.937 127.355 147.769 127.603 147.655 127.876C147.54 128.15 147.482 128.444 147.482 128.74L147 133.663H152.494L152.018 128.74C152.01 128.144 151.768 127.574 151.343 127.155C150.919 126.735 150.346 126.5 149.75 126.5Z" fill="#009254"/>
<path d="M126.744 145.5C126.147 145.5 125.575 145.735 125.15 146.154C124.726 146.574 124.483 147.143 124.476 147.74L124 152.662H129.488L129.012 147.74C129.003 147.144 128.761 146.575 128.336 146.156C127.912 145.737 127.34 145.501 126.744 145.5Z" fill="#009254"/>
<path d="M140.744 164.5C140.447 164.496 140.153 164.552 139.878 164.663C139.603 164.774 139.353 164.938 139.142 165.146C138.931 165.355 138.763 165.603 138.649 165.876C138.535 166.15 138.476 166.444 138.476 166.74L138 171.668H143.488L143.012 166.74C143.012 166.444 142.953 166.15 142.839 165.876C142.725 165.603 142.557 165.355 142.346 165.146C142.135 164.938 141.885 164.774 141.61 164.663C141.335 164.552 141.041 164.496 140.744 164.5Z" fill="#009254"/>
<path d="M150.406 74.6298H130C130.02 72.0005 131.054 69.4805 132.887 67.5947C134.719 65.7089 137.208 64.6028 139.836 64.5068C142.463 64.4108 145.027 65.3323 146.992 67.0793C148.957 68.8264 150.172 71.2642 150.384 73.885C150.401 74.1314 150.406 74.3834 150.406 74.6298Z" fill="#F1AE67"/>
<path opacity="0.1" d="M150.412 74.6024H130C129.998 73.9369 130.062 73.2729 130.19 72.62L149.925 71.5C150.171 72.2688 150.325 73.0639 150.384 73.8688C150.401 74.104 150.412 74.3504 150.412 74.6024Z" fill="black"/>
<path d="M132 86.5592V73.5H130.566V86.5592H132Z" fill="#C7C7C7"/>
<path d="M135 86.5592V73.5H133.566V86.5592H135Z" fill="#C7C7C7"/>
<path d="M139 86.5592V73.5H137.566V86.5592H139Z" fill="#C7C7C7"/>
<path d="M143 86.5592V73.5H141.566V86.5592H143Z" fill="#C7C7C7"/>
<path d="M147 86.5592V73.5H145.566V86.5592H147Z" fill="#C7C7C7"/>
<path d="M151.826 81.5H129V82.6088H151.826V81.5Z" fill="#C7C7C7"/>
<path d="M151 86.5592V73.5H149.566V86.5592H151Z" fill="#C7C7C7"/>
<path d="M152.55 86.5H128V98.3048H152.55V86.5Z" fill="#F1AE67"/>
<path opacity="0.1" d="M152.55 86.5V88.7176L128 92.7048V86.5H152.55Z" fill="black"/>
<g opacity="0.05">
<path d="M157.488 163.5H152V165.818H157.488V163.5Z" fill="black"/>
<path d="M154.488 165.5H149V167.818H154.488V165.5Z" fill="black"/>
<path d="M137.488 128.5H132V130.818H137.488V128.5Z" fill="black"/>
<path d="M134.488 131.5H129V133.818H134.488V131.5Z" fill="black"/>
<path d="M131.488 128.5H126V130.818H131.488V128.5Z" fill="black"/>
<path d="M143.2 68.5H139V70.2752H143.2V68.5Z" fill="black"/>
<path d="M141.2 70.5H137V72.2752H141.2V70.5Z" fill="black"/>
<path d="M138.2 68.5H134V70.2752H138.2V68.5Z" fill="black"/>
<path d="M128.488 164.5H123V166.818H128.488V164.5Z" fill="black"/>
<path d="M151.488 109.5H146V111.818H151.488V109.5Z" fill="black"/>
<path d="M154.488 112.5H149V114.818H154.488V112.5Z" fill="black"/>
<path d="M146.488 90.5H141V92.8184H146.488V90.5Z" fill="black"/>
<path d="M149.488 93.5H144V95.8184H149.488V93.5Z" fill="black"/>
<path d="M145.488 144.5H140V146.818H145.488V144.5Z" fill="black"/>
</g>
<path d="M161.104 97.5H120V105.502H161.104V97.5Z" fill="#009254"/>
<path d="M154.457 85.5H127V88.3896H154.457V85.5Z" fill="#009254"/>
<path d="M151.826 73.5H129V75.9024H151.826V73.5Z" fill="#009254"/>
<path d="M154.78 176.572C153.896 176.6 152.916 176.65 152.182 176.079C151.813 175.835 151.511 175.502 151.305 175.11C151.098 174.719 150.994 174.282 151 173.839C151 173.581 151.084 173.425 151.359 173.537C151.769 173.776 152.122 174.1 152.395 174.489C152.762 174.914 153.171 175.303 153.616 175.648C153.929 175.889 154.271 176.096 154.59 176.331L154.708 176.421L154.752 176.454H154.78C154.786 176.452 154.791 176.451 154.797 176.451C154.803 176.451 154.809 176.452 154.814 176.454C154.83 176.459 154.843 176.469 154.851 176.483C154.858 176.498 154.86 176.514 154.856 176.53C154.851 176.545 154.841 176.559 154.827 176.567C154.813 176.574 154.796 176.576 154.78 176.572Z" fill="#009254"/>
<path d="M154.23 176.677C153.457 176.677 152.623 176.677 151.99 176.173C151.705 175.923 151.463 175.628 151.273 175.3C151.184 175.154 150.915 174.74 151.027 174.549C151.228 174.236 152.147 175.513 152.276 175.63C152.761 176.07 153.351 176.376 153.989 176.521L154.107 176.61C153.655 176.517 153.222 176.351 152.824 176.117C152.336 175.76 151.902 175.334 151.536 174.852C151.441 174.751 151.161 174.426 151.06 174.628C150.96 174.829 151.245 175.188 151.301 175.283C151.486 175.592 151.717 175.871 151.984 176.112C152.6 176.672 153.435 176.633 154.224 176.672C154.23 176.666 154.23 176.672 154.23 176.677Z" fill="white"/>
<path d="M154.99 176.867V176.968C154.982 176.972 154.974 176.975 154.965 176.975C154.956 176.975 154.947 176.972 154.94 176.968V176.934V176.906C154.783 176.318 154.721 175.714 154.559 175.131C154.396 174.549 154.206 174.011 154.094 173.451C154.021 173.093 153.775 171.295 154.564 171.519C154.917 171.614 155.158 172.124 155.287 172.426C155.461 172.837 155.561 173.275 155.584 173.72C155.617 174.795 155.214 175.814 154.99 176.867Z" fill="#009254"/>
<path d="M155.746 174.505C155.759 174.094 155.716 173.683 155.617 173.284C155.584 173.144 155.41 172.484 155.186 172.5C154.962 172.517 155.018 172.797 155.001 172.892C154.991 173.298 155.046 173.702 155.164 174.091C155.317 174.882 155.413 175.683 155.449 176.488V176.644V176.773C155.449 176.773 155.449 176.801 155.449 176.812V176.846C155.456 176.85 155.464 176.853 155.472 176.853C155.48 176.853 155.487 176.85 155.494 176.846V176.745V176.824V176.74V176.588C155.619 175.899 155.703 175.204 155.746 174.505ZM155.477 176.32C155.477 175.849 155.41 175.379 155.343 174.914C155.276 174.449 155.22 174.164 155.136 173.794C155.085 173.586 155.051 173.374 155.035 173.161C155.035 172.993 155.035 172.388 155.365 172.764C155.565 173.127 155.671 173.536 155.673 173.951C155.71 174.323 155.71 174.698 155.673 175.071C155.612 175.485 155.539 175.9 155.477 176.32Z" fill="white"/>
<path d="M155.413 179.12H155.38C154.573 179.081 153.504 179.154 152.832 178.622C152.548 178.413 152.324 178.135 152.18 177.814C152.035 177.494 151.977 177.141 152.008 176.791C152.182 176.046 153.19 176.942 153.453 177.155C154.148 177.757 154.808 178.398 155.43 179.076L155.413 179.12Z" fill="#009254"/>
<path d="M155.865 179.333L155.725 179.249C155.199 178.913 154.678 178.554 154.185 178.173C154.056 178.078 153.149 177.272 153.015 177.563C152.931 177.737 153.233 178.089 153.328 178.213C153.5 178.431 153.706 178.62 153.939 178.773C154.507 179.047 155.113 179.236 155.736 179.333H155.82C155.82 179.333 155.871 179.333 155.865 179.333ZM154.269 178.873C154.013 178.757 153.778 178.598 153.575 178.403C153.44 178.274 152.964 177.793 153.093 177.597C153.16 177.49 153.216 177.546 153.345 177.597L153.513 177.697C153.647 177.787 153.771 177.888 153.899 177.989C154.118 178.168 154.342 178.336 154.571 178.504C154.947 178.778 155.333 179.036 155.725 179.277C155.231 179.168 154.745 179.027 154.269 178.857V178.873Z" fill="white"/>
<path d="M157.428 178.128C157.218 179.052 156.736 179.893 156.045 180.542C156.038 180.545 156.03 180.548 156.022 180.548C156.015 180.548 156.007 180.545 156 180.542C156 180.542 156 180.508 156 180.491L156.039 180.452C156.174 179.332 156.319 178.268 156.437 177.17C156.437 176.907 156.661 175.261 157.17 175.53C157.484 175.698 157.501 176.37 157.529 176.65C157.573 177.145 157.539 177.643 157.428 178.128Z" fill="#009254"/>
<path d="M157.154 176.643C157.126 176.548 157.075 176.459 156.974 176.52C156.778 176.643 156.7 177.416 156.666 177.64C156.532 178.519 156.325 179.371 156.106 180.239C156.106 180.311 156.067 180.384 156.05 180.457L156 180.524C156.007 180.528 156.015 180.53 156.022 180.53C156.03 180.53 156.038 180.528 156.045 180.524L156.112 180.435C156.456 179.962 156.725 179.439 156.907 178.883C157.025 178.531 157.103 178.167 157.142 177.797C157.218 177.417 157.222 177.025 157.154 176.643ZM156.118 180.362C156.105 180.375 156.096 180.39 156.09 180.407C156.096 180.376 156.105 180.346 156.118 180.317C156.323 179.658 156.488 178.986 156.61 178.307C156.666 177.959 156.706 177.612 156.773 177.265C156.806 177.125 156.874 176.705 156.997 176.643C157.12 176.582 157.114 176.739 157.126 176.828C157.131 176.912 157.131 176.996 157.126 177.08C157.141 178.253 156.789 179.401 156.118 180.362Z" fill="white"/>
<path d="M155.385 182.706H155.222C155.222 182.56 155.222 182.42 155.222 182.28C155.222 181.72 155.178 181.132 155.144 180.561C155.144 180.236 155.105 179.912 155.066 179.592V179.581C155.066 179.581 155.066 179.525 155.066 179.503C155.068 179.475 155.068 179.447 155.066 179.419C154.993 178.691 154.804 177.98 154.506 177.313C154.405 177.089 154.293 176.871 154.175 176.658L154.142 176.596L154.108 176.529L154.08 176.484C153.71 175.829 153.279 175.202 152.876 174.569L152.534 174.009V173.976V173.936C152.03 173.136 151.526 172.324 151 171.54C151 171.512 151.028 171.484 151.045 171.512C151.403 172.038 151.773 172.548 152.137 173.063L152.282 173.27L152.574 173.679L153.134 174.502C153.674 175.274 154.17 176.076 154.618 176.904L154.707 177.095L154.763 177.212C154.763 177.257 154.802 177.302 154.825 177.352C155.158 178.159 155.347 179.017 155.385 179.889C155.385 179.951 155.385 180.012 155.385 180.074C155.382 180.102 155.382 180.13 155.385 180.158V180.203C155.382 180.221 155.382 180.24 155.385 180.259V180.304C155.385 180.36 155.385 180.41 155.385 180.46C155.385 181.02 155.424 181.608 155.435 182.18L155.385 182.706Z" fill="#009254"/>
<path d="M150.647 172.164C150.21 171.571 149.645 170.35 150.294 169.711C150.412 169.589 150.571 169.514 150.741 169.502C150.91 169.489 151.078 169.54 151.213 169.644C151.534 169.94 151.748 170.334 151.823 170.764C152.12 171.806 152.316 172.864 152.691 173.878C152.707 173.914 152.72 173.952 152.73 173.99C152.73 173.99 152.73 173.99 152.697 173.99L152.663 173.895C151.908 173.422 151.228 172.839 150.647 172.164Z" fill="#009254"/>
<path d="M152.965 173.929C152.81 173.682 152.672 173.426 152.551 173.161C152.306 172.614 152.095 172.053 151.918 171.481C151.851 171.257 151.531 170.165 151.139 170.602C151.007 170.823 150.967 171.086 151.027 171.336C151.073 171.694 151.187 172.04 151.363 172.355C151.739 172.963 152.239 173.484 152.831 173.884L152.909 173.945V173.973H152.943C152.943 173.973 152.971 173.934 152.965 173.929ZM152.791 173.805C152.319 173.455 151.902 173.036 151.554 172.562C151.376 172.309 151.238 172.029 151.145 171.733C151.106 171.603 151.078 171.47 151.061 171.336C151.05 171.233 151.05 171.13 151.061 171.028C151.061 170.804 151.156 170.563 151.291 170.535C151.425 170.507 151.509 170.602 151.615 170.793C151.654 170.855 151.688 170.92 151.716 170.989C151.787 171.156 151.847 171.328 151.895 171.504C151.991 171.795 152.08 172.064 152.187 172.366C152.254 172.557 152.332 172.747 152.411 172.926C152.551 173.251 152.713 173.565 152.898 173.867L152.791 173.805Z" fill="white"/>
<path d="M105.78 178.518C105.018 178.709 104.167 178.927 103.428 178.558C103.066 178.412 102.746 178.179 102.497 177.879C102.247 177.578 102.077 177.221 102 176.838C102 176.609 102 176.463 102.258 176.508C102.66 176.642 103.027 176.864 103.333 177.158C103.731 177.46 104.157 177.724 104.604 177.947C104.923 178.098 105.254 178.222 105.573 178.367L105.696 178.423H105.741C105.741 178.423 105.741 178.423 105.774 178.423C105.781 178.423 105.787 178.424 105.793 178.426C105.799 178.428 105.804 178.431 105.809 178.435C105.814 178.439 105.817 178.444 105.82 178.45C105.823 178.456 105.824 178.462 105.825 178.468C105.825 178.474 105.824 178.481 105.822 178.487C105.82 178.492 105.817 178.498 105.813 178.503C105.809 178.507 105.804 178.511 105.798 178.514C105.792 178.517 105.786 178.518 105.78 178.518Z" fill="#009254"/>
<path d="M106.179 178.846C105.501 178.975 104.779 179.154 104.141 178.807C103.849 178.636 103.585 178.422 103.357 178.174C103.256 178.062 102.942 177.731 103.009 177.563C103.127 177.25 104.163 178.196 104.297 178.28C104.796 178.577 105.364 178.739 105.944 178.751L106.067 178.807C105.656 178.804 105.247 178.736 104.857 178.605C104.368 178.38 103.913 178.086 103.508 177.731C103.413 177.664 103.11 177.429 103.054 177.625C102.998 177.821 103.317 178.079 103.385 178.151C103.6 178.387 103.849 178.589 104.124 178.751C104.762 179.109 105.485 178.947 106.168 178.835L106.179 178.846Z" fill="white"/>
<path d="M105.712 179.071V179.16C105.706 179.166 105.698 179.169 105.69 179.169C105.681 179.169 105.673 179.166 105.667 179.16V179.121C105.426 178.645 105.264 178.124 105.018 177.648C104.771 177.172 104.514 176.747 104.312 176.271C104.183 175.974 103.646 174.451 104.374 174.501C104.698 174.501 105.001 174.927 105.169 175.168C105.393 175.494 105.558 175.858 105.656 176.243C105.799 177.179 105.818 178.13 105.712 179.071Z" fill="#009254"/>
<path d="M105.969 177.15C105.907 176.79 105.796 176.439 105.639 176.109C105.583 175.997 105.314 175.448 105.118 175.504C104.922 175.56 105.028 175.79 105.034 175.874C105.096 176.229 105.213 176.573 105.381 176.893C105.661 177.554 105.891 178.236 106.07 178.931C106.067 178.978 106.067 179.025 106.07 179.071C106.07 179.11 106.07 179.144 106.07 179.183V179.256C106.076 179.261 106.084 179.265 106.092 179.265C106.1 179.265 106.108 179.261 106.115 179.256C106.112 179.226 106.112 179.196 106.115 179.166C106.113 179.191 106.113 179.215 106.115 179.239V179.15C106.115 179.11 106.115 179.071 106.115 179.032C106.1 178.403 106.051 177.775 105.969 177.15ZM106.059 178.78C105.952 178.371 105.829 177.974 105.689 177.576C105.549 177.178 105.443 176.943 105.308 176.635C105.225 176.455 105.157 176.267 105.107 176.075C105.073 175.935 104.983 175.403 105.325 175.672C105.565 175.953 105.731 176.29 105.807 176.652C105.894 176.973 105.954 177.301 105.986 177.632C106.025 178.03 106.036 178.405 106.059 178.774V178.78Z" fill="white"/>
<path d="M107.388 181.271H107.36C106.649 181.378 105.725 181.635 105.047 181.271C104.763 181.14 104.517 180.938 104.333 180.683C104.15 180.429 104.035 180.132 104 179.821C104 179.138 105.058 179.737 105.327 179.877C106.04 180.279 106.73 180.72 107.394 181.198C107.394 181.198 107.405 181.266 107.388 181.271Z" fill="#009254"/>
<path d="M106.792 181.617L106.658 181.567C106.137 181.371 105.622 181.153 105.123 180.912C104.994 180.85 104.059 180.307 104.003 180.587C103.964 180.749 104.289 181.007 104.39 181.097C104.578 181.253 104.792 181.376 105.022 181.461C105.57 181.604 106.137 181.663 106.702 181.634H106.798C106.798 181.634 106.803 181.629 106.792 181.617ZM105.325 181.505C105.079 181.45 104.844 181.353 104.63 181.22C104.49 181.13 103.992 180.794 104.07 180.604C104.149 180.413 104.171 180.537 104.294 180.57C104.35 180.583 104.405 180.602 104.457 180.626C104.591 180.68 104.722 180.742 104.849 180.811C105.073 180.923 105.297 181.035 105.526 181.136C105.902 181.309 106.282 181.461 106.646 181.606C106.204 181.592 105.763 181.553 105.325 181.489V181.505Z" fill="white"/>
<path d="M108.077 179.736C108.057 180.579 107.788 181.397 107.304 182.088C107.298 182.092 107.291 182.094 107.284 182.094C107.277 182.094 107.27 182.092 107.265 182.088C107.259 182.081 107.256 182.073 107.256 182.065C107.256 182.057 107.259 182.049 107.265 182.043V182.004C107.186 181.024 107.119 180.049 107.018 179.069C107.018 178.84 106.878 177.389 107.371 177.507C107.674 177.596 107.808 178.184 107.886 178.442C108.017 178.861 108.081 179.297 108.077 179.736Z" fill="#009254"/>
<path d="M107.274 178.603C107.235 178.53 107.179 178.457 107.101 178.53C107.022 178.603 107.022 179.359 107.034 179.555C107.073 180.35 107.034 181.129 107.034 181.918C107.034 181.985 107.034 182.053 107.034 182.12L107 182.187C107.006 182.191 107.013 182.193 107.02 182.193C107.027 182.193 107.033 182.191 107.039 182.187C107.057 182.159 107.072 182.129 107.084 182.097C107.299 181.624 107.439 181.119 107.498 180.602C107.532 180.273 107.532 179.94 107.498 179.611C107.489 179.264 107.413 178.921 107.274 178.603ZM107.039 182.03V182.075C107.039 182.047 107.039 182.019 107.039 181.991C107.101 181.379 107.123 180.764 107.106 180.149C107.106 179.841 107.067 179.527 107.067 179.219C107.067 179.085 107.067 178.709 107.146 178.631C107.224 178.553 107.263 178.693 107.291 178.771C107.315 178.842 107.334 178.915 107.347 178.989C107.574 180.015 107.466 181.087 107.039 182.047V182.03Z" fill="white"/>
<path d="M107.818 183.466L107.673 183.499L107.589 183.13C107.471 182.631 107.348 182.139 107.214 181.646C107.141 181.366 107.062 181.086 106.973 180.811C106.972 180.802 106.972 180.793 106.973 180.783C106.973 180.783 106.973 180.739 106.973 180.716C106.973 180.694 106.973 180.671 106.973 180.643C106.779 180.024 106.488 179.44 106.11 178.913C105.982 178.734 105.847 178.566 105.702 178.398C105.692 178.38 105.678 178.365 105.662 178.353L105.623 178.303L105.59 178.269C105.147 177.765 104.66 177.295 104.195 176.819L103.798 176.404V176.376L103.764 176.348C103.204 175.743 102.599 175.127 102 174.534C102 174.534 102 174.483 102.034 174.506C102.437 174.892 102.851 175.279 103.266 175.659L103.428 175.816L103.753 176.119C103.971 176.32 104.184 176.527 104.391 176.735C105.002 177.309 105.578 177.918 106.116 178.56L106.228 178.711C106.255 178.741 106.28 178.773 106.301 178.807L106.379 178.913C106.81 179.558 107.123 180.275 107.303 181.03C107.303 181.08 107.337 181.136 107.348 181.187C107.346 181.211 107.346 181.235 107.348 181.259C107.348 181.259 107.348 181.287 107.348 181.299V181.349C107.348 181.349 107.348 181.377 107.348 181.388L107.382 181.523C107.505 182.021 107.622 182.514 107.734 183.012L107.818 183.466Z" fill="#009254"/>
<path d="M101.895 175.86C101.403 175.423 100.691 174.46 101.145 173.788C101.225 173.659 101.351 173.565 101.497 173.523C101.643 173.482 101.799 173.496 101.935 173.564C102.266 173.758 102.522 174.058 102.663 174.415C103.111 175.266 103.475 176.156 103.979 176.974L104.035 177.064L103.984 176.985C103.235 176.718 102.531 176.339 101.895 175.86Z" fill="#009254"/>
<path d="M104.254 177.214C104.078 177.025 103.911 176.827 103.756 176.62C103.443 176.181 103.157 175.723 102.899 175.248C102.798 175.069 102.339 174.173 102.065 174.627C101.978 174.837 101.978 175.072 102.065 175.282C102.171 175.587 102.334 175.868 102.546 176.111C102.979 176.577 103.508 176.942 104.097 177.18L104.176 177.22H104.204L104.254 177.214ZM104.081 177.141C103.606 176.919 103.166 176.629 102.776 176.279C102.577 176.089 102.409 175.87 102.277 175.629C102.221 175.523 102.172 175.412 102.132 175.299C102.099 175.214 102.075 175.125 102.059 175.036C102.025 174.84 102.059 174.61 102.171 174.565C102.283 174.52 102.378 174.565 102.501 174.728C102.546 174.777 102.587 174.83 102.625 174.884C102.714 175.013 102.798 175.159 102.877 175.299C103.005 175.534 103.14 175.769 103.28 175.999C103.42 176.228 103.476 176.307 103.582 176.452C103.761 176.71 103.957 176.955 104.17 177.186L104.081 177.141Z" fill="white"/>
<path d="M163.232 171.847C163.003 172.687 162.711 173.527 162.415 174.322C162.247 174.787 162.073 175.246 161.905 175.711C161.664 176.202 161.543 176.743 161.552 177.29C161.555 177.314 161.555 177.338 161.552 177.363C161.544 177.371 161.533 177.378 161.522 177.38C161.51 177.383 161.497 177.382 161.486 177.378C161.475 177.374 161.465 177.367 161.458 177.357C161.451 177.347 161.446 177.336 161.446 177.323C161.443 177.312 161.443 177.301 161.446 177.29C161.388 177.138 161.348 176.98 161.328 176.819C161.221 176.392 161.139 175.958 161.082 175.52C160.973 174.626 160.973 173.721 161.082 172.827C161.177 172.027 161.378 171.243 161.681 170.497C161.9 169.785 162.284 169.135 162.801 168.599C163.283 168.235 163.535 168.968 163.602 169.338C163.668 170.191 163.541 171.048 163.232 171.847Z" fill="#009254"/>
<path d="M162.537 169.502C162.229 169.457 161.854 170.425 161.68 170.845C161.41 171.503 161.222 172.192 161.12 172.895C160.933 174.164 160.965 175.456 161.215 176.714C161.222 176.765 161.231 176.816 161.243 176.865C161.241 176.877 161.241 176.888 161.243 176.899C161.244 176.911 161.248 176.923 161.255 176.933C161.262 176.942 161.272 176.95 161.283 176.954C161.295 176.958 161.307 176.959 161.319 176.956C161.331 176.953 161.341 176.947 161.35 176.938C161.344 176.832 161.344 176.725 161.35 176.619C161.35 176.518 161.35 176.423 161.35 176.334C161.459 175.296 161.677 174.273 161.999 173.282C162.341 172.122 162.962 169.541 162.537 169.502ZM161.271 176.535C161.271 176.677 161.271 176.817 161.271 176.955C161.271 176.849 161.238 176.748 161.226 176.642C161.04 175.531 161.005 174.401 161.12 173.282C161.193 172.651 161.332 172.03 161.534 171.428C161.645 171.105 161.774 170.789 161.921 170.482C161.988 170.353 162.335 169.546 162.526 169.614C162.716 169.681 162.576 170.425 162.57 170.442C162.558 170.596 162.537 170.75 162.509 170.902C162.464 171.21 162.391 171.523 162.324 171.831C162.162 172.498 161.966 173.158 161.764 173.819C161.496 174.702 161.334 175.614 161.282 176.535H161.271Z" fill="white"/>
<path d="M167.738 174.526C166.951 175.514 165.949 176.308 164.809 176.85C164.221 177.164 163.616 177.45 163.017 177.746C162.469 177.985 161.945 178.278 161.455 178.62C161.432 178.633 161.411 178.65 161.393 178.67C161.263 178.777 161.145 178.897 161.04 179.029H161.012V179.074C161.04 179.074 161.012 179.034 161.012 179.018V178.978V178.922C161.371 177.646 162.474 176.464 163.392 175.562C164.281 174.636 165.409 173.973 166.652 173.647C166.965 173.574 167.693 173.356 167.962 173.647C168.231 173.938 167.917 174.308 167.738 174.526Z" fill="#009254"/>
<path d="M166.841 174.593C166.611 174.285 165.721 174.833 165.491 174.962C164.821 175.358 164.187 175.813 163.598 176.323C162.605 177.098 161.74 178.024 161.034 179.067L161 179.101V179.157V179.196L161.045 179.157C161.162 179.05 161.286 178.949 161.409 178.849C161.426 178.828 161.447 178.811 161.47 178.798C162.364 178.132 163.299 177.524 164.27 176.978C164.939 176.587 165.569 176.134 166.152 175.623C166.264 175.505 167.037 174.856 166.841 174.593ZM166.505 175.153C165.665 176.172 164.377 176.833 163.262 177.482C162.502 177.918 161.784 178.424 161.118 178.994C161.79 178.073 162.583 177.246 163.475 176.536C163.969 176.11 164.487 175.714 165.026 175.349C165.316 175.15 165.619 174.972 165.934 174.817C166.124 174.722 166.325 174.651 166.533 174.604C166.925 174.548 166.645 174.979 166.505 175.153Z" fill="white"/>
<path d="M163.842 179.709C163.638 180.215 163.329 180.672 162.934 181.048C162.178 181.82 161.254 182.42 160.465 183.136L160.112 183.467L160 183.635L160.062 183.45C160.413 182.386 160.879 181.362 161.45 180.398C161.802 179.876 162.216 179.399 162.682 178.976C162.912 178.785 163.438 178.382 163.763 178.533C164.088 178.684 163.954 179.44 163.842 179.709Z" fill="#009254"/>
<path d="M163.326 179.534C162.996 179.254 161.798 180.805 161.646 181.001C161.057 181.741 160.566 182.554 160.185 183.42C160.14 183.515 160.101 183.611 160.062 183.711L160 183.896C160 183.896 160.101 183.739 160.112 183.728L160.174 183.667L160.465 183.398C160.969 182.838 161.478 182.278 161.971 181.718C162.327 181.312 162.651 180.88 162.94 180.424C163.002 180.34 163.472 179.657 163.326 179.534ZM163.153 179.999C162.414 181.387 161.182 182.39 160.174 183.571L160.123 183.633L160.174 183.521C160.502 182.812 160.897 182.137 161.355 181.505C161.632 181.113 161.933 180.739 162.257 180.385C162.43 180.186 162.618 179.999 162.817 179.825C162.901 179.752 163.153 179.562 163.22 179.612C163.287 179.663 163.203 179.903 163.153 179.999Z" fill="white"/>
<path d="M169.311 167.86C167.855 170.201 164.831 170.945 163.224 173.174C163.174 173.241 163.129 173.314 163.084 173.381C163.079 173.388 163.073 173.394 163.066 173.398C163.059 173.402 163.05 173.404 163.042 173.404C163.034 173.404 163.025 173.402 163.018 173.398C163.011 173.394 163.005 173.388 163 173.381C163 173.381 163 173.381 163 173.342L163.034 173.292C163.503 171.787 164.241 170.379 165.212 169.137C165.972 168.028 167.05 167.175 168.303 166.689C168.617 166.583 169.233 166.348 169.524 166.645C169.815 166.941 169.496 167.569 169.311 167.86Z" fill="#009254"/>
<path d="M168.32 168.562C168.197 168.438 167.973 168.534 167.844 168.562C167.523 168.672 167.217 168.821 166.931 169.004C166.349 169.381 165.826 169.844 165.38 170.376C164.589 171.261 163.912 172.241 163.364 173.294C163.241 173.532 163.131 173.777 163.034 174.027L163 174.117C163.005 174.124 163.011 174.129 163.018 174.133C163.025 174.137 163.034 174.139 163.042 174.139C163.05 174.139 163.059 174.137 163.066 174.133C163.073 174.129 163.079 174.124 163.084 174.117C163.123 174.05 163.174 173.982 163.218 173.915C163.505 173.447 163.837 173.008 164.21 172.605C164.81 172.003 165.45 171.441 166.125 170.925C166.394 170.695 168.751 168.987 168.32 168.562ZM168.062 169.122C167.604 169.632 167.093 170.094 166.539 170.499C166.013 170.936 165.481 171.367 164.96 171.815C164.546 172.169 164.162 172.557 163.812 172.974C163.52 173.323 163.262 173.698 163.039 174.094C163.218 173.685 163.422 173.286 163.65 172.902C164.066 172.225 164.522 171.574 165.016 170.953C165.438 170.393 165.927 169.887 166.472 169.446C166.771 169.209 167.096 169.006 167.441 168.842C167.833 168.662 168.169 168.562 168.242 168.69C168.314 168.819 168.186 168.959 168.062 169.116V169.122Z" fill="white"/>
<path d="M165.128 170.534C164.696 171.194 164.276 171.861 163.862 172.533L163.302 173.479L163.089 173.821C162.413 174.838 161.819 175.907 161.314 177.018C161.07 177.614 160.882 178.231 160.754 178.861C160.754 178.928 160.754 178.99 160.715 179.057V179.163C160.715 179.163 160.715 179.202 160.715 179.225C160.614 179.785 160.541 180.345 160.468 180.86C160.373 181.61 160.328 182.361 160.289 183.1C160.289 183.1 160.289 183.145 160.289 183.167C160.292 183.201 160.292 183.234 160.289 183.268V183.318C160.286 183.35 160.286 183.382 160.289 183.414C160.289 183.66 160.261 183.901 160.25 184.142L160.02 184.108C159.981 183.361 159.998 182.612 160.071 181.868C160.068 181.853 160.068 181.838 160.071 181.823V181.605C160.071 181.515 160.071 181.426 160.099 181.336C160.099 181.123 160.149 180.91 160.177 180.698C160.299 179.453 160.57 178.227 160.984 177.046C160.984 177.013 161.012 176.985 161.023 176.951V176.912C161.029 176.887 161.038 176.862 161.051 176.839L161.096 176.733L161.18 176.542V176.481C161.686 175.511 162.257 174.575 162.888 173.681C163 173.513 163.106 173.345 163.218 173.182L163.408 172.902L163.694 172.488C164.148 171.838 164.612 171.194 165.06 170.539C165.128 170.472 165.128 170.506 165.128 170.534Z" fill="#009254"/>
<path d="M184.243 183.849C184.014 184.689 183.723 185.529 183.426 186.324C183.258 186.789 183.084 187.248 182.922 187.713C182.682 188.204 182.559 188.745 182.563 189.292C182.569 189.316 182.569 189.341 182.563 189.365C182.554 189.372 182.544 189.376 182.533 189.378C182.521 189.379 182.51 189.378 182.499 189.374C182.489 189.37 182.479 189.364 182.472 189.355C182.465 189.347 182.459 189.337 182.457 189.326C182.46 189.314 182.46 189.303 182.457 189.292C182.399 189.14 182.36 188.982 182.339 188.822C182.234 188.394 182.153 187.96 182.099 187.522C181.977 186.629 181.968 185.724 182.071 184.829C182.166 184.027 182.368 183.242 182.67 182.494C182.891 181.784 183.275 181.136 183.79 180.601C184.271 180.231 184.518 180.97 184.585 181.34C184.662 182.191 184.546 183.049 184.243 183.849Z" fill="#009254"/>
<path d="M183.538 181.502C183.224 181.451 182.849 182.426 182.676 182.846C182.405 183.503 182.217 184.192 182.116 184.895C181.934 186.163 181.966 187.452 182.211 188.709C182.211 188.759 182.211 188.815 182.211 188.866C182.213 188.877 182.213 188.888 182.211 188.899C182.213 188.911 182.218 188.921 182.226 188.929C182.233 188.938 182.243 188.944 182.253 188.948C182.264 188.952 182.275 188.953 182.286 188.952C182.298 188.95 182.308 188.946 182.317 188.939V188.647C182.317 188.547 182.317 188.451 182.317 188.356C182.423 187.321 182.639 186.3 182.961 185.31C183.325 184.123 183.947 181.563 183.538 181.502ZM182.267 188.535C182.267 188.675 182.267 188.815 182.267 188.955C182.267 188.849 182.228 188.748 182.216 188.642C182.032 187.531 181.998 186.401 182.116 185.282C182.186 184.649 182.325 184.026 182.53 183.423C182.637 183.1 182.766 182.786 182.916 182.482C182.978 182.353 183.331 181.547 183.516 181.614C183.7 181.681 183.566 182.426 183.566 182.443C183.566 182.594 183.527 182.745 183.504 182.902C183.454 183.21 183.387 183.523 183.314 183.831C183.152 184.498 182.956 185.159 182.754 185.819C182.487 186.703 182.323 187.614 182.267 188.535Z" fill="white"/>
<path d="M188.734 186.534C187.951 187.524 186.951 188.321 185.811 188.863C185.217 189.177 184.613 189.462 184.013 189.759C183.464 189.996 182.94 190.288 182.451 190.633L182.389 190.678C182.262 190.786 182.146 190.906 182.042 191.036C182.031 191.04 182.019 191.04 182.009 191.036C182.011 191.051 182.011 191.066 182.009 191.081V191.025C182.003 191.019 182 191.011 182 191.002C182 190.994 182.003 190.986 182.009 190.98C182.009 190.98 182.009 190.941 182.009 190.924C182.367 189.647 183.47 188.466 184.389 187.564C185.28 186.64 186.407 185.976 187.648 185.643C187.967 185.576 188.689 185.358 188.958 185.643C189.227 185.929 188.891 186.315 188.734 186.534Z" fill="#009254"/>
<path d="M187.861 186.595C187.631 186.281 186.741 186.836 186.511 186.964C185.839 187.345 185.202 187.783 184.607 188.275C183.614 189.05 182.748 189.976 182.042 191.019C182.032 191.031 182.021 191.043 182.009 191.052C182.005 191.071 182.005 191.09 182.009 191.108C182.003 191.115 182 191.122 182 191.131C182 191.139 182.003 191.147 182.009 191.153L182.053 191.114L182.417 190.8L182.479 190.756C183.373 190.09 184.308 189.482 185.279 188.936C185.948 188.545 186.578 188.091 187.161 187.58C187.289 187.48 188.057 186.83 187.861 186.595ZM187.525 187.155C186.685 188.174 185.397 188.835 184.288 189.484C183.523 189.917 182.803 190.424 182.137 190.996C182.812 190.073 183.606 189.245 184.501 188.532C184.992 188.109 185.509 187.714 186.046 187.351C186.337 187.151 186.642 186.973 186.959 186.819C187.147 186.724 187.347 186.652 187.553 186.606C187.967 186.522 187.67 186.953 187.525 187.155Z" fill="white"/>
<path d="M181.266 194.248C181.256 194.253 181.246 194.255 181.235 194.255C181.225 194.255 181.214 194.253 181.205 194.248V194.276C181.205 194.276 181.205 194.276 181.177 194.276C180.216 193.035 179.522 191.609 179.138 190.088C178.998 189.454 178.964 188.801 179.037 188.156C179.093 187.719 179.2 186.834 179.597 186.565C180.449 186.039 180.717 188.861 180.773 189.287C180.852 190.065 180.863 190.849 180.925 191.622C180.986 192.395 181.121 193.302 181.249 194.164C181.263 194.173 181.272 194.187 181.275 194.203C181.278 194.219 181.275 194.235 181.266 194.248Z" fill="#009254"/>
<path d="M184.842 191.709C184.64 192.214 184.33 192.669 183.934 193.042C183.184 193.82 182.254 194.42 181.47 195.136C181.347 195.243 181.23 195.355 181.112 195.467L181 195.635C181 195.635 181 195.562 181.062 195.45C181.414 194.383 181.881 193.358 182.456 192.392C182.806 191.871 183.22 191.395 183.688 190.976C183.912 190.785 184.438 190.382 184.769 190.533C185.099 190.684 184.937 191.44 184.842 191.709Z" fill="#009254"/>
<path d="M184.326 191.534C183.99 191.254 182.798 192.805 182.646 193.001C182.057 193.74 181.567 194.553 181.19 195.42C181.146 195.515 181.101 195.611 181.062 195.711C181.022 195.812 181 195.891 181 195.896C181 195.902 181.101 195.739 181.118 195.728L181.174 195.667L181.465 195.398C181.969 194.838 182.478 194.278 182.971 193.718C183.329 193.314 183.653 192.881 183.94 192.424C183.996 192.34 184.472 191.657 184.326 191.534ZM184.147 191.993C183.408 193.387 182.176 194.39 181.168 195.571L181.118 195.627C181.137 195.593 181.154 195.557 181.168 195.521C181.498 194.813 181.894 194.139 182.35 193.505C182.628 193.113 182.931 192.739 183.257 192.385C183.43 192.186 183.617 191.998 183.817 191.825C183.906 191.758 184.153 191.567 184.22 191.618C184.287 191.668 184.186 191.892 184.147 191.993Z" fill="white"/>
<path d="M190.311 179.86C188.85 182.201 185.831 182.945 184.224 185.174C184.174 185.241 184.129 185.314 184.084 185.381C184.079 185.388 184.073 185.394 184.066 185.398C184.059 185.402 184.05 185.404 184.042 185.404C184.034 185.404 184.025 185.402 184.018 185.398C184.011 185.394 184.005 185.388 184 185.381C184 185.381 184 185.381 184 185.342L184.034 185.292C184.505 183.788 185.243 182.38 186.212 181.137C186.972 180.028 188.05 179.175 189.303 178.689C189.617 178.583 190.238 178.348 190.53 178.645C190.821 178.941 190.49 179.569 190.311 179.86Z" fill="#009254"/>
<path d="M189.326 180.562C189.202 180.438 188.973 180.534 188.844 180.562C188.523 180.672 188.217 180.821 187.931 181.004C187.35 181.381 186.829 181.844 186.386 182.376C185.593 183.261 184.914 184.241 184.364 185.294C184.241 185.534 184.134 185.775 184.034 186.027L184 186.117C184.005 186.124 184.011 186.129 184.018 186.133C184.025 186.137 184.034 186.139 184.042 186.139C184.05 186.139 184.059 186.137 184.066 186.133C184.073 186.129 184.079 186.124 184.084 186.117L184.202 185.943C184.488 185.475 184.82 185.036 185.193 184.633C185.795 184.033 186.435 183.472 187.108 182.953C187.394 182.695 189.751 180.982 189.326 180.562ZM189.062 181.122C188.605 181.634 188.094 182.095 187.539 182.499C187.013 182.936 186.481 183.367 185.96 183.815C185.555 184.17 185.181 184.558 184.84 184.974C184.547 185.323 184.286 185.698 184.062 186.094C184.241 185.685 184.445 185.287 184.672 184.902C185.087 184.224 185.543 183.574 186.038 182.953C186.46 182.395 186.947 181.889 187.489 181.446C187.788 181.209 188.113 181.006 188.458 180.842C188.85 180.662 189.186 180.562 189.258 180.69C189.331 180.819 189.191 180.959 189.062 181.116V181.122Z" fill="white"/>
<path d="M186.156 182.549C185.724 183.21 185.304 183.877 184.89 184.549C184.688 184.862 184.498 185.181 184.302 185.495L184.095 185.837C183.415 186.852 182.819 187.921 182.314 189.034C182.072 189.63 181.885 190.247 181.754 190.877C181.754 190.944 181.754 191.005 181.715 191.073V191.179C181.715 191.179 181.715 191.218 181.715 191.241C181.614 191.801 181.541 192.361 181.474 192.876C181.373 193.626 181.328 194.377 181.289 195.116V195.183C181.289 195.217 181.289 195.25 181.289 195.284V195.334C181.292 195.366 181.292 195.398 181.289 195.429C181.289 195.67 181.289 195.911 181.25 196.157L181.02 196.124C180.981 195.377 180.998 194.628 181.071 193.884C181.071 193.884 181.071 193.856 181.071 193.839C181.071 193.822 181.071 193.693 181.071 193.621C181.075 193.53 181.084 193.441 181.099 193.352C181.099 193.139 181.144 192.926 181.172 192.713C181.296 191.469 181.566 190.243 181.978 189.062C181.978 189.029 182.006 188.995 182.017 188.967V188.922C182.015 188.9 182.015 188.877 182.017 188.855L182.062 188.749C182.09 188.681 182.118 188.62 182.152 188.553V188.497C182.656 187.509 183.227 186.557 183.86 185.646L184.196 185.148L184.38 184.868L184.666 184.453C185.12 183.798 185.584 183.16 186.032 182.505C186.122 182.488 186.172 182.521 186.156 182.549Z" fill="#009254"/>
<path d="M189.933 202.73H92.011C92.011 202.73 91.647 193.21 95.1078 189.75C98.5686 186.289 101.906 185.449 103.026 184.71C105.666 182.675 108.143 180.438 110.435 178.018C112.961 175.324 116.595 171.298 118.477 170.917C120.358 170.536 128.954 169.041 130.729 169.64C132.505 170.239 142.114 177.206 143.145 177.508C144.175 177.81 162.717 185.292 164.397 185.583C166.077 185.874 175.697 188.137 179.925 190.203C185.721 193.042 189.933 202.73 189.933 202.73Z" fill="#009254"/>
<path d="M161.081 184.492C156.78 184.688 150.413 188.496 149.153 189.078C147.299 189.946 136.15 186.838 131.754 186.463C127.358 186.088 125.958 180.628 126.227 179.743C126.495 178.858 121.422 177.29 122.055 175.185C122.424 173.953 133.865 171.5 133.865 171.5C137.371 173.74 142.405 177.33 143.133 177.542C143.861 177.755 155.246 182.33 161.081 184.492Z" fill="#37474F"/>
<path d="M115.002 184.244C115.086 182.788 119.908 180.285 121.162 180.515C122.417 180.744 124.881 182.828 125.228 183.64C125.575 184.452 127.194 188.377 125.648 188.405C124.102 188.433 121.168 186.165 119.55 186.104C117.931 186.042 114.902 185.437 115.002 184.244Z" fill="#37474F"/>
<path d="M151.015 190.014C150.712 189.107 155.187 187.348 156.351 187.511C157.516 187.673 158.636 189.588 157.611 190.092C156.587 190.596 155.075 189.885 154.285 190.092C153.495 190.299 151.244 190.703 151.015 190.014Z" fill="#37474F"/>
<path d="M92.3871 204.267H71.5831C69.3431 204.267 74.1423 198.723 76.1023 197.917C78.0623 197.111 83.1919 197.57 84.4519 198.477C85.7119 199.384 91.0543 202.207 91.7319 202.677C91.9858 202.848 92.1835 203.09 92.3001 203.373C92.4167 203.656 92.447 203.967 92.3871 204.267Z" fill="#37474F"/>
<path d="M167 205.557H209.336C209.336 205.557 207.354 203.317 205.164 202.858C202.974 202.398 198.018 200.954 197.122 200.158C196.226 199.363 188.678 196.423 185.799 196.502C182.921 196.58 178.155 199.206 177.455 199.862C176.755 200.517 174.33 202.88 173.535 203.076C172.74 203.272 168.96 203.731 167 205.557Z" fill="#37474F"/>
<path d="M201.682 201.266C200.875 201.4 200.058 201.458 199.24 201.439C198.899 201.406 195.578 200.106 194.357 199.972C193.136 199.838 186.517 199.614 186.035 199.031C185.671 198.594 188.197 197.217 189.86 196.5C193.153 197.374 197.14 199.026 197.79 199.591C198.249 200 199.783 200.571 201.469 201.103L201.682 201.266Z" fill="#009254"/>
<path d="M190 200.958C190 200.667 192.195 200.449 192.699 200.51C193.203 200.572 195.387 201.328 194.939 201.474C194.243 201.653 193.524 201.727 192.806 201.692C192.111 201.647 190 201.289 190 200.958Z" fill="#009254"/>
<path d="M72.4244 178.545C82.0956 185.382 111.72 200.155 124.891 198.145C133.767 196.778 155.926 176.064 160.042 169.075C161.722 166.213 141.036 148.702 138.073 150.651C134.848 152.773 121.111 172.396 118.563 173.135C116.015 173.874 91.442 169.73 77.7556 169.047C69.5572 168.616 67.9948 175.414 72.4244 178.545Z" fill="#F4FBF6"/>
<path d="M154.822 174.237C159.454 170.272 171.69 153.102 173.342 149.182C174.994 145.262 178.942 133.642 176.063 132.069C173.185 130.495 171.768 133.81 171.768 133.81C171.768 133.81 172.821 128.166 169.618 127.32C167.064 126.648 164.813 131.201 164.813 131.201C164.813 131.201 165.642 124.951 162.36 124.52C159.37 124.128 158.182 129.65 158.182 129.65C158.182 129.65 158.345 124.352 155.382 124.531C151.826 124.744 151.541 133.911 149.39 138.1C148.903 139.052 131 157.342 131 157.342L154.822 174.237Z" fill="#F4FBF6"/>
<path d="M158.245 129.752C157.332 136.601 156.755 139.407 153.02 144.872C152.947 144.979 153.093 145.113 153.177 145.007C157.321 139.967 158.25 136.68 158.575 129.719C158.592 129.411 158.289 129.433 158.245 129.752Z" fill="#263238"/>
<path d="M164.807 131.754C163.956 138.737 162.5 141.778 159.011 147.82C158.96 147.91 159.1 147.999 159.156 147.915C163.076 142.276 165.104 138.815 165.036 131.726C165.02 131.407 164.846 131.435 164.807 131.754Z" fill="#263238"/>
<path d="M171.8 134.787C170.49 141.507 169.168 145.03 165.03 150.467C165.008 150.493 164.998 150.525 165 150.558C165.003 150.591 165.019 150.622 165.044 150.644C165.069 150.665 165.102 150.676 165.135 150.673C165.168 150.671 165.199 150.655 165.22 150.63C169.975 145.5 171.66 141.11 172.002 134.854C172.024 134.423 171.89 134.367 171.8 134.787Z" fill="#263238"/>
<path d="M131 157.279C131 157.279 134.36 149.999 135.788 146.493C137.216 142.988 139.859 132.449 143.001 131.569C146.534 130.578 147.218 140.423 144.726 146.734C144.726 146.734 153.456 153.656 151.35 159.833C150.891 161.165 146.047 166.592 144.446 166.821L131 157.279Z" fill="#F4FBF6"/>
<path d="M144.391 148.222C147.879 150.792 151.301 155.378 150.982 159.696C150.983 159.719 150.992 159.742 151.008 159.759C151.024 159.776 151.045 159.788 151.068 159.791C151.092 159.794 151.115 159.789 151.135 159.777C151.155 159.765 151.17 159.746 151.178 159.724C152.147 155.143 148.243 149.801 144.984 147.69C144.357 147.286 143.483 147.555 144.391 148.222Z" fill="#263238"/>
<path opacity="0.1" d="M163.925 125.086L152.305 158.607L148.508 169.533L142.69 186.333C135.97 191.994 129.009 196.788 124.893 197.421C111.722 199.454 82.1036 184.67 72.4268 177.821C67.9916 174.69 69.5596 167.898 77.758 168.301C91.4444 168.984 116.012 173.128 118.565 172.389C120.184 171.913 126.344 163.798 131.445 157.409L131.356 157.342C131.356 157.342 134.716 150.062 136.138 146.55C137.56 143.039 140.204 132.511 143.351 131.632C146.044 130.876 147.08 136.403 146.319 141.874C148.251 139.842 149.606 138.358 149.74 138.106C151.891 133.911 152.176 124.744 155.727 124.531C158.678 124.352 158.527 129.655 158.527 129.655C158.527 129.655 159.72 124.128 162.71 124.52C163.164 124.576 163.589 124.774 163.925 125.086Z" fill="black"/>
<path d="M110.522 199.351L117.545 171.727C117.545 171.727 90.1046 167.347 76.6198 167.504C65.2966 167.639 62.827 175.708 75.427 182.887C87.3494 189.686 110.522 199.351 110.522 199.351Z" fill="#EBEBEB"/>
<path d="M110.477 173.5C109.842 175.111 109.303 176.759 108.864 178.434C108.343 180.142 107.89 181.866 107.43 183.58C106.971 185.294 105.392 192.221 105 193.946C105 194.024 105.123 194.041 105.146 193.946C105.672 192.238 107.744 185.462 108.186 183.77C108.629 182.079 109.088 180.41 109.48 178.73C109.944 177.019 110.305 175.282 110.561 173.528C110.566 173.5 110.494 173.5 110.477 173.5Z" fill="#263238"/>
<path opacity="0.1" d="M112.591 191.824L110.524 199.955C110.524 199.955 87.357 190.29 75.429 183.491C64.3578 177.18 64.9178 170.186 72.8978 168.5L112.591 191.824Z" fill="black"/>
<path d="M104.075 261.272L26 261.137C26.196 259.53 42.4864 187.111 61.3696 170.417C67.8544 164.688 80.264 168.944 81.8208 170.216C96.924 182.558 105.212 260.331 104.075 261.272Z" fill="#F1AE67"/>
<path d="M104.134 256.854H27C27.4984 254.71 28.1984 251.814 29.072 248.37H103.328C103.709 251.798 103.983 254.693 104.134 256.854ZM101.25 232.595H33.3504C32.4936 235.563 31.704 238.408 30.9816 241.074H102.443C102.09 238.414 101.693 235.558 101.25 232.595ZM98.5848 216.826H38.2C37.2592 219.676 36.3632 222.515 35.512 225.304H100.097C99.6152 222.515 99.128 219.67 98.5848 216.826ZM95.2248 201.045H43.856C42.7696 203.845 41.7112 206.645 40.6976 209.529H97.1288C96.5184 206.656 95.8744 203.811 95.1968 201.045H95.2248ZM90.5936 185.275H50.8952C49.5232 187.924 48.1792 190.774 46.8744 193.754H93.276C92.4136 190.752 91.512 187.907 90.5656 185.275H90.5936ZM81.9528 170.021C81.666 169.818 81.3604 169.644 81.04 169.5H62.4032C62.0775 169.722 61.7669 169.965 61.4736 170.228C59.0165 172.52 56.872 175.126 55.0952 177.978H87.5304C85.7832 174.411 83.9352 171.65 81.9248 170.021H81.9528Z" fill="#EBEBEB"/>
<path d="M83.3328 168.197L79.2784 179.442L63.8 166.5L61 171.921C61 171.921 76.1816 191.913 76.1816 190.961L79.9112 181.497L86.9896 187.242L85.08 171.45L83.3328 168.197Z" fill="#F1AE67"/>
<path d="M86.82 179.377C86.4112 176.785 86.0808 174.153 85.5488 171.582C85.5488 171.487 85.3752 171.459 85.3584 171.582C85.0336 174.153 86.6408 184.076 86.8368 186.473L86.8088 186.445C86.512 186.198 80.2736 181.405 80.2232 181.505C79.372 183.034 76.628 189.905 76.4544 190.544C74.052 187.369 63.944 174.903 61.172 171.941C61.0936 171.857 60.9536 171.941 61.0152 172.047C63.188 175.407 76.2752 191.905 76.4376 191.843C76.5552 191.916 79.9712 183.443 80.3296 181.847C81.4048 182.911 87.7608 188.365 87.744 187.973C87.5904 185.094 87.2819 182.224 86.82 179.377Z" fill="#263238"/>
<path d="M79.686 181.293C75.206 182.492 67.2764 175.833 64.0564 170.345C63.838 169.97 64.3028 165.921 64.6164 160.971C64.8068 157.969 64.9524 154.621 64.8628 151.557C64.8628 150.93 84.222 155.657 84.222 155.657C84.222 155.657 82.542 162.136 82.71 167.478C82.7292 167.9 82.7854 168.32 82.878 168.733C82.8937 168.801 82.9049 168.87 82.9116 168.94C83.41 171.32 84.0092 180.129 79.686 181.293Z" fill="#F4FBF6"/>
<path d="M66 151.5C67.0472 156.652 70.6368 169.078 80.9016 169.006C81.5583 169.007 82.214 168.952 82.8616 168.843C82.8716 168.773 82.8716 168.701 82.8616 168.63C82.7677 168.22 82.7096 167.802 82.688 167.382C82.4976 162.034 84.2056 155.554 84.2056 155.554C84.2056 155.554 70.2112 152.138 66 151.5Z" fill="#263238"/>
<path d="M59.0894 132.262C58.143 139.324 64.9022 158.173 70.4014 161.718C78.3702 166.853 89.8278 165.582 93.787 156.364C97.6286 147.432 88.3942 123.022 82.3966 119.964C73.571 115.468 60.4838 121.824 59.0894 132.262Z" fill="#F4FBF6"/>
<path d="M63.6227 151.653C67.4531 150.488 68.9371 145.678 67.5427 138.157C66.1483 130.636 66.6411 127.59 69.9339 125.647C73.2267 123.704 77.9979 126.022 79.8627 125.479C81.7275 124.936 80.4563 121.956 82.0019 121.559C82.7635 121.357 85.4907 123.065 88.6043 127.836C88.6043 127.836 85.0483 113.724 70.0123 118.479C56.0123 122.903 57.6923 134.668 58.5547 138.079C59.9323 143.656 63.6227 151.653 63.6227 151.653Z" fill="#263238"/>
<path d="M54.0127 125.763C53.6991 125.623 59.2655 116.014 61.6959 114.003C64.1263 111.993 76.5807 110.985 77.1519 111.763C77.7231 112.542 54.7463 126.11 54.0127 125.763Z" fill="#EBEBEB"/>
<path opacity="0.1" d="M77.1461 111.757C77.7061 112.524 54.7461 126.104 54.0125 125.757C53.8557 125.69 55.1997 123.198 56.8797 120.493C56.8797 120.493 56.8797 120.493 56.8797 120.459C58.9741 118.264 61.5389 115.834 62.1101 115.296C62.6813 114.758 65.5373 113.358 68.1637 112.098C72.3077 111.471 76.8101 111.303 77.1461 111.757Z" fill="black"/>
<path d="M59.6706 141.867C59.2618 142.007 53.421 134.654 52.4354 133.657C51.4498 132.66 49.1874 132.308 49.0026 131.484C48.8178 130.661 58.4666 119.422 62.857 116.168C67.2474 112.915 84.1874 108.989 84.473 109.555C84.7586 110.12 84.2882 111.604 84.473 112.881C84.6578 114.158 87.497 123.376 87.0098 123.454C82.037 124.21 73.9282 127.223 70.6354 129.832C67.9698 131.994 61.0538 141.402 59.6706 141.867Z" fill="#EBEBEB"/>
<path d="M52.8008 134.34L52 133.405C52.392 132.962 61.6152 122.574 65.076 119.965C67.3552 118.24 81.344 113.06 84.3008 112.5L84.5808 113.726C81.7808 114.286 67.8816 119.405 65.7368 121.006C62.3208 123.577 52.8792 134.234 52.8008 134.34Z" fill="#F1AE67"/>
<path d="M67.3582 146.413C67.3582 146.413 69.7046 150.747 67.431 154.001C65.1574 157.254 65.9134 161.611 67.4814 163.011C67.4814 163.011 64.6814 170.896 71.9614 172.313C71.9614 172.313 71.463 180.338 80.3054 181.15C80.3054 181.15 82.9654 183.854 87.4062 181.71C87.4062 181.71 94.6414 183.574 97.8334 177.874C97.8334 177.874 105.494 178.59 105.802 169.412C105.802 169.412 110.624 165.542 107.146 160.452C107.146 160.452 110.573 156.532 106.054 153.284C106.054 153.284 107.885 147.006 100.185 145.41C100.225 144.666 99.9715 143.935 99.4782 143.376C98.9848 142.816 98.2916 142.473 97.5478 142.42C97.5478 142.42 93.6782 140.74 92.8718 138.5C92.8718 138.5 94.2998 143.215 91.791 144.626C89.551 145.892 86.7062 145.522 86.7062 145.522C86.7062 145.522 83.6318 149.476 76.503 149.336C70.343 149.213 67.5766 142.683 67.5766 142.683L67.3582 146.413Z" fill="#263238"/>
<path d="M67.7911 147.337C67.7911 147.337 62.2471 141.888 59.6991 143.977C57.1511 146.066 62.1239 154.533 65.6855 155.177C66.1375 155.288 66.6073 155.307 67.0667 155.232C67.5262 155.157 67.9657 154.99 68.359 154.741C68.7523 154.492 69.0913 154.166 69.3555 153.783C69.6198 153.4 69.8038 152.967 69.8967 152.511L67.7911 147.337Z" fill="#F4FBF6"/>
<path d="M61.0399 146.516C60.9839 146.516 60.9895 146.6 61.0399 146.611C63.5543 147.121 65.1895 149.064 66.4663 151.153C65.6095 150.414 64.5735 150.117 63.5711 151.153C63.5151 151.209 63.5711 151.293 63.6551 151.265C64.0431 151.059 64.485 150.978 64.9208 151.032C65.3566 151.086 65.7652 151.273 66.0911 151.567C66.629 152.075 67.1115 152.638 67.5303 153.247C67.6815 153.438 68.0399 153.247 67.9111 153.029C67.904 153.011 67.8945 152.994 67.8831 152.978C67.4071 149.966 64.2991 146.225 61.0399 146.516Z" fill="#263238"/>
<path d="M88 138.516C88 138.466 88.1176 138.544 88.1344 138.595C88.5432 139.883 89.2544 141.288 90.5256 141.305C90.5648 141.305 90.5816 141.372 90.5256 141.378C89.0584 141.675 88.1792 139.799 88 138.516Z" fill="#263238"/>
<path d="M88.7056 136.624C90.6992 135.745 92.3008 139.794 90.4584 140.606C88.616 141.418 87.0368 137.352 88.7056 136.624Z" fill="#263238"/>
<path d="M77.1283 139.443C77.7275 139.331 78.2483 139.124 78.8475 138.956C79.4844 138.871 80.0751 138.578 80.5275 138.122C80.6411 137.953 80.6951 137.751 80.6809 137.548C80.6667 137.345 80.5851 137.153 80.4491 137.002C79.8387 136.386 78.9707 136.442 78.1699 136.621C77.3547 136.797 76.6341 137.27 76.1483 137.948C76.0492 138.108 75.9978 138.292 76.0001 138.48C76.0024 138.668 76.0583 138.851 76.1613 139.008C76.2643 139.165 76.41 139.29 76.5813 139.367C76.7527 139.444 76.9424 139.47 77.1283 139.443Z" fill="#263238"/>
<path d="M88.9067 133.005C88.3107 133.02 87.7142 133.001 87.1203 132.949C86.4315 132.921 85.8827 132.949 85.3059 132.546C85.1522 132.408 85.0493 132.223 85.0137 132.02C84.9782 131.816 85.0121 131.607 85.1099 131.426C85.5579 130.675 86.4035 130.502 87.2323 130.502C88.0643 130.475 88.8765 130.759 89.5115 131.297C89.6533 131.428 89.7536 131.597 89.8 131.784C89.8463 131.972 89.8367 132.168 89.7723 132.35C89.7079 132.532 89.5916 132.691 89.4377 132.807C89.2839 132.924 89.0992 132.992 88.9067 133.005Z" fill="#263238"/>
<path d="M83.1156 152.94C83.5036 153.214 83.9747 153.345 84.4484 153.31C84.9183 153.134 85.3458 152.861 85.7028 152.509C85.711 152.503 85.7207 152.5 85.7307 152.5C85.7407 152.5 85.7505 152.503 85.7589 152.508C85.7673 152.513 85.7739 152.521 85.7779 152.53C85.7818 152.54 85.783 152.55 85.7812 152.559C85.6874 152.873 85.5103 153.155 85.2687 153.376C85.0271 153.597 84.73 153.749 84.4092 153.814C84.1265 153.837 83.8433 153.776 83.5952 153.638C83.3471 153.501 83.1452 153.293 83.0148 153.041C82.9644 152.974 83.054 152.912 83.1156 152.94Z" fill="white"/>
<path d="M77 141.297C77.2926 141.062 77.6193 140.873 77.9688 140.737C78.3286 140.604 78.706 140.525 79.0888 140.502C79.5027 140.488 79.9154 140.554 80.304 140.698C80.7194 140.858 81.0928 141.111 81.396 141.437L81.956 142.031L81.2 142.154C80.6651 142.24 80.1412 142.385 79.6376 142.585C79.1105 142.786 78.648 143.127 78.2992 143.571C78.3594 143.258 78.4809 142.961 78.6568 142.695C78.8327 142.43 79.0595 142.202 79.324 142.025C79.8356 141.663 80.4207 141.418 81.0376 141.308L80.8416 142.025C80.3713 141.57 79.762 141.286 79.1112 141.219C78.407 141.154 77.6974 141.18 77 141.297Z" fill="#263238"/>
<path d="M80 144.031C80.5104 143.734 80.9777 143.369 81.3888 142.945C81.4784 142.833 81.8144 142.385 81.7584 142.273C81.6069 141.991 81.4186 141.732 81.1984 141.5C81.4774 141.685 81.7171 141.923 81.904 142.2C81.9209 142.373 81.8996 142.547 81.8416 142.711C81.7835 142.874 81.6901 143.023 81.568 143.146C81.139 143.583 80.5955 143.89 80 144.031Z" fill="#263238"/>
<path d="M83.5188 151.502C84.8964 150.276 87.0412 149.721 88.4132 149.402C88.5532 149.329 88.5812 148.993 88.5532 148.842L87.4836 146.182C87.9036 146.232 90.0036 146.384 89.7908 145.885C88.0044 141.797 86.022 137.244 83.3844 133.565C83.3767 133.551 83.3662 133.538 83.3536 133.528C83.3409 133.518 83.3264 133.51 83.3108 133.505C83.2952 133.501 83.2788 133.499 83.2626 133.501C83.2464 133.502 83.2307 133.507 83.2164 133.515C83.202 133.523 83.1894 133.533 83.1791 133.546C83.1688 133.558 83.1611 133.573 83.1564 133.588C83.1517 133.604 83.1501 133.62 83.1518 133.637C83.1534 133.653 83.1583 133.668 83.166 133.683C84.7284 137.681 86.974 141.383 88.6036 145.376C87.8546 145.313 87.1005 145.357 86.3636 145.504C86.2404 145.594 87.6348 148.254 87.7468 148.708C87.7468 148.708 84.902 148.876 83.2948 150.976C82.8804 151.502 82.858 152.062 83.5188 151.502Z" fill="#263238"/>
<path d="M83.5188 150.8C84.8964 149.573 87.0412 149.019 88.4132 148.7C88.5532 148.627 88.5812 148.291 88.5532 148.14L87.59 145.743C87.2876 145.312 86.5876 145.53 86.7444 145.816C86.9012 146.101 87.6348 147.535 87.7468 147.989C87.7468 147.989 84.902 148.157 83.2948 150.257C82.8804 150.8 82.858 151.36 83.5188 150.8Z" fill="white"/>
<path d="M132.01 143.774L88.5824 144.122L88 134.271L131.165 129.5L132.01 143.774Z" fill="#37474F"/>
<path d="M156.402 146.771L112.907 145.881L112 130.509L155.086 124.5L156.402 146.771Z" fill="#455A64"/>
<path d="M177.502 151.137L144.333 148.018L143 125.5L175.57 118.5L177.502 151.137Z" fill="#37474F"/>
<path d="M178.637 134.268C179.124 142.5 178.519 149.231 177.287 149.304C176.055 149.377 174.655 142.763 174.168 134.531C173.681 126.299 174.291 119.573 175.523 119.501C176.755 119.428 178.149 126.041 178.637 134.268Z" fill="#F1AE67"/>
<path d="M61.9949 186.994C76.0397 201.828 113.291 226.194 121.54 222.862C136.755 216.674 142.635 173.134 144.595 164.678C145.429 161.071 114.355 158.59 113.375 162.438C112.529 165.798 111.085 188.668 108.24 189.491C107.075 189.833 90.0453 182.872 70.7197 178.414C55.8909 174.987 57.8397 182.603 61.9949 186.994Z" fill="#F4FBF6"/>
<path d="M112.011 169.96C112.011 169.96 112.783 166.398 112.055 157.544C111.495 150.623 114.967 133.963 132.277 124.958C138.913 121.508 144.227 124.656 137.972 129.438C133.571 132.798 130.227 134.792 129.096 136.298C129.096 136.298 137.603 136.444 140.386 140.509C142.83 144.072 145.016 147.806 146.927 151.681C146.298 152.19 145.637 152.66 144.95 153.087C145.906 154.791 146.36 156.73 146.261 158.681C146.162 160.632 145.513 162.515 144.39 164.113L142.911 171.567L112.011 169.96Z" fill="#F4FBF6"/>
<path d="M114 151.327C116.089 148.354 120.608 142.104 126.102 138.274C132.194 134.034 145.069 127.505 148.149 132.035C150.389 135.356 145.713 138.279 145.713 138.279C145.713 138.279 151.604 136.7 152.993 140.15C154.253 143.286 150.49 145.33 150.49 145.33C150.49 145.33 154.225 144.988 154.858 148.247C155.625 152.167 147.662 152.246 145.007 156.882C144.408 157.935 114 151.327 114 151.327Z" fill="#F4FBF6"/>
<path d="M129.008 145.746C131.433 143.266 138.382 139.026 145.08 138.5C145.231 138.5 145.321 138.601 145.186 138.64C139.541 140.374 134.129 142.79 129.069 145.836C129.013 145.836 128.985 145.774 129.008 145.746Z" fill="#263238"/>
<path d="M134.014 151.772C136.321 149.846 143.68 145.814 150.484 145.5C150.635 145.5 150.719 145.606 150.584 145.64C144.855 147.072 139.307 149.149 134.048 151.834C134.014 151.85 133.98 151.794 134.014 151.772Z" fill="#263238"/>
<path d="M95.121 214.292L107.055 188.409C107.055 188.409 80.8354 179.102 67.5802 176.806C56.425 174.874 52.5274 182.361 63.6098 191.713C74.1154 200.567 95.121 214.292 95.121 214.292Z" fill="#EBEBEB"/>
<path d="M100.111 188.513C99.1944 189.983 98.3642 191.505 97.6248 193.071C96.8016 194.656 96.0456 196.269 95.2784 197.876C94.5112 199.483 91.7 205.996 91 207.62C91 207.693 91.1064 207.738 91.14 207.67C91.9688 206.086 95.2392 199.797 95.984 198.218C96.7288 196.638 97.4848 195.065 98.1792 193.469C98.9483 191.872 99.6196 190.23 100.19 188.552C100.195 188.518 100.134 188.479 100.111 188.513Z" fill="#263238"/>
<path d="M68 195.5C75.1456 200.025 82 204.964 88.8432 209.903C91.1224 211.55 93.3848 213.224 95.7088 214.786L95.4736 214.859C95.9216 214.07 96.3696 213.286 96.84 212.507C96.4816 213.403 96.0952 214.288 95.72 215.173L95.552 215.089C90.512 212.451 85.9648 209.142 81.356 205.882C76.7472 202.623 72.3064 199.162 68.0112 195.5H68Z" fill="#263238"/>
<path d="M69 196.5C70.6006 197.115 72.1462 197.864 73.62 198.74C71.9161 198.394 70.327 197.624 69 196.5Z" fill="#263238"/>
<path d="M26 260.76C99.2816 260.413 181.478 260.413 254.76 260.76C181.478 261.102 99.2816 261.102 26 260.76Z" fill="#009254"/>
</svg>
