<svg width="766" height="48" viewBox="0 0 766 48" fill="none" xmlns="http://www.w3.org/2000/svg">
<mask id="path-1-inside-1_2012_22538" fill="white">
<path d="M0 4C0 1.79086 1.79086 0 4 0H762C764.209 0 766 1.79086 766 4V44C766 46.2091 764.209 48 762 48H3.99998C1.79084 48 0 46.2091 0 44V4Z"/>
</mask>
<path d="M0 4C0 1.79086 1.79086 0 4 0H762C764.209 0 766 1.79086 766 4V44C766 46.2091 764.209 48 762 48H3.99998C1.79084 48 0 46.2091 0 44V4Z" fill="#F9F9F9"/>
<path d="M272.436 30V20.62L272.884 21.096H270.126V20.2H273.444V30H272.436ZM275.899 26.64V25.772H279.567V26.64H275.899ZM284.226 30.084C283.526 30.084 282.859 29.972 282.224 29.748C281.59 29.5147 281.086 29.2067 280.712 28.824L281.202 28.026C281.51 28.3527 281.93 28.6233 282.462 28.838C283.004 29.0527 283.587 29.16 284.212 29.16C285.043 29.16 285.673 28.978 286.102 28.614C286.541 28.2407 286.76 27.7553 286.76 27.158C286.76 26.738 286.658 26.3787 286.452 26.08C286.256 25.772 285.92 25.534 285.444 25.366C284.968 25.198 284.315 25.114 283.484 25.114H281.398L281.902 20.2H287.264V21.096H282.308L282.826 20.606L282.392 24.722L281.874 24.218H283.708C284.698 24.218 285.491 24.3393 286.088 24.582C286.686 24.8247 287.115 25.1653 287.376 25.604C287.647 26.0333 287.782 26.5373 287.782 27.116C287.782 27.6667 287.652 28.1707 287.39 28.628C287.129 29.076 286.737 29.4307 286.214 29.692C285.692 29.9533 285.029 30.084 284.226 30.084ZM296.38 30.07C295.671 30.07 295.031 29.9113 294.462 29.594C293.902 29.2673 293.459 28.824 293.132 28.264C292.805 27.6947 292.642 27.046 292.642 26.318C292.642 25.5807 292.805 24.932 293.132 24.372C293.459 23.812 293.902 23.3733 294.462 23.056C295.022 22.7387 295.661 22.58 296.38 22.58C297.108 22.58 297.752 22.7387 298.312 23.056C298.881 23.3733 299.325 23.812 299.642 24.372C299.969 24.932 300.132 25.5807 300.132 26.318C300.132 27.046 299.969 27.6947 299.642 28.264C299.325 28.824 298.881 29.2673 298.312 29.594C297.743 29.9113 297.099 30.07 296.38 30.07ZM296.38 29.188C296.912 29.188 297.383 29.0713 297.794 28.838C298.205 28.5953 298.527 28.2593 298.76 27.83C299.003 27.3913 299.124 26.8873 299.124 26.318C299.124 25.7393 299.003 25.2353 298.76 24.806C298.527 24.3767 298.205 24.0453 297.794 23.812C297.383 23.5693 296.917 23.448 296.394 23.448C295.871 23.448 295.405 23.5693 294.994 23.812C294.583 24.0453 294.257 24.3767 294.014 24.806C293.771 25.2353 293.65 25.7393 293.65 26.318C293.65 26.8873 293.771 27.3913 294.014 27.83C294.257 28.2593 294.583 28.5953 294.994 28.838C295.405 29.0713 295.867 29.188 296.38 29.188ZM302.329 30V21.726C302.329 21.0727 302.521 20.5453 302.903 20.144C303.286 19.7427 303.837 19.542 304.555 19.542C304.835 19.542 305.106 19.5793 305.367 19.654C305.629 19.7287 305.848 19.8453 306.025 20.004L305.689 20.746C305.549 20.6247 305.386 20.536 305.199 20.48C305.013 20.4147 304.812 20.382 304.597 20.382C304.177 20.382 303.855 20.4987 303.631 20.732C303.407 20.9653 303.295 21.3107 303.295 21.768V22.888L303.323 23.35V30H302.329ZM301.013 23.476V22.65H305.563V23.476H301.013ZM313.006 30.084C312.306 30.084 311.638 29.972 311.004 29.748C310.369 29.5147 309.865 29.2067 309.492 28.824L309.982 28.026C310.29 28.3527 310.71 28.6233 311.242 28.838C311.783 29.0527 312.366 29.16 312.992 29.16C313.822 29.16 314.452 28.978 314.882 28.614C315.32 28.2407 315.54 27.7553 315.54 27.158C315.54 26.738 315.437 26.3787 315.232 26.08C315.036 25.772 314.7 25.534 314.224 25.366C313.748 25.198 313.094 25.114 312.264 25.114H310.178L310.682 20.2H316.044V21.096H311.088L311.606 20.606L311.172 24.722L310.654 24.218H312.488C313.477 24.218 314.27 24.3393 314.868 24.582C315.465 24.8247 315.894 25.1653 316.156 25.604C316.426 26.0333 316.562 26.5373 316.562 27.116C316.562 27.6667 316.431 28.1707 316.17 28.628C315.908 29.076 315.516 29.4307 314.994 29.692C314.471 29.9533 313.808 30.084 313.006 30.084ZM321.747 30.084C320.991 30.084 320.319 29.888 319.731 29.496C319.143 29.0947 318.681 28.5253 318.345 27.788C318.009 27.0413 317.841 26.1453 317.841 25.1C317.841 24.0547 318.009 23.1633 318.345 22.426C318.681 21.6793 319.143 21.11 319.731 20.718C320.319 20.3167 320.991 20.116 321.747 20.116C322.503 20.116 323.175 20.3167 323.763 20.718C324.351 21.11 324.813 21.6793 325.149 22.426C325.495 23.1633 325.667 24.0547 325.667 25.1C325.667 26.1453 325.495 27.0413 325.149 27.788C324.813 28.5253 324.351 29.0947 323.763 29.496C323.175 29.888 322.503 30.084 321.747 30.084ZM321.747 29.16C322.326 29.16 322.83 29.006 323.259 28.698C323.689 28.3807 324.025 27.9233 324.267 27.326C324.51 26.7193 324.631 25.9773 324.631 25.1C324.631 24.2227 324.51 23.4853 324.267 22.888C324.025 22.2813 323.689 21.824 323.259 21.516C322.83 21.1987 322.326 21.04 321.747 21.04C321.187 21.04 320.688 21.1987 320.249 21.516C319.811 21.824 319.47 22.2813 319.227 22.888C318.985 23.4853 318.863 24.2227 318.863 25.1C318.863 25.9773 318.985 26.7193 319.227 27.326C319.47 27.9233 319.811 28.3807 320.249 28.698C320.688 29.006 321.187 29.16 321.747 29.16ZM331.643 30V20.2H332.679V30H331.643ZM337.981 30.07C337.291 30.07 336.759 29.8833 336.385 29.51C336.012 29.1367 335.825 28.6093 335.825 27.928V21.026H336.819V27.872C336.819 28.3013 336.927 28.6327 337.141 28.866C337.365 29.0993 337.683 29.216 338.093 29.216C338.532 29.216 338.896 29.09 339.185 28.838L339.535 29.552C339.339 29.7293 339.101 29.86 338.821 29.944C338.551 30.028 338.271 30.07 337.981 30.07ZM334.509 23.476V22.65H339.059V23.476H334.509ZM344.207 30.07C343.442 30.07 342.77 29.9113 342.191 29.594C341.613 29.2673 341.16 28.824 340.833 28.264C340.507 27.6947 340.343 27.046 340.343 26.318C340.343 25.59 340.497 24.946 340.805 24.386C341.123 23.826 341.552 23.3873 342.093 23.07C342.644 22.7433 343.26 22.58 343.941 22.58C344.632 22.58 345.243 22.7387 345.775 23.056C346.317 23.364 346.741 23.8027 347.049 24.372C347.357 24.932 347.511 25.5807 347.511 26.318C347.511 26.3647 347.507 26.416 347.497 26.472C347.497 26.5187 347.497 26.57 347.497 26.626H341.099V25.884H346.965L346.573 26.178C346.573 25.646 346.457 25.1747 346.223 24.764C345.999 24.344 345.691 24.0173 345.299 23.784C344.907 23.5507 344.455 23.434 343.941 23.434C343.437 23.434 342.985 23.5507 342.583 23.784C342.182 24.0173 341.869 24.344 341.645 24.764C341.421 25.184 341.309 25.6647 341.309 26.206V26.36C341.309 26.92 341.431 27.4147 341.673 27.844C341.925 28.264 342.271 28.5953 342.709 28.838C343.157 29.0713 343.666 29.188 344.235 29.188C344.683 29.188 345.099 29.1087 345.481 28.95C345.873 28.7913 346.209 28.5487 346.489 28.222L347.049 28.866C346.723 29.258 346.312 29.5567 345.817 29.762C345.332 29.9673 344.795 30.07 344.207 30.07ZM358.718 22.58C359.316 22.58 359.834 22.6967 360.272 22.93C360.72 23.154 361.066 23.4993 361.308 23.966C361.56 24.4327 361.686 25.0207 361.686 25.73V30H360.692V25.828C360.692 25.0533 360.506 24.47 360.132 24.078C359.768 23.6767 359.25 23.476 358.578 23.476C358.074 23.476 357.636 23.5833 357.262 23.798C356.898 24.0033 356.614 24.3067 356.408 24.708C356.212 25.1 356.114 25.576 356.114 26.136V30H355.12V25.828C355.12 25.0533 354.934 24.47 354.56 24.078C354.187 23.6767 353.664 23.476 352.992 23.476C352.498 23.476 352.064 23.5833 351.69 23.798C351.317 24.0033 351.028 24.3067 350.822 24.708C350.626 25.1 350.528 25.576 350.528 26.136V30H349.534V22.65H350.486V24.638L350.332 24.288C350.556 23.756 350.916 23.3407 351.41 23.042C351.914 22.734 352.507 22.58 353.188 22.58C353.907 22.58 354.518 22.762 355.022 23.126C355.526 23.4807 355.853 24.0173 356.002 24.736L355.61 24.582C355.825 23.9847 356.203 23.504 356.744 23.14C357.295 22.7667 357.953 22.58 358.718 22.58ZM366.356 30.07C365.749 30.07 365.175 29.986 364.634 29.818C364.093 29.6407 363.668 29.4213 363.36 29.16L363.808 28.376C364.107 28.6 364.489 28.796 364.956 28.964C365.423 29.1227 365.913 29.202 366.426 29.202C367.126 29.202 367.63 29.0947 367.938 28.88C368.246 28.656 368.4 28.362 368.4 27.998C368.4 27.7273 368.311 27.5173 368.134 27.368C367.966 27.2093 367.742 27.0927 367.462 27.018C367.182 26.934 366.869 26.864 366.524 26.808C366.179 26.752 365.833 26.6867 365.488 26.612C365.152 26.5373 364.844 26.43 364.564 26.29C364.284 26.1407 364.055 25.94 363.878 25.688C363.71 25.436 363.626 25.1 363.626 24.68C363.626 24.2787 363.738 23.9193 363.962 23.602C364.186 23.2847 364.513 23.0373 364.942 22.86C365.381 22.6733 365.913 22.58 366.538 22.58C367.014 22.58 367.49 22.6453 367.966 22.776C368.442 22.8973 368.834 23.0607 369.142 23.266L368.708 24.064C368.381 23.84 368.031 23.6813 367.658 23.588C367.285 23.4853 366.911 23.434 366.538 23.434C365.875 23.434 365.385 23.5507 365.068 23.784C364.76 24.008 364.606 24.2973 364.606 24.652C364.606 24.932 364.69 25.1513 364.858 25.31C365.035 25.4687 365.264 25.5947 365.544 25.688C365.833 25.772 366.146 25.842 366.482 25.898C366.827 25.954 367.168 26.024 367.504 26.108C367.849 26.1827 368.162 26.29 368.442 26.43C368.731 26.5607 368.96 26.752 369.128 27.004C369.305 27.2467 369.394 27.5687 369.394 27.97C369.394 28.3993 369.273 28.7727 369.03 29.09C368.797 29.398 368.451 29.6407 367.994 29.818C367.546 29.986 367 30.07 366.356 30.07Z" fill="#5B5F5E"/>
<path d="M17.596 29.5V19.7H18.632V29.5H17.596ZM23.9346 29.57C23.2439 29.57 22.7119 29.3833 22.3386 29.01C21.9653 28.6367 21.7786 28.1093 21.7786 27.428V20.526H22.7726V27.372C22.7726 27.8013 22.8799 28.1327 23.0946 28.366C23.3186 28.5993 23.6359 28.716 24.0466 28.716C24.4853 28.716 24.8493 28.59 25.1386 28.338L25.4886 29.052C25.2926 29.2293 25.0546 29.36 24.7746 29.444C24.5039 29.528 24.2239 29.57 23.9346 29.57ZM20.4626 22.976V22.15H25.0126V22.976H20.4626ZM30.1603 29.57C29.395 29.57 28.723 29.4113 28.1443 29.094C27.5657 28.7673 27.113 28.324 26.7863 27.764C26.4597 27.1947 26.2963 26.546 26.2963 25.818C26.2963 25.09 26.4503 24.446 26.7583 23.886C27.0757 23.326 27.505 22.8873 28.0463 22.57C28.597 22.2433 29.213 22.08 29.8943 22.08C30.585 22.08 31.1963 22.2387 31.7283 22.556C32.2697 22.864 32.6943 23.3027 33.0023 23.872C33.3103 24.432 33.4643 25.0807 33.4643 25.818C33.4643 25.8647 33.4597 25.916 33.4503 25.972C33.4503 26.0187 33.4503 26.07 33.4503 26.126H27.0523V25.384H32.9183L32.5263 25.678C32.5263 25.146 32.4097 24.6747 32.1763 24.264C31.9523 23.844 31.6443 23.5173 31.2523 23.284C30.8603 23.0507 30.4077 22.934 29.8943 22.934C29.3903 22.934 28.9377 23.0507 28.5363 23.284C28.135 23.5173 27.8223 23.844 27.5983 24.264C27.3743 24.684 27.2623 25.1647 27.2623 25.706V25.86C27.2623 26.42 27.3837 26.9147 27.6263 27.344C27.8783 27.764 28.2237 28.0953 28.6623 28.338C29.1103 28.5713 29.619 28.688 30.1883 28.688C30.6363 28.688 31.0517 28.6087 31.4343 28.45C31.8263 28.2913 32.1623 28.0487 32.4423 27.722L33.0023 28.366C32.6757 28.758 32.265 29.0567 31.7703 29.262C31.285 29.4673 30.7483 29.57 30.1603 29.57ZM44.6716 22.08C45.2689 22.08 45.7869 22.1967 46.2256 22.43C46.6736 22.654 47.0189 22.9993 47.2616 23.466C47.5136 23.9327 47.6396 24.5207 47.6396 25.23V29.5H46.6456V25.328C46.6456 24.5533 46.4589 23.97 46.0856 23.578C45.7216 23.1767 45.2036 22.976 44.5316 22.976C44.0276 22.976 43.5889 23.0833 43.2156 23.298C42.8516 23.5033 42.5669 23.8067 42.3616 24.208C42.1656 24.6 42.0676 25.076 42.0676 25.636V29.5H41.0736V25.328C41.0736 24.5533 40.8869 23.97 40.5136 23.578C40.1402 23.1767 39.6176 22.976 38.9456 22.976C38.4509 22.976 38.0169 23.0833 37.6436 23.298C37.2702 23.5033 36.9809 23.8067 36.7756 24.208C36.5796 24.6 36.4816 25.076 36.4816 25.636V29.5H35.4876V22.15H36.4396V24.138L36.2856 23.788C36.5096 23.256 36.8689 22.8407 37.3636 22.542C37.8676 22.234 38.4602 22.08 39.1416 22.08C39.8602 22.08 40.4716 22.262 40.9756 22.626C41.4796 22.9807 41.8062 23.5173 41.9556 24.236L41.5636 24.082C41.7782 23.4847 42.1562 23.004 42.6976 22.64C43.2482 22.2667 43.9062 22.08 44.6716 22.08ZM52.3092 29.57C51.7026 29.57 51.1286 29.486 50.5872 29.318C50.0459 29.1407 49.6212 28.9213 49.3132 28.66L49.7612 27.876C50.0599 28.1 50.4426 28.296 50.9092 28.464C51.3759 28.6227 51.8659 28.702 52.3792 28.702C53.0792 28.702 53.5832 28.5947 53.8912 28.38C54.1992 28.156 54.3532 27.862 54.3532 27.498C54.3532 27.2273 54.2646 27.0173 54.0872 26.868C53.9192 26.7093 53.6952 26.5927 53.4152 26.518C53.1352 26.434 52.8226 26.364 52.4772 26.308C52.1319 26.252 51.7866 26.1867 51.4412 26.112C51.1052 26.0373 50.7972 25.93 50.5172 25.79C50.2372 25.6407 50.0086 25.44 49.8312 25.188C49.6632 24.936 49.5792 24.6 49.5792 24.18C49.5792 23.7787 49.6912 23.4193 49.9152 23.102C50.1392 22.7847 50.4659 22.5373 50.8952 22.36C51.3339 22.1733 51.8659 22.08 52.4912 22.08C52.9672 22.08 53.4432 22.1453 53.9192 22.276C54.3952 22.3973 54.7872 22.5607 55.0952 22.766L54.6612 23.564C54.3346 23.34 53.9846 23.1813 53.6112 23.088C53.2379 22.9853 52.8646 22.934 52.4912 22.934C51.8286 22.934 51.3386 23.0507 51.0212 23.284C50.7132 23.508 50.5592 23.7973 50.5592 24.152C50.5592 24.432 50.6432 24.6513 50.8112 24.81C50.9886 24.9687 51.2172 25.0947 51.4972 25.188C51.7866 25.272 52.0992 25.342 52.4352 25.398C52.7806 25.454 53.1212 25.524 53.4572 25.608C53.8026 25.6827 54.1152 25.79 54.3952 25.93C54.6846 26.0607 54.9132 26.252 55.0812 26.504C55.2586 26.7467 55.3472 27.0687 55.3472 27.47C55.3472 27.8993 55.2259 28.2727 54.9832 28.59C54.7499 28.898 54.4046 29.1407 53.9472 29.318C53.4992 29.486 52.9532 29.57 52.3092 29.57ZM61.0452 29.5V19.7H64.7132C65.5439 19.7 66.2579 19.8353 66.8552 20.106C67.4526 20.3673 67.9099 20.75 68.2272 21.254C68.5539 21.7487 68.7172 22.3507 68.7172 23.06C68.7172 23.7507 68.5539 24.348 68.2272 24.852C67.9099 25.3467 67.4526 25.7293 66.8552 26C66.2579 26.2707 65.5439 26.406 64.7132 26.406H61.6192L62.0812 25.916V29.5H61.0452ZM62.0812 26L61.6192 25.496H64.6852C65.6652 25.496 66.4072 25.286 66.9112 24.866C67.4246 24.4367 67.6812 23.8347 67.6812 23.06C67.6812 22.276 67.4246 21.6693 66.9112 21.24C66.4072 20.8107 65.6652 20.596 64.6852 20.596H61.6192L62.0812 20.106V26ZM73.8283 29.57C73.063 29.57 72.391 29.4113 71.8123 29.094C71.2336 28.7673 70.781 28.324 70.4543 27.764C70.1276 27.1947 69.9643 26.546 69.9643 25.818C69.9643 25.09 70.1183 24.446 70.4263 23.886C70.7436 23.326 71.173 22.8873 71.7143 22.57C72.265 22.2433 72.881 22.08 73.5623 22.08C74.253 22.08 74.8643 22.2387 75.3963 22.556C75.9376 22.864 76.3623 23.3027 76.6703 23.872C76.9783 24.432 77.1323 25.0807 77.1323 25.818C77.1323 25.8647 77.1276 25.916 77.1183 25.972C77.1183 26.0187 77.1183 26.07 77.1183 26.126H70.7203V25.384H76.5863L76.1943 25.678C76.1943 25.146 76.0776 24.6747 75.8443 24.264C75.6203 23.844 75.3123 23.5173 74.9203 23.284C74.5283 23.0507 74.0756 22.934 73.5623 22.934C73.0583 22.934 72.6056 23.0507 72.2043 23.284C71.803 23.5173 71.4903 23.844 71.2663 24.264C71.0423 24.684 70.9303 25.1647 70.9303 25.706V25.86C70.9303 26.42 71.0516 26.9147 71.2943 27.344C71.5463 27.764 71.8916 28.0953 72.3303 28.338C72.7783 28.5713 73.287 28.688 73.8563 28.688C74.3043 28.688 74.7196 28.6087 75.1023 28.45C75.4943 28.2913 75.8303 28.0487 76.1103 27.722L76.6703 28.366C76.3436 28.758 75.933 29.0567 75.4383 29.262C74.953 29.4673 74.4163 29.57 73.8283 29.57ZM79.1555 29.5V22.15H80.1075V24.152L80.0095 23.802C80.2149 23.242 80.5602 22.8173 81.0455 22.528C81.5309 22.2293 82.1329 22.08 82.8515 22.08V23.046C82.8142 23.046 82.7769 23.046 82.7395 23.046C82.7022 23.0367 82.6649 23.032 82.6275 23.032C81.8529 23.032 81.2462 23.27 80.8075 23.746C80.3689 24.2127 80.1495 24.88 80.1495 25.748V29.5H79.1555ZM88.6487 29.5V19.7H92.3167C93.1474 19.7 93.8614 19.8353 94.4587 20.106C95.0561 20.3673 95.5134 20.75 95.8307 21.254C96.1574 21.7487 96.3207 22.3507 96.3207 23.06C96.3207 23.7507 96.1574 24.348 95.8307 24.852C95.5134 25.3467 95.0561 25.7293 94.4587 26C93.8614 26.2707 93.1474 26.406 92.3167 26.406H89.2227L89.6847 25.916V29.5H88.6487ZM89.6847 26L89.2227 25.496H92.2887C93.2687 25.496 94.0107 25.286 94.5147 24.866C95.0281 24.4367 95.2847 23.8347 95.2847 23.06C95.2847 22.276 95.0281 21.6693 94.5147 21.24C94.0107 20.8107 93.2687 20.596 92.2887 20.596H89.2227L89.6847 20.106V26ZM102.888 29.5V27.876L102.846 27.61V24.894C102.846 24.2687 102.669 23.788 102.314 23.452C101.969 23.116 101.451 22.948 100.76 22.948C100.284 22.948 99.8318 23.0273 99.4025 23.186C98.9732 23.3447 98.6092 23.5547 98.3105 23.816L97.8625 23.074C98.2358 22.7567 98.6838 22.514 99.2065 22.346C99.7292 22.1687 100.28 22.08 100.858 22.08C101.81 22.08 102.543 22.318 103.056 22.794C103.579 23.2607 103.84 23.9747 103.84 24.936V29.5H102.888ZM100.354 29.57C99.8038 29.57 99.3232 29.4813 98.9125 29.304C98.5112 29.1173 98.2032 28.8653 97.9885 28.548C97.7738 28.2213 97.6665 27.848 97.6665 27.428C97.6665 27.0453 97.7552 26.7 97.9325 26.392C98.1192 26.0747 98.4178 25.8227 98.8285 25.636C99.2485 25.44 99.8085 25.342 100.508 25.342H103.042V26.084H100.536C99.8272 26.084 99.3325 26.21 99.0525 26.462C98.7818 26.714 98.6465 27.0267 98.6465 27.4C98.6465 27.82 98.8098 28.156 99.1365 28.408C99.4632 28.66 99.9205 28.786 100.508 28.786C101.068 28.786 101.549 28.66 101.95 28.408C102.361 28.1467 102.66 27.7733 102.846 27.288L103.07 27.974C102.884 28.4593 102.557 28.8467 102.09 29.136C101.633 29.4253 101.054 29.57 100.354 29.57ZM109.676 32.286C109.004 32.286 108.36 32.188 107.744 31.992C107.128 31.796 106.629 31.516 106.246 31.152L106.75 30.396C107.096 30.704 107.52 30.9467 108.024 31.124C108.538 31.3107 109.079 31.404 109.648 31.404C110.582 31.404 111.268 31.1847 111.706 30.746C112.145 30.3167 112.364 29.6447 112.364 28.73V26.896L112.504 25.636L112.406 24.376V22.15H113.358V28.604C113.358 29.8733 113.046 30.802 112.42 31.39C111.804 31.9873 110.89 32.286 109.676 32.286ZM109.494 29.22C108.794 29.22 108.164 29.0707 107.604 28.772C107.044 28.464 106.601 28.0393 106.274 27.498C105.957 26.9567 105.798 26.336 105.798 25.636C105.798 24.936 105.957 24.32 106.274 23.788C106.601 23.2467 107.044 22.8267 107.604 22.528C108.164 22.2293 108.794 22.08 109.494 22.08C110.148 22.08 110.736 22.2153 111.258 22.486C111.781 22.7567 112.196 23.158 112.504 23.69C112.812 24.222 112.966 24.8707 112.966 25.636C112.966 26.4013 112.812 27.05 112.504 27.582C112.196 28.114 111.781 28.52 111.258 28.8C110.736 29.08 110.148 29.22 109.494 29.22ZM109.592 28.338C110.134 28.338 110.614 28.226 111.034 28.002C111.454 27.7687 111.786 27.4513 112.028 27.05C112.271 26.6393 112.392 26.168 112.392 25.636C112.392 25.104 112.271 24.6373 112.028 24.236C111.786 23.8347 111.454 23.522 111.034 23.298C110.614 23.0647 110.134 22.948 109.592 22.948C109.06 22.948 108.58 23.0647 108.15 23.298C107.73 23.522 107.399 23.8347 107.156 24.236C106.923 24.6373 106.806 25.104 106.806 25.636C106.806 26.168 106.923 26.6393 107.156 27.05C107.399 27.4513 107.73 27.7687 108.15 28.002C108.58 28.226 109.06 28.338 109.592 28.338ZM119.246 29.57C118.481 29.57 117.809 29.4113 117.23 29.094C116.652 28.7673 116.199 28.324 115.872 27.764C115.546 27.1947 115.382 26.546 115.382 25.818C115.382 25.09 115.536 24.446 115.844 23.886C116.162 23.326 116.591 22.8873 117.132 22.57C117.683 22.2433 118.299 22.08 118.98 22.08C119.671 22.08 120.282 22.2387 120.814 22.556C121.356 22.864 121.78 23.3027 122.088 23.872C122.396 24.432 122.55 25.0807 122.55 25.818C122.55 25.8647 122.546 25.916 122.536 25.972C122.536 26.0187 122.536 26.07 122.536 26.126H116.138V25.384H122.004L121.612 25.678C121.612 25.146 121.496 24.6747 121.262 24.264C121.038 23.844 120.73 23.5173 120.338 23.284C119.946 23.0507 119.494 22.934 118.98 22.934C118.476 22.934 118.024 23.0507 117.622 23.284C117.221 23.5173 116.908 23.844 116.684 24.264C116.46 24.684 116.348 25.1647 116.348 25.706V25.86C116.348 26.42 116.47 26.9147 116.712 27.344C116.964 27.764 117.31 28.0953 117.748 28.338C118.196 28.5713 118.705 28.688 119.274 28.688C119.722 28.688 120.138 28.6087 120.52 28.45C120.912 28.2913 121.248 28.0487 121.528 27.722L122.088 28.366C121.762 28.758 121.351 29.0567 120.856 29.262C120.371 29.4673 119.834 29.57 119.246 29.57ZM124.672 23.606C124.466 23.606 124.289 23.5313 124.14 23.382C124 23.2327 123.93 23.0507 123.93 22.836C123.93 22.612 124 22.43 124.14 22.29C124.289 22.15 124.466 22.08 124.672 22.08C124.877 22.08 125.05 22.15 125.19 22.29C125.339 22.43 125.414 22.612 125.414 22.836C125.414 23.0507 125.339 23.2327 125.19 23.382C125.05 23.5313 124.877 23.606 124.672 23.606ZM124.672 29.57C124.466 29.57 124.289 29.4953 124.14 29.346C124 29.1967 123.93 29.0147 123.93 28.8C123.93 28.576 124 28.394 124.14 28.254C124.289 28.114 124.466 28.044 124.672 28.044C124.877 28.044 125.05 28.114 125.19 28.254C125.339 28.394 125.414 28.576 125.414 28.8C125.414 29.0147 125.339 29.1967 125.19 29.346C125.05 29.4953 124.877 29.57 124.672 29.57Z" fill="#5B5F5E"/>
<path d="M137.436 29.5V20.12L137.884 20.596H135.126V19.7H138.444V29.5H137.436ZM144.693 29.584C143.937 29.584 143.265 29.388 142.677 28.996C142.089 28.5947 141.627 28.0253 141.291 27.288C140.955 26.5413 140.787 25.6453 140.787 24.6C140.787 23.5547 140.955 22.6633 141.291 21.926C141.627 21.1793 142.089 20.61 142.677 20.218C143.265 19.8167 143.937 19.616 144.693 19.616C145.449 19.616 146.121 19.8167 146.709 20.218C147.297 20.61 147.759 21.1793 148.095 21.926C148.44 22.6633 148.613 23.5547 148.613 24.6C148.613 25.6453 148.44 26.5413 148.095 27.288C147.759 28.0253 147.297 28.5947 146.709 28.996C146.121 29.388 145.449 29.584 144.693 29.584ZM144.693 28.66C145.271 28.66 145.775 28.506 146.205 28.198C146.634 27.8807 146.97 27.4233 147.213 26.826C147.455 26.2193 147.577 25.4773 147.577 24.6C147.577 23.7227 147.455 22.9853 147.213 22.388C146.97 21.7813 146.634 21.324 146.205 21.016C145.775 20.6987 145.271 20.54 144.693 20.54C144.133 20.54 143.633 20.6987 143.195 21.016C142.756 21.324 142.415 21.7813 142.173 22.388C141.93 22.9853 141.809 23.7227 141.809 24.6C141.809 25.4773 141.93 26.2193 142.173 26.826C142.415 27.4233 142.756 27.8807 143.195 28.198C143.633 28.506 144.133 28.66 144.693 28.66Z" fill="#5B5F5E"/>
<g clip-path="url(#clip0_2012_22538)">
<path fill-rule="evenodd" clip-rule="evenodd" d="M168.588 27.0892C168.432 27.2454 168.22 27.3332 167.999 27.3332C167.778 27.3332 167.566 27.2454 167.41 27.0892L162.696 22.375C162.616 22.2981 162.553 22.2062 162.509 22.1045C162.465 22.0028 162.442 21.8935 162.441 21.7828C162.44 21.6722 162.462 21.5625 162.503 21.46C162.545 21.3576 162.607 21.2646 162.685 21.1863C162.764 21.1081 162.857 21.0462 162.959 21.0043C163.062 20.9624 163.171 20.9413 163.282 20.9423C163.393 20.9433 163.502 20.9662 163.604 21.0099C163.705 21.0536 163.797 21.1171 163.874 21.1967L167.999 25.3217L172.124 21.1967C172.281 21.0449 172.492 20.9609 172.71 20.9628C172.929 20.9647 173.138 21.0523 173.292 21.2068C173.447 21.3613 173.534 21.5703 173.536 21.7888C173.538 22.0073 173.454 22.2178 173.302 22.375L168.588 27.0892Z" fill="#5B5F5E"/>
</g>
<g clip-path="url(#clip1_2012_22538)">
<path fill-rule="evenodd" clip-rule="evenodd" d="M472.912 25.0892C472.755 24.9329 472.668 24.721 472.668 24.5C472.668 24.279 472.755 24.0671 472.912 23.9108L477.626 19.1967C477.703 19.1171 477.795 19.0536 477.896 19.0099C477.998 18.9662 478.107 18.9433 478.218 18.9423C478.329 18.9413 478.438 18.9624 478.541 19.0043C478.643 19.0462 478.736 19.1081 478.815 19.1863C478.893 19.2646 478.955 19.3576 478.997 19.46C479.038 19.5625 479.06 19.6722 479.059 19.7828C479.058 19.8935 479.035 20.0028 478.991 20.1045C478.947 20.2062 478.884 20.2981 478.804 20.375L474.679 24.5L478.804 28.625C478.956 28.7822 479.04 28.9927 479.038 29.2112C479.036 29.4297 478.949 29.6387 478.794 29.7932C478.64 29.9477 478.431 30.0353 478.212 30.0372C477.994 30.0391 477.783 29.9551 477.626 29.8033L472.912 25.0892Z" fill="#8D9290"/>
</g>
<rect x="502" y="8" width="34" height="33" rx="8" fill="#009254"/>
<path d="M518.436 30V20.62L518.884 21.096H516.126V20.2H519.444V30H518.436Z" fill="white"/>
<path d="M558.546 30V29.286L562.62 25.296C562.993 24.932 563.273 24.6147 563.46 24.344C563.647 24.064 563.773 23.8027 563.838 23.56C563.903 23.3173 563.936 23.0887 563.936 22.874C563.936 22.3047 563.74 21.8567 563.348 21.53C562.965 21.2033 562.396 21.04 561.64 21.04C561.061 21.04 560.548 21.1287 560.1 21.306C559.661 21.4833 559.283 21.7587 558.966 22.132L558.252 21.516C558.635 21.068 559.125 20.7227 559.722 20.48C560.319 20.2373 560.987 20.116 561.724 20.116C562.387 20.116 562.961 20.2233 563.446 20.438C563.931 20.6433 564.305 20.9467 564.566 21.348C564.837 21.7493 564.972 22.2207 564.972 22.762C564.972 23.0793 564.925 23.392 564.832 23.7C564.748 24.008 564.589 24.3347 564.356 24.68C564.132 25.016 563.801 25.3987 563.362 25.828L559.624 29.496L559.344 29.104H565.42V30H558.546Z" fill="#5B5F5E"/>
<path d="M605.654 30.084C604.945 30.084 604.273 29.972 603.638 29.748C603.013 29.5147 602.509 29.2067 602.126 28.824L602.616 28.026C602.933 28.3527 603.358 28.6233 603.89 28.838C604.431 29.0527 605.019 29.16 605.654 29.16C606.466 29.16 607.087 28.9827 607.516 28.628C607.955 28.2733 608.174 27.7973 608.174 27.2C608.174 26.6027 607.959 26.1267 607.53 25.772C607.11 25.4173 606.443 25.24 605.528 25.24H604.828V24.498L607.852 20.704L607.992 21.096H602.532V20.2H608.832V20.914L605.808 24.708L605.318 24.386H605.696C606.872 24.386 607.749 24.6473 608.328 25.17C608.916 25.6927 609.21 26.3647 609.21 27.186C609.21 27.7367 609.079 28.2313 608.818 28.67C608.557 29.1087 608.16 29.454 607.628 29.706C607.105 29.958 606.447 30.084 605.654 30.084Z" fill="#5B5F5E"/>
<path d="M646.56 27.424V26.696L651.754 20.2H652.874L647.722 26.696L647.176 26.528H655.058V27.424H646.56ZM652.09 30V27.424L652.118 26.528V24.26H653.098V30H652.09Z" fill="#5B5F5E"/>
<path d="M695.822 30.084C695.122 30.084 694.455 29.972 693.82 29.748C693.185 29.5147 692.681 29.2067 692.308 28.824L692.798 28.026C693.106 28.3527 693.526 28.6233 694.058 28.838C694.599 29.0527 695.183 29.16 695.808 29.16C696.639 29.16 697.269 28.978 697.698 28.614C698.137 28.2407 698.356 27.7553 698.356 27.158C698.356 26.738 698.253 26.3787 698.048 26.08C697.852 25.772 697.516 25.534 697.04 25.366C696.564 25.198 695.911 25.114 695.08 25.114H692.994L693.498 20.2H698.86V21.096H693.904L694.422 20.606L693.988 24.722L693.47 24.218H695.304C696.293 24.218 697.087 24.3393 697.684 24.582C698.281 24.8247 698.711 25.1653 698.972 25.604C699.243 26.0333 699.378 26.5373 699.378 27.116C699.378 27.6667 699.247 28.1707 698.986 28.628C698.725 29.076 698.333 29.4307 697.81 29.692C697.287 29.9533 696.625 30.084 695.822 30.084Z" fill="#5B5F5E"/>
<g clip-path="url(#clip2_2012_22538)">
<path fill-rule="evenodd" clip-rule="evenodd" d="M743.088 25.0892C743.245 24.9329 743.332 24.721 743.332 24.5C743.332 24.279 743.245 24.0671 743.088 23.9108L738.374 19.1967C738.297 19.1171 738.205 19.0536 738.104 19.0099C738.002 18.9662 737.893 18.9433 737.782 18.9423C737.671 18.9413 737.562 18.9624 737.459 19.0043C737.357 19.0462 737.264 19.1081 737.185 19.1863C737.107 19.2646 737.045 19.3576 737.003 19.46C736.962 19.5625 736.94 19.6722 736.941 19.7828C736.942 19.8935 736.965 20.0028 737.009 20.1045C737.053 20.2062 737.116 20.2981 737.196 20.375L741.321 24.5L737.196 28.625C737.044 28.7822 736.96 28.9927 736.962 29.2112C736.964 29.4297 737.051 29.6387 737.206 29.7932C737.36 29.9477 737.569 30.0353 737.788 30.0372C738.006 30.0391 738.217 29.9551 738.374 29.8033L743.088 25.0892Z" fill="#5B5F5E"/>
</g>
<line x1="222.5" y1="2.18557e-08" x2="222.5" y2="48" stroke="#C4C7C6"/>
<line x1="418.5" y1="2.18557e-08" x2="418.5" y2="48" stroke="#C4C7C6"/>
<path d="M0 4C0 1.23858 2.23858 -1 5 -1H761C763.761 -1 766 1.23858 766 4C766 2.34315 764.209 1 762 1H4C1.79086 1 0 2.34315 0 4ZM766 48H0H766ZM0 48V0V48ZM766 0V48V0Z" fill="white" mask="url(#path-1-inside-1_2012_22538)"/>
<defs>
<clipPath id="clip0_2012_22538">
<rect width="20" height="20" fill="white" transform="translate(158 14)"/>
</clipPath>
<clipPath id="clip1_2012_22538">
<rect width="20" height="20" fill="white" transform="matrix(0 1 -1 0 486 14.5)"/>
</clipPath>
<clipPath id="clip2_2012_22538">
<rect width="20" height="20" fill="white" transform="matrix(0 1 1 0 730 14.5)"/>
</clipPath>
</defs>
</svg>
