<svg width="22" height="22" viewBox="0 0 22 22" fill="none" xmlns="http://www.w3.org/2000/svg">
<path d="M19.8611 0H2.13889C1.57162 0 1.02759 0.225347 0.626466 0.626466C0.225347 1.02759 0 1.57162 0 2.13889V19.8611C0 20.4284 0.225347 20.9724 0.626466 21.3735C1.02759 21.7747 1.57162 22 2.13889 22H19.8611C20.4284 22 20.9724 21.7747 21.3735 21.3735C21.7747 20.9724 22 20.4284 22 19.8611V2.13889C22 1.57162 21.7747 1.02759 21.3735 0.626466C20.9724 0.225347 20.4284 0 19.8611 0ZM17.219 13.2092V14.8405C17.2036 14.9966 17.1355 15.1427 17.0259 15.2549C16.9163 15.367 16.7718 15.4385 16.6161 15.4574L7.40514 15.4581C6.72314 15.4581 6.14167 15.2381 5.66133 14.799C5.18131 14.3596 4.94114 13.8282 4.94114 13.2037C4.94114 12.7068 5.10339 12.2653 5.42819 11.876C5.75331 11.488 6.16489 11.2179 6.66294 11.0645L14.7116 8.76455H4.94144V7.20744C4.94377 7.05152 4.99873 6.90095 5.09741 6.78019C5.19609 6.65944 5.33269 6.57559 5.48503 6.54225H14.755C15.437 6.54225 16.0178 6.76042 16.4982 7.19583C16.9785 7.63186 17.219 8.15222 17.219 8.75783C17.219 9.26353 17.0552 9.70842 16.7279 10.0934C16.4007 10.479 15.9796 10.7476 15.4648 10.8986L7.40514 13.2092H17.219Z" fill="#009254"/>
</svg>
