<svg width="44" height="44" viewBox="0 0 44 44" fill="none" xmlns="http://www.w3.org/2000/svg">
<path d="M22.1172 19.8244C21.9395 19.8067 21.7261 19.8067 21.5306 19.8244C17.2995 19.6822 13.9395 16.2155 13.9395 11.9489C13.9395 7.59332 17.4595 4.05554 21.8328 4.05554C26.1883 4.05554 29.7261 7.59332 29.7261 11.9489C29.7083 16.2155 26.3483 19.6822 22.1172 19.8244Z" stroke="#009254" stroke-width="3.55556" stroke-linecap="round" stroke-linejoin="round"/>
<path d="M13.2286 26.3845C8.9264 29.2645 8.9264 33.9578 13.2286 36.82C18.1175 40.0911 26.1353 40.0911 31.0242 36.82C35.3264 33.94 35.3264 29.2467 31.0242 26.3845C26.1531 23.1311 18.1353 23.1311 13.2286 26.3845Z" stroke="#009254" stroke-width="3.55556" stroke-linecap="round" stroke-linejoin="round"/>
</svg>
