<svg width="16" height="16" viewBox="0 0 16 16" fill="none" xmlns="http://www.w3.org/2000/svg">
<path d="M13.5951 5.35706L12.4305 4.34568C11.5914 3.61696 11.2625 3.22495 10.8081 3.36353C10.2415 3.53633 10.428 4.62666 10.428 4.99476C9.54707 4.99476 8.6312 4.92701 7.76287 5.06818C4.89635 5.53422 4 7.57367 4 9.77094C4.81131 9.2736 5.62183 8.719 6.59693 8.48854C7.81413 8.2008 9.17353 8.33807 10.428 8.33807C10.428 8.7062 10.2415 9.79654 10.8081 9.96934C11.3229 10.1263 11.5914 9.71587 12.4305 8.9872L13.5951 7.9758C14.3095 7.35547 14.6667 7.04527 14.6667 6.66643C14.6667 6.2876 14.3095 5.97742 13.5951 5.35706Z" stroke="#009254" stroke-linecap="round" stroke-linejoin="round"/>
<path d="M7.04511 2C4.47161 2.00463 3.124 2.06768 2.26278 2.92715C1.33337 3.85468 1.33337 5.3475 1.33337 8.33313C1.33337 11.3188 1.33337 12.8116 2.26277 13.7391C3.19218 14.6667 4.68803 14.6667 7.67971 14.6667C10.6714 14.6667 12.1673 14.6667 13.0967 13.7391C13.7438 13.0933 13.9403 12.1735 14 10.6667" stroke="#009254" stroke-linecap="round" stroke-linejoin="round"/>
</svg>
