<svg width="48" height="48" viewBox="0 0 48 48" fill="none" xmlns="http://www.w3.org/2000/svg">
<path d="M0 24C0 37.2548 10.7452 48 24 48C37.2548 48 48 37.2548 48 24C48 10.7452 37.2548 0 24 0C10.7452 0 0 10.7452 0 24Z" fill="#F00073"/>
<path d="M24 13.8008C27.3 13.8008 27.75 13.8008 29.1 13.8008C30.3 13.8008 30.9 14.1008 31.35 14.2508C31.95 14.5508 32.4 14.7008 32.85 15.1508C33.3 15.6008 33.6 16.0508 33.75 16.6508C33.9 17.1008 34.05 17.7008 34.2 18.9008C34.2 20.2508 34.2 20.5508 34.2 24.0008C34.2 27.4508 34.2 27.7508 34.2 29.1008C34.2 30.3008 33.9 30.9008 33.75 31.3508C33.45 31.9508 33.3 32.4008 32.85 32.8508C32.4 33.3008 31.95 33.6008 31.35 33.7508C30.9 33.9008 30.3 34.0508 29.1 34.2008C27.75 34.2008 27.45 34.2008 24 34.2008C20.55 34.2008 20.25 34.2008 18.9 34.2008C17.7 34.2008 17.1 33.9008 16.65 33.7508C16.05 33.4508 15.6 33.3008 15.15 32.8508C14.7 32.4008 14.4 31.9508 14.25 31.3508C14.1 30.9008 13.95 30.3008 13.8 29.1008C13.8 27.7508 13.8 27.4508 13.8 24.0008C13.8 20.5508 13.8 20.2508 13.8 18.9008C13.8 17.7008 14.1 17.1008 14.25 16.6508C14.55 16.0508 14.7 15.6008 15.15 15.1508C15.6 14.7008 16.05 14.4008 16.65 14.2508C17.1 14.1008 17.7 13.9508 18.9 13.8008C20.25 13.8008 20.7 13.8008 24 13.8008ZM24 11.5508C20.55 11.5508 20.25 11.5508 18.9 11.5508C17.55 11.5508 16.65 11.8508 15.9 12.1508C15.15 12.4508 14.4 12.9008 13.65 13.6508C12.9 14.4008 12.6 15.0008 12.15 15.9008C11.85 16.6508 11.7 17.5508 11.55 18.9008C11.55 20.2508 11.55 20.7008 11.55 24.0008C11.55 27.4508 11.55 27.7508 11.55 29.1008C11.55 30.4508 11.85 31.3508 12.15 32.1008C12.45 32.8508 12.9 33.6008 13.65 34.3508C14.4 35.1008 15 35.4008 15.9 35.8508C16.65 36.1508 17.55 36.3008 18.9 36.4508C20.25 36.4508 20.7 36.4508 24 36.4508C27.3 36.4508 27.75 36.4508 29.1 36.4508C30.45 36.4508 31.35 36.1508 32.1 35.8508C32.85 35.5508 33.6 35.1008 34.35 34.3508C35.1 33.6008 35.4 33.0008 35.85 32.1008C36.15 31.3508 36.3 30.4508 36.45 29.1008C36.45 27.7508 36.45 27.3008 36.45 24.0008C36.45 20.7008 36.45 20.2508 36.45 18.9008C36.45 17.5508 36.15 16.6508 35.85 15.9008C35.55 15.1508 35.1 14.4008 34.35 13.6508C33.6 12.9008 33 12.6008 32.1 12.1508C31.35 11.8508 30.45 11.7008 29.1 11.5508C27.75 11.5508 27.45 11.5508 24 11.5508Z" fill="white"/>
<path d="M24 17.5508C20.4 17.5508 17.55 20.4008 17.55 24.0008C17.55 27.6008 20.4 30.4508 24 30.4508C27.6 30.4508 30.45 27.6008 30.45 24.0008C30.45 20.4008 27.6 17.5508 24 17.5508ZM24 28.2008C21.75 28.2008 19.8 26.4008 19.8 24.0008C19.8 21.7508 21.6 19.8008 24 19.8008C26.25 19.8008 28.2 21.6008 28.2 24.0008C28.2 26.2508 26.25 28.2008 24 28.2008Z" fill="white"/>
<path d="M30.6 18.9008C31.4284 18.9008 32.1 18.2292 32.1 17.4008C32.1 16.5724 31.4284 15.9008 30.6 15.9008C29.7716 15.9008 29.1 16.5724 29.1 17.4008C29.1 18.2292 29.7716 18.9008 30.6 18.9008Z" fill="white"/>
</svg>
