<svg width="40" height="40" viewBox="0 0 40 40" fill="none" xmlns="http://www.w3.org/2000/svg">
<circle cx="20" cy="20" r="20" fill="#FCEEE3"/>
<path d="M22.5001 28.3333H17.5001C13.3334 28.3333 11.6667 26.6666 11.6667 22.5V17.5C11.6667 13.3333 13.3334 11.6666 17.5001 11.6666H22.5001C26.6667 11.6666 28.3334 13.3333 28.3334 17.5V22.5C28.3334 26.6666 26.6667 28.3333 22.5001 28.3333Z" stroke="#F1AE67" stroke-width="1.5" stroke-linecap="round" stroke-linejoin="round"/>
<path d="M17.9582 24.7667H15.9166C15.3582 24.7667 14.8999 24.3084 14.8999 23.75V16.2584C14.8999 15.7 15.3582 15.2417 15.9166 15.2417H17.9582C18.5166 15.2417 18.9749 15.7 18.9749 16.2584V23.7417C18.9749 24.3084 18.5166 24.7667 17.9582 24.7667Z" stroke="#F1AE67" stroke-width="1.5" stroke-miterlimit="10"/>
<path d="M24.2833 21.3584H21.8333C21.3833 21.3584 21.0166 20.9917 21.0166 20.5417V16.0584C21.0166 15.6084 21.3833 15.2417 21.8333 15.2417H24.2833C24.7333 15.2417 25.0999 15.6084 25.0999 16.0584V20.55C25.1083 20.9917 24.7333 21.3584 24.2833 21.3584Z" stroke="#F1AE67" stroke-width="1.5" stroke-miterlimit="10"/>
</svg>
