<svg width="22" height="22" viewBox="0 0 22 22" fill="none" xmlns="http://www.w3.org/2000/svg">
<path d="M8.90212 13.9566C8.73085 13.9566 8.55958 13.8935 8.42436 13.7583C7.68519 13.0191 7.27954 12.0365 7.27954 10.9999C7.27954 8.84546 9.02832 7.09668 11.1827 7.09668C12.2194 7.09668 13.202 7.50232 13.9411 8.2415C14.0673 8.3677 14.1395 8.53897 14.1395 8.71926C14.1395 8.89955 14.0673 9.07082 13.9411 9.19702L9.37988 13.7583C9.24467 13.8935 9.07339 13.9566 8.90212 13.9566ZM11.1827 8.44883C9.77651 8.44883 8.63169 9.59365 8.63169 10.9999C8.63169 11.4506 8.74888 11.8833 8.96522 12.2619L12.4448 8.78236C12.0662 8.56602 11.6335 8.44883 11.1827 8.44883Z" fill="#464646"/>
<path d="M5.41371 16.8683C5.26046 16.8683 5.09821 16.8142 4.97201 16.706C4.00747 15.8857 3.14209 14.8761 2.40292 13.7043C1.4474 12.2169 1.4474 9.79203 2.40292 8.29565C4.60242 4.85217 7.80251 2.86902 11.1829 2.86902C13.166 2.86902 15.1221 3.55411 16.8349 4.84316C17.1323 5.06852 17.1954 5.49219 16.9701 5.78966C16.7447 6.08714 16.3211 6.15024 16.0236 5.92488C14.5452 4.8071 12.8686 4.22117 11.1829 4.22117C8.27125 4.22117 5.48582 5.96995 3.53873 9.02581C2.86265 10.0805 2.86265 11.9194 3.53873 12.9741C4.2148 14.0288 4.99003 14.9392 5.8464 15.6784C6.12584 15.9218 6.1619 16.3455 5.91851 16.6339C5.79231 16.7872 5.60301 16.8683 5.41371 16.8683Z" fill="#464646"/>
<path d="M11.1828 19.1308C9.98388 19.1308 8.81202 18.8874 7.68523 18.4097C7.34268 18.2655 7.18042 17.8688 7.32465 17.5263C7.46888 17.1837 7.86551 17.0215 8.20806 17.1657C9.16358 17.5714 10.1642 17.7787 11.1738 17.7787C14.0854 17.7787 16.8708 16.0299 18.8179 12.974C19.494 11.9194 19.494 10.0804 18.8179 9.02576C18.5385 8.58406 18.232 8.16039 17.9075 7.76375C17.6731 7.4753 17.7182 7.05162 18.0066 6.80824C18.2951 6.57386 18.7188 6.60992 18.9622 6.90739C19.3137 7.34008 19.6563 7.80883 19.9628 8.2956C20.9183 9.78297 20.9183 12.2078 19.9628 13.7042C17.7633 17.1477 14.5632 19.1308 11.1828 19.1308Z" fill="#464646"/>
<path d="M11.8047 14.8491C11.4892 14.8491 11.2008 14.6237 11.1377 14.2992C11.0655 13.9296 11.3089 13.578 11.6785 13.5149C12.6701 13.3346 13.4994 12.5053 13.6797 11.5137C13.7518 11.1442 14.1034 10.9098 14.473 10.9729C14.8426 11.045 15.0859 11.3966 15.0138 11.7661C14.7254 13.3256 13.4814 14.5606 11.9309 14.8491C11.8859 14.84 11.8498 14.8491 11.8047 14.8491Z" fill="#464646"/>
<path d="M2.16845 20.6903C1.99718 20.6903 1.82591 20.6272 1.69069 20.492C1.42927 20.2306 1.42927 19.7979 1.69069 19.5365L8.4244 12.8028C8.68582 12.5413 9.1185 12.5413 9.37992 12.8028C9.64134 13.0642 9.64134 13.4969 9.37992 13.7583L2.64621 20.492C2.511 20.6272 2.33972 20.6903 2.16845 20.6903Z" fill="#464646"/>
<path d="M13.4635 9.39525C13.2922 9.39525 13.1209 9.33215 12.9857 9.19694C12.7243 8.93552 12.7243 8.50283 12.9857 8.24142L19.7194 1.50771C19.9809 1.24629 20.4135 1.24629 20.675 1.50771C20.9364 1.76912 20.9364 2.20181 20.675 2.46323L13.9413 9.19694C13.806 9.33215 13.6348 9.39525 13.4635 9.39525Z" fill="#464646"/>
</svg>
