<svg width="22" height="22" viewBox="0 0 22 22" fill="none" xmlns="http://www.w3.org/2000/svg">
<path d="M11.1827 14.9031C9.02832 14.9031 7.27954 13.1543 7.27954 10.9999C7.27954 8.84546 9.02832 7.09668 11.1827 7.09668C13.3372 7.09668 15.086 8.84546 15.086 10.9999C15.086 13.1543 13.3372 14.9031 11.1827 14.9031ZM11.1827 8.44883C9.77651 8.44883 8.63169 9.59365 8.63169 10.9999C8.63169 12.4061 9.77651 13.5509 11.1827 13.5509C12.589 13.5509 13.7338 12.4061 13.7338 10.9999C13.7338 9.59365 12.589 8.44883 11.1827 8.44883Z" fill="#464646"/>
<path d="M11.1827 19.1309C7.79335 19.1309 4.59326 17.1477 2.39376 13.7043C1.43824 12.2169 1.43824 9.79203 2.39376 8.29565C4.60228 4.85217 7.80237 2.86902 11.1827 2.86902C14.5631 2.86902 17.7632 4.85217 19.9627 8.29565C20.9182 9.78302 20.9182 12.2079 19.9627 13.7043C17.7632 17.1477 14.5631 19.1309 11.1827 19.1309ZM11.1827 4.22117C8.27111 4.22117 5.48568 5.96995 3.53858 9.02581C2.86251 10.0805 2.86251 11.9194 3.53858 12.9741C5.48568 16.03 8.27111 17.7787 11.1827 17.7787C14.0944 17.7787 16.8798 16.03 18.8269 12.9741C19.503 11.9194 19.503 10.0805 18.8269 9.02581C16.8798 5.96995 14.0944 4.22117 11.1827 4.22117Z" fill="#464646"/>
</svg>
