<svg width="20" height="20" viewBox="0 0 20 20" fill="none" xmlns="http://www.w3.org/2000/svg">
<path d="M8.33301 15.8333C8.33301 16.75 9.08301 17.5 9.99967 17.5C10.9163 17.5 11.6663 16.75 11.6663 15.8333C11.6663 14.9167 10.9163 14.1667 9.99967 14.1667C9.08301 14.1667 8.33301 14.9167 8.33301 15.8333Z" fill="#8D9290" stroke="#8D9290" stroke-width="1.5"/>
<path d="M8.33301 4.16732C8.33301 5.08398 9.08301 5.83398 9.99967 5.83398C10.9163 5.83398 11.6663 5.08398 11.6663 4.16732C11.6663 3.25065 10.9163 2.50065 9.99967 2.50065C9.08301 2.50065 8.33301 3.25065 8.33301 4.16732Z" fill="#8D9290" stroke="#8D9290" stroke-width="1.5"/>
<path d="M8.33301 9.99935C8.33301 10.916 9.08301 11.666 9.99967 11.666C10.9163 11.666 11.6663 10.916 11.6663 9.99935C11.6663 9.08268 10.9163 8.33268 9.99967 8.33268C9.08301 8.33268 8.33301 9.08268 8.33301 9.99935Z" fill="#8D9290" stroke="#8D9290" stroke-width="1.5"/>
</svg>
