<svg width="25" height="29" viewBox="0 0 25 29" fill="none" xmlns="http://www.w3.org/2000/svg">
<path id="Vector" d="M20.5 28.1663C19.3611 28.1663 18.3931 27.7677 17.5958 26.9705C16.7986 26.1733 16.4 25.2052 16.4 24.0663C16.4 23.9069 16.4114 23.7415 16.4342 23.5702C16.4569 23.3989 16.4911 23.2454 16.5367 23.1097L6.90167 17.5063C6.51444 17.848 6.08167 18.1159 5.60333 18.3099C5.125 18.504 4.62389 18.6006 4.1 18.5997C2.96111 18.5997 1.99306 18.2011 1.19583 17.4038C0.398611 16.6066 0 15.6386 0 14.4997C0 13.3608 0.398611 12.3927 1.19583 11.5955C1.99306 10.7983 2.96111 10.3997 4.1 10.3997C4.62389 10.3997 5.125 10.4967 5.60333 10.6908C6.08167 10.8848 6.51444 11.1523 6.90167 11.493L16.5367 5.88967C16.4911 5.75301 16.4569 5.59948 16.4342 5.42911C16.4114 5.25873 16.4 5.09336 16.4 4.93301C16.4 3.79412 16.7986 2.82606 17.5958 2.02884C18.3931 1.23162 19.3611 0.833008 20.5 0.833008C21.6389 0.833008 22.6069 1.23162 23.4042 2.02884C24.2014 2.82606 24.6 3.79412 24.6 4.93301C24.6 6.0719 24.2014 7.03995 23.4042 7.83717C22.6069 8.6344 21.6389 9.03301 20.5 9.03301C19.9761 9.03301 19.475 8.93643 18.9967 8.74327C18.5183 8.55012 18.0856 8.28225 17.6983 7.93967L8.06333 13.543C8.10889 13.6797 8.14306 13.8337 8.16583 14.0049C8.18861 14.1762 8.2 14.3411 8.2 14.4997C8.2 14.6591 8.18861 14.8245 8.16583 14.9958C8.14306 15.1671 8.10889 15.3206 8.06333 15.4563L17.6983 21.0597C18.0856 20.718 18.5183 20.4506 18.9967 20.2574C19.475 20.0643 19.9761 19.9673 20.5 19.9663C21.6389 19.9663 22.6069 20.365 23.4042 21.1622C24.2014 21.9594 24.6 22.9275 24.6 24.0663C24.6 25.2052 24.2014 26.1733 23.4042 26.9705C22.6069 27.7677 21.6389 28.1663 20.5 28.1663Z" fill="#009254"/>
</svg>
