<svg width="262" height="325" viewBox="0 0 262 325" fill="none" xmlns="http://www.w3.org/2000/svg">
<g opacity="0.5">
<rect width="400" height="400" transform="translate(-138)" fill="white"/>
<path d="M145.338 366.667H-21.3288C-87.9954 366.667 -104.662 350 -104.662 283.334V250C-104.662 183.334 -87.9954 166.667 -21.3288 166.667H145.338C212.005 166.667 228.671 183.334 228.671 250V283.334C228.671 350 212.005 366.667 145.338 366.667Z" stroke="#E6F5EA" stroke-width="25.25" stroke-linecap="round" stroke-linejoin="round"/>
<path d="M-38.002 166.667V133.334C-38.002 78.1671 -21.3353 33.3338 61.998 33.3338C136.998 33.3338 161.998 66.6671 161.998 116.667" stroke="#E6F5EA" stroke-width="25.25" stroke-linecap="round" stroke-linejoin="round"/>
<path d="M62.0055 308.333C85.0174 308.333 103.672 289.678 103.672 266.667C103.672 243.655 85.0174 225 62.0055 225C38.9937 225 20.3389 243.655 20.3389 266.667C20.3389 289.678 38.9937 308.333 62.0055 308.333Z" stroke="#E6F5EA" stroke-width="25.25" stroke-linecap="round" stroke-linejoin="round"/>
</g>
</svg>
