<svg width="21" height="21" viewBox="0 0 21 21" fill="none" xmlns="http://www.w3.org/2000/svg">
<path d="M14.3179 18.482H11.1512C10.6846 18.482 9.6679 18.3403 9.12623 17.7987L6.60123 15.8487L7.3679 14.857L9.95123 16.857C10.1596 17.057 10.6846 17.2237 11.1512 17.2237H14.3179C15.0679 17.2237 15.8762 16.6237 16.0429 15.9487L18.0596 9.82367C18.1929 9.45701 18.1679 9.12367 17.9929 8.88201C17.8096 8.62367 17.4762 8.47367 17.0679 8.47367H13.7346C13.3012 8.47367 12.9012 8.29034 12.6262 7.97367C12.3429 7.64867 12.2179 7.21534 12.2846 6.76534L12.7012 4.09034C12.8012 3.62367 12.4846 3.09867 12.0346 2.94867C11.6262 2.79867 11.1012 3.01534 10.9179 3.28201L7.50123 8.36534L6.4679 7.67367L9.88456 2.59034C10.4096 1.80701 11.5596 1.43201 12.4596 1.77367C13.5012 2.11534 14.1679 3.26534 13.9346 4.33201L13.5262 6.95701C13.5179 7.01534 13.5179 7.09867 13.5762 7.16534C13.6179 7.20701 13.6762 7.23201 13.7429 7.23201H17.0762C17.8929 7.23201 18.6012 7.57367 19.0179 8.16534C19.4262 8.74034 19.5096 9.49867 19.2429 10.232L17.2512 16.2987C16.9429 17.507 15.6596 18.482 14.3179 18.482Z" fill="#8D9290"/>
<path d="M5.2345 17.5653H4.40116C2.8595 17.5653 2.1095 16.8403 2.1095 15.3569V7.19027C2.1095 5.70693 2.8595 4.98193 4.40116 4.98193H5.2345C6.77616 4.98193 7.52616 5.70693 7.52616 7.19027V15.3569C7.52616 16.8403 6.77616 17.5653 5.2345 17.5653ZM4.40116 6.23193C3.49283 6.23193 3.3595 6.4486 3.3595 7.19027V15.3569C3.3595 16.0986 3.49283 16.3153 4.40116 16.3153H5.2345C6.14283 16.3153 6.27616 16.0986 6.27616 15.3569V7.19027C6.27616 6.4486 6.14283 6.23193 5.2345 6.23193H4.40116Z" fill="#8D9290"/>
</svg>
