<svg width="21" height="20" viewBox="0 0 21 20" fill="none" xmlns="http://www.w3.org/2000/svg">
<mask id="mask0_1787_37218" style="mask-type:alpha" maskUnits="userSpaceOnUse" x="0" y="0" width="21" height="20">
<rect x="0.375" width="20" height="20" fill="#D9D9D9"/>
</mask>
<g mask="url(#mask0_1787_37218)">
<path d="M6.20898 17.5C5.75065 17.5 5.35829 17.3368 5.0319 17.0104C4.70551 16.684 4.54232 16.2917 4.54232 15.8333V5H3.70898V3.33333H7.87565V2.5H12.8757V3.33333H17.0423V5H16.209V15.8333C16.209 16.2917 16.0458 16.684 15.7194 17.0104C15.393 17.3368 15.0007 17.5 14.5423 17.5H6.20898ZM14.5423 5H6.20898V15.8333H14.5423V5ZM7.87565 14.1667H9.54232V6.66667H7.87565V14.1667ZM11.209 14.1667H12.8757V6.66667H11.209V14.1667Z" fill="#737876"/>
</g>
</svg>
