<svg width="20" height="20" viewBox="0 0 20 20" fill="none" xmlns="http://www.w3.org/2000/svg">
<path d="M8.99163 12.6417C8.82497 12.6417 8.66663 12.575 8.54997 12.4583L6.5333 10.4417C6.29163 10.2 6.29163 9.79999 6.5333 9.55833C6.77497 9.31666 7.17497 9.31666 7.41663 9.55833L8.99163 11.1333L12.575 7.54999C12.8166 7.30833 13.2166 7.30833 13.4583 7.54999C13.7 7.79166 13.7 8.19166 13.4583 8.43333L9.4333 12.4583C9.31663 12.575 9.1583 12.6417 8.99163 12.6417Z" fill="#00894C"/>
<path d="M9.99994 18.9583C9.47494 18.9583 8.94994 18.7833 8.54161 18.4333L7.22494 17.3C7.09161 17.1833 6.75828 17.0667 6.58328 17.0667H5.14994C3.91661 17.0667 2.91661 16.0667 2.91661 14.8333V13.4083C2.91661 13.2333 2.79994 12.9083 2.68328 12.775L1.55828 11.45C0.874943 10.6417 0.874943 9.36666 1.55828 8.55832L2.68328 7.23332C2.79994 7.09999 2.91661 6.77499 2.91661 6.59999V5.16666C2.91661 3.93332 3.91661 2.93332 5.14994 2.93332H6.59161C6.76661 2.93332 7.09994 2.80832 7.23328 2.69999L8.54994 1.56666C9.36661 0.866656 10.6416 0.866656 11.4583 1.56666L12.7749 2.69999C12.9083 2.81666 13.2416 2.93332 13.4166 2.93332H14.8333C16.0666 2.93332 17.0666 3.93332 17.0666 5.16666V6.58332C17.0666 6.75832 17.1916 7.09166 17.3083 7.22499L18.4416 8.54166C19.1416 9.35832 19.1416 10.6333 18.4416 11.45L17.3083 12.7667C17.1916 12.9 17.0666 13.2333 17.0666 13.4083V14.825C17.0666 16.0583 16.0666 17.0583 14.8333 17.0583H13.4166C13.2416 17.0583 12.9083 17.1833 12.7749 17.2917L11.4583 18.425C11.0499 18.7833 10.5249 18.9583 9.99994 18.9583ZM5.14994 4.18332C4.60828 4.18332 4.16661 4.62499 4.16661 5.16666V6.59166C4.16661 7.06666 3.94161 7.67499 3.63328 8.03332L2.50828 9.35832C2.21661 9.69999 2.21661 10.2917 2.50828 10.6333L3.63328 11.9583C3.94161 12.325 4.16661 12.925 4.16661 13.4V14.825C4.16661 15.3667 4.60828 15.8083 5.14994 15.8083H6.59161C7.07494 15.8083 7.68328 16.0333 8.04994 16.35L9.36661 17.4833C9.70828 17.775 10.3083 17.775 10.6499 17.4833L11.9666 16.35C12.3333 16.0417 12.9416 15.8083 13.4249 15.8083H14.8416C15.3833 15.8083 15.8249 15.3667 15.8249 14.825V13.4083C15.8249 12.925 16.0499 12.3167 16.3666 11.95L17.4999 10.6333C17.7916 10.2917 17.7916 9.69166 17.4999 9.34999L16.3666 8.03332C16.0499 7.66666 15.8249 7.05832 15.8249 6.57499V5.16666C15.8249 4.62499 15.3833 4.18332 14.8416 4.18332H13.4249C12.9416 4.18332 12.3333 3.95832 11.9666 3.64166L10.6499 2.50832C10.3083 2.21666 9.70828 2.21666 9.36661 2.50832L8.04994 3.64999C7.68328 3.95832 7.06661 4.18332 6.59161 4.18332H5.14994Z" fill="#00894C"/>
</svg>
