<svg width="16" height="17" viewBox="0 0 16 17" fill="none" xmlns="http://www.w3.org/2000/svg">
<g id="vuesax/outline/heart">
<g id="vuesax/outline/heart_2">
<g id="heart">
<path id="Vector" d="M7.99998 14.9336C7.79331 14.9336 7.59331 14.9069 7.42665 14.8469C4.87998 13.9736 0.833313 10.8736 0.833313 6.29356C0.833313 3.96023 2.71998 2.06689 5.03998 2.06689C6.16665 2.06689 7.21998 2.50689 7.99998 3.29356C8.77998 2.50689 9.83331 2.06689 10.96 2.06689C13.28 2.06689 15.1666 3.96689 15.1666 6.29356C15.1666 10.8802 11.12 13.9736 8.57331 14.8469C8.40665 14.9069 8.20665 14.9336 7.99998 14.9336ZM5.03998 3.06689C3.27331 3.06689 1.83331 4.51356 1.83331 6.29356C1.83331 10.8469 6.21331 13.3802 7.75331 13.9069C7.87331 13.9469 8.13331 13.9469 8.25331 13.9069C9.78665 13.3802 14.1733 10.8536 14.1733 6.29356C14.1733 4.51356 12.7333 3.06689 10.9666 3.06689C9.95331 3.06689 9.01331 3.54023 8.40665 4.36023C8.21998 4.61356 7.79331 4.61356 7.60665 4.36023C6.98665 3.53356 6.05331 3.06689 5.03998 3.06689Z" fill="#001F23"/>
</g>
</g>
</g>
</svg>
