<svg width="24" height="24" viewBox="0 0 24 24" fill="none" xmlns="http://www.w3.org/2000/svg">
<path d="M0 12C0 18.6274 5.37258 24 12 24C18.6274 24 24 18.6274 24 12C24 5.37258 18.6274 0 12 0C5.37258 0 0 5.37258 0 12Z" fill="#F00073"/>
<path d="M12.0004 6.90002C13.6504 6.90002 13.8754 6.90002 14.5504 6.90002C15.1504 6.90002 15.4504 7.05002 15.6754 7.12502C15.9754 7.27502 16.2004 7.35002 16.4254 7.57502C16.6504 7.80002 16.8004 8.02502 16.8754 8.32502C16.9504 8.55002 17.0254 8.85002 17.1004 9.45002C17.1004 10.125 17.1004 10.275 17.1004 12C17.1004 13.725 17.1004 13.875 17.1004 14.55C17.1004 15.15 16.9504 15.45 16.8754 15.675C16.7254 15.975 16.6504 16.2 16.4254 16.425C16.2004 16.65 15.9754 16.8 15.6754 16.875C15.4504 16.95 15.1504 17.025 14.5504 17.1C13.8754 17.1 13.7254 17.1 12.0004 17.1C10.2754 17.1 10.1254 17.1 9.45039 17.1C8.85039 17.1 8.55039 16.95 8.32539 16.875C8.02539 16.725 7.80039 16.65 7.57539 16.425C7.35039 16.2 7.20039 15.975 7.12539 15.675C7.05039 15.45 6.97539 15.15 6.90039 14.55C6.90039 13.875 6.90039 13.725 6.90039 12C6.90039 10.275 6.90039 10.125 6.90039 9.45002C6.90039 8.85002 7.05039 8.55002 7.12539 8.32502C7.27539 8.02502 7.35039 7.80002 7.57539 7.57502C7.80039 7.35002 8.02539 7.20002 8.32539 7.12502C8.55039 7.05002 8.85039 6.97502 9.45039 6.90002C10.1254 6.90002 10.3504 6.90002 12.0004 6.90002ZM12.0004 5.77502C10.2754 5.77502 10.1254 5.77502 9.45039 5.77502C8.77539 5.77502 8.32539 5.92502 7.95039 6.07502C7.57539 6.22502 7.20039 6.45002 6.82539 6.82502C6.45039 7.20002 6.30039 7.50002 6.07539 7.95002C5.92539 8.32502 5.85039 8.77502 5.77539 9.45002C5.77539 10.125 5.77539 10.35 5.77539 12C5.77539 13.725 5.77539 13.875 5.77539 14.55C5.77539 15.225 5.92539 15.675 6.07539 16.05C6.22539 16.425 6.45039 16.8 6.82539 17.175C7.20039 17.55 7.50039 17.7 7.95039 17.925C8.32539 18.075 8.77539 18.15 9.45039 18.225C10.1254 18.225 10.3504 18.225 12.0004 18.225C13.6504 18.225 13.8754 18.225 14.5504 18.225C15.2254 18.225 15.6754 18.075 16.0504 17.925C16.4254 17.775 16.8004 17.55 17.1754 17.175C17.5504 16.8 17.7004 16.5 17.9254 16.05C18.0754 15.675 18.1504 15.225 18.2254 14.55C18.2254 13.875 18.2254 13.65 18.2254 12C18.2254 10.35 18.2254 10.125 18.2254 9.45002C18.2254 8.77502 18.0754 8.32502 17.9254 7.95002C17.7754 7.57502 17.5504 7.20002 17.1754 6.82502C16.8004 6.45002 16.5004 6.30002 16.0504 6.07502C15.6754 5.92502 15.2254 5.85002 14.5504 5.77502C13.8754 5.77502 13.7254 5.77502 12.0004 5.77502Z" fill="white"/>
<path d="M12.0004 8.77502C10.2004 8.77502 8.77539 10.2 8.77539 12C8.77539 13.8 10.2004 15.225 12.0004 15.225C13.8004 15.225 15.2254 13.8 15.2254 12C15.2254 10.2 13.8004 8.77502 12.0004 8.77502ZM12.0004 14.1C10.8754 14.1 9.90039 13.2 9.90039 12C9.90039 10.875 10.8004 9.90002 12.0004 9.90002C13.1254 9.90002 14.1004 10.8 14.1004 12C14.1004 13.125 13.1254 14.1 12.0004 14.1Z" fill="white"/>
<path d="M15.3004 9.45002C15.7146 9.45002 16.0504 9.11424 16.0504 8.70002C16.0504 8.28581 15.7146 7.95002 15.3004 7.95002C14.8862 7.95002 14.5504 8.28581 14.5504 8.70002C14.5504 9.11424 14.8862 9.45002 15.3004 9.45002Z" fill="white"/>
</svg>
