<svg width="395" height="75" viewBox="0 0 395 75" fill="none" xmlns="http://www.w3.org/2000/svg">
<path d="M56.4259 6.24872H6.07664C4.46501 6.24872 2.9194 6.88893 1.77981 8.02852C0.640216 9.16811 0 10.7137 0 12.3254V62.6746C0 64.2862 0.640216 65.8319 1.77981 66.9715C2.9194 68.111 4.46501 68.7513 6.07664 68.7513H56.4259C58.0375 68.7513 59.5831 68.111 60.7227 66.9715C61.8623 65.8319 62.5025 64.2862 62.5025 62.6746V12.3254C62.5025 10.7137 61.8623 9.16811 60.7227 8.02852C59.5831 6.88893 58.0375 6.24872 56.4259 6.24872ZM48.9195 43.7763V48.411C48.8758 48.8544 48.6823 49.2696 48.371 49.5882C48.0596 49.9068 47.649 50.1098 47.2068 50.1637L21.0382 50.1654C19.1006 50.1654 17.4486 49.5404 16.084 48.293C14.7202 47.0446 14.0379 45.535 14.0379 43.7607C14.0379 42.3491 14.4989 41.0948 15.4216 39.9888C16.3453 38.8863 17.5146 38.1189 18.9296 37.6832L41.796 31.149H14.0388V26.7252C14.0454 26.2822 14.2015 25.8545 14.4819 25.5114C14.7622 25.1684 15.1503 24.9301 15.5831 24.8354H41.9192C43.8568 24.8354 45.5071 25.4552 46.8717 26.6923C48.2363 27.931 48.9195 29.4094 48.9195 31.1299C48.9195 32.5666 48.4542 33.8306 47.5245 34.9244C46.5948 36.0199 45.3985 36.7829 43.9358 37.2118L21.0382 43.7763H48.9195Z" fill="#009254"/>
<path d="M88.502 57V56.175L102.802 35.275H89.952V30H112.177V30.85L97.927 51.725H111.577V57H88.502ZM128.037 57.775C126.037 57.775 124.387 57.4417 123.087 56.775C121.787 56.1083 120.754 55.2583 119.987 54.225C119.22 53.1917 118.654 52.0917 118.287 50.925C117.92 49.7583 117.679 48.6583 117.562 47.625C117.462 46.575 117.412 45.725 117.412 45.075V30H123.512V43C123.512 43.8333 123.57 44.775 123.687 45.825C123.804 46.8583 124.07 47.8583 124.487 48.825C124.92 49.775 125.554 50.5583 126.387 51.175C127.237 51.7917 128.379 52.1 129.812 52.1C130.579 52.1 131.337 51.975 132.087 51.725C132.837 51.475 133.512 51.05 134.112 50.45C134.729 49.8333 135.22 48.9917 135.587 47.925C135.954 46.8583 136.137 45.5083 136.137 43.875L139.712 45.4C139.712 47.7 139.262 49.7833 138.362 51.65C137.479 53.5167 136.17 55.0083 134.437 56.125C132.704 57.225 130.57 57.775 128.037 57.775ZM136.862 57V48.625H136.137V30H142.187V57H136.862ZM149.461 57V30H154.786V36.575L154.136 35.725C154.469 34.825 154.911 34.0083 155.461 33.275C156.028 32.525 156.703 31.9083 157.486 31.425C158.153 30.975 158.886 30.625 159.686 30.375C160.503 30.1083 161.336 29.95 162.186 29.9C163.036 29.8333 163.861 29.8667 164.661 30V35.625C163.861 35.3917 162.936 35.3167 161.886 35.4C160.853 35.4833 159.919 35.775 159.086 36.275C158.253 36.725 157.569 37.3 157.036 38C156.519 38.7 156.136 39.5 155.886 40.4C155.636 41.2833 155.511 42.2417 155.511 43.275V57H149.461ZM170.182 25.9V20.375H176.207V25.9H170.182ZM170.182 57V30H176.207V57H170.182ZM196.92 57.75C194.287 57.75 192.079 57.125 190.295 55.875C188.512 54.625 187.17 52.925 186.27 50.775C185.37 48.6083 184.92 46.1833 184.92 43.5C184.92 40.7833 185.37 38.35 186.27 36.2C187.17 34.05 188.487 32.3583 190.22 31.125C191.97 29.875 194.129 29.25 196.695 29.25C199.245 29.25 201.454 29.875 203.32 31.125C205.204 32.3583 206.662 34.05 207.695 36.2C208.729 38.3333 209.245 40.7667 209.245 43.5C209.245 46.2 208.737 48.625 207.72 50.775C206.704 52.925 205.27 54.625 203.42 55.875C201.57 57.125 199.404 57.75 196.92 57.75ZM183.895 69V30H189.22V48.95H189.97V69H183.895ZM195.995 52.35C197.562 52.35 198.854 51.9583 199.87 51.175C200.887 50.3917 201.637 49.3333 202.12 48C202.62 46.65 202.87 45.15 202.87 43.5C202.87 41.8667 202.62 40.3833 202.12 39.05C201.62 37.7 200.845 36.6333 199.795 35.85C198.745 35.05 197.412 34.65 195.795 34.65C194.262 34.65 193.012 35.025 192.045 35.775C191.079 36.5083 190.362 37.5417 189.895 38.875C189.445 40.1917 189.22 41.7333 189.22 43.5C189.22 45.25 189.445 46.7917 189.895 48.125C190.362 49.4583 191.087 50.5 192.07 51.25C193.07 51.9833 194.379 52.35 195.995 52.35ZM226.931 57.75C224.231 57.75 221.873 57.1417 219.856 55.925C217.839 54.7083 216.273 53.0333 215.156 50.9C214.056 48.75 213.506 46.2833 213.506 43.5C213.506 40.6667 214.073 38.1833 215.206 36.05C216.339 33.9167 217.914 32.25 219.931 31.05C221.948 29.85 224.281 29.25 226.931 29.25C229.648 29.25 232.014 29.8583 234.031 31.075C236.048 32.2917 237.614 33.975 238.731 36.125C239.848 38.2583 240.406 40.7167 240.406 43.5C240.406 46.3 239.839 48.775 238.706 50.925C237.589 53.0583 236.023 54.7333 234.006 55.95C231.989 57.15 229.631 57.75 226.931 57.75ZM226.931 52.1C229.331 52.1 231.114 51.3 232.281 49.7C233.448 48.1 234.031 46.0333 234.031 43.5C234.031 40.8833 233.439 38.8 232.256 37.25C231.073 35.6833 229.298 34.9 226.931 34.9C225.314 34.9 223.981 35.2667 222.931 36C221.898 36.7167 221.131 37.725 220.631 39.025C220.131 40.3083 219.881 41.8 219.881 43.5C219.881 46.1167 220.473 48.2083 221.656 49.775C222.856 51.325 224.614 52.1 226.931 52.1ZM246.164 57V30H251.489V36.575L250.839 35.725C251.172 34.825 251.614 34.0083 252.164 33.275C252.731 32.525 253.406 31.9083 254.189 31.425C254.856 30.975 255.589 30.625 256.389 30.375C257.206 30.1083 258.039 29.95 258.889 29.9C259.739 29.8333 260.564 29.8667 261.364 30V35.625C260.564 35.3917 259.639 35.3167 258.589 35.4C257.556 35.4833 256.622 35.775 255.789 36.275C254.956 36.725 254.272 37.3 253.739 38C253.222 38.7 252.839 39.5 252.589 40.4C252.339 41.2833 252.214 42.2417 252.214 43.275V57H246.164ZM282.21 57C280.426 57.3333 278.676 57.475 276.96 57.425C275.26 57.3917 273.735 57.0833 272.385 56.5C271.035 55.9 270.01 54.9583 269.31 53.675C268.693 52.5083 268.368 51.3167 268.335 50.1C268.301 48.8833 268.285 47.5083 268.285 45.975V22.5H274.285V45.625C274.285 46.7083 274.293 47.6583 274.31 48.475C274.343 49.2917 274.518 49.9583 274.835 50.475C275.435 51.475 276.393 52.0333 277.71 52.15C279.026 52.2667 280.526 52.2 282.21 51.95V57ZM263.385 34.725V30H282.21V34.725H263.385ZM290.616 57V29.575C290.616 28.8917 290.641 28.1417 290.691 27.325C290.741 26.4917 290.882 25.6667 291.116 24.85C291.349 24.0333 291.774 23.2917 292.391 22.625C293.157 21.775 293.982 21.1917 294.866 20.875C295.766 20.5417 296.649 20.3583 297.516 20.325C298.382 20.275 299.141 20.25 299.791 20.25H303.166V25.15H300.041C298.891 25.15 298.032 25.4417 297.466 26.025C296.916 26.5917 296.641 27.3417 296.641 28.275V57H290.616ZM286.266 34.725V30H303.166V34.725H286.266ZM318.361 57.75C315.661 57.75 313.302 57.1417 311.286 55.925C309.269 54.7083 307.702 53.0333 306.586 50.9C305.486 48.75 304.936 46.2833 304.936 43.5C304.936 40.6667 305.502 38.1833 306.636 36.05C307.769 33.9167 309.344 32.25 311.361 31.05C313.377 29.85 315.711 29.25 318.361 29.25C321.077 29.25 323.444 29.8583 325.461 31.075C327.477 32.2917 329.044 33.975 330.161 36.125C331.277 38.2583 331.836 40.7167 331.836 43.5C331.836 46.3 331.269 48.775 330.136 50.925C329.019 53.0583 327.452 54.7333 325.436 55.95C323.419 57.15 321.061 57.75 318.361 57.75ZM318.361 52.1C320.761 52.1 322.544 51.3 323.711 49.7C324.877 48.1 325.461 46.0333 325.461 43.5C325.461 40.8833 324.869 38.8 323.686 37.25C322.502 35.6833 320.727 34.9 318.361 34.9C316.744 34.9 315.411 35.2667 314.361 36C313.327 36.7167 312.561 37.725 312.061 39.025C311.561 40.3083 311.311 41.8 311.311 43.5C311.311 46.1167 311.902 48.2083 313.086 49.775C314.286 51.325 316.044 52.1 318.361 52.1ZM338.094 57V20.25H344.119V57H338.094ZM352.357 25.9V20.375H358.382V25.9H352.357ZM352.357 57V30H358.382V57H352.357ZM378.046 57.75C375.346 57.75 372.988 57.1417 370.971 55.925C368.954 54.7083 367.388 53.0333 366.271 50.9C365.171 48.75 364.621 46.2833 364.621 43.5C364.621 40.6667 365.188 38.1833 366.321 36.05C367.454 33.9167 369.029 32.25 371.046 31.05C373.063 29.85 375.396 29.25 378.046 29.25C380.763 29.25 383.129 29.8583 385.146 31.075C387.163 32.2917 388.729 33.975 389.846 36.125C390.963 38.2583 391.521 40.7167 391.521 43.5C391.521 46.3 390.954 48.775 389.821 50.925C388.704 53.0583 387.138 54.7333 385.121 55.95C383.104 57.15 380.746 57.75 378.046 57.75ZM378.046 52.1C380.446 52.1 382.229 51.3 383.396 49.7C384.563 48.1 385.146 46.0333 385.146 43.5C385.146 40.8833 384.554 38.8 383.371 37.25C382.188 35.6833 380.413 34.9 378.046 34.9C376.429 34.9 375.096 35.2667 374.046 36C373.013 36.7167 372.246 37.725 371.746 39.025C371.246 40.3083 370.996 41.8 370.996 43.5C370.996 46.1167 371.588 48.2083 372.771 49.775C373.971 51.325 375.729 52.1 378.046 52.1Z" fill="#009254"/>
</svg>
