<svg width="126" height="24" viewBox="0 0 126 24" fill="none" xmlns="http://www.w3.org/2000/svg">
<path d="M18.5161 2.09863H2.56393C2.05332 2.09863 1.56362 2.30147 1.20257 2.66253C0.841511 3.02358 0.638672 3.51328 0.638672 4.02389V19.976C0.638672 20.4866 0.841511 20.9763 1.20257 21.3374C1.56362 21.6985 2.05332 21.9013 2.56393 21.9013H18.5161C19.0267 21.9013 19.5164 21.6985 19.8774 21.3374C20.2385 20.9763 20.4413 20.4866 20.4413 19.976V4.02389C20.4413 3.51328 20.2385 3.02358 19.8774 2.66253C19.5164 2.30147 19.0267 2.09863 18.5161 2.09863ZM16.1378 13.9885V15.4569C16.124 15.5974 16.0627 15.7289 15.964 15.8299C15.8654 15.9308 15.7353 15.9951 15.5952 16.0122L7.30419 16.0127C6.69031 16.0127 6.16691 15.8147 5.73456 15.4195C5.30247 15.024 5.08629 14.5457 5.08629 13.9835C5.08629 13.5363 5.23234 13.1389 5.5247 12.7885C5.81734 12.4392 6.18782 12.1961 6.63613 12.058L13.8809 9.98779H5.08657V8.5862C5.08866 8.44585 5.13813 8.31032 5.22695 8.20163C5.31578 8.09293 5.43873 8.01745 5.57586 7.98745H13.9199C14.5338 7.98745 15.0567 8.18382 15.489 8.57575C15.9214 8.96823 16.1378 9.43662 16.1378 9.98174C16.1378 10.4369 15.9904 10.8374 15.6958 11.1839C15.4013 11.531 15.0223 11.7728 14.5588 11.9086L7.30419 13.9885H16.1378Z" fill="white"/>
<path d="M28.6782 18V17.7386L33.2088 11.1169H29.1376V9.4456H36.1791V9.7149L31.6643 16.3287H35.989V18H28.6782ZM41.2041 18.2455C40.5704 18.2455 40.0476 18.1399 39.6358 17.9287C39.2239 17.7175 38.8965 17.4482 38.6536 17.1208C38.4107 16.7934 38.2312 16.4449 38.115 16.0753C37.9988 15.7056 37.9222 15.3571 37.8853 15.0297C37.8536 14.6971 37.8378 14.4277 37.8378 14.2218V9.4456H39.7704V13.5644C39.7704 13.8284 39.7889 14.1268 39.8259 14.4594C39.8628 14.7868 39.9473 15.1036 40.0793 15.4099C40.2166 15.7109 40.4173 15.9591 40.6813 16.1545C40.9506 16.3498 41.3123 16.4475 41.7664 16.4475C42.0093 16.4475 42.2496 16.4079 42.4872 16.3287C42.7249 16.2495 42.9387 16.1149 43.1288 15.9248C43.3242 15.7294 43.48 15.4627 43.5961 15.1248C43.7123 14.7868 43.7704 14.3591 43.7704 13.8416L44.9031 14.3248C44.9031 15.0535 44.7605 15.7135 44.4753 16.305C44.1955 16.8964 43.7809 17.369 43.2318 17.7228C42.6826 18.0713 42.0067 18.2455 41.2041 18.2455ZM44.0001 18V15.3466H43.7704V9.4456H45.6872V18H44.0001ZM47.9918 18V9.4456H49.6789V11.5288L49.473 11.2594C49.5786 10.9743 49.7185 10.7156 49.8927 10.4832C50.0723 10.2456 50.2861 10.0502 50.5343 9.89708C50.7455 9.75451 50.9779 9.64362 51.2314 9.56441C51.4901 9.47992 51.7541 9.42976 52.0234 9.41392C52.2927 9.39279 52.5541 9.40335 52.8076 9.4456V11.2278C52.5541 11.1538 52.2611 11.1301 51.9284 11.1565C51.601 11.1829 51.3053 11.2753 51.0413 11.4337C50.7772 11.5763 50.5607 11.7585 50.3918 11.9802C50.2281 12.202 50.1066 12.4555 50.0274 12.7406C49.9482 13.0205 49.9086 13.3241 49.9086 13.6515V18H47.9918ZM54.5567 8.1466V6.39611H56.4656V8.1466H54.5567ZM54.5567 18V9.4456H56.4656V18H54.5567ZM63.0283 18.2376C62.194 18.2376 61.4943 18.0396 60.9293 17.6436C60.3643 17.2475 59.9392 16.7089 59.6541 16.0277C59.3689 15.3413 59.2264 14.573 59.2264 13.7228C59.2264 12.8621 59.3689 12.0911 59.6541 11.4099C59.9392 10.7288 60.3564 10.1928 60.9056 9.80203C61.46 9.406 62.1438 9.20798 62.957 9.20798C63.7649 9.20798 64.4646 9.406 65.056 9.80203C65.6527 10.1928 66.1148 10.7288 66.4422 11.4099C66.7695 12.0858 66.9332 12.8568 66.9332 13.7228C66.9332 14.5782 66.7722 15.3466 66.4501 16.0277C66.128 16.7089 65.6738 17.2475 65.0877 17.6436C64.5016 18.0396 63.8151 18.2376 63.0283 18.2376ZM58.9016 21.802V9.4456H60.5887V15.4495H60.8263V21.802H58.9016ZM62.7352 16.5267C63.2316 16.5267 63.6408 16.4027 63.963 16.1545C64.2851 15.9063 64.5227 15.571 64.6758 15.1485C64.8342 14.7208 64.9134 14.2456 64.9134 13.7228C64.9134 13.2053 64.8342 12.7353 64.6758 12.3129C64.5174 11.8852 64.2719 11.5472 63.9392 11.2991C63.6065 11.0456 63.1841 10.9189 62.6719 10.9189C62.1861 10.9189 61.79 11.0377 61.4838 11.2753C61.1775 11.5076 60.9504 11.835 60.8026 12.2575C60.66 12.6746 60.5887 13.1631 60.5887 13.7228C60.5887 14.2773 60.66 14.7657 60.8026 15.1881C60.9504 15.6106 61.1801 15.9406 61.4917 16.1782C61.8085 16.4106 62.223 16.5267 62.7352 16.5267ZM72.5365 18.2376C71.6811 18.2376 70.9339 18.0449 70.295 17.6594C69.656 17.2739 69.1597 16.7432 68.8059 16.0673C68.4574 15.3862 68.2831 14.6046 68.2831 13.7228C68.2831 12.8251 68.4626 12.0383 68.8217 11.3624C69.1808 10.6865 69.6798 10.1585 70.3187 9.77827C70.9577 9.39807 71.6969 9.20798 72.5365 9.20798C73.3973 9.20798 74.1471 9.40071 74.786 9.78619C75.425 10.1717 75.9213 10.705 76.2751 11.3862C76.6289 12.0621 76.8058 12.841 76.8058 13.7228C76.8058 14.6099 76.6263 15.3941 76.2672 16.0753C75.9134 16.7512 75.4171 17.2819 74.7781 17.6673C74.1392 18.0475 73.392 18.2376 72.5365 18.2376ZM72.5365 16.4475C73.2969 16.4475 73.8619 16.1941 74.2316 15.6871C74.6012 15.1802 74.786 14.5254 74.786 13.7228C74.786 12.8938 74.5986 12.2337 74.2237 11.7426C73.8487 11.2462 73.2864 10.9981 72.5365 10.9981C72.0243 10.9981 71.6019 11.1142 71.2692 11.3466C70.9418 11.5736 70.6989 11.8931 70.5405 12.305C70.3821 12.7116 70.3029 13.1842 70.3029 13.7228C70.3029 14.5518 70.4904 15.2145 70.8653 15.7109C71.2455 16.202 71.8026 16.4475 72.5365 16.4475ZM78.6302 18V9.4456H80.3173V11.5288L80.1114 11.2594C80.217 10.9743 80.3569 10.7156 80.5312 10.4832C80.7107 10.2456 80.9246 10.0502 81.1727 9.89708C81.384 9.75451 81.6163 9.64362 81.8698 9.56441C82.1285 9.47992 82.3925 9.42976 82.6618 9.41392C82.9312 9.39279 83.1925 9.40335 83.446 9.4456V11.2278C83.1925 11.1538 82.8995 11.1301 82.5668 11.1565C82.2394 11.1829 81.9437 11.2753 81.6797 11.4337C81.4157 11.5763 81.1992 11.7585 81.0302 11.9802C80.8665 12.202 80.745 12.4555 80.6658 12.7406C80.5866 13.0205 80.547 13.3241 80.547 13.6515V18H78.6302ZM90.0505 18C89.4855 18.1056 88.9311 18.1505 88.3872 18.1347C87.8486 18.1241 87.3654 18.0264 86.9377 17.8416C86.51 17.6515 86.1852 17.3531 85.9634 16.9465C85.7681 16.5769 85.6651 16.1994 85.6545 15.8139C85.644 15.4284 85.6387 14.9928 85.6387 14.507V7.06938H87.5397V14.3961C87.5397 14.7393 87.5423 15.0403 87.5476 15.299C87.5581 15.5578 87.6136 15.769 87.7139 15.9327C87.904 16.2495 88.2076 16.4264 88.6248 16.4634C89.042 16.5003 89.5172 16.4792 90.0505 16.4V18ZM84.0862 10.9426V9.4456H90.0505V10.9426H84.0862ZM92.7138 18V9.31095C92.7138 9.09445 92.7217 8.85682 92.7375 8.59808C92.7534 8.33405 92.7983 8.07267 92.8722 7.81393C92.9461 7.55518 93.0808 7.3202 93.2761 7.10898C93.519 6.83967 93.7804 6.65486 94.0603 6.55453C94.3454 6.44892 94.6253 6.39083 94.8999 6.38027C95.1745 6.36443 95.4147 6.35651 95.6207 6.35651H96.69V7.90897H95.6999C95.3355 7.90897 95.0636 8.00138 94.884 8.1862C94.7098 8.36574 94.6227 8.60336 94.6227 8.89907V18H92.7138ZM91.3356 10.9426V9.4456H96.69V10.9426H91.3356ZM101.504 18.2376C100.649 18.2376 99.9015 18.0449 99.2626 17.6594C98.6237 17.2739 98.1273 16.7432 97.7735 16.0673C97.425 15.3862 97.2507 14.6046 97.2507 13.7228C97.2507 12.8251 97.4303 12.0383 97.7894 11.3624C98.1484 10.6865 98.6474 10.1585 99.2864 9.77827C99.9253 9.39807 100.665 9.20798 101.504 9.20798C102.365 9.20798 103.115 9.40071 103.754 9.78619C104.393 10.1717 104.889 10.705 105.243 11.3862C105.597 12.0621 105.773 12.841 105.773 13.7228C105.773 14.6099 105.594 15.3941 105.235 16.0753C104.881 16.7512 104.385 17.2819 103.746 17.6673C103.107 18.0475 102.36 18.2376 101.504 18.2376ZM101.504 16.4475C102.265 16.4475 102.83 16.1941 103.199 15.6871C103.569 15.1802 103.754 14.5254 103.754 13.7228C103.754 12.8938 103.566 12.2337 103.191 11.7426C102.816 11.2462 102.254 10.9981 101.504 10.9981C100.992 10.9981 100.57 11.1142 100.237 11.3466C99.9095 11.5736 99.6666 11.8931 99.5082 12.305C99.3497 12.7116 99.2705 13.1842 99.2705 13.7228C99.2705 14.5518 99.458 15.2145 99.8329 15.7109C100.213 16.202 100.77 16.4475 101.504 16.4475ZM107.756 18V6.35651H109.665V18H107.756ZM112.275 8.1466V6.39611H114.184V8.1466H112.275ZM112.275 18V9.4456H114.184V18H112.275ZM120.414 18.2376C119.559 18.2376 118.812 18.0449 118.173 17.6594C117.534 17.2739 117.037 16.7432 116.684 16.0673C116.335 15.3862 116.161 14.6046 116.161 13.7228C116.161 12.8251 116.34 12.0383 116.7 11.3624C117.059 10.6865 117.558 10.1585 118.197 9.77827C118.835 9.39807 119.575 9.20798 120.414 9.20798C121.275 9.20798 122.025 9.40071 122.664 9.78619C123.303 10.1717 123.799 10.705 124.153 11.3862C124.507 12.0621 124.684 12.841 124.684 13.7228C124.684 14.6099 124.504 15.3941 124.145 16.0753C123.791 16.7512 123.295 17.2819 122.656 17.6673C122.017 18.0475 121.27 18.2376 120.414 18.2376ZM120.414 16.4475C121.175 16.4475 121.74 16.1941 122.109 15.6871C122.479 15.1802 122.664 14.5254 122.664 13.7228C122.664 12.8938 122.476 12.2337 122.101 11.7426C121.727 11.2462 121.164 10.9981 120.414 10.9981C119.902 10.9981 119.48 11.1142 119.147 11.3466C118.82 11.5736 118.577 11.8931 118.418 12.305C118.26 12.7116 118.181 13.1842 118.181 13.7228C118.181 14.5518 118.368 15.2145 118.743 15.7109C119.123 16.202 119.68 16.4475 120.414 16.4475Z" fill="white"/>
</svg>
