<svg xmlns="http://www.w3.org/2000/svg" xmlns:xlink="http://www.w3.org/1999/xlink" width="433" zoomAndPan="magnify" viewBox="0 0 324.75 326.250004" height="435" preserveAspectRatio="xMidYMid meet" version="1.0"><defs><g/><clipPath id="b765d33bea"><path d="M 0.328125 2 L 323.832031 2 L 323.832031 126 L 0.328125 126 Z M 0.328125 2 " clip-rule="nonzero"/></clipPath><clipPath id="54a2b33043"><path d="M 5 121.011719 L 323.832031 121.011719 L 323.832031 191.789062 L 5 191.789062 Z M 5 121.011719 " clip-rule="nonzero"/></clipPath><clipPath id="f36cc228cb"><path d="M 0.328125 122 L 144 122 L 144 321 L 0.328125 321 Z M 0.328125 122 " clip-rule="nonzero"/></clipPath><clipPath id="69f0351c23"><path d="M 184.21875 123.136719 L 323.832031 123.136719 L 323.832031 318.476562 L 184.21875 318.476562 Z M 184.21875 123.136719 " clip-rule="nonzero"/></clipPath><clipPath id="b60994aec5"><path d="M 8 171.261719 L 318.597656 171.261719 L 318.597656 325.5 L 8 325.5 Z M 8 171.261719 " clip-rule="nonzero"/></clipPath><clipPath id="c7b531beca"><path d="M 8 178.339844 L 318.597656 178.339844 L 318.597656 325.5 L 8 325.5 Z M 8 178.339844 " clip-rule="nonzero"/></clipPath></defs><g fill="#000000" fill-opacity="1"><g transform="translate(157.608394, 267.020568)"><g><path d="M 4.453125 0.171875 C 3.828125 0.171875 3.332031 -0.00390625 2.96875 -0.359375 C 2.601562 -0.710938 2.421875 -1.1875 2.421875 -1.78125 C 2.421875 -2.351562 2.601562 -2.820312 2.96875 -3.1875 C 3.332031 -3.5625 3.828125 -3.75 4.453125 -3.75 C 5.097656 -3.75 5.601562 -3.570312 5.96875 -3.21875 C 6.332031 -2.863281 6.515625 -2.394531 6.515625 -1.8125 C 6.515625 -1.21875 6.328125 -0.738281 5.953125 -0.375 C 5.585938 -0.0078125 5.085938 0.171875 4.453125 0.171875 Z M 4.453125 0.171875 "/></g></g></g><g clip-path="url(#b765d33bea)"><path fill="#fa9a23" d="M 320.660156 114.066406 C 319.699219 113.0625 318.523438 112.027344 317.117188 110.964844 L 307.992188 104.046875 L 181.324219 8.117188 C 170.742188 0.105469 153.433594 0.105469 142.851562 8.117188 L 16.183594 104.046875 L 7.054688 110.964844 C 5.648438 112.027344 4.472656 113.0625 3.519531 114.066406 C 2.160156 116.335938 1.191406 118.855469 0.703125 121.550781 C 1.792969 124.007812 5.625 125.527344 12.023438 125.527344 L 312.152344 125.527344 C 318.554688 125.527344 322.382812 124.007812 323.472656 121.550781 C 322.988281 118.855469 322.015625 116.335938 320.660156 114.066406 " fill-opacity="1" fill-rule="nonzero"/></g><g clip-path="url(#54a2b33043)"><path fill="#fa9a23" d="M 323.746094 123.515625 C 323.6875 122.847656 323.585938 122.195312 323.472656 121.550781 C 322.382812 124.007812 318.554688 125.527344 312.152344 125.527344 L 12.023438 125.527344 C 9.277344 125.527344 7.003906 125.25 5.21875 124.734375 L 165.371094 191.695312 L 323.746094 123.515625 " fill-opacity="1" fill-rule="nonzero"/></g><path fill="#ffffff" d="M 285.1875 227.292969 C 285.1875 234.738281 279.15625 240.785156 271.710938 240.785156 L 47.046875 240.785156 C 39.597656 240.785156 33.5625 234.738281 33.5625 227.292969 L 33.5625 41.820312 C 33.5625 34.371094 39.597656 28.328125 47.046875 28.328125 L 271.710938 28.328125 C 279.15625 28.328125 285.1875 34.371094 285.1875 41.820312 L 285.1875 227.292969 " fill-opacity="1" fill-rule="nonzero"/><path fill="#c4c3c1" d="M 178.421875 108.507812 C 176.648438 108.070312 174.210938 107.625 171.5625 107.625 C 156.953125 107.625 145.449219 122.015625 145.449219 139.066406 C 145.449219 147.480469 149.210938 152.792969 156.511719 152.792969 C 164.703125 152.792969 173.328125 142.390625 175.320312 129.546875 Z M 198.109375 199.953125 C 184.835938 205.933594 173.328125 207.929688 157.398438 207.929688 C 120.664062 207.929688 88.359375 181.574219 88.359375 138.183594 C 88.359375 93.007812 121.332031 53.824219 171.113281 53.824219 C 210.28125 53.824219 238.160156 80.613281 238.160156 117.808594 C 238.160156 150.359375 220.015625 170.726562 196.121094 170.726562 C 185.71875 170.726562 178.199219 165.195312 177.089844 153.679688 L 176.648438 153.679688 C 169.566406 164.75 159.828125 170.726562 147.878906 170.726562 C 133.722656 170.726562 123.097656 159.882812 123.097656 141.722656 C 123.097656 114.488281 143.238281 90.132812 175.09375 90.132812 C 184.835938 90.132812 195.894531 92.566406 201.425781 95.449219 L 194.792969 136.628906 C 192.578125 149.695312 194.128906 155.671875 200.320312 155.894531 C 209.839844 156.335938 221.785156 144.160156 221.785156 118.472656 C 221.785156 89.46875 203.199219 67.332031 168.90625 67.332031 C 134.828125 67.332031 105.398438 93.679688 105.398438 136.191406 C 105.398438 173.382812 128.855469 194.203125 161.824219 194.203125 C 173.109375 194.203125 185.273438 191.765625 194.128906 187.335938 L 198.109375 199.953125 " fill-opacity="1" fill-rule="nonzero"/><g clip-path="url(#f36cc228cb)"><path fill="#fdc00f" d="M 5.21875 124.734375 C 4.265625 124.453125 3.449219 124.117188 2.773438 123.710938 L 0.527344 122.773438 C 0.414062 123.679688 0.328125 124.59375 0.328125 125.527344 L 0.328125 303.136719 C 0.328125 309.851562 3.324219 315.886719 8.027344 320.015625 L 143.28125 182.460938 L 5.21875 124.734375 " fill-opacity="1" fill-rule="nonzero"/></g><g clip-path="url(#69f0351c23)"><path fill="#fdc00f" d="M 323.847656 303.136719 L 323.847656 125.527344 C 323.847656 124.851562 323.808594 124.175781 323.746094 123.515625 L 184.515625 183.457031 L 318.128906 318.042969 C 321.671875 314.0625 323.847656 308.847656 323.847656 303.136719 " fill-opacity="1" fill-rule="nonzero"/></g><g clip-path="url(#b60994aec5)"><path fill="#fa9a23" d="M 184.515625 183.457031 L 179.140625 178.050781 C 170.4375 169.273438 156.21875 169.304688 147.550781 178.125 L 143.28125 182.460938 L 8.027344 320.015625 C 11.988281 323.492188 17.148438 325.617188 22.792969 325.617188 L 301.375 325.617188 C 308.027344 325.617188 314.015625 322.667969 318.128906 318.042969 L 184.515625 183.457031 " fill-opacity="1" fill-rule="nonzero"/></g><g clip-path="url(#c7b531beca)"><path fill="#fdc00f" d="M 184.515625 190.371094 L 179.140625 185.21875 C 170.4375 176.871094 156.21875 176.910156 147.550781 185.289062 L 143.28125 189.421875 L 8.027344 320.289062 C 11.988281 323.589844 17.148438 325.617188 22.792969 325.617188 L 301.375 325.617188 C 308.027344 325.617188 314.015625 322.8125 318.128906 318.40625 L 184.515625 190.371094 " fill-opacity="1" fill-rule="nonzero"/></g></svg>