<?xml version="1.0" encoding="utf-8"?><!-- Uploaded to: SVG Repo, www.svgrepo.com, Generator: SVG Repo Mixer Tools -->
<svg width="800px" height="800px" viewBox="0 0 500 500" fill="none" xmlns="http://www.w3.org/2000/svg">
<path fill-rule="evenodd" clip-rule="evenodd" d="M237.685 263.578C268.085 279.978 302.879 282.927 341.239 274.922L352.053 302.9C304.053 306.562 260.223 302.814 223.466 286.51L237.685 263.574V263.578Z" fill="#FFB83A"/>
<path fill-rule="evenodd" clip-rule="evenodd" d="M222.957 280.636C222.957 280.636 193.377 277.459 176.801 287.908C145.513 307.631 130.193 450.132 130.193 450.132C174.854 476.762 294.813 496.967 339.8 478.063C354.781 491.776 391.948 493.963 407.949 483.113C407.949 483.113 417.391 358.19 407.199 330.564C397.007 302.938 360.599 301.576 360.599 301.576L222.956 280.636H222.957Z" fill="#FFC764"/>
<path fill-rule="evenodd" clip-rule="evenodd" d="M169.888 464.736C180.642 444.358 205.107 441.058 200.697 439.006C190.676 434.345 174.226 450.192 175.973 440.26C178.408 426.427 190.793 417.66 187.188 413.521C182.144 407.73 179.311 407.939 180.852 401.229C185.052 382.951 202.576 378.323 199.952 377.647C193.095 375.879 189.419 371.874 196.314 335.254C189.933 347.271 186.114 374.24 182.338 383.885C178.562 393.53 172.223 385.847 170.572 394.86C168.921 403.873 173.638 407.383 172.104 414.431C170.57 421.479 161.119 408.014 158.618 415.977C156.117 423.94 165.561 438.103 164.041 445.306C162.521 452.509 146.8 463.13 146.8 463.13C146.8 463.13 158.814 464.066 169.892 464.736H169.888Z" fill="#FFB83A"/>
<path fill-rule="evenodd" clip-rule="evenodd" d="M354.88 361.43C354.88 361.43 359.954 375.487 359.801 387.869C359.648 400.469 354.554 410.763 357.801 415.301C361.048 419.839 372.414 405.169 377.829 410.222C382.899 414.949 357.265 413.255 353.829 425.996C352.507 430.905 363.219 423.28 364.99 428.922C366.89 434.971 356.07 430.28 348.612 459.746C346.977 466.778 345.766 473.902 344.986 481.079C343.231 479.944 341.554 478.691 339.969 477.328C337.648 478.24 333.699 479.502 331.829 480.02C333.639 474.336 339.629 464.748 338.094 455.612C336.317 445.034 319.104 437.663 321.85 435.312C331.288 427.212 342.195 443.012 343.039 433.406C344.828 413.055 323.017 403.946 328.658 399.706C337.658 392.942 348.929 411.397 351.738 403.158C355.4 392.424 357.2 379.316 354.888 361.432L354.88 361.43Z" fill="#FFB83A"/>
<path fill-rule="evenodd" clip-rule="evenodd" d="M352.882 198.094C362.863 181.62 370.499 163.834 375.569 145.251C388.747 149.718 398.822 135.551 389.357 121.981C403.764 115.992 405.499 95.32 389.148 90.301C399.836 82.445 396.956 64.953 384.343 63.054C391.227 48.309 378.752 33.124 362.772 38.514C367.797 20.245 342.193 7.145 330.592 23.626C323.43 4.193 299.408 7.126 293.992 22.483C281.592 9.619 264.008 18.977 264.487 33.534C249.3 25.648 236 39.663 241.191 54.112C224.1 55.261 221.1 74.646 231.205 85.176C221.934 91.662 225.479 107.403 235.779 110.41L352.879 198.094H352.882Z" fill="#29263B"/>
<path fill-rule="evenodd" clip-rule="evenodd" d="M215.784 280.707C197.144 285.401 230.272 327.139 263.584 344.627C320.638 345.411 384.396 310.949 367.668 302.489C342.41 289.718 228.58 277.489 215.78 280.707H215.784Z" fill="#FFB83A"/>
<path fill-rule="evenodd" clip-rule="evenodd" d="M241.711 87.082C220.456 121.269 207.853 181.042 224.435 215.282C233.935 234.882 261.62 244.491 261.435 244.216C261.25 243.941 265.895 284.185 238.445 284.547C219.045 284.805 264.256 339.947 264.256 339.947L326.324 295.568C326.324 295.568 313.111 291.356 311.776 280.805C310.441 270.254 327.257 212.916 327.257 212.916C358.372 225.1 362.695 185.573 337.527 185.579C337.527 185.579 354.927 132.879 348.862 116.161C343.47 101.3 248.182 76.674 241.711 87.082Z" fill="#915839"/>
<path d="M261 259.439C276.887 258.989 290.3 250.406 298.765 237.877C287.524 244.509 274.234 246.767 261.433 244.22C261.799 249.295 261.654 254.393 261 259.439Z" fill="#7B3711"/>
<path fill-rule="evenodd" clip-rule="evenodd" d="M238 263.79C231.415 262.157 215.524 275.149 214.065 281.365C223.015 307.194 241.296 326.633 263.67 343.272C300.989 340.46 336.22 326.124 370.311 305.501C369.011 296.201 347.618 274.512 340.602 274.901C319.219 297.101 293.886 318.158 264.602 338.073C249.088 315.8 239.722 291.229 238 263.79Z" fill="#FFDC9C"/>
<path fill-rule="evenodd" clip-rule="evenodd" d="M279.494 337.256L272.739 383.777L285.247 384.516L291.245 336.409L279.494 337.256Z" fill="white"/>
<path fill-rule="evenodd" clip-rule="evenodd" d="M248.242 325.101L235.417 373.98L244.161 376.265L254.748 330.8L248.242 325.101Z" fill="white"/>
<path d="M255.541 187.716C255.373 187.717 255.209 187.66 255.077 187.555C254.623 187.195 243.958 178.675 243.883 171.855C243.774 161.664 260.865 137.707 261.592 136.692C261.709 136.535 261.883 136.43 262.077 136.399C262.271 136.369 262.468 136.416 262.628 136.53C262.787 136.644 262.895 136.817 262.929 137.01C262.963 137.203 262.919 137.402 262.808 137.563C262.633 137.808 245.274 162.135 245.379 171.839C245.446 177.949 255.9 186.299 256.005 186.383C256.127 186.479 256.215 186.611 256.258 186.76C256.302 186.909 256.298 187.068 256.247 187.215C256.196 187.361 256.1 187.488 255.974 187.578C255.847 187.668 255.696 187.717 255.541 187.717V187.716Z" fill="#29263B"/>
<path d="M273.387 218.3C273.201 218.3 273.022 218.23 272.884 218.105C272.747 217.979 272.661 217.807 272.644 217.622C272.178 212.632 268.901 208.422 263.653 206.063C259.101 204.019 254.678 204.051 253.027 205.263C252.792 205.412 252.606 205.626 252.491 205.88C252.376 206.133 252.337 206.414 252.379 206.689C252.394 206.788 252.388 206.889 252.363 206.986C252.338 207.082 252.294 207.173 252.233 207.253C252.172 207.332 252.096 207.399 252.009 207.448C251.922 207.498 251.826 207.529 251.727 207.541C251.628 207.553 251.527 207.544 251.431 207.517C251.335 207.489 251.245 207.442 251.168 207.379C251.09 207.316 251.026 207.238 250.979 207.15C250.932 207.061 250.903 206.965 250.894 206.865C250.823 206.327 250.902 205.781 251.123 205.285C251.343 204.79 251.696 204.365 252.142 204.057C254.456 202.357 259.667 202.632 264.266 204.698C270.019 207.281 273.615 211.941 274.133 217.483C274.151 217.68 274.09 217.877 273.964 218.029C273.837 218.182 273.655 218.278 273.458 218.297C273.434 218.294 273.411 218.3 273.387 218.3Z" fill="#29263B"/>
<path d="M326.167 138.033C325.42 138.032 324.7 137.751 324.149 137.246C323.598 136.741 323.256 136.048 323.19 135.304C322.433 126.704 318.365 122.259 310.39 121.326C310 121.28 309.622 121.158 309.28 120.967C308.937 120.775 308.635 120.518 308.391 120.21C308.147 119.902 307.967 119.549 307.86 119.171C307.753 118.793 307.721 118.398 307.767 118.007C307.812 117.617 307.934 117.24 308.126 116.897C308.317 116.554 308.574 116.252 308.882 116.008C309.191 115.765 309.544 115.584 309.922 115.477C310.3 115.37 310.695 115.338 311.085 115.384C321.9 116.649 328.148 123.356 329.153 134.779C329.188 135.17 329.145 135.565 329.027 135.939C328.909 136.314 328.719 136.662 328.466 136.963C328.214 137.264 327.905 137.512 327.556 137.694C327.208 137.876 326.827 137.987 326.436 138.021C326.343 138.029 326.255 138.033 326.167 138.033Z" fill="#29263B"/>
<path d="M242.746 112.863C242.202 112.862 241.668 112.713 241.202 112.432C240.737 112.151 240.356 111.748 240.103 111.266C239.849 110.785 239.731 110.243 239.762 109.7C239.793 109.157 239.972 108.632 240.279 108.183C245.295 100.845 251.919 99.354 258.929 103.989C259.578 104.432 260.026 105.113 260.177 105.884C260.329 106.655 260.17 107.454 259.737 108.11C259.304 108.765 258.63 109.224 257.861 109.387C257.093 109.549 256.291 109.403 255.629 108.98C251.4 106.18 248.382 106.93 245.219 111.559C244.944 111.961 244.575 112.291 244.144 112.518C243.713 112.745 243.233 112.864 242.746 112.863Z" fill="#29263B"/>
<path fill-rule="evenodd" clip-rule="evenodd" d="M310.33 131.643C313.675 132.523 315.03 138.395 313.355 144.749C311.68 151.103 307.608 155.542 304.264 154.66C300.92 153.778 299.564 147.908 301.239 141.554C302.914 135.2 306.989 130.761 310.33 131.643Z" fill="#29263B"/>
<path fill-rule="evenodd" clip-rule="evenodd" d="M251.613 117.164C254.955 118.044 256.313 123.916 254.637 130.264C252.961 136.612 248.888 141.064 245.546 140.178C242.204 139.292 240.846 133.423 242.522 127.072C244.198 120.721 248.268 116.279 251.613 117.161V117.164Z" fill="#29263B"/>
<path d="M332.157 206.344C332.095 206.344 332.033 206.336 331.973 206.321C331.781 206.272 331.616 206.149 331.515 205.979C331.413 205.809 331.384 205.605 331.432 205.413C332.014 203.416 333.058 201.584 334.479 200.066C335.9 198.547 337.659 197.384 339.613 196.671C340.921 196.125 342.345 195.918 343.754 196.068C345.162 196.218 346.511 196.721 347.674 197.53C347.829 197.649 347.931 197.824 347.959 198.018C347.986 198.212 347.937 198.409 347.821 198.566C347.705 198.724 347.532 198.83 347.339 198.861C347.146 198.893 346.948 198.848 346.788 198.735C345.821 198.075 344.703 197.669 343.537 197.555C342.372 197.44 341.196 197.62 340.119 198.079C338.393 198.705 336.839 199.728 335.582 201.065C334.324 202.403 333.4 204.018 332.882 205.779C332.841 205.94 332.748 206.084 332.617 206.186C332.485 206.288 332.324 206.344 332.157 206.344Z" fill="#29263B"/>
<path fill-rule="evenodd" clip-rule="evenodd" d="M113.864 350.347C112.237 351.681 108.943 365.017 103.714 385.069C101.545 393.38 96.406 406.515 94.808 414.811C93.175 423.289 93.558 430.636 92.108 437.373C89.786 448.16 88.066 454.963 88.066 454.963C97.711 467.263 147.426 478.763 162.085 464.282C162.085 464.282 166.109 453.156 167.458 447.436C168.358 443.631 163.958 437.762 165.22 433.316C167.03 426.935 165.962 420.055 167.76 413.109C173.366 391.447 179.816 380.564 178.784 375.125C175.948 360.189 126.941 339.625 113.862 350.347H113.864Z" fill="#FFC764"/>
<path fill-rule="evenodd" clip-rule="evenodd" d="M168.13 401.783C153.256 415.972 111.952 406.548 104.022 401.448C103.247 406.91 103.367 417.105 105.979 423.678C108.351 429.652 124.343 438.701 151.285 440.263C152.585 458.23 99.496 439.422 94.835 438.65C98.817 453.33 138.051 459.6 164.098 448.034C165.755 440.927 151.428 448.462 161.798 432.534C164.036 429.096 144.717 428.265 146.191 417.486C146.992 411.613 164.992 418.67 168.13 401.783ZM155.15 434.034C155.515 439.868 117.915 434.199 106.894 406.623C122.65 426.912 136.301 422.176 142.427 424.342C148.553 426.508 143.151 432.027 155.15 434.034Z" fill="#FFB83A"/>
<path fill-rule="evenodd" clip-rule="evenodd" d="M172.522 368.332C175.896 370.414 177.978 378.003 173.822 377.815C168.841 377.587 164.122 370.922 156.122 370.632C148.122 370.342 115.964 364.832 115.985 351.624C128.035 343.624 159.266 356.644 163.87 362.681C170.47 371.344 172.516 373.675 172.516 368.332H172.522Z" fill="#F8C500"/>
<path fill-rule="evenodd" clip-rule="evenodd" d="M170.033 250.11C184.076 232.555 215.133 200.91 225.956 213.185C235.075 223.527 208.266 239.185 202.023 250.806C206.744 248.69 215.623 257.364 209.915 267.906C218.378 269.077 222.228 281.111 218.296 287.432C226.51 290.219 225.976 305.925 222.455 310.361C215.996 318.49 207.245 321.878 197.043 316.795C190.69 340.084 183.687 352.283 169.523 352.895C168.223 352.7 162.862 363.106 160.523 367.252C143.485 368.82 120.323 359.415 121.114 351.952C121.114 351.952 151.77 272.958 170.038 250.116L170.033 250.11Z" fill="#915939"/>
<path d="M197.083 317.486C196.963 317.485 196.846 317.456 196.74 317.4C196.634 317.345 196.543 317.265 196.474 317.167C196.406 317.069 196.362 316.956 196.346 316.838C196.33 316.719 196.343 316.599 196.383 316.486C199.003 309.196 203.964 305.21 209.349 306.086C209.446 306.102 209.539 306.137 209.622 306.188C209.706 306.24 209.779 306.308 209.836 306.388C209.893 306.467 209.934 306.558 209.957 306.653C209.979 306.749 209.983 306.848 209.967 306.945C209.951 307.042 209.916 307.135 209.865 307.218C209.813 307.302 209.745 307.375 209.665 307.432C209.586 307.489 209.495 307.53 209.4 307.553C209.304 307.575 209.205 307.579 209.108 307.563C204.488 306.813 200.151 310.425 197.79 316.994C197.737 317.139 197.641 317.264 197.515 317.352C197.388 317.44 197.237 317.487 197.083 317.486Z" fill="#29263B"/>
<path fill-rule="evenodd" clip-rule="evenodd" d="M116.94 55.447C116.877 42.564 126.885 31.38 149.285 30.936C171.685 30.492 186.637 44.523 183.96 55.388C180.468 69.563 156.131 73.544 156.526 88.497C156.587 90.772 141.769 90.566 141.769 88.291C141.428 73.4 170.986 66.2 171.433 55.11C171.823 45.389 163.883 40.119 149.406 40.119C139.348 40.119 130.894 45.3 130.153 55.331C130.027 57.451 116.953 57.57 116.94 55.447Z" fill="#E1B100"/>
<path fill-rule="evenodd" clip-rule="evenodd" d="M149.065 95.564C154.71 95.564 159.293 98.598 159.293 102.339C159.293 106.08 154.71 109.113 149.065 109.113C143.42 109.113 138.839 106.078 138.839 102.339C138.839 98.6 143.422 95.564 149.065 95.564Z" fill="#E1B100"/>
</svg>