<svg width="20" height="20" viewBox="0 0 20 20" fill="none" xmlns="http://www.w3.org/2000/svg">
<path id="Vector" d="M18.0563 0H1.94452C1.4288 0 0.934207 0.204869 0.569538 0.569538C0.204869 0.934207 0 1.4288 0 1.94452V18.0563C0 18.572 0.204869 19.0666 0.569538 19.4313C0.934207 19.7959 1.4288 20.0008 1.94452 20.0008H18.0563C18.572 20.0008 19.0666 19.7959 19.4313 19.4313C19.7959 19.0666 20.0008 18.572 20.0008 18.0563V1.94452C20.0008 1.4288 19.7959 0.934207 19.4313 0.569538C19.0666 0.204869 18.572 0 18.0563 0ZM15.6542 12.0088V13.4919C15.6403 13.6338 15.5783 13.7667 15.4787 13.8686C15.3791 13.9706 15.2477 14.0355 15.1062 14.0528L6.73222 14.0533C6.11219 14.0533 5.58356 13.8533 5.14688 13.4542C4.71047 13.0547 4.49213 12.5716 4.49213 12.0038C4.49213 11.5521 4.63963 11.1507 4.93492 10.7968C5.23049 10.444 5.60467 10.1985 6.05747 10.059L13.3747 7.9681H4.4924V6.55249C4.49452 6.41073 4.54448 6.27385 4.63419 6.16406C4.72391 6.05428 4.84809 5.97805 4.98659 5.94774H13.4142C14.0342 5.94774 14.5623 6.14608 14.9989 6.54193C15.4356 6.93834 15.6542 7.41141 15.6542 7.96199C15.6542 8.42173 15.5054 8.82619 15.2078 9.17621C14.9103 9.52678 14.5275 9.77095 14.0595 9.90818L6.73222 12.0088H15.6542Z" fill="#009254"/>
</svg>
