<svg width="108" height="108" viewBox="0 0 108 108" fill="none" xmlns="http://www.w3.org/2000/svg">
<g id="letters 1" clip-path="url(#clip0_1017_16100)">
<path id="Vector" d="M24.6035 23.5894V6.65852C24.6035 5.99436 25.1419 5.45581 25.8062 5.45581H82.1948C82.859 5.45581 83.3975 5.99415 83.3975 6.65852V23.5896H24.6035V23.5894Z" fill="white"/>
<g id="Group">
<path id="Vector_2" d="M25.1057 5.68433C24.8027 5.90251 24.6035 6.25632 24.6035 6.6584V16.9444H42.6711L25.1057 5.68433Z" fill="white"/>
<path id="Vector_3" d="M82.8954 5.68433L65.3301 16.9444H83.3976V6.65861C83.3974 6.25653 83.1982 5.90271 82.8954 5.68433Z" fill="white"/>
</g>
<path id="Vector_4" d="M20.0977 39.358V18.3107C20.0977 17.4315 20.8101 16.7191 21.6893 16.7191H86.3104C87.1894 16.7191 87.902 17.4315 87.902 18.3107V39.358H20.0977Z" fill="white"/>
<g id="Group_2">
<path id="Vector_5" d="M20.6968 17.0674C20.3319 17.3591 20.0977 17.8072 20.0977 18.3106V32.7126H40.8124L20.6968 17.0674Z" fill="white"/>
<path id="Vector_6" d="M87.3031 17.0674L67.1875 32.7126H87.9022V18.3106C87.9022 17.8072 87.6678 17.3589 87.3031 17.0674Z" fill="white"/>
</g>
<path id="Vector_7" d="M92.528 32.4873H15.4717C14.2943 32.4873 13.3398 33.4417 13.3398 34.6192V55.0135V64.2494V84.6438C13.3398 85.8212 14.2943 86.7756 15.4717 86.7756H92.528C93.7054 86.7756 94.6598 85.8212 94.6598 84.6438V64.2494V55.0135V34.6192C94.6598 33.4417 93.7054 32.4873 92.528 32.4873Z" fill="white"/>
<g id="Group_3">
<path id="Vector_8" d="M94.6598 37.2705V34.6192C94.6598 33.4417 93.7054 32.4873 92.528 32.4873H15.4717C14.2943 32.4873 13.3398 33.4417 13.3398 34.6192V37.7378L13.9867 37.848L52.5547 63.5599C53.4299 64.1434 54.5702 64.1434 55.4454 63.5599L94.0135 37.848L94.6598 37.2705Z" fill="white"/>
<path id="Vector_9" d="M76.9263 61.151C75.3547 61.151 73.8172 62.2014 73.8172 63.6273C73.8174 88.6348 34.1831 88.6354 34.1829 63.6277C34.1829 62.2016 32.6454 61.151 31.0738 61.151H13.3398V67.4928V86.388C13.3398 87.3487 14.2943 88.1278 15.4717 88.1278H92.528C93.7054 88.1278 94.6598 87.3489 94.6598 86.388V67.4928V61.151H76.9263Z" fill="white"/>
</g>
<path id="SVGCleanerId 0" d="M31.5518 67.0887C31.6394 67.761 31.7601 68.4423 31.9108 69.1132L32.5668 72.0369L50.1738 56.9451L14.1635 32.9386C13.6629 33.3288 13.3398 33.9357 13.3398 34.6192V55.0136V64.2495H28.2879C29.9382 64.2495 31.3411 65.4697 31.5518 67.0887Z" fill="white"/>
<g id="Group_4">
<path id="SVGCleanerId 0 1" d="M31.5518 67.0887C31.6394 67.761 31.7601 68.4423 31.9108 69.1132L32.5668 72.0369L50.1738 56.9451L14.1635 32.9386C13.6629 33.3288 13.3398 33.9357 13.3398 34.6192V55.0136V64.2495H28.2879C29.9382 64.2495 31.3411 65.4697 31.5518 67.0887Z" fill="white"/>
</g>
<g id="Group_5">
<path id="Vector_10" d="M46.8745 59.7742L50.174 56.9462L14.1637 32.9393C13.9766 33.085 13.8147 33.2612 13.6847 33.4601C13.6824 33.4635 13.6805 33.4674 13.6782 33.4708C13.6404 33.5295 13.6057 33.5903 13.5737 33.6528C13.5655 33.6685 13.5584 33.6848 13.5505 33.7009C13.526 33.7523 13.5033 33.8047 13.4828 33.858C13.4744 33.88 13.4663 33.9019 13.4588 33.9243C13.4414 33.974 13.4264 34.0252 13.4128 34.0766C13.4063 34.1015 13.3992 34.1257 13.3936 34.151C13.3816 34.2041 13.3727 34.2582 13.3647 34.3128C13.3614 34.3362 13.3566 34.3594 13.3538 34.383C13.3451 34.4609 13.3398 34.5399 13.3398 34.6204V37.7391L13.9866 37.8492L46.8745 59.7742Z" fill="white"/>
<path id="Vector_11" d="M34.1825 63.6275C34.1825 62.2014 32.645 61.1508 31.0734 61.1508H29.119C27.8664 61.1508 26.8509 60.1354 26.8509 58.8827V55.0138V41.3968L14.1635 32.9384C13.6629 33.3285 13.3398 33.9354 13.3398 34.619V55.0136V61.1508V64.2492H26.8509H28.2879C29.938 64.2492 31.3411 65.4695 31.5516 67.0885C31.6391 67.7608 31.7599 68.4421 31.9106 69.1129L32.5666 72.0366L35.1152 69.8521C34.5144 67.9857 34.1825 65.9115 34.1825 63.6275Z" fill="white"/>
</g>
<path id="Vector_12" d="M93.8365 32.9386L57.8262 56.9453L75.4331 72.0371L76.0891 69.1132C76.2398 68.4421 76.3606 67.761 76.4483 67.0881C76.6588 65.4697 78.0617 64.2495 79.7116 64.2495H94.6599V55.0136V34.6192C94.6601 33.9357 94.337 33.3288 93.8365 32.9386Z" fill="white"/>
<g id="Group_6">
<path id="Vector_13" d="M94.6461 34.3818C94.6434 34.3582 94.6388 34.335 94.6352 34.3116C94.6273 34.257 94.6183 34.2029 94.6064 34.1498C94.6007 34.1247 94.5938 34.1003 94.5871 34.0754C94.5736 34.0238 94.5585 33.973 94.5412 33.9231C94.5334 33.9007 94.5255 33.8787 94.5171 33.8568C94.4967 33.8035 94.4739 33.7508 94.4494 33.6996C94.4417 33.6836 94.4344 33.6675 94.4262 33.6516C94.3943 33.5891 94.3596 33.5281 94.3217 33.4696C94.3194 33.466 94.3173 33.4625 94.3153 33.4589C94.1855 33.2599 94.0233 33.0838 93.8363 32.9381L57.8262 56.945L61.1256 59.7729L94.0131 37.8478L94.6599 37.2699V34.6186C94.6601 34.5387 94.6549 34.4599 94.6461 34.3818Z" fill="white"/>
<path id="Vector_14" d="M73.8177 63.6273C73.8177 65.9113 73.4858 67.9859 72.8848 69.8527L75.4333 72.0372L76.0893 69.1133C76.24 68.4423 76.3608 67.7612 76.4486 67.0883C76.659 65.4699 78.0619 64.2496 79.7119 64.2496H94.6601V61.1512H76.9265C75.3548 61.151 73.8177 62.2014 73.8177 63.6273Z" fill="white"/>
</g>
<path id="Vector_15" d="M6.23266 102.544C3.94052 102.544 2.07617 100.68 2.07617 98.3877V68.1809C2.07617 65.8888 3.94073 64.0244 6.23266 64.0244H28.2872C30.05 64.0244 31.5488 65.3291 31.7741 67.0597C33.2211 78.1712 42.7759 86.5508 53.9992 86.5508C65.2227 86.5508 74.7772 78.1712 76.2243 67.0593C76.4493 65.3293 77.9482 64.0246 79.7112 64.0246H101.766C104.058 64.0246 105.922 65.8892 105.922 68.1811V98.3881C105.922 100.68 104.058 102.545 101.766 102.545H6.23266V102.544Z" fill="#009254"/>
<path id="Vector_16" d="M25.4966 99.1653C22.4469 99.1653 19.9751 96.6932 19.9751 93.6437V64.8018C19.9751 64.5358 20.0026 64.2764 20.0505 64.0242H6.23266C3.93697 64.0242 2.07617 65.885 2.07617 68.1807V98.3875C2.07617 100.683 3.93697 102.544 6.23266 102.544H101.766C103.792 102.544 105.482 101.086 105.847 99.1651H25.4966V99.1653Z" fill="#009254"/>
<path id="Vector_17" d="M87.9022 29.3337H71.5319L67.1875 32.7126H87.9022V29.3337Z" fill="white"/>
<path id="Vector_18" d="M55.4451 58.8035L94.0131 33.0915C93.629 32.7182 93.1057 32.4873 92.5279 32.4873H15.4716C14.8937 32.4873 14.3704 32.7182 13.9863 33.0915L52.5544 58.8035C53.4296 59.3869 54.5698 59.3869 55.4451 58.8035Z" fill="#009254"/>
<path id="Vector_19" d="M36.468 29.3337H30.6146C29.0159 29.3337 27.7199 28.0378 27.7199 26.4391V22.5294L20.6968 17.0674C20.3319 17.3591 20.0977 17.8072 20.0977 18.3106V29.3337V32.7126H27.7197H40.8124L36.468 29.3337Z" fill="white"/>
<path id="Vector_20" d="M20.5293 17.223L40.4451 32.7127H67.5541L87.4699 17.223C87.1796 16.9135 86.7679 16.7191 86.3103 16.7191H21.6892C21.2313 16.7189 20.82 16.9135 20.5293 17.223Z" fill="#009254"/>
<path id="Vector_21" d="M36.1016 29.3337L40.4459 32.7126H67.555L71.8993 29.3337H36.1016Z" fill="#009254"/>
<g id="Group_7">
<path id="Vector_22" d="M38.2891 14.1354H32.3169C31.8195 14.1354 31.4164 13.7323 31.4164 13.2349V9.72985L25.1057 5.68433C24.8027 5.90251 24.6035 6.25632 24.6035 6.6584V14.1357V16.9444H31.4164H42.6711L38.2891 14.1354Z" fill="white"/>
<path id="Vector_23" d="M83.3974 14.1355H69.7116L65.3301 16.9442H83.3974V14.1355Z" fill="white"/>
</g>
<path id="Vector_24" d="M24.9297 5.83918L42.2537 16.9442H65.7471L83.0706 5.83918C82.851 5.60449 82.541 5.45569 82.1943 5.45569H25.806C25.4593 5.4559 25.1493 5.60449 24.9297 5.83918Z" fill="#009254"/>
<path id="Vector_25" d="M37.8711 14.1354L42.2529 16.9441H65.7461L70.1278 14.1354H37.8711Z" fill="#009254"/>
<path id="Vector_26" d="M101.767 62.4473H96.2368V32.6C96.2368 31.6668 95.4807 30.9105 94.5474 30.9105H89.4789V16.8315C89.4789 15.8983 88.7228 15.142 87.7894 15.142H84.9736V5.56846C84.9736 4.63534 84.2175 3.87903 83.2841 3.87903H24.7159C23.7825 3.87903 23.0264 4.63555 23.0264 5.56846V15.1422H20.2106C19.2772 15.1422 18.5211 15.8988 18.5211 16.8317V30.9105H13.4526C12.5193 30.9105 11.7632 31.6671 11.7632 32.6V62.4473H6.23349C3.07197 62.4473 0.5 65.0191 0.5 68.1808V98.3878C0.5 101.549 3.07197 104.121 6.23349 104.121H101.767C104.928 104.121 107.5 101.549 107.5 98.3874V68.1808C107.5 65.0191 104.928 62.4473 101.767 62.4473ZM86.1 20.2858V30.9105H72.4397L86.1 20.2858ZM77.5178 7.25789L65.2185 15.142H42.7815L30.4822 7.25789H77.5178ZM81.5947 8.65808V15.142H71.4799L81.5947 8.65808ZM26.4053 8.65808L36.5201 15.142H26.4053V8.65808ZM42.2816 18.5211L42.2848 18.5213L42.2883 18.5211H65.7117L65.7152 18.5213L65.7184 18.5211H82.8655L66.9363 30.9105H41.0639L25.1347 18.5211H42.2816ZM21.9 20.286L35.5603 30.9105H21.9V20.286ZM40.4816 34.2894H40.4829H40.485H67.5148H67.5169H67.5182H88.9675L76.5216 42.5865C75.6414 43.1733 75.5208 44.4193 76.2706 45.1653C76.2788 45.1735 76.2869 45.1816 76.2949 45.1896C76.8585 45.7503 77.74 45.8349 78.4012 45.394L92.8575 35.7569V62.4473H79.7116C77.159 62.4473 74.9879 64.3424 74.661 66.8554C74.5789 67.4863 74.4677 68.1077 74.3306 68.7185L60.805 57.1251L70.6026 50.5933C71.482 50.0069 71.6038 48.7622 70.8548 48.0163L70.8306 47.9921C70.2665 47.4305 69.3848 47.3442 68.7227 47.7858L54 57.601L19.0325 34.2894H40.4816ZM73.2121 72.2073C70.0306 79.7592 62.5358 84.9737 54 84.9737C45.4642 84.9737 37.9692 79.7592 34.7874 72.2073C34.8 72.1971 34.8134 72.1881 34.8255 72.1776L50.115 59.0722L53.0625 61.0371C53.3463 61.2262 53.6729 61.3209 53.9996 61.3209C54.3262 61.3209 54.6529 61.2262 54.9367 61.0371L57.8842 59.0722L73.1737 72.1776C73.1866 72.1879 73.1996 72.1968 73.2121 72.2073ZM15.1421 35.7569L47.1948 57.1253L33.6692 68.7187C33.5323 68.1079 33.4209 67.4868 33.3388 66.8558C33.0119 64.3426 30.8406 62.4475 28.2882 62.4475H15.1421V35.7569ZM104.121 98.3876C104.121 99.6858 103.065 100.742 101.767 100.742H6.23349C4.93507 100.742 3.87907 99.686 3.87907 98.3876V68.1808C3.87907 66.8824 4.93507 65.8264 6.23349 65.8264H28.288C29.1482 65.8264 29.879 66.4563 29.9879 67.2918C31.5515 79.2986 41.8741 88.3528 54 88.3528C66.1259 88.3528 76.4487 79.2983 78.0121 67.2914C78.1208 66.4561 78.8516 65.8262 79.712 65.8262H101.767C103.065 65.8262 104.121 66.8822 104.121 68.1806L104.121 98.3876Z" fill="black"/>
</g>
<defs>
<clipPath id="clip0_1017_16100">
<rect width="107" height="107" fill="white" transform="translate(0.5 0.5)"/>
</clipPath>
</defs>
</svg>
