<svg width="318" height="350" viewBox="0 0 318 350" fill="none" xmlns="http://www.w3.org/2000/svg">
<g opacity="0.5">
<rect width="350" height="350" fill="white"/>
<path d="M247.914 320.833H102.08C43.7469 320.833 29.1636 306.25 29.1636 247.917V218.75C29.1636 160.417 43.7469 145.833 102.08 145.833H247.914C306.247 145.833 320.83 160.417 320.83 218.75V247.917C320.83 306.25 306.247 320.833 247.914 320.833Z" stroke="#E6F5EA" stroke-width="22.0938" stroke-linecap="round" stroke-linejoin="round"/>
<path d="M87.4976 145.833V116.667C87.4976 68.3958 102.081 29.1666 174.998 29.1666C240.623 29.1666 262.498 58.3333 262.498 102.083" stroke="#E6F5EA" stroke-width="22.0938" stroke-linecap="round" stroke-linejoin="round"/>
<path d="M174.997 269.792C195.133 269.792 211.456 253.469 211.456 233.333C211.456 213.198 195.133 196.875 174.997 196.875C154.862 196.875 138.539 213.198 138.539 233.333C138.539 253.469 154.862 269.792 174.997 269.792Z" stroke="#E6F5EA" stroke-width="22.0938" stroke-linecap="round" stroke-linejoin="round"/>
</g>
</svg>
