<svg width="178" height="36" viewBox="0 0 178 36" fill="none" xmlns="http://www.w3.org/2000/svg">
<path d="M19.8611 7H2.13889C1.57162 7 1.02759 7.22535 0.626466 7.62647C0.225347 8.02759 0 8.57162 0 9.13889V26.8611C0 27.4284 0.225347 27.9724 0.626466 28.3735C1.02759 28.7747 1.57162 29 2.13889 29H19.8611C20.4284 29 20.9724 28.7747 21.3735 28.3735C21.7747 27.9724 22 27.4284 22 26.8611V9.13889C22 8.57162 21.7747 8.02759 21.3735 7.62647C20.9724 7.22535 20.4284 7 19.8611 7ZM17.219 20.2092V21.8405C17.2036 21.9966 17.1355 22.1427 17.0259 22.2549C16.9163 22.367 16.7718 22.4385 16.6161 22.4574L7.40514 22.4581C6.72314 22.4581 6.14167 22.2381 5.66133 21.799C5.18131 21.3596 4.94114 20.8282 4.94114 20.2037C4.94114 19.7068 5.10339 19.2653 5.42819 18.876C5.75331 18.488 6.16489 18.2179 6.66294 18.0645L14.7116 15.7646H4.94144V14.2074C4.94377 14.0515 4.99873 13.9009 5.09741 13.7802C5.19609 13.6594 5.33269 13.5756 5.48503 13.5422H14.755C15.437 13.5422 16.0178 13.7604 16.4982 14.1958C16.9785 14.6319 17.219 15.1522 17.219 15.7578C17.219 16.2635 17.0552 16.7084 16.7279 17.0934C16.4007 17.479 15.9796 17.7476 15.4648 17.8986L7.40514 20.2092H17.219Z" fill="#009254"/>
<path d="M30 23.9401V23.5441L36.8489 13.5121H30.6945V10.98H41.339V11.3881L34.514 21.4081H41.0516V23.9401H30Z" fill="#009254"/>
<path d="M48.8512 24.3121C47.8934 24.3121 47.1031 24.1521 46.4805 23.8321C45.8579 23.5121 45.363 23.1041 44.9958 22.6081C44.6286 22.1121 44.3572 21.5841 44.1816 21.0241C44.0059 20.4641 43.8902 19.9361 43.8343 19.4401C43.7864 18.9361 43.7625 18.5281 43.7625 18.2161V10.98H46.684V17.2201C46.684 17.6201 46.712 18.0721 46.7679 18.5761C46.8237 19.0721 46.9514 19.5521 47.151 20.0161C47.3585 20.4721 47.6619 20.8481 48.061 21.1441C48.4681 21.4401 49.0149 21.5881 49.7014 21.5881C50.0686 21.5881 50.4318 21.5281 50.791 21.4081C51.1502 21.2881 51.4735 21.0841 51.7608 20.7961C52.0562 20.5001 52.2917 20.0961 52.4673 19.5841C52.6429 19.0721 52.7307 18.4241 52.7307 17.6401L54.4429 18.3721C54.4429 19.4761 54.2274 20.4761 53.7963 21.3721C53.3733 22.2681 52.7466 22.9841 51.9165 23.5201C51.0863 24.0481 50.0646 24.3121 48.8512 24.3121ZM53.0779 23.9401V19.9201H52.7307V10.98H55.6283V23.9401H53.0779Z" fill="#009254"/>
<path d="M59.0282 23.9401V10.98H61.5786V14.1361L61.2673 13.7281C61.4269 13.2961 61.6385 12.9041 61.9019 12.5521C62.1733 12.1921 62.4966 11.8961 62.8717 11.6641C63.191 11.4481 63.5422 11.28 63.9254 11.16C64.3165 11.032 64.7157 10.956 65.1228 10.932C65.5299 10.9 65.925 10.916 66.3081 10.98V13.6801C65.925 13.5681 65.482 13.5321 64.9791 13.5721C64.4842 13.6121 64.0372 13.7521 63.638 13.9921C63.2389 14.2081 62.9116 14.484 62.6562 14.8201C62.4088 15.1561 62.2252 15.5401 62.1054 15.9721C61.9857 16.3961 61.9258 16.8561 61.9258 17.3521V23.9401H59.0282Z" fill="#009254"/>
<path d="M68.8684 9.01205V6.36005H71.7541V9.01205H68.8684ZM68.8684 23.9401V10.98H71.7541V23.9401H68.8684Z" fill="#009254"/>
<path d="M81.5909 24.3001C80.3297 24.3001 79.272 24.0001 78.4179 23.4001C77.5638 22.8001 76.9212 21.9841 76.4902 20.9521C76.0591 19.9121 75.8436 18.7481 75.8436 17.4601C75.8436 16.1561 76.0591 14.9881 76.4902 13.9561C76.9212 12.9241 77.5518 12.1121 78.382 11.52C79.2201 10.9201 80.2538 10.62 81.4831 10.62C82.7044 10.62 83.7621 10.9201 84.6561 11.52C85.5581 12.1121 86.2566 12.9241 86.7515 13.9561C87.2464 14.9801 87.4939 16.1481 87.4939 17.4601C87.4939 18.7561 87.2504 19.9201 86.7635 20.9521C86.2765 21.9841 85.5901 22.8001 84.704 23.4001C83.818 24.0001 82.7803 24.3001 81.5909 24.3001ZM75.3527 29.7001V10.98H77.903V20.0761H78.2622V29.7001H75.3527ZM81.1479 21.7081C81.8982 21.7081 82.5168 21.5201 83.0038 21.1441C83.4907 20.7681 83.8499 20.2601 84.0814 19.6201C84.3209 18.9721 84.4406 18.2521 84.4406 17.4601C84.4406 16.6761 84.3209 15.9641 84.0814 15.3241C83.8419 14.6761 83.4707 14.1641 82.9679 13.7881C82.465 13.4041 81.8264 13.212 81.0521 13.212C80.3177 13.212 79.719 13.3921 79.2561 13.7521C78.7931 14.1041 78.4498 14.6001 78.2263 15.2401C78.0108 15.8721 77.903 16.6121 77.903 17.4601C77.903 18.3001 78.0108 19.0401 78.2263 19.6801C78.4498 20.3201 78.7971 20.8201 79.268 21.1801C79.747 21.5321 80.3736 21.7081 81.1479 21.7081Z" fill="#009254"/>
<path d="M95.8804 24.3001C94.5873 24.3001 93.4578 24.0081 92.4919 23.4241C91.526 22.8401 90.7757 22.0361 90.2409 21.0121C89.714 19.9801 89.4506 18.7961 89.4506 17.4601C89.4506 16.1001 89.722 14.9081 90.2648 13.8841C90.8076 12.8601 91.5619 12.0601 92.5278 11.484C93.4937 10.9081 94.6112 10.62 95.8804 10.62C97.1815 10.62 98.315 10.9121 99.2809 11.496C100.247 12.08 100.997 12.8881 101.532 13.9201C102.067 14.9441 102.334 16.1241 102.334 17.4601C102.334 18.8041 102.063 19.9921 101.52 21.0241C100.985 22.0481 100.235 22.8521 99.2689 23.4361C98.3031 24.0121 97.1736 24.3001 95.8804 24.3001ZM95.8804 21.5881C97.0299 21.5881 97.884 21.2041 98.4427 20.4361C99.0015 19.6681 99.2809 18.6761 99.2809 17.4601C99.2809 16.2041 98.9975 15.2041 98.4308 14.4601C97.864 13.7081 97.0139 13.3321 95.8804 13.3321C95.1061 13.3321 94.4675 13.5081 93.9646 13.8601C93.4697 14.2041 93.1025 14.6881 92.8631 15.3121C92.6236 15.9281 92.5039 16.6441 92.5039 17.4601C92.5039 18.7161 92.7872 19.7201 93.354 20.4721C93.9287 21.2161 94.7709 21.5881 95.8804 21.5881Z" fill="#009254"/>
<path d="M105.008 23.9401V10.98H107.559V14.1361L107.247 13.7281C107.407 13.2961 107.618 12.9041 107.882 12.5521C108.153 12.1921 108.477 11.8961 108.852 11.6641C109.171 11.4481 109.522 11.28 109.905 11.16C110.297 11.032 110.696 10.956 111.103 10.932C111.51 10.9 111.905 10.916 112.288 10.98V13.6801C111.905 13.5681 111.462 13.5321 110.959 13.5721C110.464 13.6121 110.017 13.7521 109.618 13.9921C109.219 14.2081 108.892 14.484 108.636 14.8201C108.389 15.1561 108.205 15.5401 108.085 15.9721C107.966 16.3961 107.906 16.8561 107.906 17.3521V23.9401H105.008Z" fill="#009254"/>
<path d="M122.188 23.9401C121.334 24.1001 120.496 24.1681 119.674 24.1441C118.86 24.1281 118.129 23.9801 117.483 23.7001C116.836 23.4121 116.345 22.9601 116.01 22.3441C115.714 21.7841 115.559 21.2121 115.543 20.6281C115.527 20.0441 115.519 19.3841 115.519 18.6481V7.38005H118.393V18.4801C118.393 19.0001 118.397 19.4561 118.405 19.8481C118.421 20.2401 118.504 20.5601 118.656 20.8081C118.943 21.2881 119.402 21.5561 120.033 21.6121C120.664 21.6681 121.382 21.6361 122.188 21.5161V23.9401ZM113.172 13.2481V10.98H122.188V13.2481H113.172Z" fill="#009254"/>
<path d="M126.13 23.9401V10.7761C126.13 10.4481 126.142 10.088 126.166 9.69605C126.19 9.29605 126.258 8.90005 126.37 8.50805C126.482 8.11605 126.685 7.76005 126.98 7.44005C127.348 7.03205 127.743 6.75205 128.166 6.60005C128.597 6.44005 129.02 6.35205 129.435 6.33605C129.85 6.31205 130.213 6.30005 130.525 6.30005H132.141V8.65205H130.644C130.094 8.65205 129.682 8.79205 129.411 9.07205C129.148 9.34405 129.016 9.70405 129.016 10.152V23.9401H126.13ZM124.047 13.2481V10.98H132.141V13.2481H124.047Z" fill="#009254"/>
<path d="M139.335 24.3001C138.042 24.3001 136.912 24.0081 135.946 23.4241C134.98 22.8401 134.23 22.0361 133.695 21.0121C133.168 19.9801 132.905 18.7961 132.905 17.4601C132.905 16.1001 133.176 14.9081 133.719 13.8841C134.262 12.8601 135.016 12.0601 135.982 11.484C136.948 10.9081 138.066 10.62 139.335 10.62C140.636 10.62 141.769 10.9121 142.735 11.496C143.701 12.08 144.451 12.8881 144.986 13.9201C145.521 14.9441 145.788 16.1241 145.788 17.4601C145.788 18.8041 145.517 19.9921 144.974 21.0241C144.439 22.0481 143.689 22.8521 142.723 23.4361C141.757 24.0121 140.628 24.3001 139.335 24.3001ZM139.335 21.5881C140.484 21.5881 141.338 21.2041 141.897 20.4361C142.456 19.6681 142.735 18.6761 142.735 17.4601C142.735 16.2041 142.452 15.2041 141.885 14.4601C141.318 13.7081 140.468 13.3321 139.335 13.3321C138.56 13.3321 137.922 13.5081 137.419 13.8601C136.924 14.2041 136.557 14.6881 136.317 15.3121C136.078 15.9281 135.958 16.6441 135.958 17.4601C135.958 18.7161 136.242 19.7201 136.808 20.4721C137.383 21.2161 138.225 21.5881 139.335 21.5881Z" fill="#009254"/>
<path d="M148.702 23.9401V6.30005H151.588V23.9401H148.702Z" fill="#009254"/>
<path d="M155.45 9.01205V6.36005H158.335V9.01205H155.45ZM155.45 23.9401V10.98H158.335V23.9401H155.45Z" fill="#009254"/>
<path d="M167.669 24.3001C166.376 24.3001 165.247 24.0081 164.281 23.4241C163.315 22.8401 162.564 22.0361 162.03 21.0121C161.503 19.9801 161.239 18.7961 161.239 17.4601C161.239 16.1001 161.511 14.9081 162.054 13.8841C162.596 12.8601 163.351 12.0601 164.317 11.484C165.282 10.9081 166.4 10.62 167.669 10.62C168.97 10.62 170.104 10.9121 171.07 11.496C172.036 12.08 172.786 12.8881 173.321 13.9201C173.856 14.9441 174.123 16.1241 174.123 17.4601C174.123 18.8041 173.852 19.9921 173.309 21.0241C172.774 22.0481 172.024 22.8521 171.058 23.4361C170.092 24.0121 168.962 24.3001 167.669 24.3001ZM167.669 21.5881C168.819 21.5881 169.673 21.2041 170.232 20.4361C170.79 19.6681 171.07 18.6761 171.07 17.4601C171.07 16.2041 170.786 15.2041 170.22 14.4601C169.653 13.7081 168.803 13.3321 167.669 13.3321C166.895 13.3321 166.256 13.5081 165.753 13.8601C165.259 14.2041 164.891 14.6881 164.652 15.3121C164.412 15.9281 164.293 16.6441 164.293 17.4601C164.293 18.7161 164.576 19.7201 165.143 20.4721C165.718 21.2161 166.56 21.5881 167.669 21.5881Z" fill="#009254"/>
</svg>
