<svg width="20" height="20" viewBox="0 0 20 20" fill="none" xmlns="http://www.w3.org/2000/svg">
<path d="M0 10C0 15.5228 4.47715 20 10 20C15.5228 20 20 15.5228 20 10C20 4.47715 15.5228 0 10 0C4.47715 0 0 4.47715 0 10Z" fill="#231E1B"/>
<path fill-rule="evenodd" clip-rule="evenodd" d="M9.98471 5.12C7.23242 5.12 5 7.35241 5 10.1047C5 12.3065 6.43731 14.172 8.3945 14.8448C8.63914 14.8753 8.73089 14.7224 8.73089 14.6001C8.73089 14.4778 8.73089 14.172 8.73089 13.7439C7.35474 14.0497 7.04893 13.0711 7.04893 13.0711C6.83486 12.49 6.49847 12.3371 6.49847 12.3371C6.03976 12.0313 6.52905 12.0313 6.52905 12.0313C7.01835 12.0619 7.29358 12.5512 7.29358 12.5512C7.75229 13.3157 8.45566 13.1017 8.73089 12.9793C8.76147 12.6429 8.91437 12.4289 9.0367 12.3065C7.93578 12.1842 6.7737 11.7561 6.7737 9.82948C6.7737 9.27902 6.95719 8.85089 7.29358 8.48391C7.263 8.39217 7.07951 7.87229 7.35474 7.19951C7.35474 7.19951 7.78287 7.07719 8.73089 7.71939C9.12844 7.59706 9.55657 7.56648 9.98471 7.56648C10.4128 7.56648 10.841 7.62764 11.2385 7.71939C12.1865 7.07719 12.6147 7.19951 12.6147 7.19951C12.8899 7.87229 12.7064 8.39217 12.6758 8.51449C12.9817 8.85089 13.1957 9.3096 13.1957 9.86006C13.1957 11.7867 12.0336 12.1842 10.9327 12.3065C11.1162 12.4594 11.2691 12.7653 11.2691 13.224C11.2691 13.8968 11.2691 14.4166 11.2691 14.6001C11.2691 14.7224 11.3609 14.8753 11.6055 14.8448C13.5933 14.172 15 12.3065 15 10.1047C14.9694 7.35241 12.737 5.12 9.98471 5.12Z" fill="white"/>
</svg>
