<svg width="20" height="20" viewBox="0 0 20 20" fill="none" xmlns="http://www.w3.org/2000/svg">
<path d="M0 10C0 15.5228 4.47715 20 10 20C15.5228 20 20 15.5228 20 10C20 4.47715 15.5228 0 10 0C4.47715 0 0 4.47715 0 10Z" fill="#F00073"/>
<path d="M10 5.75C11.375 5.75 11.5625 5.75 12.125 5.75C12.625 5.75 12.875 5.875 13.0625 5.9375C13.3125 6.0625 13.5 6.125 13.6875 6.3125C13.875 6.5 14 6.6875 14.0625 6.9375C14.125 7.125 14.1875 7.375 14.25 7.875C14.25 8.4375 14.25 8.5625 14.25 10C14.25 11.4375 14.25 11.5625 14.25 12.125C14.25 12.625 14.125 12.875 14.0625 13.0625C13.9375 13.3125 13.875 13.5 13.6875 13.6875C13.5 13.875 13.3125 14 13.0625 14.0625C12.875 14.125 12.625 14.1875 12.125 14.25C11.5625 14.25 11.4375 14.25 10 14.25C8.5625 14.25 8.4375 14.25 7.875 14.25C7.375 14.25 7.125 14.125 6.9375 14.0625C6.6875 13.9375 6.5 13.875 6.3125 13.6875C6.125 13.5 6 13.3125 5.9375 13.0625C5.875 12.875 5.8125 12.625 5.75 12.125C5.75 11.5625 5.75 11.4375 5.75 10C5.75 8.5625 5.75 8.4375 5.75 7.875C5.75 7.375 5.875 7.125 5.9375 6.9375C6.0625 6.6875 6.125 6.5 6.3125 6.3125C6.5 6.125 6.6875 6 6.9375 5.9375C7.125 5.875 7.375 5.8125 7.875 5.75C8.4375 5.75 8.625 5.75 10 5.75ZM10 4.8125C8.5625 4.8125 8.4375 4.8125 7.875 4.8125C7.3125 4.8125 6.9375 4.9375 6.625 5.0625C6.3125 5.1875 6 5.375 5.6875 5.6875C5.375 6 5.25 6.25 5.0625 6.625C4.9375 6.9375 4.875 7.3125 4.8125 7.875C4.8125 8.4375 4.8125 8.625 4.8125 10C4.8125 11.4375 4.8125 11.5625 4.8125 12.125C4.8125 12.6875 4.9375 13.0625 5.0625 13.375C5.1875 13.6875 5.375 14 5.6875 14.3125C6 14.625 6.25 14.75 6.625 14.9375C6.9375 15.0625 7.3125 15.125 7.875 15.1875C8.4375 15.1875 8.625 15.1875 10 15.1875C11.375 15.1875 11.5625 15.1875 12.125 15.1875C12.6875 15.1875 13.0625 15.0625 13.375 14.9375C13.6875 14.8125 14 14.625 14.3125 14.3125C14.625 14 14.75 13.75 14.9375 13.375C15.0625 13.0625 15.125 12.6875 15.1875 12.125C15.1875 11.5625 15.1875 11.375 15.1875 10C15.1875 8.625 15.1875 8.4375 15.1875 7.875C15.1875 7.3125 15.0625 6.9375 14.9375 6.625C14.8125 6.3125 14.625 6 14.3125 5.6875C14 5.375 13.75 5.25 13.375 5.0625C13.0625 4.9375 12.6875 4.875 12.125 4.8125C11.5625 4.8125 11.4375 4.8125 10 4.8125Z" fill="white"/>
<path d="M10 7.3125C8.5 7.3125 7.3125 8.5 7.3125 10C7.3125 11.5 8.5 12.6875 10 12.6875C11.5 12.6875 12.6875 11.5 12.6875 10C12.6875 8.5 11.5 7.3125 10 7.3125ZM10 11.75C9.0625 11.75 8.25 11 8.25 10C8.25 9.0625 9 8.25 10 8.25C10.9375 8.25 11.75 9 11.75 10C11.75 10.9375 10.9375 11.75 10 11.75Z" fill="white"/>
<path d="M12.75 7.875C13.0952 7.875 13.375 7.59518 13.375 7.25C13.375 6.90482 13.0952 6.625 12.75 6.625C12.4048 6.625 12.125 6.90482 12.125 7.25C12.125 7.59518 12.4048 7.875 12.75 7.875Z" fill="white"/>
</svg>
