<svg width="125" height="28" viewBox="0 0 125 28" fill="none" xmlns="http://www.w3.org/2000/svg">
<circle cx="6" cy="14" r="6" fill="#F4C392"/>
<path d="M19.346 22V8.646H14.22V6.16H27.123V8.646H21.997V22H19.346ZM32.5211 22.33C31.3184 22.33 30.2624 22.0697 29.3531 21.549C28.4437 21.0283 27.7324 20.306 27.2191 19.382C26.7131 18.458 26.4601 17.3947 26.4601 16.192C26.4601 14.894 26.7094 13.7683 27.2081 12.815C27.7067 11.8543 28.3997 11.11 29.2871 10.582C30.1744 10.054 31.2011 9.79 32.3671 9.79C33.5991 9.79 34.6441 10.0797 35.5021 10.659C36.3674 11.231 37.0091 12.0413 37.4271 13.09C37.8451 14.1387 38.0027 15.3743 37.9001 16.797H35.2711V15.829C35.2637 14.5383 35.0364 13.596 34.5891 13.002C34.1417 12.408 33.4377 12.111 32.4771 12.111C31.3917 12.111 30.5851 12.4483 30.0571 13.123C29.5291 13.7903 29.2651 14.7693 29.2651 16.06C29.2651 17.2627 29.5291 18.194 30.0571 18.854C30.5851 19.514 31.3551 19.844 32.3671 19.844C33.0197 19.844 33.5807 19.701 34.0501 19.415C34.5267 19.1217 34.8934 18.7 35.1501 18.15L37.7681 18.942C37.3134 20.0127 36.6094 20.845 35.6561 21.439C34.7101 22.033 33.6651 22.33 32.5211 22.33ZM28.4291 16.797V14.795H36.6021V16.797H28.4291ZM45.5135 22.33C44.2888 22.33 43.2438 22.0587 42.3785 21.516C41.5131 20.966 40.8495 20.218 40.3875 19.272C39.9328 18.326 39.7018 17.2553 39.6945 16.06C39.7018 14.8427 39.9401 13.7647 40.4095 12.826C40.8861 11.88 41.5608 11.1393 42.4335 10.604C43.3061 10.0613 44.3438 9.79 45.5465 9.79C46.8958 9.79 48.0361 10.131 48.9675 10.813C49.9061 11.4877 50.5185 12.4117 50.8045 13.585L48.1645 14.3C47.9591 13.662 47.6181 13.167 47.1415 12.815C46.6648 12.4557 46.1221 12.276 45.5135 12.276C44.8241 12.276 44.2558 12.441 43.8085 12.771C43.3611 13.0937 43.0311 13.541 42.8185 14.113C42.6058 14.685 42.4995 15.334 42.4995 16.06C42.4995 17.1893 42.7525 18.1023 43.2585 18.799C43.7645 19.4957 44.5161 19.844 45.5135 19.844C46.2175 19.844 46.7711 19.6827 47.1745 19.36C47.5851 19.0373 47.8931 18.5717 48.0985 17.963L50.8045 18.568C50.4378 19.778 49.7961 20.7093 48.8795 21.362C47.9628 22.0073 46.8408 22.33 45.5135 22.33ZM61.2258 22V16.28C61.2258 15.906 61.2001 15.4917 61.1488 15.037C61.0974 14.5823 60.9764 14.146 60.7858 13.728C60.6024 13.3027 60.3238 12.9543 59.9498 12.683C59.5831 12.4117 59.0844 12.276 58.4538 12.276C58.1164 12.276 57.7828 12.331 57.4528 12.441C57.1228 12.551 56.8221 12.7417 56.5508 13.013C56.2868 13.277 56.0741 13.6437 55.9128 14.113C55.7514 14.575 55.6708 15.169 55.6708 15.895L54.0978 15.224C54.0978 14.212 54.2921 13.2953 54.6808 12.474C55.0768 11.6527 55.6561 11 56.4188 10.516C57.1814 10.0247 58.1201 9.779 59.2348 9.779C60.1148 9.779 60.8408 9.92567 61.4128 10.219C61.9848 10.5123 62.4394 10.8863 62.7767 11.341C63.1141 11.7957 63.3634 12.2797 63.5248 12.793C63.6861 13.3063 63.7888 13.794 63.8328 14.256C63.8841 14.7107 63.9098 15.081 63.9098 15.367V22H61.2258ZM52.9868 22V6.16H55.3518V14.498H55.6708V22H52.9868ZM70.3442 22L65.3502 6.16H68.0782L72.2582 19.426L76.4932 6.16H79.2212L74.2272 22H70.3442ZM84.9644 22.33C83.7618 22.33 82.7058 22.0697 81.7964 21.549C80.8871 21.0283 80.1758 20.306 79.6624 19.382C79.1564 18.458 78.9034 17.3947 78.9034 16.192C78.9034 14.894 79.1528 13.7683 79.6514 12.815C80.1501 11.8543 80.8431 11.11 81.7304 10.582C82.6178 10.054 83.6444 9.79 84.8104 9.79C86.0424 9.79 87.0874 10.0797 87.9454 10.659C88.8108 11.231 89.4524 12.0413 89.8704 13.09C90.2884 14.1387 90.4461 15.3743 90.3434 16.797H87.7144V15.829C87.7071 14.5383 87.4798 13.596 87.0324 13.002C86.5851 12.408 85.8811 12.111 84.9204 12.111C83.8351 12.111 83.0284 12.4483 82.5004 13.123C81.9724 13.7903 81.7084 14.7693 81.7084 16.06C81.7084 17.2627 81.9724 18.194 82.5004 18.854C83.0284 19.514 83.7984 19.844 84.8104 19.844C85.4631 19.844 86.0241 19.701 86.4934 19.415C86.9701 19.1217 87.3368 18.7 87.5934 18.15L90.2114 18.942C89.7568 20.0127 89.0528 20.845 88.0994 21.439C87.1534 22.033 86.1084 22.33 84.9644 22.33ZM80.8724 16.797V14.795H89.0454V16.797H80.8724ZM92.7978 22V10.12H95.1408V13.013L94.8548 12.639C95.0015 12.243 95.1958 11.8837 95.4378 11.561C95.6871 11.231 95.9841 10.9597 96.3288 10.747C96.6221 10.549 96.9448 10.395 97.2968 10.285C97.6561 10.1677 98.0228 10.098 98.3968 10.076C98.7708 10.0467 99.1338 10.0613 99.4858 10.12V12.595C99.1338 12.4923 98.7268 12.4593 98.2648 12.496C97.8101 12.5327 97.3995 12.661 97.0328 12.881C96.6661 13.079 96.3655 13.332 96.1308 13.64C95.9035 13.948 95.7348 14.3 95.6248 14.696C95.5148 15.0847 95.4598 15.5063 95.4598 15.961V22H92.7978ZM105.742 22.33C104.276 22.33 103.084 22 102.167 21.34C101.251 20.68 100.693 19.7523 100.495 18.557L103.201 18.139C103.341 18.7257 103.649 19.1877 104.125 19.525C104.602 19.8623 105.203 20.031 105.929 20.031C106.567 20.031 107.059 19.9063 107.403 19.657C107.755 19.4003 107.931 19.052 107.931 18.612C107.931 18.3407 107.865 18.1243 107.733 17.963C107.609 17.7943 107.33 17.633 106.897 17.479C106.465 17.325 105.801 17.1307 104.906 16.896C103.909 16.632 103.117 16.3497 102.53 16.049C101.944 15.741 101.522 15.378 101.265 14.96C101.009 14.542 100.88 14.036 100.88 13.442C100.88 12.7013 101.075 12.056 101.463 11.506C101.852 10.956 102.395 10.5343 103.091 10.241C103.788 9.94033 104.609 9.79 105.555 9.79C106.479 9.79 107.297 9.933 108.008 10.219C108.727 10.505 109.306 10.912 109.746 11.44C110.186 11.968 110.458 12.5877 110.56 13.299L107.854 13.783C107.788 13.277 107.557 12.8773 107.161 12.584C106.773 12.2907 106.252 12.1257 105.599 12.089C104.976 12.0523 104.474 12.1477 104.092 12.375C103.711 12.595 103.52 12.9067 103.52 13.31C103.52 13.5373 103.597 13.7317 103.751 13.893C103.905 14.0543 104.213 14.2157 104.675 14.377C105.145 14.5383 105.841 14.7363 106.765 14.971C107.711 15.213 108.467 15.4917 109.031 15.807C109.603 16.115 110.014 16.4853 110.263 16.918C110.52 17.3507 110.648 17.875 110.648 18.491C110.648 19.6863 110.212 20.625 109.339 21.307C108.474 21.989 107.275 22.33 105.742 22.33ZM118.459 22.33C117.256 22.33 116.2 22.0697 115.291 21.549C114.381 21.0283 113.67 20.306 113.157 19.382C112.651 18.458 112.398 17.3947 112.398 16.192C112.398 14.894 112.647 13.7683 113.146 12.815C113.644 11.8543 114.337 11.11 115.225 10.582C116.112 10.054 117.139 9.79 118.305 9.79C119.537 9.79 120.582 10.0797 121.44 10.659C122.305 11.231 122.947 12.0413 123.365 13.09C123.783 14.1387 123.94 15.3743 123.838 16.797H121.209V15.829C121.201 14.5383 120.974 13.596 120.527 13.002C120.079 12.408 119.375 12.111 118.415 12.111C117.329 12.111 116.523 12.4483 115.995 13.123C115.467 13.7903 115.203 14.7693 115.203 16.06C115.203 17.2627 115.467 18.194 115.995 18.854C116.523 19.514 117.293 19.844 118.305 19.844C118.957 19.844 119.518 19.701 119.988 19.415C120.464 19.1217 120.831 18.7 121.088 18.15L123.706 18.942C123.251 20.0127 122.547 20.845 121.594 21.439C120.648 22.033 119.603 22.33 118.459 22.33ZM114.367 16.797V14.795H122.54V16.797H114.367Z" fill="white"/>
</svg>
