<svg width="127" height="28" viewBox="0 0 127 28" fill="none" xmlns="http://www.w3.org/2000/svg">
<circle cx="6" cy="14" r="6" fill="#F4C392"/>
<path d="M21.346 22V8.646H16.22V6.16H29.123V8.646H23.997V22H21.346ZM34.5211 22.33C33.3184 22.33 32.2624 22.0697 31.3531 21.549C30.4437 21.0283 29.7324 20.306 29.2191 19.382C28.7131 18.458 28.4601 17.3947 28.4601 16.192C28.4601 14.894 28.7094 13.7683 29.2081 12.815C29.7067 11.8543 30.3997 11.11 31.2871 10.582C32.1744 10.054 33.2011 9.79 34.3671 9.79C35.5991 9.79 36.6441 10.0797 37.5021 10.659C38.3674 11.231 39.0091 12.0413 39.4271 13.09C39.8451 14.1387 40.0027 15.3743 39.9001 16.797H37.2711V15.829C37.2637 14.5383 37.0364 13.596 36.5891 13.002C36.1417 12.408 35.4377 12.111 34.4771 12.111C33.3917 12.111 32.5851 12.4483 32.0571 13.123C31.5291 13.7903 31.2651 14.7693 31.2651 16.06C31.2651 17.2627 31.5291 18.194 32.0571 18.854C32.5851 19.514 33.3551 19.844 34.3671 19.844C35.0197 19.844 35.5807 19.701 36.0501 19.415C36.5267 19.1217 36.8934 18.7 37.1501 18.15L39.7681 18.942C39.3134 20.0127 38.6094 20.845 37.6561 21.439C36.7101 22.033 35.6651 22.33 34.5211 22.33ZM30.4291 16.797V14.795H38.6021V16.797H30.4291ZM47.5135 22.33C46.2888 22.33 45.2438 22.0587 44.3785 21.516C43.5131 20.966 42.8495 20.218 42.3875 19.272C41.9328 18.326 41.7018 17.2553 41.6945 16.06C41.7018 14.8427 41.9401 13.7647 42.4095 12.826C42.8861 11.88 43.5608 11.1393 44.4335 10.604C45.3061 10.0613 46.3438 9.79 47.5465 9.79C48.8958 9.79 50.0361 10.131 50.9675 10.813C51.9061 11.4877 52.5185 12.4117 52.8045 13.585L50.1645 14.3C49.9591 13.662 49.6181 13.167 49.1415 12.815C48.6648 12.4557 48.1221 12.276 47.5135 12.276C46.8241 12.276 46.2558 12.441 45.8085 12.771C45.3611 13.0937 45.0311 13.541 44.8185 14.113C44.6058 14.685 44.4995 15.334 44.4995 16.06C44.4995 17.1893 44.7525 18.1023 45.2585 18.799C45.7645 19.4957 46.5161 19.844 47.5135 19.844C48.2175 19.844 48.7711 19.6827 49.1745 19.36C49.5851 19.0373 49.8931 18.5717 50.0985 17.963L52.8045 18.568C52.4378 19.778 51.7961 20.7093 50.8795 21.362C49.9628 22.0073 48.8408 22.33 47.5135 22.33ZM63.2258 22V16.28C63.2258 15.906 63.2001 15.4917 63.1488 15.037C63.0974 14.5823 62.9764 14.146 62.7858 13.728C62.6024 13.3027 62.3238 12.9543 61.9498 12.683C61.5831 12.4117 61.0844 12.276 60.4538 12.276C60.1164 12.276 59.7828 12.331 59.4528 12.441C59.1228 12.551 58.8221 12.7417 58.5508 13.013C58.2868 13.277 58.0741 13.6437 57.9128 14.113C57.7514 14.575 57.6708 15.169 57.6708 15.895L56.0978 15.224C56.0978 14.212 56.2921 13.2953 56.6808 12.474C57.0768 11.6527 57.6561 11 58.4188 10.516C59.1814 10.0247 60.1201 9.779 61.2348 9.779C62.1148 9.779 62.8408 9.92567 63.4128 10.219C63.9848 10.5123 64.4394 10.8863 64.7767 11.341C65.1141 11.7957 65.3634 12.2797 65.5248 12.793C65.6861 13.3063 65.7888 13.794 65.8328 14.256C65.8841 14.7107 65.9098 15.081 65.9098 15.367V22H63.2258ZM54.9868 22V6.16H57.3518V14.498H57.6708V22H54.9868ZM72.3442 22L67.3502 6.16H70.0782L74.2582 19.426L78.4932 6.16H81.2212L76.2272 22H72.3442ZM86.9644 22.33C85.7618 22.33 84.7058 22.0697 83.7964 21.549C82.8871 21.0283 82.1758 20.306 81.6624 19.382C81.1564 18.458 80.9034 17.3947 80.9034 16.192C80.9034 14.894 81.1528 13.7683 81.6514 12.815C82.1501 11.8543 82.8431 11.11 83.7304 10.582C84.6178 10.054 85.6444 9.79 86.8104 9.79C88.0424 9.79 89.0874 10.0797 89.9454 10.659C90.8108 11.231 91.4524 12.0413 91.8704 13.09C92.2884 14.1387 92.4461 15.3743 92.3434 16.797H89.7144V15.829C89.7071 14.5383 89.4798 13.596 89.0324 13.002C88.5851 12.408 87.8811 12.111 86.9204 12.111C85.8351 12.111 85.0284 12.4483 84.5004 13.123C83.9724 13.7903 83.7084 14.7693 83.7084 16.06C83.7084 17.2627 83.9724 18.194 84.5004 18.854C85.0284 19.514 85.7984 19.844 86.8104 19.844C87.4631 19.844 88.0241 19.701 88.4934 19.415C88.9701 19.1217 89.3368 18.7 89.5934 18.15L92.2114 18.942C91.7568 20.0127 91.0528 20.845 90.0994 21.439C89.1534 22.033 88.1084 22.33 86.9644 22.33ZM82.8724 16.797V14.795H91.0454V16.797H82.8724ZM94.7978 22V10.12H97.1408V13.013L96.8548 12.639C97.0015 12.243 97.1958 11.8837 97.4378 11.561C97.6871 11.231 97.9841 10.9597 98.3288 10.747C98.6221 10.549 98.9448 10.395 99.2968 10.285C99.6561 10.1677 100.023 10.098 100.397 10.076C100.771 10.0467 101.134 10.0613 101.486 10.12V12.595C101.134 12.4923 100.727 12.4593 100.265 12.496C99.8101 12.5327 99.3995 12.661 99.0328 12.881C98.6661 13.079 98.3655 13.332 98.1308 13.64C97.9035 13.948 97.7348 14.3 97.6248 14.696C97.5148 15.0847 97.4598 15.5063 97.4598 15.961V22H94.7978ZM107.742 22.33C106.276 22.33 105.084 22 104.167 21.34C103.251 20.68 102.693 19.7523 102.495 18.557L105.201 18.139C105.341 18.7257 105.649 19.1877 106.125 19.525C106.602 19.8623 107.203 20.031 107.929 20.031C108.567 20.031 109.059 19.9063 109.403 19.657C109.755 19.4003 109.931 19.052 109.931 18.612C109.931 18.3407 109.865 18.1243 109.733 17.963C109.609 17.7943 109.33 17.633 108.897 17.479C108.465 17.325 107.801 17.1307 106.906 16.896C105.909 16.632 105.117 16.3497 104.53 16.049C103.944 15.741 103.522 15.378 103.265 14.96C103.009 14.542 102.88 14.036 102.88 13.442C102.88 12.7013 103.075 12.056 103.463 11.506C103.852 10.956 104.395 10.5343 105.091 10.241C105.788 9.94033 106.609 9.79 107.555 9.79C108.479 9.79 109.297 9.933 110.008 10.219C110.727 10.505 111.306 10.912 111.746 11.44C112.186 11.968 112.458 12.5877 112.56 13.299L109.854 13.783C109.788 13.277 109.557 12.8773 109.161 12.584C108.773 12.2907 108.252 12.1257 107.599 12.089C106.976 12.0523 106.474 12.1477 106.092 12.375C105.711 12.595 105.52 12.9067 105.52 13.31C105.52 13.5373 105.597 13.7317 105.751 13.893C105.905 14.0543 106.213 14.2157 106.675 14.377C107.145 14.5383 107.841 14.7363 108.765 14.971C109.711 15.213 110.467 15.4917 111.031 15.807C111.603 16.115 112.014 16.4853 112.263 16.918C112.52 17.3507 112.648 17.875 112.648 18.491C112.648 19.6863 112.212 20.625 111.339 21.307C110.474 21.989 109.275 22.33 107.742 22.33ZM120.459 22.33C119.256 22.33 118.2 22.0697 117.291 21.549C116.381 21.0283 115.67 20.306 115.157 19.382C114.651 18.458 114.398 17.3947 114.398 16.192C114.398 14.894 114.647 13.7683 115.146 12.815C115.644 11.8543 116.337 11.11 117.225 10.582C118.112 10.054 119.139 9.79 120.305 9.79C121.537 9.79 122.582 10.0797 123.44 10.659C124.305 11.231 124.947 12.0413 125.365 13.09C125.783 14.1387 125.94 15.3743 125.838 16.797H123.209V15.829C123.201 14.5383 122.974 13.596 122.527 13.002C122.079 12.408 121.375 12.111 120.415 12.111C119.329 12.111 118.523 12.4483 117.995 13.123C117.467 13.7903 117.203 14.7693 117.203 16.06C117.203 17.2627 117.467 18.194 117.995 18.854C118.523 19.514 119.293 19.844 120.305 19.844C120.957 19.844 121.518 19.701 121.988 19.415C122.464 19.1217 122.831 18.7 123.088 18.15L125.706 18.942C125.251 20.0127 124.547 20.845 123.594 21.439C122.648 22.033 121.603 22.33 120.459 22.33ZM116.367 16.797V14.795H124.54V16.797H116.367Z" fill="#15195A"/>
</svg>
