<svg width="20" height="20" viewBox="0 0 20 20" fill="none" xmlns="http://www.w3.org/2000/svg">
<path d="M0 10C0 15.5228 4.47715 20 10 20C15.5228 20 20 15.5228 20 10C20 4.47715 15.5228 0 10 0C4.47715 0 0 4.47715 0 10Z" fill="#1DA1F2"/>
<path d="M15 6.875C14.625 7.0625 14.25 7.125 13.8125 7.1875C14.25 6.9375 14.5625 6.5625 14.6875 6.0625C14.3125 6.3125 13.875 6.4375 13.375 6.5625C13 6.1875 12.4375 5.9375 11.875 5.9375C10.5625 5.9375 9.5625 7.1875 9.875 8.4375C8.1875 8.375 6.6875 7.5625 5.625 6.3125C5.0625 7.25 5.375 8.4375 6.25 9.0625C5.9375 9.0625 5.625 8.9375 5.3125 8.8125C5.3125 9.75 6 10.625 6.9375 10.875C6.625 10.9375 6.3125 11 6 10.9375C6.25 11.75 7 12.375 7.9375 12.375C7.1875 12.9375 6.0625 13.25 5 13.125C5.9375 13.6875 7 14.0625 8.125 14.0625C11.9375 14.0625 14.0625 10.875 13.9375 7.9375C14.375 7.6875 14.75 7.3125 15 6.875Z" fill="white"/>
</svg>
