<svg width="20" height="20" viewBox="0 0 20 20" fill="none" xmlns="http://www.w3.org/2000/svg">
<g id="Social Icon">
<path id="bg" d="M0 10C0 15.5228 4.47715 20 10 20C15.5228 20 20 15.5228 20 10C20 4.47715 15.5228 0 10 0C4.47715 0 0 4.47715 0 10Z" fill="#231E1B"/>
<path id="githab" fill-rule="evenodd" clip-rule="evenodd" d="M9.98471 5.12012C7.23242 5.12012 5 7.35253 5 10.1048C5 12.3067 6.43731 14.1721 8.3945 14.8449C8.63914 14.8755 8.73089 14.7226 8.73089 14.6002C8.73089 14.4779 8.73089 14.1721 8.73089 13.744C7.35474 14.0498 7.04893 13.0712 7.04893 13.0712C6.83486 12.4901 6.49847 12.3372 6.49847 12.3372C6.03976 12.0314 6.52905 12.0314 6.52905 12.0314C7.01835 12.062 7.29358 12.5513 7.29358 12.5513C7.75229 13.3158 8.45566 13.1018 8.73089 12.9794C8.76147 12.6431 8.91437 12.429 9.0367 12.3067C7.93578 12.1843 6.7737 11.7562 6.7737 9.8296C6.7737 9.27914 6.95719 8.851 7.29358 8.48403C7.263 8.39229 7.07951 7.87241 7.35474 7.19963C7.35474 7.19963 7.78287 7.0773 8.73089 7.71951C9.12844 7.59718 9.55657 7.5666 9.98471 7.5666C10.4128 7.5666 10.841 7.62776 11.2385 7.71951C12.1865 7.0773 12.6147 7.19963 12.6147 7.19963C12.8899 7.87241 12.7064 8.39229 12.6758 8.51461C12.9817 8.851 13.1957 9.30972 13.1957 9.86018C13.1957 11.7868 12.0336 12.1843 10.9327 12.3067C11.1162 12.4596 11.2691 12.7654 11.2691 13.2241C11.2691 13.8969 11.2691 14.4168 11.2691 14.6002C11.2691 14.7226 11.3609 14.8755 11.6055 14.8449C13.5933 14.1721 15 12.3067 15 10.1048C14.9694 7.35253 12.737 5.12012 9.98471 5.12012Z" fill="white"/>
</g>
</svg>
