<svg width="32" height="32" viewBox="0 0 32 32" fill="none" xmlns="http://www.w3.org/2000/svg">
<g clip-path="url(#clip0_2018_152529)">
<path fill-rule="evenodd" clip-rule="evenodd" d="M11.0575 16.9425C10.8076 16.6924 10.6671 16.3534 10.6671 15.9998C10.6671 15.6463 10.8076 15.3072 11.0575 15.0571L18.6002 7.51447C18.7232 7.38713 18.8703 7.28555 19.033 7.21567C19.1957 7.14579 19.3706 7.10901 19.5477 7.10747C19.7247 7.10593 19.9003 7.13967 20.0641 7.20671C20.228 7.27375 20.3769 7.37276 20.5021 7.49795C20.6272 7.62314 20.7262 7.77201 20.7933 7.93587C20.8603 8.09973 20.8941 8.2753 20.8925 8.45234C20.891 8.62938 20.8542 8.80434 20.7843 8.96701C20.7145 9.12968 20.6129 9.27681 20.4855 9.39981L13.8855 15.9998L20.4855 22.5998C20.7284 22.8513 20.8628 23.1881 20.8598 23.5377C20.8567 23.8873 20.7165 24.2217 20.4693 24.4689C20.2221 24.7161 19.8877 24.8563 19.5381 24.8594C19.1885 24.8624 18.8517 24.728 18.6002 24.4851L11.0575 16.9425Z" fill="#101928"/>
</g>
<defs>
<clipPath id="clip0_2018_152529">
<rect width="32" height="32" fill="white" transform="matrix(0 1 -1 0 32 0)"/>
</clipPath>
</defs>
</svg>
