<svg width="726" height="128" viewBox="0 0 726 128" fill="none" xmlns="http://www.w3.org/2000/svg">
<g clip-path="url(#clip0_1_12)">
<path d="M650.942 -31.2257C655.033 -41.6462 665.785 -47.8539 676.855 -46.1869L696.528 -43.2245C700.091 -42.688 703.729 -42.9606 707.173 -44.0222L726.184 -49.8836C736.882 -53.1819 748.439 -48.646 754.038 -38.9517L763.987 -21.724C765.79 -18.6037 768.271 -15.9292 771.248 -13.899L787.684 -2.68984C796.933 3.61769 800.592 15.4816 796.504 25.9032L789.238 44.4233C787.922 47.7778 787.378 51.3855 787.647 54.9787L789.131 74.8177C789.966 85.9814 782.972 96.2396 772.275 99.5408L753.266 105.407C749.822 106.47 746.663 108.294 744.021 110.745L729.436 124.274C721.228 131.888 708.847 132.815 699.597 126.51L683.158 115.306C680.18 113.276 676.784 111.943 673.221 111.406L653.549 108.438C642.48 106.768 634.035 97.6668 633.197 86.5034L631.707 66.6648C631.438 63.0716 630.362 59.5852 628.561 56.4644L618.616 39.234C613.02 29.5382 614.871 17.2614 623.076 9.64584L637.658 -3.88778C640.299 -6.33902 642.354 -9.35351 643.671 -12.7076L650.942 -31.2257Z" fill="url(#paint0_linear_1_12)"/>
<circle cx="708.117" cy="36.8831" r="74.5" transform="rotate(-30 708.117 36.8831)" fill="url(#paint1_linear_1_12)"/>
<circle cx="708.117" cy="36.8831" r="74" transform="rotate(-30 708.117 36.8831)" stroke="#B9B9B9" stroke-opacity="0.3"/>
<circle cx="708.118" cy="36.8832" r="63.5" transform="rotate(-30 708.118 36.8832)" fill="url(#paint2_radial_1_12)"/>
<circle cx="708.118" cy="36.8832" r="63" transform="rotate(-30 708.118 36.8832)" stroke="#D6D6D6" stroke-opacity="0.4"/>
<circle cx="707.933" cy="37.5658" r="61" transform="rotate(-30 707.933 37.5658)" fill="#F0F1F0"/>
<g filter="url(#filter0_d_1_12)">
<path d="M693.413 12.4653L708.639 38.8391L693.337 32.6649L692.18 14.753C692.154 13.7468 692.68 12.8884 693.413 12.4653Z" fill="white"/>
<path d="M730.222 16.3463L708.671 38.8241L710.972 22.4864L727.633 15.8426C728.587 15.5026 729.542 15.7584 730.222 16.3463Z" fill="#F2F4F5"/>
<path d="M737.85 52.4614L708.641 38.8379L726.013 36.0794L737.465 49.8785C738.17 50.6631 738.228 51.6475 737.85 52.4614Z" fill="#EFF5F3"/>
<path d="M708.64 38.8393L717.754 54.6252L708.186 69.7996C707.629 70.6731 706.725 71.0245 705.83 70.9487L708.64 38.8393Z" fill="#D5DBDD"/>
<path d="M710.941 22.5003L708.637 38.8395L693.41 12.4658C693.985 12.1342 694.687 12.0246 695.359 12.2326C695.46 12.2596 695.578 12.3172 695.698 12.3774C695.818 12.4375 695.936 12.4952 696.021 12.5719L710.941 22.5003Z" fill="#DFE3E6"/>
<path d="M730.984 17.8185C730.994 17.983 731.004 18.1475 731.014 18.312C730.991 18.4956 730.951 18.6447 730.93 18.8268L726.061 36.0953L708.689 38.8537L730.24 16.3759C730.258 16.4066 730.308 16.4221 730.327 16.4552C730.346 16.4884 730.397 16.4999 730.434 16.5637C730.453 16.5969 730.453 16.5969 730.453 16.5969C730.47 16.6276 730.49 16.6608 730.507 16.6914C730.544 16.7552 730.563 16.7884 730.599 16.8497C730.794 17.118 730.945 17.4563 730.984 17.8185Z" fill="#C4C7C6"/>
<path d="M737.849 52.4609C737.764 52.6799 737.627 52.8849 737.44 53.0785C737.409 53.0962 737.409 53.0962 737.393 53.146C736.974 53.5991 736.382 53.9001 735.676 53.9266L717.751 54.6248L708.637 38.8389L737.849 52.4609Z" fill="#C0C7CE"/>
<path d="M708.636 38.8397L705.83 70.9477C705.78 70.9322 705.729 70.9207 705.679 70.9052C705.631 70.8923 705.578 70.8783 705.526 70.8642C705.478 70.8513 705.425 70.8373 705.325 70.8103C705.274 70.7988 705.224 70.7833 705.172 70.7693C705.119 70.7552 705.123 70.7563 705.104 70.7231C705.056 70.7102 705.003 70.6962 704.984 70.663C704.866 70.6054 704.746 70.5452 704.661 70.4684C704.613 70.4555 704.574 70.3891 704.506 70.347C704.438 70.3008 704.419 70.2676 704.35 70.2255C704.283 70.1794 704.228 70.0849 704.192 70.0211C704.174 69.9905 704.136 69.9241 704.118 69.8934C704.081 69.8296 704.044 69.7658 704.007 69.702C703.934 69.5743 703.86 69.4466 703.817 69.3013L697.593 52.4834L708.636 38.8397Z" fill="white"/>
<path d="M708.639 38.8393L678.398 46.2639C678.38 46.2333 678.391 46.1824 678.372 46.1492C678.366 46.0677 678.329 46.0039 678.345 45.9541C678.335 45.7896 678.344 45.6582 678.352 45.5244C678.346 45.4429 678.36 45.3905 678.388 45.2924C678.404 45.2426 678.396 45.1585 678.442 45.091C678.455 45.0427 678.485 44.9405 678.496 44.8897C678.508 44.8388 678.554 44.7713 678.568 44.7189C678.614 44.6515 678.639 44.5482 678.685 44.4807C678.698 44.4324 678.743 44.3624 678.807 44.3255C678.886 44.2389 678.928 44.1703 679.006 44.0811C679.037 44.0634 679.052 44.0136 679.116 43.9768C679.162 43.9093 679.257 43.8547 679.335 43.7655L693.419 32.6589L708.639 38.8393Z" fill="white"/>
<path d="M708.637 38.8392L697.613 52.516L680.224 48.0983C680.04 48.075 679.904 47.9867 679.736 47.9136C679.598 47.8228 679.43 47.7497 679.323 47.6412C679.256 47.595 679.186 47.5504 679.149 47.4865C678.975 47.3319 678.813 47.129 678.703 46.9375C678.666 46.8736 678.629 46.8098 678.592 46.746C678.538 46.6515 678.501 46.5877 678.478 46.4715C678.46 46.4409 678.472 46.39 678.435 46.3262C678.417 46.2955 678.429 46.2447 678.411 46.214L708.637 38.8392Z" fill="#EFF5F3"/>
</g>
</g>
<path d="M294.729 11.5471L306.198 41.3462L318.009 8.89754L294.648 0.395089C293.361 3.89262 293.305 7.84344 294.729 11.5471Z" fill="#2847EC"/>
<path d="M301.815 -7.9808C298.388 -6.07668 295.919 -3.06055 294.653 0.39256L318.013 8.89501L329.824 -23.5536L301.815 -7.9808Z" fill="url(#paint3_linear_1_12)"/>
<path d="M301.884 92.4161L329.821 107.875L318.011 75.4262L294.652 83.9225C295.914 87.4326 298.41 90.4944 301.884 92.4161Z" fill="#2747F1"/>
<path d="M294.757 72.9056C293.361 76.568 293.408 80.464 294.653 83.9229L318.013 75.4211L306.202 42.9726L294.757 72.9056Z" fill="url(#paint4_linear_1_12)"/>
<path d="M359.344 149.769L390.682 143.649L360.778 126.382L348.347 147.911C351.569 149.788 355.448 150.53 359.344 149.769Z" fill="url(#paint5_linear_1_12)"/>
<path d="M341.346 139.406C342.626 143.109 345.167 146.065 348.346 147.917L360.776 126.388L330.872 109.12L341.346 139.406Z" fill="url(#paint6_linear_1_12)"/>
<path d="M440.222 156.771L460.295 131.943L426.288 137.939L430.606 162.42C434.278 161.784 437.728 159.857 440.222 156.771Z" fill="url(#paint7_linear_1_12)"/>
<path d="M419.772 160.4C423.133 162.414 426.98 163.045 430.606 162.417L426.288 137.936L392.281 143.932L419.772 160.4Z" fill="url(#paint8_linear_1_12)"/>
<path d="M506.688 110.145L506.105 78.221L483.909 104.674L502.952 120.654C505.352 117.807 506.759 114.115 506.688 110.145Z" fill="url(#paint9_linear_1_12)"/>
<path d="M493.349 126.072C497.222 125.454 500.572 123.465 502.945 120.652L483.902 104.672L461.706 131.125L493.349 126.072Z" fill="url(#paint10_linear_1_12)"/>
<path d="M527.623 31.7074L506.658 7.62757L506.66 42.1595L531.52 42.1589C531.528 38.4305 530.232 34.6994 527.623 31.7074Z" fill="url(#paint11_linear_1_12)"/>
<path d="M527.646 52.4785C530.212 49.5177 531.501 45.8384 531.514 42.1582L506.655 42.1588L506.656 76.6908L527.646 52.4785Z" fill="url(#paint12_linear_1_12)"/>
<path d="M506.615 -25.9429C506.68 -29.8619 505.303 -33.509 502.943 -36.3342L483.901 -20.355L506.097 6.09778L506.615 -25.9429Z" fill="url(#paint13_linear_1_12)"/>
<path d="M451.526 115.473C491.862 92.185 505.682 40.6071 482.394 0.270701C459.106 -40.0657 407.528 -53.8859 367.192 -30.5977C326.855 -7.30949 313.035 44.2684 336.323 84.6048C359.612 124.941 411.189 138.761 451.526 115.473Z" fill="url(#paint14_radial_1_12)"/>
<path d="M363.466 -37.3988C319.527 -12.0303 304.47 44.1521 329.838 88.0917C355.207 132.031 411.393 147.086 455.332 121.718C499.272 96.3492 514.327 40.1632 488.958 -3.7763C463.59 -47.7158 407.406 -62.7673 363.466 -37.3988ZM451.561 115.186C411.228 138.472 359.656 124.654 336.37 84.3207C313.083 43.9877 326.902 -7.58458 367.235 -30.8708C407.568 -54.1571 459.14 -40.3383 482.427 -0.00534947C505.713 40.3276 491.894 91.8999 451.561 115.186Z" fill="url(#paint15_linear_1_12)"/>
<path d="M357.607 -47.551C308.061 -18.9457 291.086 44.4047 319.692 93.9506C348.297 143.496 411.647 160.471 461.193 131.866C510.739 103.261 527.714 39.9101 499.108 -9.63576C470.503 -59.1816 407.153 -76.1563 357.607 -47.551ZM455.312 121.679C411.393 147.036 355.235 131.988 329.878 88.0693C304.522 44.1507 319.572 -12.0044 363.49 -37.3608C407.409 -62.7173 463.567 -47.6696 488.924 -3.75098C514.28 40.1677 499.231 96.3227 455.312 121.679Z" fill="url(#paint16_linear_1_12)"/>
<path d="M410.394 90.3846C409.176 91.0874 407.821 91.3504 406.421 91.2311C406.243 91.2185 406.105 91.1817 405.968 91.145C405.857 91.1535 405.762 91.0926 405.694 91.0715C405.444 91.0397 405.283 90.9613 405.08 90.9069C404.942 90.8701 404.847 90.8093 404.713 90.7705L404.647 90.7529C404.51 90.7161 404.415 90.6553 404.323 90.5924L404.16 90.5105C403.835 90.35 403.556 90.1635 403.273 89.9789C403.157 89.8744 403.036 89.7683 402.916 89.6657C402.798 89.5577 402.655 89.4134 402.536 89.3053C402.391 89.1575 402.225 88.966 402.053 88.773C402.003 88.686 401.887 88.5814 401.837 88.4945C401.736 88.3206 401.594 88.1708 401.494 87.9969C401.319 87.6943 401.184 87.3642 401.028 86.9903L393.138 65.5964L371.066 59.9763C370.654 59.8661 370.219 59.7141 369.827 59.5325C369.341 59.2936 368.99 59.0879 368.661 58.8144C368.545 58.7099 368.357 58.5862 368.186 58.3932C367.752 57.9478 367.368 57.4743 367.042 56.9109C366.942 56.737 366.868 56.6083 366.767 56.4344C366.617 56.1736 366.508 55.8886 366.444 55.5776C366.42 55.5358 366.412 55.4248 366.385 55.3796C366.354 55.2213 366.28 55.0927 366.248 54.9399C366.223 54.8981 366.213 54.7836 366.184 54.6288C366.149 54.4726 366.12 54.3178 366.133 54.1389C366.111 53.8038 366.093 53.4666 366.133 53.0396C366.12 52.8155 366.174 52.6125 366.23 52.404C366.23 52.404 366.206 52.3623 366.248 52.3382L366.291 50.8063L366.9 50.4549C366.96 50.3595 366.978 50.2937 367.039 50.1983C367.102 50.1063 367.225 49.919 367.304 49.7577C367.428 49.5704 367.593 49.359 367.804 49.1214C367.867 49.0295 367.969 48.91 368.101 48.8337C368.251 48.6915 368.399 48.5459 368.588 48.3762L386.507 34.2655L384.95 11.7052C384.778 9.19845 386.029 6.85271 388.2 5.59975C389.765 4.69617 391.66 4.46906 393.398 4.97289C393.696 5.08812 393.97 5.16162 394.225 5.30643C394.55 5.46687 394.874 5.62732 395.154 5.81387L414.069 18.4082L435.203 9.97164C437.552 9.01925 440.212 9.51448 442.065 11.2222C442.187 11.3283 442.277 11.3877 442.353 11.5198C442.377 11.5616 442.377 11.5616 442.445 11.5827C442.563 11.6907 442.682 11.7933 442.783 11.9672C442.807 12.009 442.807 12.009 442.833 12.0542C442.975 12.204 443.049 12.3326 443.15 12.5065C443.671 13.3047 444.041 14.2505 444.145 15.2338C444.213 15.6579 444.218 16.0588 444.175 16.4914L444.154 16.5592C444.113 16.9863 444.029 17.443 443.919 17.8544L437.75 39.7791L452.306 57.2645C453.883 59.1921 454.287 61.7965 453.256 64.1307C452.996 64.6843 452.651 65.2916 452.23 65.7666C452.185 65.7928 452.169 65.8621 452.082 65.9123C451.619 66.4114 451.102 66.8257 450.539 67.151C449.628 67.6771 448.589 67.9895 447.513 68.0307L424.758 68.9449L412.589 88.1946C412.092 89.1168 411.305 89.8585 410.394 90.3846Z" fill="#E7E7E7"/>
<path d="M389.804 8.37833L410.546 44.3048L389.702 35.8943L388.126 11.4946C388.09 10.1239 388.806 8.95461 389.804 8.37833Z" fill="#B820A9"/>
<path d="M439.948 13.6647L410.591 44.2842L413.727 22.0288L436.422 12.9786C437.722 12.5155 439.022 12.8639 439.948 13.6647Z" fill="#A80CCF"/>
<path d="M450.34 62.8608L410.551 44.3027L434.215 40.5452L449.816 59.3424C450.776 60.4111 450.855 61.7521 450.34 62.8608Z" fill="#CF0CBC"/>
<path d="M410.544 44.3046L422.959 65.8083L409.927 86.4789C409.167 87.6688 407.936 88.1475 406.718 88.0444L410.544 44.3046Z" fill="#AC289F"/>
<path d="M413.686 22.048L410.547 44.3054L389.805 8.37891C390.587 7.92712 391.544 7.7779 392.459 8.06124C392.596 8.09799 392.758 8.17647 392.921 8.25843C393.084 8.34039 393.245 8.41888 393.361 8.52347L413.686 22.048Z" fill="#CF0CBC"/>
<path d="M440.989 15.6696C441.003 15.8937 441.016 16.1178 441.03 16.3419C440.998 16.5921 440.944 16.7951 440.915 17.0433L434.283 40.5665L410.619 44.3241L439.975 13.7046C439.999 13.7463 440.067 13.7675 440.093 13.8127C440.119 13.8579 440.189 13.8735 440.239 13.9605C440.265 14.0057 440.265 14.0057 440.265 14.0057C440.289 14.0474 440.315 14.0926 440.339 14.1344C440.39 14.2213 440.416 14.2665 440.464 14.35C440.731 14.7154 440.936 15.1762 440.989 15.6696Z" fill="#E63ED5"/>
<path d="M450.34 62.8607C450.225 63.1591 450.038 63.4384 449.782 63.702C449.741 63.7261 449.741 63.7261 449.719 63.7939C449.148 64.4112 448.342 64.8212 447.38 64.8574L422.962 65.8084L410.547 44.3047L450.34 62.8607Z" fill="#ED28D9"/>
<path d="M410.546 44.3054L406.723 88.0432C406.656 88.0221 406.586 88.0065 406.518 87.9853C406.453 87.9677 406.381 87.9486 406.31 87.9295C406.244 87.9118 406.173 87.8927 406.036 87.856C405.966 87.8404 405.898 87.8192 405.827 87.8001C405.756 87.781 405.761 87.7825 405.735 87.7373C405.669 87.7196 405.598 87.7005 405.572 87.6553C405.411 87.5768 405.247 87.4949 405.131 87.3903C405.066 87.3726 405.013 87.2822 404.92 87.2249C404.828 87.162 404.802 87.1168 404.709 87.0594C404.617 86.9966 404.542 86.8679 404.492 86.781C404.468 86.7392 404.416 86.6488 404.392 86.6071C404.342 86.5201 404.291 86.4332 404.241 86.3462C404.141 86.1723 404.04 85.9984 403.982 85.8004L395.503 62.8909L410.546 44.3054Z" fill="#D133C1"/>
<path d="M410.547 44.3054L369.351 54.4193C369.327 54.3776 369.342 54.3083 369.316 54.2631C369.308 54.152 369.258 54.0651 369.279 53.9972C369.265 53.7731 369.278 53.5943 369.289 53.4119C369.28 53.3009 369.299 53.2296 369.338 53.0959C369.359 53.028 369.349 52.9135 369.412 52.8216C369.429 52.7558 369.469 52.6166 369.485 52.5473C369.501 52.478 369.564 52.3861 369.583 52.3147C369.646 52.2228 369.68 52.0822 369.743 51.9903C369.761 51.9244 369.822 51.829 369.909 51.7788C370.017 51.6608 370.074 51.5674 370.18 51.4459C370.222 51.4218 370.243 51.3539 370.33 51.3037C370.393 51.2118 370.521 51.1375 370.627 51.016L389.813 35.8864L410.547 44.3054Z" fill="#EC24D8"/>
<path d="M410.545 44.3054L395.528 62.9361L371.841 56.9183C371.59 56.8865 371.405 56.7663 371.176 56.6667C370.989 56.543 370.759 56.4434 370.614 56.2956C370.522 56.2327 370.427 56.1719 370.376 56.0849C370.139 55.8743 369.919 55.5978 369.768 55.337C369.718 55.25 369.668 55.1631 369.618 55.0761C369.543 54.9475 369.493 54.8605 369.462 54.7023C369.438 54.6605 369.454 54.5912 369.403 54.5043C369.379 54.4625 369.395 54.3932 369.371 54.3515L410.545 44.3054Z" fill="#B736AA"/>
<g style="mix-blend-mode:hard-light" clip-path="url(#clip1_1_12)">
<path d="M86.248 69.4565C90.0513 57.8004 102.029 50.8851 114.025 53.4195L119.555 54.5877C125.62 55.8691 131.947 54.7536 137.208 51.4749L142.005 48.4859C152.411 42.0015 166.031 44.4031 173.592 54.0555L177.077 58.5047C180.899 63.3854 186.463 66.5973 192.601 67.4677L198.197 68.2612C210.336 69.9826 219.226 80.5774 218.813 92.8314L218.623 98.4798C218.414 104.676 220.612 110.712 224.754 115.325L228.531 119.529C236.724 128.651 236.724 142.482 228.531 151.603L224.754 155.808C220.612 160.42 218.414 166.457 218.623 172.653L218.813 178.301C219.226 190.555 210.336 201.15 198.197 202.872L192.601 203.665C186.463 204.536 180.899 207.747 177.077 212.628L173.592 217.077C166.031 226.73 152.411 229.131 142.005 222.647L137.208 219.658C131.947 216.379 125.62 215.264 119.555 216.545L114.025 217.713C102.029 220.248 90.0513 213.332 86.248 201.676L84.4949 196.303C82.5718 190.41 78.4426 185.489 72.9723 182.571L67.9855 179.912C57.1669 174.142 52.4366 161.146 57.0155 149.772L59.1262 144.529C61.4415 138.778 61.4415 132.354 59.1262 126.603L57.0155 121.361C52.4366 109.987 57.1669 96.9905 67.9855 91.2209L72.9723 88.5615C78.4426 85.6442 82.5718 80.7232 84.4949 74.8294L86.248 69.4565Z" fill="url(#paint17_linear_1_12)"/>
<g filter="url(#filter1_d_1_12)">
<circle cx="143.117" cy="134.883" r="74.5" transform="rotate(-30 143.117 134.883)" fill="url(#paint18_linear_1_12)"/>
<circle cx="143.117" cy="134.883" r="74" transform="rotate(-30 143.117 134.883)" stroke="white" stroke-opacity="0.3"/>
</g>
<circle cx="143.118" cy="134.883" r="63.5" transform="rotate(-30 143.118 134.883)" fill="url(#paint19_radial_1_12)"/>
<circle cx="143.118" cy="134.883" r="63" transform="rotate(-30 143.118 134.883)" stroke="#FFFBFB" stroke-opacity="0.4"/>
<circle cx="142.933" cy="135.566" r="61" transform="rotate(-30 142.933 135.566)" fill="url(#paint20_linear_1_12)"/>
<g filter="url(#filter2_d_1_12)">
<path d="M123.975 101.479L144.614 137.227L123.873 128.858L122.305 104.58C122.269 103.216 122.982 102.053 123.975 101.479Z" fill="white"/>
<path d="M173.871 106.739L144.661 137.206L147.78 115.061L170.362 106.056C171.656 105.595 172.95 105.942 173.871 106.739Z" fill="#F2F4F5"/>
<path d="M184.209 155.69L144.617 137.225L168.164 133.486L183.687 152.189C184.642 153.253 184.721 154.587 184.209 155.69Z" fill="#EFF5F3"/>
<path d="M147.739 115.08L144.615 137.226L123.977 101.479C124.755 101.029 125.708 100.881 126.618 101.162C126.754 101.199 126.915 101.277 127.077 101.359C127.24 101.44 127.4 101.518 127.516 101.622L147.739 115.08Z" fill="#DFE3E6"/>
<path d="M174.906 108.734C174.92 108.957 174.933 109.18 174.946 109.403C174.915 109.652 174.861 109.854 174.833 110.101L168.233 133.507L144.687 137.246L173.897 106.779C173.921 106.82 173.989 106.841 174.015 106.886C174.041 106.931 174.11 106.947 174.16 107.033C174.186 107.078 174.186 107.078 174.186 107.078C174.21 107.12 174.236 107.165 174.26 107.206C174.31 107.293 174.336 107.338 174.384 107.421C174.649 107.784 174.854 108.243 174.906 108.734Z" fill="#C4C7C6"/>
<path d="M184.212 155.69C184.097 155.987 183.912 156.265 183.657 156.527C183.616 156.551 183.616 156.551 183.595 156.619C183.027 157.233 182.224 157.641 181.267 157.677L156.971 158.623L144.617 137.227L184.212 155.69Z" fill="#C0C7CE"/>
<path d="M144.616 137.226L103.626 147.29C103.602 147.248 103.617 147.179 103.591 147.134C103.583 147.024 103.533 146.937 103.554 146.87C103.54 146.647 103.553 146.469 103.564 146.287C103.555 146.177 103.574 146.106 103.613 145.973C103.634 145.905 103.623 145.791 103.686 145.7C103.703 145.634 103.743 145.496 103.759 145.427C103.775 145.358 103.837 145.267 103.856 145.196C103.919 145.104 103.953 144.964 104.016 144.873C104.033 144.807 104.094 144.712 104.18 144.662C104.288 144.545 104.345 144.452 104.45 144.331C104.492 144.307 104.513 144.24 104.6 144.19C104.662 144.098 104.79 144.024 104.896 143.903L123.985 128.849L144.616 137.226Z" fill="white"/>
<path d="M144.617 137.226L129.675 155.764L106.105 149.776C105.856 149.744 105.672 149.625 105.444 149.526C105.257 149.403 105.029 149.303 104.884 149.156C104.793 149.094 104.698 149.033 104.648 148.947C104.412 148.737 104.193 148.462 104.043 148.203C103.993 148.116 103.943 148.03 103.893 147.943C103.819 147.815 103.769 147.728 103.738 147.571C103.714 147.529 103.73 147.461 103.68 147.374C103.656 147.332 103.672 147.264 103.648 147.222L144.617 137.226Z" fill="#EFF5F3"/>
</g>
</g>
<defs>
<filter id="filter0_d_1_12" x="676.34" y="10.127" width="63.7422" height="62.832" filterUnits="userSpaceOnUse" color-interpolation-filters="sRGB">
<feFlood flood-opacity="0" result="BackgroundImageFix"/>
<feColorMatrix in="SourceAlpha" type="matrix" values="0 0 0 0 0 0 0 0 0 0 0 0 0 0 0 0 0 0 127 0" result="hardAlpha"/>
<feOffset/>
<feGaussianBlur stdDeviation="1"/>
<feComposite in2="hardAlpha" operator="out"/>
<feColorMatrix type="matrix" values="0 0 0 0 0 0 0 0 0 0 0 0 0 0 0 0 0 0 0.15 0"/>
<feBlend mode="normal" in2="BackgroundImageFix" result="effect1_dropShadow_1_12"/>
<feBlend mode="normal" in="SourceGraphic" in2="effect1_dropShadow_1_12" result="shape"/>
</filter>
<filter id="filter1_d_1_12" x="63.6055" y="56.3711" width="159.023" height="159.024" filterUnits="userSpaceOnUse" color-interpolation-filters="sRGB">
<feFlood flood-opacity="0" result="BackgroundImageFix"/>
<feColorMatrix in="SourceAlpha" type="matrix" values="0 0 0 0 0 0 0 0 0 0 0 0 0 0 0 0 0 0 127 0" result="hardAlpha"/>
<feOffset dy="1"/>
<feGaussianBlur stdDeviation="2.5"/>
<feComposite in2="hardAlpha" operator="out"/>
<feColorMatrix type="matrix" values="0 0 0 0 0 0 0 0 0 0 0 0 0 0 0 0 0 0 0.25 0"/>
<feBlend mode="normal" in2="BackgroundImageFix" result="effect1_dropShadow_1_12"/>
<feBlend mode="normal" in="SourceGraphic" in2="effect1_dropShadow_1_12" result="shape"/>
</filter>
<filter id="filter2_d_1_12" x="101.547" y="99.0186" width="84.9727" height="83.7441" filterUnits="userSpaceOnUse" color-interpolation-filters="sRGB">
<feFlood flood-opacity="0" result="BackgroundImageFix"/>
<feColorMatrix in="SourceAlpha" type="matrix" values="0 0 0 0 0 0 0 0 0 0 0 0 0 0 0 0 0 0 127 0" result="hardAlpha"/>
<feOffset/>
<feGaussianBlur stdDeviation="1"/>
<feComposite in2="hardAlpha" operator="out"/>
<feColorMatrix type="matrix" values="0 0 0 0 0 0 0 0 0 0 0 0 0 0 0 0 0 0 0.15 0"/>
<feBlend mode="normal" in2="BackgroundImageFix" result="effect1_dropShadow_1_12"/>
<feBlend mode="normal" in="SourceGraphic" in2="effect1_dropShadow_1_12" result="shape"/>
</filter>
<linearGradient id="paint0_linear_1_12" x1="630.858" y1="82.0664" x2="777.217" y2="-2.43359" gradientUnits="userSpaceOnUse">
<stop offset="0.00520833" stop-color="#64BD87"/>
<stop offset="0.338542" stop-color="#005427"/>
<stop offset="0.671875" stop-color="#003A1B"/>
<stop offset="1" stop-color="#64BD87"/>
</linearGradient>
<linearGradient id="paint1_linear_1_12" x1="633.617" y1="37.3831" x2="782.617" y2="37.3831" gradientUnits="userSpaceOnUse">
<stop stop-color="#64BD87"/>
<stop offset="0.380208" stop-color="#005427"/>
<stop offset="0.720113" stop-color="#006F37"/>
<stop offset="1" stop-color="#64BD87"/>
</linearGradient>
<radialGradient id="paint2_radial_1_12" cx="0" cy="0" r="1" gradientUnits="userSpaceOnUse" gradientTransform="translate(707.618 37.3832) rotate(-0.0660931) scale(64)">
<stop offset="0.942708" stop-color="#5E7C6A" stop-opacity="0.8"/>
<stop offset="1" stop-color="white" stop-opacity="0.13"/>
</radialGradient>
<linearGradient id="paint3_linear_1_12" x1="307.072" y1="2.59271" x2="321.201" y2="-36.2311" gradientUnits="userSpaceOnUse">
<stop stop-color="#082ADB"/>
<stop offset="1" stop-color="#001587"/>
</linearGradient>
<linearGradient id="paint4_linear_1_12" x1="306.657" y1="42.6278" x2="305.861" y2="76.9662" gradientUnits="userSpaceOnUse">
<stop stop-color="#001BAA"/>
<stop offset="1" stop-color="#2F50FF"/>
</linearGradient>
<linearGradient id="paint5_linear_1_12" x1="351.944" y1="137.855" x2="389.031" y2="140.01" gradientUnits="userSpaceOnUse">
<stop stop-color="#1B35C1"/>
<stop offset="1" stop-color="#6E83F4"/>
</linearGradient>
<linearGradient id="paint6_linear_1_12" x1="331.504" y1="109.507" x2="353.725" y2="136.939" gradientUnits="userSpaceOnUse">
<stop stop-color="#3047C1"/>
<stop offset="1" stop-color="#0623BD"/>
</linearGradient>
<linearGradient id="paint7_linear_1_12" x1="430.001" y1="149.763" x2="459.917" y2="140.347" gradientUnits="userSpaceOnUse">
<stop stop-color="#4E62CE"/>
<stop offset="1" stop-color="#0C2296"/>
</linearGradient>
<linearGradient id="paint8_linear_1_12" x1="390.822" y1="144.467" x2="426.607" y2="150.32" gradientUnits="userSpaceOnUse">
<stop stop-color="#001BAA"/>
<stop offset="1" stop-color="#465EDF"/>
</linearGradient>
<linearGradient id="paint9_linear_1_12" x1="506.111" y1="77.9872" x2="493.916" y2="112.851" gradientUnits="userSpaceOnUse">
<stop stop-color="#1B2E93"/>
<stop offset="1" stop-color="#0D2FE3"/>
</linearGradient>
<linearGradient id="paint10_linear_1_12" x1="462.931" y1="133" x2="492.871" y2="113.423" gradientUnits="userSpaceOnUse">
<stop stop-color="#0D2084"/>
<stop offset="1" stop-color="#2242EE"/>
</linearGradient>
<linearGradient id="paint11_linear_1_12" x1="507.858" y1="7.0801" x2="519.12" y2="40.9488" gradientUnits="userSpaceOnUse">
<stop stop-color="#0C1E7E"/>
<stop offset="1" stop-color="#0729E0"/>
</linearGradient>
<linearGradient id="paint12_linear_1_12" x1="519.084" y1="7.70635" x2="519.083" y2="76.7699" gradientUnits="userSpaceOnUse">
<stop stop-color="#001CAD"/>
<stop offset="1" stop-color="#1E3EE7"/>
</linearGradient>
<linearGradient id="paint13_linear_1_12" x1="504.932" y1="6.66952" x2="494.016" y2="-28.49" gradientUnits="userSpaceOnUse">
<stop stop-color="#889BFF"/>
<stop offset="1" stop-color="#0C2EE1"/>
</linearGradient>
<radialGradient id="paint14_radial_1_12" cx="0" cy="0" r="1" gradientUnits="userSpaceOnUse" gradientTransform="translate(409.358 42.436) rotate(-30) scale(84.3341)">
<stop offset="0.8428" stop-color="#5570FF"/>
<stop offset="1" stop-color="#0125E4"/>
</radialGradient>
<linearGradient id="paint15_linear_1_12" x1="363.466" y1="-37.4005" x2="455.334" y2="121.719" gradientUnits="userSpaceOnUse">
<stop offset="0.0226" stop-color="#FD9A18"/>
<stop offset="0.3764" stop-color="#FEC752"/>
<stop offset="1" stop-color="#FFA422"/>
</linearGradient>
<linearGradient id="paint16_linear_1_12" x1="357.456" y1="-47.8142" x2="461.042" y2="131.603" gradientUnits="userSpaceOnUse">
<stop stop-color="#FF9114"/>
<stop offset="0.109375" stop-color="#FFDB69"/>
<stop offset="0.177083" stop-color="#FEE7B0"/>
<stop offset="0.421875" stop-color="#FEE9BA"/>
<stop offset="0.661458" stop-color="#FEE1A2"/>
<stop offset="0.911458" stop-color="#FFC853"/>
<stop offset="1" stop-color="#F57E16"/>
</linearGradient>
<linearGradient id="paint17_linear_1_12" x1="65.8583" y1="180.066" x2="212.217" y2="95.5664" gradientUnits="userSpaceOnUse">
<stop offset="0.00520833" stop-color="#FFFCA8"/>
<stop offset="0.338542" stop-color="#FDB836"/>
<stop offset="0.671875" stop-color="#FDC966"/>
<stop offset="1" stop-color="#F1DC83"/>
</linearGradient>
<linearGradient id="paint18_linear_1_12" x1="68.6165" y1="135.383" x2="217.617" y2="135.383" gradientUnits="userSpaceOnUse">
<stop stop-color="#FFFCA8"/>
<stop offset="0.380208" stop-color="#FDB836"/>
<stop offset="0.720113" stop-color="#FDC966"/>
<stop offset="1" stop-color="#F1DC83"/>
</linearGradient>
<radialGradient id="paint19_radial_1_12" cx="0" cy="0" r="1" gradientUnits="userSpaceOnUse" gradientTransform="translate(142.618 135.383) rotate(-0.0660931) scale(64)">
<stop offset="0.942708" stop-color="#BBBBBB"/>
<stop offset="1" stop-color="white" stop-opacity="0.13"/>
</radialGradient>
<linearGradient id="paint20_linear_1_12" x1="92.433" y1="96.0658" x2="201.933" y2="153.066" gradientUnits="userSpaceOnUse">
<stop offset="0.432133" stop-color="white"/>
<stop offset="0.905325" stop-color="white" stop-opacity="0.68"/>
</linearGradient>
<clipPath id="clip0_1_12">
<rect width="210" height="207" fill="white" transform="translate(565) rotate(-30)"/>
</clipPath>
<clipPath id="clip1_1_12">
<rect width="210" height="207" fill="white" transform="translate(0 98) rotate(-30)"/>
</clipPath>
</defs>
</svg>
