<svg xmlns="http://www.w3.org/2000/svg" width="25" height="28" viewBox="0 0 25 28" fill="none">
  <path d="M20.5 27.6136C19.3611 27.6136 18.3931 27.215 17.5958 26.4178C16.7986 25.6205 16.4 24.6525 16.4 23.5136C16.4 23.3542 16.4114 23.1888 16.4342 23.0175C16.4569 22.8462 16.4911 22.6927 16.5367 22.5569L6.90167 16.9536C6.51444 17.2953 6.08167 17.5631 5.60333 17.7572C5.125 17.9513 4.62389 18.0478 4.1 18.0469C2.96111 18.0469 1.99306 17.6483 1.19583 16.8511C0.398611 16.0539 0 15.0858 0 13.9469C0 12.8081 0.398611 11.84 1.19583 11.0428C1.99306 10.2456 2.96111 9.84694 4.1 9.84694C4.62389 9.84694 5.125 9.94397 5.60333 10.138C6.08167 10.3321 6.51444 10.5995 6.90167 10.9403L16.5367 5.33694C16.4911 5.20027 16.4569 5.04675 16.4342 4.87637C16.4114 4.706 16.4 4.54063 16.4 4.38027C16.4 3.24138 16.7986 2.27333 17.5958 1.47611C18.3931 0.678885 19.3611 0.280273 20.5 0.280273C21.6389 0.280273 22.6069 0.678885 23.4042 1.47611C24.2014 2.27333 24.6 3.24138 24.6 4.38027C24.6 5.51916 24.2014 6.48722 23.4042 7.28444C22.6069 8.08166 21.6389 8.48027 20.5 8.48027C19.9761 8.48027 19.475 8.3837 18.9967 8.19054C18.5183 7.99738 18.0856 7.72952 17.6983 7.38694L8.06333 12.9903C8.10889 13.1269 8.14306 13.2809 8.16583 13.4522C8.18861 13.6235 8.2 13.7884 8.2 13.9469C8.2 14.1064 8.18861 14.2717 8.16583 14.443C8.14306 14.6143 8.10889 14.7678 8.06333 14.9036L17.6983 20.5069C18.0856 20.1653 18.5183 19.8979 18.9967 19.7047C19.475 19.5115 19.9761 19.4145 20.5 19.4136C21.6389 19.4136 22.6069 19.8122 23.4042 20.6094C24.2014 21.4067 24.6 22.3747 24.6 23.5136C24.6 24.6525 24.2014 25.6205 23.4042 26.4178C22.6069 27.215 21.6389 27.6136 20.5 27.6136Z" fill="#009254"/>
</svg>