<svg width="89" height="42" viewBox="0 0 89 42" fill="none" xmlns="http://www.w3.org/2000/svg">
<g id="Card-Payments-1--Finance-money-Card-Payments-1">
<g id="bill">
<path id="Vector" d="M5.94884 27.1625C3.58098 25.982 1.58069 24.1769 0.164062 21.9423C1.10882 22.2243 2.09989 22.3202 3.08169 22.2243C6.70279 22.0854 10.3244 21.6602 13.7574 20.4844C14.405 21.6464 15.3173 22.6394 16.4204 23.383C17.5234 24.1265 18.7862 24.5997 20.1063 24.764C19.683 24.7177 18.6512 25.4281 18.2723 25.6106C17.6627 25.8899 17.0341 26.1256 16.3912 26.3159C13.235 27.3079 8.80534 28.5769 5.94884 27.1625Z" fill="white"/>
<path id="Vector_2" d="M9.01012 27.9771C7.92764 28.0032 6.85416 27.7746 5.87622 27.3098C3.47867 26.1202 1.45463 24.2938 0.0256782 22.0307C0.00771796 22.0025 -0.00119548 21.9695 0.000128797 21.936C0.00145307 21.9026 0.0129522 21.8703 0.0330893 21.8436C0.0532265 21.8169 0.0810424 21.7969 0.11282 21.7864C0.144598 21.7759 0.178824 21.7754 0.210924 21.7848C1.13484 22.0608 2.10368 22.1544 3.06372 22.0604C7.36328 21.8927 10.7408 21.3426 13.7019 20.3288C13.7383 20.3162 13.778 20.3168 13.814 20.3305C13.85 20.3442 13.88 20.3702 13.8988 20.4038C14.5361 21.5415 15.4313 22.5139 16.5127 23.2427C17.594 23.9716 18.8312 24.4367 20.1249 24.6006C20.1518 24.6036 20.1776 24.6132 20.1999 24.6286C20.2222 24.644 20.2404 24.6647 20.2527 24.6889C20.265 24.713 20.2712 24.7398 20.2706 24.7669C20.2701 24.794 20.2628 24.8206 20.2495 24.8442C20.2337 24.8727 20.2097 24.8959 20.1807 24.9107C20.1516 24.9256 20.1188 24.9314 20.0865 24.9275C19.7377 24.8891 18.686 25.587 18.3442 25.7579C16.4843 26.6165 11.7629 27.9771 9.01012 27.9771ZM0.540663 22.2141C1.92311 24.261 3.81138 25.9155 6.0221 27.0171C7.98802 27.9896 10.3226 27.646 12.3598 27.2385C14.356 26.8211 16.3111 26.2271 18.202 25.4634C18.4378 25.3453 18.9125 25.034 19.3751 24.8118C18.1903 24.5597 17.0714 24.0624 16.0903 23.3519C15.1093 22.6414 14.2878 21.7334 13.6788 20.6863C10.7148 21.6829 7.34614 22.2253 3.08502 22.391C2.23295 22.473 1.37319 22.4133 0.540663 22.2141Z" fill="#191C1D"/>
<path id="Vector_3" d="M7.92388 26.6688C7.88286 26.6679 7.84363 26.6518 7.81378 26.6237C7.78393 26.5956 7.76557 26.5573 7.76225 26.5164C7.75893 26.4754 7.77118 26.4346 7.79659 26.4021C7.82199 26.3697 7.85867 26.348 7.89934 26.3414C9.73495 26.0625 11.5364 25.5926 13.2743 24.9391C13.3146 24.9259 13.3584 24.9288 13.3967 24.9471C13.4349 24.9655 13.4646 24.998 13.4794 25.0377C13.4945 25.0773 13.4937 25.1211 13.4772 25.1601C13.4607 25.1991 13.4298 25.2303 13.391 25.247C11.6222 25.9073 9.79019 26.3837 7.92388 26.6688Z" fill="#33A467"/>
<path id="Vector_4" d="M5.1756 24.6478C7.8548 24.3162 10.4918 23.704 13.043 22.8212C13.0638 22.8128 13.086 22.8086 13.1084 22.8091C13.1308 22.8095 13.1529 22.8145 13.1734 22.8237C13.1938 22.833 13.2121 22.8463 13.2272 22.8629C13.2423 22.8794 13.2538 22.8989 13.2612 22.9201C13.2685 22.9413 13.2714 22.9637 13.2697 22.9861C13.2681 23.0084 13.2619 23.0302 13.2515 23.0501C13.2411 23.07 13.2268 23.0875 13.2095 23.1017C13.1921 23.1159 13.172 23.1263 13.1504 23.1325C10.5774 24.0226 7.91795 24.6399 5.21589 24.9743C5.17266 24.9793 5.1292 24.9671 5.09489 24.9403C5.06058 24.9135 5.03817 24.8743 5.0325 24.8312C5.02984 24.8097 5.03144 24.788 5.03719 24.7672C5.04295 24.7463 5.05275 24.7268 5.06604 24.7098C5.07933 24.6928 5.09585 24.6785 5.11465 24.6679C5.13345 24.6572 5.15416 24.6504 5.1756 24.6478Z" fill="#33A467"/>
<path id="Vector_5" d="M19.0695 9.47892C18.5074 10.0991 18.1096 10.8502 17.9125 11.6636C17.7153 12.477 17.7251 13.3269 17.9409 14.1355C18.4582 15.7342 19.916 16.8161 21.1859 17.8979C22.4558 18.9797 23.7571 20.3431 23.7724 22.0363C23.796 24.67 21.4189 25.8366 19.2107 26.41C15.7978 27.2811 12.2925 27.739 8.77025 27.7738C9.707 27.69 10.6262 27.4681 11.498 27.1153C11.9557 26.9311 12.3687 26.6511 12.7094 26.2943C13.05 25.9374 13.3104 25.5118 13.4732 25.0461C13.5493 24.6514 13.5382 24.2449 13.4407 23.855C13.3431 23.4651 13.1616 23.1012 12.9086 22.7889C12.4006 22.1688 11.816 21.6158 11.1687 21.1429C9.78192 20.1381 8.60052 18.8768 7.68841 17.4274C7.10905 16.496 6.51256 15.2169 6.65381 14.0883C6.79506 12.9597 8.39281 12.2993 9.28709 11.688C10.6019 10.7918 12.3978 10.3913 13.896 9.85404C17.0619 8.71941 20.0554 7.54958 23.3959 6.98273C21.7363 7.36262 20.229 8.23225 19.0695 9.47892Z" fill="white"/>
<path id="Vector_6" d="M8.77178 27.9387C8.74045 27.9383 8.70985 27.9291 8.68355 27.9121C8.65725 27.895 8.63632 27.8709 8.62318 27.8424C8.61004 27.814 8.60524 27.7824 8.60933 27.7513C8.61342 27.7202 8.62623 27.6909 8.64628 27.6669C8.67376 27.6349 8.71231 27.6146 8.75418 27.6099C9.67578 27.5321 10.5798 27.3135 11.4347 26.9615C11.8712 26.7863 12.2651 26.5196 12.59 26.1795C12.9148 25.8394 13.1631 25.4336 13.3182 24.9896C13.382 24.6211 13.367 24.2434 13.2742 23.8811C13.1815 23.5189 13.013 23.1804 12.78 22.888C12.2804 22.2813 11.7072 21.7393 11.0735 21.2745C9.68851 20.2366 8.49617 18.964 7.55055 17.5144C6.71972 16.1293 6.37377 15.0025 6.49094 14.0656C6.64377 12.8444 8.25078 12.196 9.19507 11.5518C10.5381 10.6404 12.3313 10.2403 13.8434 9.69936C17.0319 8.55547 20.0297 7.38842 23.3696 6.82434C23.4119 6.81769 23.455 6.82765 23.4901 6.85214C23.5251 6.87663 23.5493 6.91374 23.5576 6.95568C23.5659 6.99762 23.5576 7.04114 23.5344 7.07709C23.5113 7.11305 23.4752 7.13865 23.4336 7.14852C21.8113 7.532 20.3366 8.38147 19.191 9.59238C18.6538 10.1961 18.2734 10.9227 18.0833 11.7081C17.8932 12.4935 17.8992 13.3136 18.1008 14.0962C18.6005 15.6402 20.0431 16.7091 21.293 17.7742C22.5245 18.8232 23.9379 20.2556 23.9379 22.0381C23.9773 24.2412 22.4003 25.7676 19.2521 26.5716C15.8296 27.4641 12.3087 27.9234 8.77178 27.9387ZM21.3051 7.58802C18.814 8.26545 16.3604 9.07378 13.9545 10.0096C12.4443 10.5515 10.677 10.947 9.38032 11.8269C8.49484 12.4327 6.94711 13.0736 6.8179 14.1096C6.70999 14.971 7.04112 16.0288 7.83027 17.3435C8.75328 18.7579 9.91692 19.9996 11.2684 21.0123C11.9245 21.4935 12.5179 22.0549 13.0348 22.6833C13.2998 23.0161 13.4907 23.4018 13.5945 23.8144C13.6983 24.227 13.7128 24.6571 13.6368 25.0757C13.4689 25.5692 13.1965 26.0205 12.8382 26.3991C12.4799 26.7776 12.0441 27.0743 11.5607 27.269C11.3198 27.3705 11.0753 27.4603 10.8234 27.5395C13.6419 27.3922 16.4383 26.9607 19.1701 26.2516C22.1526 25.4902 23.6457 24.0749 23.6095 22.04C23.6095 20.2301 22.0275 18.8163 20.666 17.6747C19.4841 16.6836 18.2619 15.6587 17.7854 14.187C17.5655 13.3506 17.5566 12.4728 17.7595 11.6322C17.9623 10.7916 18.3707 10.0145 18.9478 9.37055C19.6305 8.65114 20.4269 8.04892 21.3051 7.58802Z" fill="#191C1D"/>
<path id="Vector_7" d="M37.0459 7.84963C28.9845 5.91195 23.1395 5.8448 13.3344 9.80861C11.1683 10.5968 9.12557 11.6895 7.26758 13.0537C11.8686 10.952 19.4892 12.0584 24.4334 13.1273C28.5375 11.1512 33.3706 9.31863 37.0459 7.84963Z" fill="white"/>
<path id="Vector_8" d="M24.6717 13.0115C19.9971 11.9848 13.054 10.9711 8.4627 12.4206C10.0096 11.4189 11.664 10.5939 13.3949 9.961C22.9777 6.0875 28.8365 6.075 36.7794 7.95617L37.3074 7.74499C29.0686 5.74758 23.1888 5.64708 13.2763 9.65395C11.0952 10.4467 9.03852 11.547 7.16875 12.9217C7.13584 12.9458 7.11308 12.9813 7.1049 13.0213C7.09672 13.0613 7.10371 13.1029 7.1245 13.138C7.1453 13.1732 7.17841 13.1993 7.21741 13.2113C7.2564 13.2234 7.29849 13.2205 7.33547 13.2033C11.8439 11.1438 19.3436 12.2117 24.1929 13.244C24.3517 13.1662 24.5115 13.0889 24.6722 13.0115H24.6717Z" fill="#191C1D"/>
<path id="Vector_9" d="M22.7859 11.6662C22.7495 11.6656 22.7143 11.6531 22.6857 11.6305C22.6572 11.6079 22.6369 11.5765 22.628 11.5411C22.6192 11.5058 22.6222 11.4686 22.6367 11.4352C22.6511 11.4018 22.6762 11.3741 22.7081 11.3564C25.5139 9.87495 28.4306 8.61365 31.4318 7.58382C31.473 7.56945 31.5182 7.57204 31.5575 7.59102C31.5968 7.60999 31.627 7.64381 31.6413 7.68501C31.6557 7.72622 31.6531 7.77145 31.6341 7.81075C31.6152 7.85005 31.5813 7.8802 31.5401 7.89457C25.5178 9.99758 23.0285 11.6662 22.7859 11.6662Z" fill="#33A467"/>
<path id="Vector_10" d="M19.0697 11.2901C19.0328 11.2898 18.9971 11.2771 18.9683 11.2541C18.9394 11.2311 18.9192 11.1991 18.9107 11.1632C18.9022 11.1273 18.906 11.0895 18.9215 11.056C18.937 11.0226 18.9632 10.9952 18.9961 10.9784C21.7109 9.62059 24.2539 8.4804 26.7695 7.49211C26.8096 7.47846 26.8535 7.48081 26.8919 7.49865C26.9304 7.5165 26.9605 7.54847 26.976 7.58793C26.9915 7.6274 26.9912 7.67131 26.9752 7.71056C26.9591 7.74981 26.9286 7.78137 26.8899 7.79869C21.7294 9.82621 19.2906 11.2906 19.0697 11.2906V11.2901Z" fill="#33A467"/>
<path id="Vector_11" d="M15.3554 11.1961C15.3186 11.1959 15.283 11.1835 15.2541 11.1607C15.2253 11.1379 15.2049 11.1061 15.1961 11.0704C15.1874 11.0347 15.1909 10.9971 15.206 10.9636C15.2211 10.93 15.2469 10.9025 15.2795 10.8854C17.8933 9.52799 20.3436 8.3878 22.7708 7.39905C22.7908 7.3909 22.8122 7.38678 22.8339 7.3869C22.8555 7.38703 22.8768 7.39141 22.8967 7.3998C22.9166 7.40818 22.9347 7.42041 22.9499 7.43578C22.9651 7.45114 22.9771 7.46935 22.9852 7.48936C22.9934 7.50937 22.9975 7.53079 22.9974 7.55239C22.9973 7.574 22.9929 7.59536 22.9845 7.61528C22.9761 7.63519 22.9639 7.65325 22.9485 7.66844C22.9332 7.68362 22.9149 7.69563 22.8949 7.70378C17.9711 9.71 15.5624 11.1961 15.3554 11.1961Z" fill="#33A467"/>
</g>
<g id="credit card">
<path id="Vector_12" d="M86.0884 28.0558L60.034 20.1079C59.5965 19.9665 59.2151 19.6901 58.9447 19.3182C58.6743 18.9464 58.5289 18.4984 58.5293 18.0387V1.71939C58.5381 1.4776 58.601 1.24087 58.7135 1.02667C58.826 0.812464 58.9851 0.626257 59.1792 0.481789C59.3733 0.33732 59.5973 0.238279 59.8348 0.191976C60.0723 0.145673 60.3171 0.15329 60.5513 0.214264L85.9944 6.89239C86.6116 7.06585 87.156 7.43465 87.546 7.94354C87.936 8.45242 88.1505 9.07398 88.1576 9.71508V26.5044C88.1552 26.8821 88.0213 27.2472 87.7788 27.5368C87.5362 27.8264 87.2003 28.0224 86.8289 28.091C86.5827 28.1368 86.3292 28.1249 86.0884 28.0563V28.0558Z" fill="#33A467"/>
<path id="Vector_13" d="M86.5227 28.2893C86.1439 28.2893 86.425 28.4717 59.9862 20.2653C59.514 20.1153 59.1021 19.8184 58.8105 19.4179C58.5189 19.0173 58.3629 18.5341 58.3653 18.0387V1.71848C58.3752 1.45111 58.4452 1.18942 58.57 0.952769C58.6949 0.71612 58.8713 0.510575 59.0863 0.351357C59.3013 0.192002 59.5493 0.0829693 59.8121 0.0323098C60.0748 -0.0183497 60.3456 -0.0093421 60.6044 0.0586681L86.035 6.73263C86.6884 6.91332 87.2651 7.30211 87.6776 7.84007C88.0901 8.37802 88.316 9.03581 88.321 9.7137V26.503C88.3175 26.9778 88.1266 27.432 87.7897 27.7666C87.4529 28.1011 86.9975 28.289 86.5227 28.2893ZM58.6927 1.7194V18.0396C58.6907 18.4646 58.8244 18.8792 59.0743 19.223C59.3242 19.5668 59.6772 19.8219 60.082 19.9513L86.1388 27.8998C86.4647 27.9905 86.812 27.9652 87.1215 27.8284C87.4309 27.6916 87.6833 27.4517 87.8356 27.1495C87.9366 26.9492 87.9898 26.7283 87.9912 26.504V9.71463C87.9861 9.10867 87.7838 8.52088 87.4148 8.04022C87.0457 7.55956 86.5302 7.21222 85.9461 7.05079L60.5086 0.37405C60.1923 0.291961 59.8576 0.318945 59.5586 0.450635C59.2596 0.582326 59.0137 0.811026 58.8608 1.09975C58.7594 1.29148 58.7019 1.50266 58.6927 1.7194Z" fill="#191C1D"/>
<path id="Vector_14" d="M85.9436 9.55763C81.3727 8.29193 81.6644 8.33871 81.569 8.40817C81.4736 8.47764 81.5112 8.26924 81.4083 11.6393C81.4069 11.6752 81.4173 11.7106 81.4381 11.74C81.4589 11.7693 81.4888 11.7909 81.5232 11.8014L85.8501 13.1653C85.8747 13.173 85.9008 13.1748 85.9263 13.1705C85.9518 13.1663 85.9759 13.1561 85.9967 13.1408C86.0175 13.1256 86.0345 13.1056 86.0462 13.0826C86.0579 13.0596 86.064 13.0341 86.064 13.0083V9.71462C86.0637 9.67895 86.0517 9.64437 86.03 9.61606C86.0083 9.58775 85.978 9.56725 85.9436 9.55763ZM85.7348 10.9933L83.1747 10.2787L83.1927 9.13156L85.7348 9.83781V10.9933ZM82.8635 9.04079L82.8454 10.187L81.789 9.89246L81.8238 8.75181L82.8635 9.04079ZM81.7788 10.2315L82.8403 10.5274L82.8195 11.8616L81.7395 11.5212L81.7788 10.2315ZM83.1469 11.9649L83.1677 10.6191L85.7334 11.3351V12.7804L83.1469 11.9649Z" fill="white"/>
<path id="Vector_15" d="M85.4753 21.1193L61.4915 14.1522C61.4707 14.1462 61.4513 14.1361 61.4344 14.1226C61.4175 14.109 61.4035 14.0923 61.3931 14.0733C61.3828 14.0543 61.3762 14.0335 61.374 14.0119C61.3717 13.9904 61.3737 13.9687 61.3799 13.9479C61.3858 13.9271 61.3958 13.9077 61.4094 13.8908C61.4229 13.8739 61.4396 13.8598 61.4586 13.8494C61.4776 13.839 61.4985 13.8325 61.52 13.8303C61.5416 13.828 61.5633 13.8301 61.5841 13.8363L85.5221 20.7965C85.56 20.8077 85.5926 20.8322 85.6139 20.8656C85.6352 20.899 85.6437 20.9389 85.6378 20.978C85.6325 21.0173 85.613 21.0532 85.5831 21.0792C85.5532 21.1052 85.5149 21.1194 85.4753 21.1193Z" fill="white"/>
<path id="Vector_16" d="M85.5231 23.3297L61.3054 16.5044C61.2634 16.4925 61.2278 16.4644 61.2065 16.4264C61.1852 16.3883 61.1799 16.3433 61.1917 16.3013C61.2036 16.2593 61.2316 16.2237 61.2697 16.2024C61.3078 16.181 61.3528 16.1757 61.3948 16.1876L85.5694 23.007C85.6075 23.018 85.6403 23.0425 85.6616 23.0759C85.6829 23.1093 85.6913 23.1493 85.6852 23.1885C85.6797 23.2276 85.6602 23.2634 85.6305 23.2893C85.6007 23.3152 85.5626 23.3296 85.5231 23.3297Z" fill="white"/>
<path id="Vector_17" d="M67.4175 4.75282L61.8221 3.14767C61.8013 3.14175 61.7819 3.13174 61.7651 3.11822C61.7482 3.1047 61.7342 3.08794 61.7239 3.06894C61.7132 3.05005 61.7065 3.02918 61.7041 3.00761C61.7017 2.98604 61.7037 2.9642 61.71 2.94343C61.7194 2.9122 61.7378 2.88442 61.7628 2.86351C61.7878 2.8426 61.8184 2.82949 61.8508 2.8258C61.8723 2.82346 61.894 2.82535 61.9147 2.83136L67.4642 4.43003C67.5021 4.44139 67.5346 4.46597 67.5559 4.49929C67.5772 4.53262 67.5857 4.57248 67.5801 4.6116C67.5744 4.65072 67.5548 4.68651 67.525 4.71243C67.4952 4.73835 67.457 4.75269 67.4175 4.75282Z" fill="#191C1D"/>
</g>
<g id="payment terminal">
<path id="Vector_18" d="M81.3843 23.9174C81.2917 24.576 80.6318 31.0661 80.679 31.1129C77.998 33.0413 73.8124 36.4271 66.3349 41.1773C49.7336 33.7934 35.1543 16.7688 22.0801 14.3235C27.2063 11.549 34.4017 8.96205 38.8226 7.12811C44.0429 7.31614 48.8792 8.31369 52.7434 11.2665C55.09 13.0597 75.8839 22.8356 81.3843 23.9174Z" fill="#33A467"/>
<path id="Vector_19" d="M27.6309 13.4297C32.1458 14.0883 36.1902 16.0167 40.0465 18.3679L51.8981 12.1622C48.0915 9.82263 43.757 8.4795 39.2944 8.25671L27.6309 13.4297Z" fill="white"/>
<path id="Vector_20" d="M40.0447 18.5328C39.6362 18.5328 34.4915 14.5963 27.6054 13.5927C27.5701 13.5875 27.5375 13.5709 27.5125 13.5456C27.4874 13.5202 27.4712 13.4874 27.4664 13.4521C27.4615 13.4168 27.4683 13.3809 27.4856 13.3497C27.5028 13.3185 27.5298 13.2938 27.5623 13.2792C39.287 8.07564 39.2365 8.08953 39.3009 8.09231C43.7901 8.32073 48.1504 9.67114 51.9829 12.02C52.0074 12.0355 52.0275 12.057 52.0413 12.0826C52.055 12.1082 52.0618 12.1369 52.0611 12.1659C52.0599 12.1949 52.0511 12.2231 52.0356 12.2476C52.0201 12.2722 51.9984 12.2922 51.9727 12.3057C40.0581 18.5499 40.1095 18.5328 40.0447 18.5328ZM28.206 13.3552C31.9397 13.9864 35.6233 15.4892 40.0512 18.1804L51.5624 12.1511C47.8471 9.93025 43.6456 8.65048 39.3231 8.42298L28.206 13.3552Z" fill="#191C1D"/>
<path id="Vector_21" d="M41.6407 8.9861C41.5512 8.96201 41.4579 8.95579 41.366 8.9678C41.2741 8.97981 41.1855 9.00982 41.1053 9.0561C41.025 9.10238 40.9547 9.16403 40.8982 9.23753C40.8418 9.31102 40.8005 9.39492 40.7765 9.48442C40.3311 11.1477 40.215 12.882 40.4347 14.5898C39.2504 14.3025 38.0402 14.1346 36.8224 14.0887C36.6831 14.0847 36.5456 14.122 36.4274 14.1959C36.3092 14.2698 36.2156 14.3771 36.1582 14.5042C36.1009 14.6312 36.0824 14.7724 36.1052 14.91C36.1279 15.0475 36.1909 15.1752 36.2861 15.2771C36.3496 15.3446 36.4257 15.399 36.5102 15.437C36.5946 15.4751 36.6858 15.4961 36.7784 15.4989C38.2516 15.5637 39.7118 15.8078 41.1257 16.2265C41.243 16.2595 41.3668 16.2615 41.4851 16.2324C41.6034 16.2033 41.7122 16.1441 41.8008 16.0605C41.8894 15.9768 41.9549 15.8717 41.9907 15.7553C42.0266 15.6388 42.0318 15.5151 42.0056 15.3961C41.6071 13.5638 41.6529 11.6627 42.139 9.85167C42.1877 9.67081 42.1625 9.47801 42.0691 9.31568C41.9756 9.15336 41.8215 9.03481 41.6407 8.9861Z" fill="#33A467"/>
<path id="Vector_22" d="M81.4164 23.7558C75.8683 22.6652 55.1717 12.905 52.8422 11.1359C49.4253 8.51049 44.9646 7.33835 38.8274 6.96322C38.757 6.95905 38.8297 6.97017 34.9219 8.51373C30.9391 10.0883 26.0042 12.0371 22.2011 14.0711C22.1446 14.0711 22.0885 14.0656 22.032 14.0646C21.8547 14.0619 21.8547 14.0646 21.5624 16.5085C20.8608 22.3901 23.633 26.9587 24.0364 27.3848C24.3178 28.2521 24.6663 29.0961 25.0789 29.9092C25.1518 30.1138 25.2778 30.2953 25.444 30.4351C25.6102 30.5749 25.8105 30.668 26.0246 30.7048C29.057 31.7154 38.3666 34.099 39.856 34.099C40.5189 34.0509 41.1576 33.8299 41.7084 33.4581C66.2536 41.2416 64.3001 40.4543 66.2642 41.3273C66.289 41.3383 66.3161 41.3431 66.3432 41.3411C66.3702 41.3392 66.3964 41.3306 66.4194 41.3162C72.1671 37.665 75.9095 34.8659 78.6419 32.8217C80.8616 31.1615 80.8297 31.2471 80.8394 31.1263C81.0844 28.0368 81.5002 24.2425 81.5433 23.9406C81.5493 23.8995 81.5397 23.8577 81.5165 23.8234C81.4928 23.7891 81.4571 23.765 81.4164 23.7558ZM38.8533 7.29389C44.9076 7.51618 49.2901 8.82217 52.6444 11.3976C54.9443 13.1454 75.0787 22.6513 81.0566 24.0156L66.8589 33.3705C60.9333 32.103 39.473 19.7549 36.7304 18.4527C31.0383 15.7633 27.9312 14.3934 22.8499 14.0994C27.8918 11.48 34.6445 9.03752 38.8533 7.29389ZM80.5434 31.0077C77.8847 32.9246 73.7713 36.2483 66.4133 40.9323C66.3064 40.4025 67.1015 33.6498 67.108 33.603L81.1728 24.3338C81.0168 25.7231 80.5532 29.981 80.5434 31.0077Z" fill="#191C1D"/>
<path id="Vector_23" d="M68.6442 35.6773L79.2726 28.8107C79.2908 28.7987 79.3112 28.7906 79.3326 28.7867C79.354 28.7828 79.376 28.7832 79.3972 28.788C79.4294 28.7946 79.459 28.8107 79.4819 28.8342C79.5049 28.8577 79.5203 28.8876 79.5262 28.9199C79.532 28.9523 79.528 28.9857 79.5147 29.0157C79.5013 29.0458 79.4793 29.0712 79.4514 29.0886L68.8229 35.9552C68.7954 35.9726 68.7633 35.9816 68.7307 35.9809C68.6981 35.9802 68.6664 35.97 68.6397 35.9514C68.6129 35.9328 68.5922 35.9067 68.5801 35.8764C68.568 35.8461 68.5652 35.813 68.5719 35.781C68.5816 35.7384 68.6075 35.7012 68.6442 35.6773Z" fill="#191C1D"/>
<path id="Vector_24" d="M77.0759 23.9545C76.9499 23.9003 64.3633 18.4948 54.7889 13.9864C54.7666 13.9753 54.742 13.9696 54.7171 13.9696C54.6922 13.9696 54.6677 13.9753 54.6453 13.9864C51.4554 15.5813 46.9488 18.0581 44.0104 19.6827C43.984 19.6973 43.9622 19.7189 43.9473 19.7451C43.9324 19.7712 43.925 19.801 43.9258 19.8311C43.9267 19.8612 43.9358 19.8905 43.9522 19.9158C43.9686 19.9411 43.9916 19.9613 44.0187 19.9744C49.0203 22.3914 66.2881 30.8549 66.2881 30.8549C66.3723 30.8549 77.0509 24.2749 77.0972 24.2462C77.1229 24.2305 77.1439 24.2079 77.1576 24.181C77.1713 24.1541 77.1773 24.124 77.175 24.0939C77.1726 24.0638 77.1621 24.035 77.1447 24.0105C77.1272 23.9859 77.1034 23.9666 77.0759 23.9545ZM72.1761 26.8878L69.5363 25.6536L71.7412 24.3185L74.387 25.5267L72.1761 26.8878ZM69.2835 28.6639L66.6488 27.4028L69.1997 25.8583L71.8394 27.0944L69.2835 28.6639ZM60.5769 27.6955L63.1912 26.1126L65.9579 27.4371L63.3111 29.0399L60.5769 27.6955ZM57.2337 26.0552L59.8693 24.5227L62.836 25.9431L60.2259 27.5232L57.2337 26.0552ZM53.9974 24.4699L56.5992 22.9574L59.5099 24.3504L56.878 25.8787L53.9974 24.4699ZM50.6792 22.849L53.319 21.3888L56.2366 22.786L53.6385 24.2962L50.6792 22.849ZM47.3911 21.2471L50.016 19.8077L52.954 21.2142L50.3143 22.6726L47.3911 21.2471ZM49.9095 16.8327L52.5247 18.0567L50.0058 19.4382L47.4027 18.191C48.1738 17.7705 49.0305 17.3064 49.9114 16.8327H49.9095ZM52.4252 15.4975L55.0255 16.6849L52.8823 17.8603L50.274 16.6386C50.99 16.2551 51.7077 15.8747 52.427 15.4975H52.4252ZM60.5551 17.0138L58.7374 18.0192L55.7619 16.6599L57.5912 15.655C58.5693 16.1065 59.5618 16.5608 60.5551 17.0138ZM63.7164 18.4415L61.9329 19.4789L59.1102 18.1891L60.9289 17.1842C61.863 17.6061 62.7962 18.027 63.7154 18.4397L63.7164 18.4415ZM67.0888 19.9467L65.272 21.003L62.2997 19.6461L64.0859 18.6073C65.1113 19.0658 66.1181 19.515 67.0879 19.9448L67.0888 19.9467ZM70.3579 21.3902L68.536 22.4933L65.6388 21.1702L67.4607 20.1111L70.3579 21.3902ZM59.4381 20.9271L56.5774 19.5877L58.7518 18.3836L61.5847 19.6771L59.4381 20.9271ZM61.9514 19.8466L64.9233 21.204L62.7415 22.4725L59.8012 21.0966L61.9514 19.8466ZM59.0917 21.1285L56.5853 22.586L53.6751 21.1929L56.2222 19.785L59.0917 21.1285ZM59.4548 21.298L62.3951 22.6739L59.8549 24.1504L56.9428 22.7564L59.4548 21.298ZM62.7577 22.8439L65.6892 24.2157L63.1731 25.7388L60.2143 24.3226L62.7577 22.8439ZM63.1041 22.6425L65.2905 21.3712L68.1952 22.698L66.0278 24.0105L63.1041 22.6425ZM58.3785 18.2178L56.2079 19.4178L53.2537 18.0331L55.4007 16.8554L58.3785 18.2178ZM52.8961 18.2317L55.8517 19.6151L53.3097 21.0206L50.3731 19.6151L52.8961 18.2317ZM63.527 25.9111L66.0468 24.3856L68.8407 25.6935L66.2936 27.2356L63.527 25.9111ZM69.1797 25.4883L66.3853 24.1805L68.5569 22.8657L71.3819 24.1555L69.1797 25.4883ZM68.8972 22.6596L70.7256 21.5527L73.602 22.8106L71.7213 23.9494L68.8972 22.6596ZM54.7199 14.318C55.5341 14.7014 56.37 15.0914 57.2179 15.4832L55.3863 16.4881L52.7929 15.3044C53.4332 14.9716 54.0755 14.6428 54.7199 14.318ZM47.0451 18.3855L49.6506 19.6327L47.0322 21.0706L44.4494 19.8161C44.894 19.5678 45.8461 19.0413 47.0465 18.3855H47.0451ZM66.2783 30.502L63.6594 29.2122L66.3107 27.6066L68.9477 28.869L66.2783 30.502ZM74.7265 25.3193L72.0835 24.1119L73.9716 22.9694C75.2642 23.5316 76.2071 23.9387 76.6549 24.1314L74.7265 25.3193Z" fill="white"/>
</g>
</g>
</svg>
