<svg width="280" height="280" viewBox="0 0 280 280" fill="none" xmlns="http://www.w3.org/2000/svg">
<path d="M224.788 214.394C222.906 212.671 220.564 211.531 218.046 211.114C217.906 211.092 70.6259 201.052 70.4789 201.075C56.5391 203.175 40.7401 205.555 27.1643 212.511C20.8797 215.724 12.9487 221.331 17.2831 226.947C21.1247 231.927 37.3731 231.815 44.2947 232.32C47.0947 232.53 56.3515 233.518 58.0539 237.42C58.7119 238.927 58.1477 240.815 56.3823 243.031C54.5427 245.326 51.6685 246.687 49.3053 248.687C46.7363 250.863 44.7861 254.453 46.2253 257.572C47.6869 260.748 52.1515 261.538 55.6053 261.391C76.5913 260.309 93.6517 248.151 120.823 250.99C132.702 252.542 147.307 259.773 160.695 254.77C161.718 254.381 165.035 252.897 164.71 250.128C164.552 248.742 163.506 247.812 163.339 246.68C162.079 238.967 196.118 244.683 200.397 244.402C203.636 244.209 209.513 242.63 211.498 239.209C211.946 238.421 212.179 237.528 212.173 236.621C212.166 235.714 211.921 234.824 211.462 234.042C211.005 233.324 210.598 232.575 210.242 231.802C210.023 231.161 209.961 230.476 210.064 229.806C210.167 229.137 210.431 228.502 210.833 227.956C213.403 224.218 221.445 222.174 224.981 221.957C225.358 221.948 225.724 221.827 226.032 221.61C226.34 221.393 226.577 221.089 226.713 220.738C227.43 218.96 226.08 215.821 224.788 214.394Z" fill="#760303"/>
<path d="M75.4491 10.4814H209.157C209.157 10.4814 214.568 10.4814 214.568 15.8924V215.474C214.568 215.474 214.568 220.885 209.157 220.885H75.4491C75.4491 220.885 70.0381 220.885 70.0381 215.474V15.8924C70.0381 15.8924 70.0381 10.4814 75.4491 10.4814Z" fill="white"/>
<path d="M80.3643 25.2305H204.257V205.66H80.3643V25.2305Z" fill="#F7DEC8"/>
<path d="M127.889 157.553C126.895 155.894 125.573 154.456 124.004 153.324C122.435 152.193 120.652 151.393 118.764 150.973C117.096 150.693 115.385 150.836 113.785 151.386C112.186 151.937 110.75 152.88 109.608 154.127C108.456 155.557 107.434 158.036 109.111 161.736C111.921 167.933 117.801 168.244 121.081 164.508C121.924 163.604 122.437 162.442 122.539 161.21C122.64 159.979 122.324 158.749 121.641 157.718C119.186 154.622 114.032 154.697 113.46 158.903C113.1 161.522 115.186 162.683 116.698 161.969C117.892 161.409 118.052 159.818 117.058 159.76C116.872 159.748 116.69 159.811 116.551 159.935C116.413 160.058 116.328 160.231 116.317 160.416C116.279 160.986 114.574 161.077 114.846 159.092C115.253 156.115 118.918 156.537 120.544 158.588C121.028 159.358 121.241 160.269 121.148 161.174C121.055 162.08 120.662 162.928 120.031 163.584C117.385 166.599 112.751 166.373 110.389 161.158C109.279 158.71 109.384 156.639 110.7 155.007C111.685 153.97 112.907 153.187 114.26 152.723C115.613 152.26 117.058 152.131 118.472 152.347C120.171 152.724 121.776 153.444 123.188 154.462C124.6 155.48 125.791 156.775 126.687 158.267C132.448 168.021 116.386 173.853 110.128 169.63C103.959 165.465 103.234 156.093 106.73 151.353C109.475 147.63 115.512 147.036 118.872 149.01C118.951 149.057 119.039 149.087 119.13 149.1C119.221 149.113 119.314 149.107 119.403 149.084C119.492 149.061 119.576 149.02 119.649 148.965C119.722 148.909 119.784 148.84 119.83 148.76C119.877 148.681 119.907 148.593 119.92 148.502C119.933 148.411 119.927 148.319 119.904 148.23C119.881 148.141 119.84 148.057 119.785 147.984C119.729 147.91 119.66 147.849 119.58 147.802C115.637 145.488 108.821 146.159 105.603 150.522C101.585 155.971 102.57 166.218 109.344 170.789C116.745 175.787 134.521 168.783 127.889 157.553Z" fill="white"/>
<path d="M177.313 91.7882C176.318 90.1296 174.996 88.691 173.427 87.5598C171.858 86.4285 170.075 85.6284 168.188 85.2081C166.519 84.929 164.808 85.0715 163.209 85.6226C161.609 86.1738 160.174 87.116 159.032 88.3637C157.879 89.7917 156.857 92.2726 158.535 95.9714C161.344 102.169 167.224 102.479 170.503 98.7433C171.346 97.8393 171.859 96.6778 171.961 95.4462C172.062 94.2146 171.746 92.9846 171.063 91.9547C168.608 88.8565 163.454 88.9335 162.882 93.1377C162.522 95.7571 164.608 96.9178 166.12 96.2038C167.314 95.6438 167.474 94.0547 166.478 93.9945C166.293 93.9838 166.111 94.0471 165.972 94.1705C165.834 94.2939 165.75 94.4673 165.739 94.6525C165.701 95.2224 163.996 95.312 164.268 93.3282C164.674 90.3518 168.34 90.7718 169.966 92.8242C170.45 93.5947 170.663 94.5052 170.57 95.4107C170.477 96.3163 170.084 97.1646 169.453 97.8208C166.807 100.834 162.173 100.61 159.811 95.3931C158.701 92.9445 158.806 90.8753 160.122 89.2415C161.107 88.2045 162.328 87.421 163.681 86.9578C165.035 86.4946 166.48 86.3656 167.894 86.5816C169.593 86.9595 171.198 87.6793 172.61 88.6971C174.022 89.715 175.213 91.0096 176.109 92.5021C181.868 102.255 165.808 108.088 159.55 103.863C153.38 99.6982 152.656 90.3279 156.15 85.5875C158.896 81.8635 164.933 81.2713 168.294 83.2439C168.454 83.3313 168.641 83.353 168.816 83.3045C168.992 83.256 169.141 83.1411 169.233 82.9842C169.326 82.8272 169.353 82.6406 169.31 82.4638C169.267 82.287 169.156 82.134 169.002 82.0371C165.059 79.7215 158.243 80.3935 155.025 84.7573C151.007 90.2047 151.992 100.453 158.766 105.024C166.169 110.02 183.945 103.016 177.313 91.7882Z" fill="white"/>
<path d="M74.9535 116.708C74.6193 116.708 74.2926 116.609 74.0147 116.423C73.7368 116.237 73.5202 115.973 73.3923 115.665C73.2644 115.356 73.2309 115.016 73.2961 114.688C73.3613 114.36 73.5223 114.059 73.7586 113.823C73.9949 113.587 74.296 113.426 74.6238 113.361C74.9516 113.295 75.2914 113.329 75.6001 113.457C75.9089 113.585 76.1728 113.801 76.3585 114.079C76.5442 114.357 76.6433 114.684 76.6433 115.018C76.6425 115.466 76.4643 115.895 76.1475 116.212C75.8308 116.529 75.4014 116.707 74.9535 116.708Z" fill="#760303"/>
<path d="M165.444 121.546C165.551 121.511 165.649 121.45 165.729 121.37C165.809 121.289 165.869 121.191 165.904 121.083C165.934 120.988 165.943 120.888 165.931 120.789C165.919 120.69 165.886 120.594 165.834 120.509C163.216 116.201 157.248 114.031 151.648 115.343C146.7 116.473 142.264 119.206 139.031 123.119C135.119 128.067 132.182 133.713 130.375 139.756C130.349 139.844 130.34 139.937 130.349 140.028C130.359 140.12 130.386 140.208 130.43 140.289C130.473 140.37 130.532 140.442 130.604 140.5C130.675 140.558 130.757 140.601 130.845 140.628C130.933 140.654 131.025 140.663 131.117 140.654C131.208 140.644 131.297 140.617 131.378 140.573C131.459 140.53 131.53 140.471 131.588 140.399C131.646 140.328 131.69 140.246 131.716 140.158C133.469 134.289 136.32 128.805 140.116 123.998C143.152 120.329 147.315 117.765 151.958 116.707C156.043 115.75 161.402 116.8 164.187 120.571C163.687 120.793 154.609 115.89 148.017 125.777C146.827 127.464 146.12 129.442 145.971 131.5C142.95 134.367 140.338 137.636 138.21 141.215C138.16 141.294 138.126 141.381 138.111 141.473C138.096 141.565 138.098 141.658 138.12 141.749C138.141 141.839 138.18 141.925 138.234 142C138.289 142.075 138.358 142.139 138.437 142.187C138.517 142.235 138.605 142.267 138.697 142.281C138.788 142.295 138.882 142.291 138.972 142.268C139.062 142.245 139.147 142.205 139.221 142.149C139.296 142.093 139.358 142.023 139.405 141.943C141.744 137.991 144.702 134.441 148.168 131.428C149.428 131.428 151.298 133.406 151.602 134.475C152.595 138.16 152.672 141.804 154.945 145.206C157.147 148.352 161.174 150.405 164.985 149.089C166.142 148.614 167.187 147.902 168.052 146.998C168.917 146.095 169.583 145.02 170.006 143.843C170.803 141.583 171.175 139.196 171.104 136.801C171.185 134.048 170.957 125.361 165.444 121.546Z" fill="#760303"/>
<path d="M164.212 137.48C164.04 137.481 163.873 137.419 163.744 137.305C163.615 137.192 163.532 137.034 163.512 136.864C163.294 135.081 162.974 133.312 162.553 131.566C162.053 129.14 161.103 126.829 159.753 124.752C159.099 123.761 158.257 122.908 157.273 122.242C156.29 121.576 155.185 121.111 154.021 120.873C153.931 120.855 153.845 120.819 153.769 120.767C153.693 120.716 153.628 120.65 153.577 120.573C153.526 120.496 153.491 120.41 153.474 120.32C153.456 120.23 153.457 120.137 153.475 120.047C153.493 119.957 153.529 119.871 153.581 119.795C153.632 119.719 153.698 119.654 153.775 119.603C153.852 119.552 153.938 119.517 154.028 119.5C154.118 119.482 154.211 119.483 154.301 119.501C155.646 119.776 156.923 120.313 158.06 121.082C159.197 121.85 160.171 122.836 160.927 123.981C162.373 126.199 163.391 128.668 163.929 131.261C164.359 133.052 164.686 134.867 164.909 136.696C164.921 136.794 164.912 136.894 164.882 136.989C164.852 137.083 164.803 137.171 164.737 137.245C164.671 137.319 164.59 137.378 164.5 137.419C164.409 137.459 164.311 137.48 164.212 137.48Z" fill="white"/>
<path d="M199.675 173.901C189.149 167.815 178.229 162.436 166.988 157.801C166.891 157.761 166.787 157.743 166.682 157.749C166.578 157.755 166.476 157.784 166.385 157.834C166.293 157.884 166.214 157.954 166.152 158.039C166.091 158.124 166.05 158.222 166.032 158.325C164.398 167.479 163.58 185.931 163.239 196.115C163.234 196.239 163.263 196.361 163.322 196.471C163.38 196.58 163.467 196.671 163.572 196.736C163.678 196.801 163.799 196.837 163.923 196.839C164.047 196.842 164.169 196.812 164.278 196.752C174.926 190.872 190.164 181.406 199.712 175.094C199.812 175.028 199.893 174.938 199.948 174.832C200.004 174.726 200.031 174.607 200.027 174.487C200.023 174.368 199.989 174.251 199.928 174.148C199.866 174.046 199.779 173.96 199.675 173.901Z" fill="#760303"/>
<path d="M177.021 166.811C176.905 166.087 176.913 165.838 176.666 165.485C176.468 165.269 176.203 165.126 175.915 165.079C175.626 165.032 175.329 165.084 175.074 165.226C173.138 165.928 171.345 166.976 169.783 168.318C169.573 168.466 169.396 168.655 169.261 168.874C169.126 169.092 169.037 169.336 168.999 169.59C168.996 169.9 169.071 170.205 169.216 170.478C169.361 170.751 169.572 170.984 169.829 171.155C172.019 173.048 174.424 174.952 176.629 176.834C176.769 177.026 176.978 177.156 177.212 177.196C177.446 177.236 177.686 177.184 177.882 177.049C178.299 176.699 178.568 176.485 177.021 166.811Z" fill="white"/>
<path d="M180.967 178.202C180.64 178.062 180.288 177.991 179.932 177.991C179.577 177.991 179.225 178.063 178.898 178.203C178.571 178.342 178.276 178.547 178.03 178.804C177.784 179.06 177.592 179.364 177.467 179.697C177.272 180.189 177.227 180.727 177.338 181.244C177.448 181.762 177.709 182.235 178.088 182.604C178.467 182.973 178.947 183.221 179.467 183.318C179.987 183.415 180.524 183.356 181.011 183.148C181.497 182.94 181.911 182.593 182.201 182.151C182.49 181.708 182.642 181.189 182.637 180.66C182.633 180.131 182.472 179.616 182.174 179.178C181.877 178.741 181.457 178.401 180.967 178.202Z" fill="white"/>
<path d="M87.3457 143.867C87.2198 143.866 87.0963 143.832 86.9882 143.768C86.8801 143.703 86.7913 143.611 86.7313 143.5C86.6712 143.39 86.6421 143.265 86.647 143.139C86.6519 143.014 86.6906 142.891 86.7591 142.786C93.3822 132.552 96.1236 120.285 94.4871 108.206C94.4747 108.115 94.4804 108.022 94.5038 107.933C94.5272 107.844 94.5678 107.761 94.6235 107.688C94.6791 107.614 94.7486 107.553 94.8281 107.507C94.9075 107.46 94.9952 107.43 95.0863 107.418C95.1774 107.405 95.2701 107.411 95.359 107.434C95.4479 107.458 95.5313 107.498 95.6045 107.554C95.6777 107.61 95.7392 107.679 95.7856 107.758C95.8319 107.838 95.8621 107.926 95.8745 108.017C97.5575 120.43 94.7406 133.036 87.9337 143.553C87.8695 143.65 87.7821 143.729 87.6794 143.784C87.5768 143.839 87.4621 143.867 87.3457 143.867Z" fill="#760303"/>
<path d="M116.761 81.8997C116.669 81.8963 116.578 81.8748 116.495 81.8365C116.411 81.7982 116.336 81.7437 116.273 81.6763C116.147 81.5402 116.08 81.3594 116.086 81.1738C116.093 80.9881 116.174 80.8128 116.31 80.6864C116.446 80.56 116.627 80.4928 116.812 80.4997C122.237 80.7116 127.594 79.2359 132.145 76.2759C136.717 73.2964 140.776 69.5953 144.164 65.3167C144.279 65.1711 144.448 65.0773 144.632 65.0559C144.817 65.0345 145.002 65.0873 145.148 65.2026C145.293 65.3179 145.387 65.4863 145.408 65.6707C145.43 65.8551 145.377 66.0405 145.262 66.1861C141.779 70.5834 137.607 74.3875 132.908 77.4505C128.115 80.567 122.474 82.1214 116.761 81.8997Z" fill="#760303"/>
<path d="M142.597 104.196C140.989 104.193 139.398 103.863 137.921 103.226C136.444 102.589 135.111 101.659 134.005 100.492C132.898 99.3249 132.039 97.9451 131.482 96.4364C130.924 94.9277 130.679 93.3215 130.76 91.7151C131.348 84.5079 138.154 77.8621 144.122 75.8293C145.945 75.2208 147.887 75.0623 149.784 75.3674C151.681 75.6724 153.476 76.432 155.016 77.5811C156.556 78.7303 157.795 80.235 158.627 81.9668C159.459 83.6986 159.86 85.606 159.795 87.5263C159.789 87.7119 159.709 87.8874 159.573 88.0141C159.437 88.1408 159.256 88.2083 159.071 88.2018C158.885 88.1953 158.709 88.1153 158.583 87.9794C158.456 87.8436 158.389 87.6629 158.395 87.4773C158.452 85.7833 158.098 84.1008 157.364 82.5731C156.629 81.0455 155.537 79.7181 154.178 78.7041C152.82 77.6902 151.237 77.0198 149.564 76.75C147.89 76.4803 146.177 76.6193 144.569 77.1551C139.022 79.0451 132.697 85.1869 132.156 91.8089C132.08 93.3626 132.351 94.9137 132.949 96.3496C133.548 97.7854 134.458 99.07 135.615 100.11C136.772 101.15 138.146 101.919 139.638 102.361C141.129 102.804 142.7 102.908 144.237 102.667C147.04 102.211 149.624 100.871 151.612 98.8425C153.057 97.1682 153.85 95.029 153.845 92.8175C153.84 90.606 153.038 88.4704 151.585 86.8025C150.553 85.776 149.231 85.0903 147.797 84.8378C146.363 84.5853 144.886 84.7779 143.565 85.3899C142.357 85.9658 141.371 86.9199 140.755 88.1075C140.139 89.2951 139.928 90.6512 140.153 91.9699C140.305 92.5843 140.578 93.1623 140.956 93.6699C141.334 94.1775 141.81 94.6047 142.355 94.9263C142.9 95.2479 143.504 95.4575 144.131 95.5429C144.759 95.6283 145.397 95.5878 146.008 95.4237C146.556 95.1778 147.039 94.8077 147.419 94.3427C147.798 93.8777 148.065 93.3305 148.196 92.7447C148.328 92.1588 148.321 91.5503 148.177 90.9675C148.033 90.3847 147.754 89.8435 147.364 89.3869C146.936 89.067 146.44 88.8501 145.914 88.753C145.388 88.6559 144.847 88.6813 144.332 88.8271C143.818 88.9729 143.344 89.2353 142.947 89.5938C142.55 89.9524 142.241 90.3975 142.044 90.8947C141.976 91.0675 141.842 91.2062 141.672 91.2803C141.502 91.3543 141.309 91.3576 141.136 91.2895C140.963 91.2213 140.824 91.0873 140.75 90.9169C140.676 90.7465 140.673 90.5537 140.741 90.3809C141.022 89.669 141.466 89.0333 142.038 88.5254C142.61 88.0174 143.294 87.6515 144.034 87.4573C144.774 87.2631 145.55 87.2461 146.298 87.4077C147.046 87.5693 147.745 87.9049 148.339 88.3873C148.902 89.0103 149.307 89.7593 149.52 90.5714C149.733 91.3835 149.748 92.2349 149.564 93.054C149.38 93.8732 149.002 94.6361 148.461 95.2787C147.921 95.9213 147.234 96.4247 146.459 96.7467C145.673 96.9733 144.85 97.0407 144.038 96.9448C143.226 96.849 142.441 96.5918 141.73 96.1884C141.019 95.785 140.396 95.2435 139.897 94.5957C139.398 93.948 139.033 93.2071 138.824 92.4165C138.486 90.7684 138.711 89.0543 139.462 87.5491C140.214 86.0439 141.45 84.8349 142.971 84.1159C144.561 83.3805 146.339 83.1518 148.063 83.4609C149.787 83.7699 151.375 84.6017 152.61 85.8435C154.298 87.7723 155.231 90.2468 155.237 92.81C155.242 95.3731 154.32 97.8516 152.64 99.7875C150 102.518 146.394 104.101 142.597 104.196Z" fill="#760303"/>
<path d="M107.363 121.007C108.785 120.286 110.342 119.871 111.934 119.792C113.526 119.712 115.117 119.968 116.603 120.544C116.689 120.577 116.768 120.627 116.834 120.69C116.901 120.754 116.954 120.83 116.991 120.914C117.028 120.998 117.049 121.089 117.051 121.18C117.053 121.272 117.037 121.364 117.004 121.45C116.971 121.535 116.921 121.614 116.857 121.68C116.794 121.747 116.718 121.8 116.634 121.837C116.55 121.875 116.459 121.895 116.367 121.897C116.275 121.899 116.184 121.883 116.098 121.85C114.791 121.345 113.392 121.122 111.993 121.194C110.594 121.267 109.226 121.633 107.978 122.27C105.235 123.547 102.843 125.471 101.007 127.876C99.1715 130.281 97.9475 133.097 97.4403 136.08C96.8131 140.086 97.9065 145.31 101.796 147.288C103.329 147.976 105.004 148.29 106.682 148.202C108.439 148.256 110.187 147.931 111.807 147.248C113.427 146.566 114.881 145.542 116.07 144.247C117.074 142.92 117.814 141.412 118.25 139.806C119.086 137.475 119.153 134.937 118.442 132.564C117.913 131.257 117.04 130.117 115.915 129.266C114.79 128.415 113.456 127.884 112.053 127.731C110.837 127.606 109.607 127.738 108.444 128.118C107.281 128.498 106.211 129.117 105.303 129.937C104.395 130.756 103.669 131.757 103.172 132.875C102.674 133.993 102.418 135.202 102.417 136.425C102.501 137.396 102.842 138.326 103.405 139.12C103.969 139.913 104.735 140.542 105.623 140.94C110.327 142.363 113.757 136.6 110.609 134.31C110.41 134.185 110.187 134.104 109.954 134.073C109.722 134.043 109.485 134.063 109.261 134.132C109.037 134.202 108.831 134.319 108.656 134.476C108.482 134.634 108.344 134.827 108.251 135.042C108.178 135.213 108.04 135.348 107.868 135.417C107.696 135.486 107.503 135.484 107.332 135.411C107.161 135.338 107.026 135.2 106.957 135.028C106.888 134.856 106.89 134.663 106.963 134.492C107.137 134.085 107.399 133.721 107.729 133.426C108.059 133.132 108.45 132.913 108.874 132.786C109.298 132.659 109.745 132.627 110.183 132.691C110.621 132.756 111.039 132.916 111.408 133.161C116.017 136.521 111.202 144.246 105.118 142.244C103.982 141.747 103.002 140.952 102.28 139.944C101.559 138.935 101.124 137.751 101.02 136.515C101.007 135.089 101.295 133.676 101.865 132.368C102.436 131.061 103.276 129.889 104.33 128.928C105.384 127.967 106.63 127.24 107.985 126.794C109.339 126.348 110.773 126.193 112.192 126.338C113.859 126.52 115.444 127.153 116.778 128.169C118.112 129.184 119.144 130.544 119.763 132.102C120.573 134.759 120.51 137.604 119.584 140.222C119.096 142.004 118.266 143.674 117.142 145.14C115.826 146.592 114.211 147.742 112.409 148.511C110.606 149.28 108.659 149.651 106.7 149.597C92.1987 150.393 92.1427 128.112 107.363 121.007Z" fill="#760303"/>
<path d="M204.705 77.665C204.618 77.501 204.469 77.3784 204.292 77.3241C204.114 77.2698 203.922 77.2881 203.759 77.3752L190.554 84.406C190.74 82.1762 190.896 79.9316 191.021 77.672C191.07 77.3422 191.067 77.0067 191.012 76.678L199.5 71.12C200.911 72.4598 201.952 73.619 203.463 75.054C203.593 75.1777 203.765 75.2468 203.945 75.2472C204.085 75.2472 204.222 75.2052 204.338 75.1266C204.454 75.048 204.543 74.9365 204.595 74.8064C204.647 74.6762 204.659 74.5335 204.629 74.3967C204.598 74.2599 204.528 74.1353 204.426 74.039C202.906 72.5956 201.752 71.3104 200.338 69.993C202.976 59.073 202.825 59.7604 202.818 59.6078L202.02 44.4066C202.802 42.9132 203.637 41.4526 204.524 40.0246C204.575 39.9465 204.61 39.8591 204.626 39.7674C204.643 39.6758 204.641 39.5818 204.621 39.4909C204.601 39.4 204.562 39.314 204.509 39.238C204.455 39.1621 204.386 39.0976 204.307 39.0484C204.228 38.9992 204.14 38.9663 204.048 38.9516C203.956 38.9369 203.862 38.9407 203.772 38.9628C203.681 38.9848 203.596 39.0247 203.521 39.0801C203.446 39.1355 203.383 39.2053 203.336 39.2854C202.541 40.564 201.786 41.8707 201.072 43.2054L176.68 32.3652C176.213 31.7118 175.754 31.0529 175.304 30.3884C175.213 30.2536 175.078 30.1545 174.923 30.108C174.767 30.0616 174.601 30.0706 174.451 30.1336L169.916 32.06L173.136 26.1968L203.595 33.7666C203.775 33.8115 203.966 33.783 204.125 33.6873C204.284 33.5916 204.399 33.4365 204.444 33.2563C204.489 33.076 204.46 32.8853 204.365 32.726C204.269 32.5668 204.114 32.4521 203.934 32.4072L172.952 24.7072C172.801 24.6699 172.643 24.6834 172.502 24.7454C172.36 24.8074 172.243 24.9146 172.169 25.0502L168.487 31.7534L166.107 25.7334C166.039 25.5605 165.905 25.4218 165.734 25.3478C165.564 25.2737 165.371 25.2704 165.198 25.3386C165.025 25.4067 164.887 25.5407 164.813 25.7111C164.739 25.8815 164.735 26.0743 164.804 26.2472C167.539 33.1674 167.373 32.8272 167.58 33.1072C166.32 34.496 154.676 47.3802 153.43 48.7774L145.211 31.465C145.136 31.3093 145.007 31.1865 144.848 31.1201C144.689 31.0537 144.511 31.0484 144.348 31.1052C142.296 31.8206 140.171 32.3047 138.012 32.5486L139.475 28.938C139.519 28.8293 139.535 28.7114 139.521 28.595C139.508 28.4787 139.465 28.3675 139.398 28.2718C139.33 28.1761 139.24 28.0989 139.134 28.0472C139.029 27.9956 138.913 27.9711 138.796 27.9762L122.479 28.6762C121.066 28.8404 119.634 28.7011 118.279 28.2674C117.701 28.0632 117.199 27.6892 116.838 27.1945C116.477 26.6998 116.274 26.1075 116.256 25.4954C116.253 25.4034 116.233 25.3129 116.195 25.2289C116.158 25.1449 116.105 25.069 116.038 25.0057C115.971 24.9424 115.893 24.8928 115.807 24.8599C115.721 24.8269 115.629 24.8112 115.538 24.8136C115.446 24.8159 115.355 24.8364 115.271 24.8738C115.187 24.9112 115.111 24.9648 115.048 25.0315C114.985 25.0981 114.935 25.1767 114.902 25.2625C114.869 25.3483 114.853 25.4398 114.856 25.5318C114.884 26.4301 115.184 27.2988 115.716 28.0235C116.248 28.7481 116.987 29.2949 117.835 29.5918C119.366 30.0855 120.985 30.2478 122.584 30.0678L137.764 29.414L136.279 33.0834C136.234 33.1936 136.218 33.3134 136.233 33.4314C136.247 33.5495 136.292 33.6618 136.362 33.7579C136.432 33.854 136.525 33.9307 136.633 33.9807C136.741 34.0307 136.86 34.0524 136.979 34.0438C139.437 33.8631 141.865 33.385 144.208 32.62L152.608 50.323C152.658 50.4274 152.732 50.518 152.825 50.5866C152.918 50.6553 153.027 50.6998 153.141 50.7163C153.255 50.7328 153.372 50.7208 153.481 50.6812C153.589 50.6416 153.686 50.5758 153.763 50.4896L158.868 44.7692C158.435 64.211 158.413 63.0252 158.557 63.2758L163.25 71.4588C160.826 72.0664 159.093 72.352 156.71 73.0618C156.532 73.1149 156.382 73.2365 156.294 73.3999C156.206 73.5634 156.186 73.7552 156.239 73.9333C156.292 74.1113 156.414 74.261 156.577 74.3493C156.741 74.4377 156.932 74.4575 157.111 74.4044C159.561 73.6736 161.376 73.3908 164.064 72.6964L188.955 86.4472C188.623 89.9934 188.214 93.4752 187.729 96.859C187.51 98.2982 189.745 98.959 191.119 99.4896C189.898 103.796 188.333 107.997 186.438 112.052C186.329 112.287 185.997 113.005 186.52 113.476C186.714 113.736 186.999 113.913 187.318 113.973L190.62 114.953L190.222 124.839C190.119 125.333 190.208 125.848 190.471 126.278C190.733 126.709 191.15 127.024 191.636 127.159C193.263 127.883 200.665 131.267 203.396 132.422C203.481 132.458 203.571 132.476 203.663 132.477C203.755 132.478 203.847 132.46 203.932 132.426C204.017 132.391 204.095 132.34 204.16 132.276C204.226 132.211 204.278 132.135 204.314 132.05C204.349 131.965 204.368 131.875 204.369 131.783C204.37 131.691 204.352 131.599 204.318 131.514C204.283 131.429 204.232 131.351 204.168 131.286C204.103 131.22 204.027 131.168 203.942 131.132C201.511 130.095 199.096 129.022 196.697 127.912C191.679 125.616 191.86 125.777 191.685 125.586C191.552 125.306 191.577 125.987 192.043 114.464C192.05 114.308 192.004 114.155 191.913 114.028C191.822 113.901 191.692 113.808 191.542 113.764L187.719 112.636C189.728 108.333 191.372 103.87 192.634 99.2922C192.675 99.1455 192.666 98.9896 192.61 98.8481C192.554 98.7066 192.453 98.5873 192.323 98.5082C191.226 98.0965 190.156 97.6168 189.119 97.0718C189.631 93.4962 190.058 89.8184 190.4 86.0832L204.4 78.6254C204.484 78.5836 204.559 78.5253 204.62 78.454C204.682 78.3826 204.728 78.2996 204.756 78.21C204.785 78.1204 204.795 78.0259 204.786 77.9322C204.777 77.8386 204.75 77.7477 204.705 77.665ZM201.419 59.5784L199.12 69.0984C198.962 69.0464 198.798 69.013 198.632 68.999C198.361 69.013 198.095 69.0824 197.852 69.2027C197.608 69.3231 197.392 69.492 197.216 69.699L195.319 71.533L193.977 69.013C194.873 62.5814 195.835 56.077 196.836 49.665C197.619 49.5211 198.411 49.4239 199.206 49.3738C199.342 49.3737 199.475 49.3339 199.589 49.2593C199.703 49.1847 199.792 49.0785 199.847 48.9538C200.138 48.2818 200.441 47.613 200.756 46.9476L201.419 59.5784ZM173.825 66.6708C178.305 68.992 178.412 68.719 184.121 71.7738C184.469 72.4143 184.977 72.9536 185.596 73.339L188.116 75.3074L176.296 73.4048L171.78 67.1664C172.645 66.92 173.808 66.675 173.825 66.6708ZM170.903 65.961L166.506 58.8966L168.535 53.3358C169.735 53.2367 170.896 52.8595 171.925 52.234C172.033 53.1118 172.403 58.156 173.206 65.38C172.431 65.5405 171.663 65.7342 170.903 65.961ZM186.942 43.68L193.361 48.1866C192.876 48.3392 193.016 48.4148 191.279 52.8556L187.202 53.7334C185.656 53.1159 184.175 52.3487 182.778 51.443L186.852 44.548C186.995 44.2817 187.027 43.9698 186.942 43.68ZM176.267 63.2184C176.687 63.1288 179.305 63.2422 179.599 63.1722C180.72 63.5939 181.809 64.0979 182.857 64.68L183.608 69.8964C180.948 68.4964 177.728 67.0684 175.123 65.758C175.604 64.9608 175.988 64.1092 176.267 63.2212V63.2184ZM174.905 62.8432C174.728 63.2464 174.592 63.665 174.464 63.9982C174.193 61.4936 173.962 59.1402 173.775 57.12C173.89 57.428 174.007 57.7332 174.128 58.0384C174.179 58.1684 174.269 58.2799 174.385 58.3585C174.5 58.4371 174.637 58.4792 174.777 58.4794C175.066 58.4794 174.987 58.4794 177.052 57.0794C177.046 58.6616 177.194 60.2406 177.492 61.7946H176.523C176.173 61.7568 175.821 61.8407 175.527 62.0323C175.232 62.2238 175.012 62.5112 174.905 62.846V62.8432ZM182.605 62.965C181.861 62.5901 181.098 62.2542 180.32 61.9584C180.682 60.8178 181.17 59.7213 181.776 58.6894C181.852 58.7181 181.933 58.7338 182.015 58.7356C182.007 58.8798 182 58.6978 182.609 62.9678L182.605 62.965ZM181.535 55.3742L179.557 54.6406C180.052 54.1226 180.566 53.6228 181.097 53.1412C181.926 53.8223 182.803 54.4427 183.722 54.9976C183.722 55.0312 182.96 55.6976 182.624 56.0546C182.536 55.7914 182.092 55.1908 181.539 55.377L181.535 55.3742ZM180.965 56.6566C180.961 56.8606 180.977 57.0646 181.013 57.2656C180.151 58.581 179.472 60.007 178.994 61.5048L178.885 61.4712C178.471 59.7188 178.329 57.9131 178.465 56.1176L178.834 55.8642L180.965 56.6566ZM183.281 57.4252C183.991 56.64 184.826 55.9777 185.752 55.4652L186.032 55.405C185.93 56.8834 185.518 61.6336 185.416 61.915C184.81 60.3316 183.991 58.9484 183.285 57.428L183.281 57.4252ZM181.378 51.0524C180.008 52.1709 178.736 53.4046 177.576 54.74C177.384 54.8933 177.236 55.0941 177.146 55.3224L175.113 56.7056C174.484 55.0357 173.936 53.3359 173.474 51.6124C174.209 50.694 178.911 41.6724 180.646 39.5164C182.146 41.188 183.717 42.7905 185.36 44.324L181.378 51.0524ZM185.189 70.7C184.755 68.6444 184.438 66.5657 184.24 64.4742C184.588 64.0617 185.028 63.7366 185.525 63.525C185.673 63.518 185.171 63.6174 188.877 62.685C189.473 63.6328 191.024 66.486 192.287 68.8352C187.89 69.4638 185.771 70.84 185.189 70.7ZM189.151 61.201C188.373 61.3489 187.606 61.5529 186.858 61.8114C186.858 61.607 187.174 59.4314 187.462 55.1138C191.871 54.1856 191.81 54.2738 192.253 53.8818C192.549 53.5906 192.403 53.8496 193.985 49.7364C194.45 49.8274 194.924 49.8585 195.396 49.8288C194.508 55.5261 193.661 61.2299 192.855 66.9396C189.767 61.1968 189.647 61.1968 189.151 61.1968V61.201ZM200.425 44.4556C199.829 45.6241 199.266 46.8085 198.738 48.0088C197.958 48.0676 196.949 48.2678 196.052 48.3714C180.153 37.2078 181.212 37.9344 181.049 37.8714C180.139 36.8298 179.259 35.7634 178.407 34.6724L200.425 44.4556ZM176.11 33.9556C177.253 35.504 178.455 37.0076 179.716 38.4664C178.017 40.411 173.801 48.4568 172.61 50.4182C172.45 50.4158 172.293 50.457 172.155 50.5372C171.934 50.5725 171.727 50.6696 171.559 50.8172C170.837 51.3245 170.018 51.6755 169.153 51.8476C169.184 49.7476 168.824 54.8898 170.026 39.1692L176.11 33.9556ZM168.83 33.8044C169.232 33.8395 169.635 33.7479 169.982 33.5426L174.471 31.6498C174.739 32.0418 175.011 32.4314 175.287 32.8188L168.896 38.2886C168.826 38.3485 168.768 38.4217 168.727 38.5038C168.685 38.586 168.66 38.6755 168.654 38.7674L167.976 47.6322C167.525 46.9186 166.961 46.2831 166.306 45.7506C164.665 44.4367 162.837 43.3754 160.882 42.602L168.83 33.8044ZM159.88 62.741L160.3 43.8746C162.148 44.5982 163.876 45.5975 165.425 46.8384C166.71 47.8767 167.533 49.3799 167.716 51.0216C167.65 51.8826 168.046 50.5904 165.074 58.7384C165.037 58.838 165.024 58.9446 165.035 59.0501C165.046 59.1556 165.081 59.2573 165.137 59.3474L169.533 66.4076C168.932 66.619 168.339 66.8514 167.758 67.1076C167.435 67.2346 167.136 67.4134 166.871 67.6368C166.548 67.8734 165.257 69.9902 164.57 70.9226L159.88 62.741ZM189.106 84.917L165.568 71.9152C165.848 71.5568 166.248 70.966 166.902 69.9706C167.237 69.4596 167.653 68.8254 167.742 68.7274C167.909 68.5858 168.098 68.4732 168.302 68.3942C168.978 68.1011 169.667 67.837 170.37 67.6018L175.343 74.4618C175.452 74.6119 175.616 74.7126 175.799 74.7418L189.649 76.9706C189.7 77.49 189.204 83.7886 189.106 84.917ZM189.651 74.7278C185.237 71.288 186.522 72.3114 186.106 71.9866C188.31 71.0711 190.626 70.4553 192.994 70.1554C193.25 70.6342 194.243 72.4948 194.394 72.786L190.404 75.397C190.19 75.1356 189.935 74.9097 189.651 74.7278Z" fill="white"/>
<path d="M204.26 206.36H80.3602C80.1745 206.36 79.9965 206.286 79.8652 206.155C79.7339 206.024 79.6602 205.846 79.6602 205.66V25.2308C79.6602 25.0451 79.7339 24.8671 79.8652 24.7358C79.9965 24.6045 80.1745 24.5308 80.3602 24.5308H204.26C204.446 24.5308 204.624 24.6045 204.755 24.7358C204.886 24.8671 204.96 25.0451 204.96 25.2308V205.66C204.96 205.846 204.886 206.024 204.755 206.155C204.624 206.286 204.446 206.36 204.26 206.36ZM81.0672 204.96H203.567V25.9308H81.0602L81.0672 204.96Z" fill="#760303"/>
<path d="M215.88 13.2479L254.66 62.7505C256.072 64.5607 256.814 66.8041 256.76 69.0995L251.644 271.46C251.63 271.789 251.512 272.106 251.308 272.365C251.103 272.624 250.823 272.813 250.505 272.903C250.188 272.994 249.85 272.982 249.54 272.87C249.229 272.758 248.962 272.551 248.776 272.279L215.951 222.32C215.202 221.179 214.805 219.843 214.808 218.478V13.6399C214.824 13.5239 214.872 13.4147 214.946 13.3238C215.02 13.2328 215.117 13.1636 215.227 13.1234C215.337 13.0832 215.455 13.0735 215.571 13.0954C215.686 13.1174 215.793 13.17 215.88 13.2479Z" fill="#E32020"/>
<path d="M262.686 63.3344L222.026 13.0464C221.693 12.6411 221.272 12.3166 220.796 12.0971C220.319 11.8777 219.799 11.7691 219.275 11.7794L215.366 11.8998C215.227 11.8989 215.089 11.9288 214.962 11.9874C214.835 12.046 214.723 12.1317 214.634 12.2386C214.158 10.6492 213.221 9.2367 211.942 8.17963C210.663 7.12255 209.1 6.46837 207.449 6.2998H73.7238C72.919 6.30329 72.1228 6.46548 71.3808 6.77711C70.6387 7.08874 69.9655 7.54368 69.3995 8.11587C68.8336 8.68807 68.386 9.36628 68.0826 10.1117C67.7791 10.8571 67.6256 11.655 67.631 12.4598V212.114C67.8662 215.003 70.3666 221.582 75.4486 221.582H209.16C210.132 221.582 211.09 221.35 211.954 220.905C212.818 220.46 213.564 219.815 214.128 219.024C214.219 220.336 214.647 221.602 215.369 222.701L248.2 272.674C248.486 273.092 248.902 273.403 249.385 273.557C249.681 273.782 249.56 273.711 254.789 273.578C255.443 273.561 256.066 273.293 256.529 272.831C256.992 272.368 257.261 271.746 257.279 271.092L263.936 67.0444C263.993 65.6956 263.548 64.3736 262.686 63.3344ZM213.868 215.474C213.867 216.723 213.37 217.921 212.487 218.804C211.604 219.687 210.406 220.184 209.157 220.185H75.4486C74.1995 220.184 73.0019 219.687 72.1186 218.804C71.2354 217.921 70.7387 216.723 70.7376 215.474V15.8576C70.7483 14.6147 71.2492 13.4263 72.1313 12.5507C73.0135 11.675 74.2056 11.183 75.4486 11.1816H209.16C210.409 11.1831 211.607 11.6801 212.49 12.5636C213.373 13.447 213.87 14.6448 213.871 15.894L213.868 215.474ZM256.06 69.0828C250.758 286.548 251.081 271.653 250.66 272.039C250.569 272.124 250.461 272.188 250.343 272.227C250.225 272.266 250.1 272.279 249.976 272.266C249.853 272.253 249.734 272.213 249.627 272.15C249.52 272.087 249.428 272.001 249.357 271.899L216.532 221.936C215.857 220.91 215.499 219.708 215.503 218.48V13.9032L254.108 63.1832C255.419 64.866 256.109 66.9501 256.06 69.0828Z" fill="#760303"/>
<path d="M247.753 187.855L238.894 174.728C238.706 174.448 238.73 176.593 239.44 140.899C239.443 140.756 239.489 140.617 239.574 140.501C239.658 140.385 239.776 140.298 239.911 140.252C240.046 140.205 240.193 140.201 240.331 140.24C240.468 140.279 240.591 140.359 240.681 140.47C250.341 152.279 249.688 151.382 249.681 151.749L249.032 187.475C249.03 187.624 248.98 187.768 248.89 187.886C248.799 188.005 248.674 188.091 248.531 188.134C248.389 188.176 248.237 188.172 248.097 188.121C247.957 188.071 247.836 187.978 247.753 187.855ZM240.177 174.135L247.673 185.241L248.276 151.987L240.8 142.829L240.177 174.135Z" fill="#760303"/>
<path d="M238.42 61.0499L220.564 34.0103C220.122 33.3453 219.118 33.8941 219.116 34.3953V214.978C219.116 215.118 218.995 215.249 219.069 215.363C225.264 224.864 228.243 229.408 233.97 238.151C234.052 238.277 234.172 238.373 234.313 238.425C234.453 238.478 234.607 238.484 234.751 238.442C234.895 238.4 235.022 238.314 235.113 238.195C235.204 238.075 235.255 237.93 235.257 237.78C238.607 53.4675 238.604 61.3327 238.42 61.0499ZM225.43 44.4207L230.491 51.5845C230.13 51.9121 230.351 44.1084 228.32 226.95L225.008 221.883C225.066 221.782 225.428 221.663 225.428 221.537L225.43 44.4207ZM220.516 36.7207L224.404 42.3669C223.857 43.9321 224.037 23.3912 224.037 219.895L220.516 214.771V36.7207ZM233.901 235.483L229.701 229.055L231.645 53.3289L237.134 61.6407L233.901 235.483Z" fill="#760303"/>
<path d="M221.446 26.6475C220.298 26.6475 219.433 28.0041 219.433 29.8059C219.433 31.6077 220.298 32.9629 221.446 32.9629C222.594 32.9629 223.46 31.6063 223.46 29.8059C223.46 28.0055 222.599 26.6475 221.446 26.6475Z" fill="#760303"/>
</svg>
