<svg width="24" height="24" viewBox="0 0 24 24" fill="none" xmlns="http://www.w3.org/2000/svg">
<path d="M12 7C12.5523 7 13 6.55228 13 6C13 5.44772 12.5523 5 12 5C11.4477 5 11 5.44772 11 6C11 6.55228 11.4477 7 12 7Z" fill="#8592A3"/>
<path d="M6 17H18V19H6V17ZM10 11.83L12.792 14.624L16.724 10.689L18 12V8H14L15.31 9.275L12.791 11.794L10 9L6 13L7.414 14.414L10 11.83Z" fill="#8592A3"/>
<path d="M19 2.99999H15.702C15.6038 2.85213 15.497 2.71022 15.382 2.57499L15.372 2.56299C14.6373 1.70724 13.6036 1.16427 12.482 1.04499C12.1635 0.984352 11.8365 0.984352 11.518 1.04499C10.3964 1.16427 9.36273 1.70724 8.628 2.56299L8.618 2.57499C8.50307 2.70989 8.39622 2.85147 8.298 2.99899L5 2.99999C4.20459 3.00078 3.44199 3.31711 2.87956 3.87955C2.31712 4.44198 2.00079 5.20458 2 5.99999V20C2.00079 20.7954 2.31712 21.558 2.87956 22.1204C3.44199 22.6829 4.20459 22.9992 5 23H19C19.7954 22.9992 20.558 22.6829 21.1204 22.1204C21.6829 21.558 21.9992 20.7954 22 20V5.99999C21.9992 5.20458 21.6829 4.44198 21.1204 3.87955C20.558 3.31711 19.7954 3.00078 19 2.99999ZM20 20C20 20.2652 19.8946 20.5196 19.7071 20.7071C19.5196 20.8946 19.2652 21 19 21H5C4.73486 20.9997 4.48066 20.8943 4.29319 20.7068C4.10571 20.5193 4.00026 20.2651 4 20V5.99999C4.00026 5.73485 4.10571 5.48065 4.29319 5.29318C4.48066 5.1057 4.73486 5.00025 5 4.99999H9.55C9.66476 4.43485 9.97136 3.92675 10.4179 3.5618C10.8644 3.19685 11.4233 2.99748 12 2.99748C12.5767 2.99748 13.1356 3.19685 13.5821 3.5618C14.0286 3.92675 14.3352 4.43485 14.45 4.99999H19C19.2651 5.00025 19.5193 5.1057 19.7068 5.29318C19.8943 5.48065 19.9997 5.73485 20 5.99999V20Z" fill="#8592A3"/>
</svg>
